<?xml version="1.0" encoding="UTF-8"?>
<svg xmlns="http://www.w3.org/2000/svg" xmlns:xlink="http://www.w3.org/1999/xlink" width="600px" height="388px" viewBox="0 0 598 388" version="1.1">
<g id="surface1">
<path style="fill:none;stroke-width:0.501271;stroke-linecap:round;stroke-linejoin:round;stroke:rgb(91.764706%,91.764706%,91.764706%);stroke-opacity:1;stroke-miterlimit:0.9;" d="M 279.142404 281.482974 L 369.176861 281.482974 L 369.176277 327.095164 L 279.141821 327.095164 Z M 279.142404 281.482974 " transform="matrix(4.783065,0,-3.60292,3.150628,-155.155805,-643.656657)"/>
<path style="fill-rule:nonzero;fill:rgb(40.000001%,40.000001%,40.000001%);fill-opacity:0.356863;stroke-width:0.198481;stroke-linecap:round;stroke-linejoin:round;stroke:rgb(91.764706%,91.764706%,91.764706%);stroke-opacity:1;stroke-dasharray:1.19089,1.19089;stroke-miterlimit:0.9;" d="M 163.248198 157.490124 C 163.248257 154.678375 158.424379 152.399495 152.473866 152.399103 C 146.52258 152.398974 141.699475 154.678671 141.699415 157.49042 C 141.699356 160.30217 146.523495 162.581821 152.473747 162.581441 C 158.42426 162.581834 163.248139 160.301873 163.248198 157.490124 Z M 163.248198 157.490124 " transform="matrix(4.527678,1.544342,-1.52948,4.538744,-155.155805,-643.656657)"/>
<path style="fill:none;stroke-width:0.500962;stroke-linecap:round;stroke-linejoin:round;stroke:rgb(91.764706%,91.764706%,91.764706%);stroke-opacity:1;stroke-miterlimit:0.9;" d="M 122.822587 198.762542 C 122.822537 195.990765 117.673492 193.74371 111.322144 193.74371 C 104.970796 193.74371 99.82228 195.990765 99.822329 198.762542 C 99.82245 201.535138 104.970679 203.782193 111.322027 203.782193 C 117.673374 203.782193 122.822707 201.535138 122.822587 198.762542 Z M 122.822587 198.762542 " transform="matrix(4.783065,0,-0.418645,4.771871,-155.155805,-643.656657)"/>
<path style="fill:none;stroke-width:0.4;stroke-linecap:round;stroke-linejoin:round;stroke:rgb(91.764706%,91.764706%,91.764706%);stroke-opacity:1;stroke-miterlimit:0.9;" d="M 82.435123 198.005435 L 103.265453 141.358854 " transform="matrix(4.783065,0,0,4.790255,-155.155805,-643.656657)"/>
<path style="fill:none;stroke-width:0.40077;stroke-linecap:round;stroke-linejoin:round;stroke:rgb(91.764706%,91.764706%,91.764706%);stroke-opacity:1;stroke-miterlimit:0.9;" d="M 178.645358 116.009169 C 178.645359 113.940003 170.377824 112.26217 160.178733 112.262428 C 149.979642 112.262685 141.711573 113.939777 141.711573 116.008943 C 141.711572 118.078109 149.979888 119.755764 160.17898 119.755506 C 170.377289 119.755427 178.645358 118.078335 178.645358 116.009169 Z M 178.645358 116.009169 " transform="matrix(4.668731,1.041109,-1.444195,4.56668,-155.155805,-643.656657)"/>
<path style="fill:none;stroke-width:0.3;stroke-linecap:round;stroke-linejoin:round;stroke:rgb(91.764706%,91.764706%,91.764706%);stroke-opacity:1;stroke-miterlimit:0.9;" d="M 94.539189 198.257411 L 94.540006 134.517979 " transform="matrix(4.783065,0,0,4.790255,-155.155805,-643.656657)"/>
<path style="fill:none;stroke-width:0.4;stroke-linecap:round;stroke-linejoin:round;stroke:rgb(91.764706%,91.764706%,91.764706%);stroke-opacity:1;stroke-miterlimit:0.9;" d="M 104.257723 200.08159 L 139.128475 149.809441 " transform="matrix(4.783065,0,0,4.790255,-155.155805,-643.656657)"/>
<path style="fill-rule:nonzero;fill:rgb(75.294119%,75.294119%,75.294119%);fill-opacity:1;stroke-width:0.3;stroke-linecap:round;stroke-linejoin:round;stroke:rgb(91.764706%,91.764706%,91.764706%);stroke-opacity:1;stroke-miterlimit:0.9;" d="M 94.713143 198.092689 L 127.284931 134.735707 " transform="matrix(4.783065,0,0,4.790255,-155.155805,-643.656657)"/>
<path style=" stroke:none;fill-rule:nonzero;fill:rgb(91.764706%,91.764706%,91.764706%);fill-opacity:1;" d="M 222.828125 321.460938 C 222.851562 321.351562 222.90625 321.222656 222.90625 321.089844 C 222.90625 320.851562 222.640625 320.851562 222.589844 320.851562 C 222.589844 320.851562 221.402344 320.957031 221.269531 320.957031 C 220.847656 320.984375 220.507812 321.035156 220.058594 321.0625 C 219.453125 321.117188 219.292969 321.140625 219.292969 321.566406 C 219.292969 321.828125 219.476562 321.828125 219.820312 321.828125 C 221.007812 321.828125 221.035156 322.039062 221.035156 322.277344 C 221.035156 322.4375 220.980469 322.621094 220.953125 322.699219 L 219.476562 328.589844 C 219.214844 327.953125 218.554688 326.976562 217.289062 326.976562 C 214.574219 326.976562 211.621094 330.515625 211.621094 334.105469 C 211.621094 336.507812 213.019531 337.910156 214.652344 337.910156 C 215.996094 337.910156 217.132812 336.878906 217.816406 336.0625 C 218.054688 337.511719 219.1875 337.910156 219.925781 337.910156 C 220.636719 337.910156 221.21875 337.488281 221.667969 336.617188 C 222.035156 335.769531 222.378906 334.292969 222.378906 334.210938 C 222.378906 334.082031 222.300781 333.976562 222.140625 333.976562 C 221.929688 333.976562 221.902344 334.105469 221.796875 334.476562 C 221.429688 335.902344 220.980469 337.433594 219.980469 337.433594 C 219.292969 337.433594 219.242188 336.800781 219.242188 336.324219 C 219.242188 336.21875 219.242188 335.71875 219.398438 335.03125 Z M 217.921875 334.792969 C 217.816406 335.191406 217.816406 335.242188 217.472656 335.71875 C 216.945312 336.378906 215.867188 337.433594 214.734375 337.433594 C 213.757812 337.433594 213.175781 336.535156 213.175781 335.109375 C 213.175781 333.761719 213.941406 331.042969 214.390625 330.039062 C 215.234375 328.351562 216.367188 327.480469 217.289062 327.480469 C 218.898438 327.480469 219.214844 329.460938 219.214844 329.644531 C 219.214844 329.671875 219.136719 329.988281 219.109375 330.039062 Z M 217.921875 334.792969 "/>
<path style=" stroke:none;fill-rule:nonzero;fill:rgb(91.764706%,91.764706%,91.764706%);fill-opacity:1;" d="M 227.074219 334.976562 C 226.230469 336.402344 225.414062 336.90625 224.253906 336.957031 C 223.992188 336.984375 223.78125 336.984375 223.78125 337.433594 C 223.78125 337.566406 223.910156 337.671875 224.070312 337.671875 C 224.519531 337.671875 225.597656 337.617188 226.046875 337.617188 C 226.734375 337.617188 227.523438 337.671875 228.183594 337.671875 C 228.339844 337.671875 228.632812 337.671875 228.632812 337.222656 C 228.632812 336.984375 228.421875 336.957031 228.289062 336.957031 C 227.734375 336.933594 227.261719 336.722656 227.261719 336.140625 C 227.261719 335.796875 227.417969 335.53125 227.734375 335.003906 L 229.582031 331.941406 L 235.75 331.941406 C 235.777344 332.179688 235.777344 332.363281 235.800781 332.574219 C 235.855469 333.210938 236.144531 335.742188 236.144531 336.191406 C 236.144531 336.933594 234.90625 336.957031 234.535156 336.957031 C 234.273438 336.957031 234.007812 336.957031 234.007812 337.40625 C 234.007812 337.671875 234.21875 337.671875 234.351562 337.671875 C 234.773438 337.671875 235.25 337.617188 235.671875 337.617188 L 237.042969 337.617188 C 238.519531 337.617188 239.597656 337.671875 239.625 337.671875 C 239.785156 337.671875 240.046875 337.671875 240.046875 337.222656 C 240.046875 336.957031 239.835938 336.957031 239.46875 336.957031 C 238.148438 336.957031 238.121094 336.746094 238.042969 336.035156 L 236.566406 320.90625 C 236.515625 320.402344 236.410156 320.375 236.144531 320.375 C 235.90625 320.375 235.777344 320.402344 235.539062 320.773438 Z M 229.976562 331.253906 L 234.851562 323.097656 L 235.671875 331.253906 Z M 229.976562 331.253906 "/>
<path style=" stroke:none;fill-rule:nonzero;fill:rgb(91.764706%,91.764706%,91.764706%);fill-opacity:1;" d="M 322.519531 213.671875 C 322.519531 211.214844 321.726562 208.8125 319.75 208.8125 C 316.375 208.8125 312.765625 215.917969 312.765625 221.25 C 312.765625 222.359375 313 226.109375 315.53125 226.109375 C 318.828125 226.109375 322.519531 219.191406 322.519531 213.671875 Z M 315.191406 217.105469 C 315.53125 215.679688 316.058594 213.617188 317.007812 211.902344 C 317.828125 210.449219 318.671875 209.289062 319.722656 209.289062 C 320.515625 209.289062 321.070312 209.976562 321.070312 212.296875 C 321.070312 213.171875 320.988281 214.382812 320.277344 217.105469 Z M 320.121094 217.816406 C 319.511719 220.195312 319.011719 221.726562 318.144531 223.257812 C 317.429688 224.496094 316.585938 225.632812 315.558594 225.632812 C 314.820312 225.632812 314.214844 225.050781 314.214844 222.648438 C 314.214844 221.066406 314.582031 219.429688 314.980469 217.816406 Z M 320.121094 217.816406 "/>
<path style=" stroke:none;fill-rule:nonzero;fill:rgb(91.764706%,91.764706%,91.764706%);fill-opacity:1;" d="M 433.585938 82.835938 C 433.613281 82.730469 433.664062 82.597656 433.664062 82.464844 C 433.664062 82.226562 433.402344 82.226562 433.347656 82.226562 C 433.347656 82.226562 432.164062 82.332031 432.03125 82.332031 C 431.609375 82.359375 431.265625 82.414062 430.816406 82.4375 C 430.210938 82.492188 430.054688 82.519531 430.054688 82.941406 C 430.054688 83.203125 430.238281 83.203125 430.582031 83.203125 C 431.765625 83.203125 431.792969 83.414062 431.792969 83.652344 C 431.792969 83.8125 431.742188 83.996094 431.714844 84.074219 L 430.238281 89.964844 C 429.972656 89.332031 429.316406 88.351562 428.050781 88.351562 C 425.332031 88.351562 422.382812 91.890625 422.382812 95.484375 C 422.382812 97.886719 423.777344 99.285156 425.414062 99.285156 C 426.757812 99.285156 427.890625 98.253906 428.578125 97.4375 C 428.8125 98.890625 429.949219 99.285156 430.6875 99.285156 C 431.398438 99.285156 431.976562 98.863281 432.425781 97.992188 C 432.796875 97.144531 433.136719 95.667969 433.136719 95.589844 C 433.136719 95.457031 433.058594 95.351562 432.902344 95.351562 C 432.691406 95.351562 432.664062 95.484375 432.558594 95.851562 C 432.1875 97.277344 431.742188 98.808594 430.738281 98.808594 C 430.054688 98.808594 430 98.175781 430 97.699219 C 430 97.59375 430 97.09375 430.160156 96.40625 Z M 428.683594 96.167969 C 428.578125 96.566406 428.578125 96.617188 428.234375 97.09375 C 427.707031 97.753906 426.625 98.808594 425.492188 98.808594 C 424.515625 98.808594 423.9375 97.910156 423.9375 96.484375 C 423.9375 95.140625 424.699219 92.417969 425.148438 91.417969 C 425.992188 89.726562 427.125 88.855469 428.050781 88.855469 C 429.65625 88.855469 429.972656 90.835938 429.972656 91.019531 C 429.972656 91.046875 429.894531 91.363281 429.867188 91.417969 Z M 428.683594 96.167969 "/>
<path style=" stroke:none;fill-rule:nonzero;fill:rgb(91.764706%,91.764706%,91.764706%);fill-opacity:1;" d="M 448.089844 89.9375 C 448.089844 89.226562 447.90625 88.328125 447.0625 88.328125 C 446.5625 88.328125 446.007812 88.933594 446.007812 89.4375 C 446.007812 89.648438 446.113281 89.777344 446.296875 90.015625 C 446.667969 90.414062 447.140625 91.074219 447.140625 92.207031 C 447.140625 93.078125 446.589844 94.453125 446.21875 95.21875 C 445.535156 96.539062 444.425781 97.699219 443.160156 97.699219 C 441.632812 97.699219 441.050781 96.722656 440.789062 95.351562 C 441.050781 94.742188 441.605469 93.160156 441.605469 92.523438 C 441.605469 92.261719 441.527344 92.050781 441.210938 92.050781 C 441.023438 92.050781 440.839844 92.128906 440.707031 92.339844 C 440.367188 92.867188 440.074219 94.769531 440.074219 95.296875 C 439.628906 96.195312 438.308594 97.699219 436.78125 97.699219 C 435.144531 97.699219 434.722656 96.25 434.722656 94.875 C 434.722656 92.367188 436.28125 90.148438 436.726562 89.542969 C 436.964844 89.171875 437.125 88.933594 437.125 88.882812 C 437.125 88.722656 437.042969 88.460938 436.832031 88.460938 C 436.4375 88.460938 436.304688 88.777344 436.121094 89.066406 C 434.882812 90.96875 434.011719 93.660156 434.011719 95.984375 C 434.011719 97.488281 434.566406 99.285156 436.386719 99.285156 C 438.386719 99.285156 439.652344 97.570312 440.15625 96.644531 C 440.367188 98.015625 441.078125 99.285156 442.84375 99.285156 C 444.691406 99.285156 445.851562 97.675781 446.71875 95.695312 C 447.351562 94.292969 448.089844 91.257812 448.089844 89.9375 Z M 448.089844 89.9375 "/>
<path style=" stroke:none;fill-rule:nonzero;fill:rgb(91.764706%,91.764706%,91.764706%);fill-opacity:1;" d="M 428.394531 9.574219 C 428.605469 8.675781 428.710938 8.652344 429.660156 8.652344 L 432.796875 8.652344 C 435.539062 8.652344 435.539062 10.972656 435.539062 11.183594 C 435.539062 13.140625 433.5625 15.648438 430.371094 15.648438 L 426.890625 15.648438 Z M 432.480469 15.832031 C 435.117188 15.355469 437.515625 13.507812 437.515625 11.289062 C 437.515625 9.390625 435.855469 7.9375 433.113281 7.9375 L 425.335938 7.9375 C 424.886719 7.9375 424.675781 7.9375 424.675781 8.386719 C 424.675781 8.652344 424.886719 8.652344 425.257812 8.652344 C 426.730469 8.652344 426.730469 8.835938 426.730469 9.097656 C 426.730469 9.152344 426.730469 9.285156 426.628906 9.652344 L 423.359375 22.699219 C 423.148438 23.542969 423.09375 23.78125 421.40625 23.78125 C 420.933594 23.78125 420.695312 23.78125 420.695312 24.230469 C 420.695312 24.492188 420.851562 24.492188 421.328125 24.492188 L 429.632812 24.492188 C 433.324219 24.492188 436.199219 21.695312 436.199219 19.238281 C 436.199219 17.257812 434.429688 16.042969 432.480469 15.832031 Z M 429.050781 23.78125 L 425.785156 23.78125 C 425.441406 23.78125 425.386719 23.78125 425.257812 23.753906 C 424.992188 23.753906 424.964844 23.699219 424.964844 23.488281 C 424.964844 23.332031 424.992188 23.171875 425.046875 22.960938 L 426.757812 16.121094 L 431.292969 16.121094 C 434.140625 16.121094 434.140625 18.789062 434.140625 19 C 434.140625 21.324219 432.058594 23.78125 429.050781 23.78125 Z M 429.050781 23.78125 "/>
<path style="fill:none;stroke-width:0.2;stroke-linecap:round;stroke-linejoin:round;stroke:rgb(91.764706%,91.764706%,91.764706%);stroke-opacity:1;stroke-miterlimit:0.9;" d="M -148.760881 141.322671 C -147.927058 143.736597 -148.149042 146.365345 -149.377317 148.625074 " transform="matrix(1.32716,-4.602161,4.595253,1.329155,-155.155805,-643.656657)"/>
</g>
</svg>
