<?xml version="1.0" encoding="UTF-8"?>
<svg xmlns="http://www.w3.org/2000/svg" xmlns:xlink="http://www.w3.org/1999/xlink" width="600px" height="199px" viewBox="0 0 600 199" version="1.1">
<defs>
<clipPath id="clip1">
  <rect x="0" y="0" width="5" height="25"/>
</clipPath>
<g id="surface5" clip-path="url(#clip1)">
<path style=" stroke:none;fill-rule:nonzero;fill:rgb(91.764706%,91.764706%,91.764706%);fill-opacity:1;" d="M 0 -1.25 L 2.5 -1.25 L 2.5 26.25 L 0 26.25 Z M 0 -1.25 "/>
</g>
<pattern id="pattern0" patternUnits="userSpaceOnUse" width="5" height="25" patternTransform="matrix(0.658179,0.38,-0.38,0.658179,0,0.000000000000028422)">
<use xlink:href="#surface5"/>
</pattern>
</defs>
<g id="surface1">
<path style=" stroke:none;fill-rule:nonzero;fill:rgb(91.764706%,91.764706%,91.764706%);fill-opacity:1;" d="M 1.34375 101.027344 C 14.097656 114.804688 25.484375 119.785156 32.226562 121.589844 C 34.121094 123.546875 33.578125 126.132812 33.496094 126.460938 C 33.210938 127.589844 33.804688 128.765625 34.824219 129.085938 C 35.851562 129.417969 36.929688 128.765625 37.222656 127.625 C 37.257812 127.46875 37.835938 125.164062 37.152344 122.527344 C 37.984375 122.613281 38.480469 122.609375 38.589844 122.609375 C 38.621094 122.605469 38.652344 122.597656 38.691406 122.597656 C 40.425781 123.957031 40.550781 126.152344 40.5625 126.449219 C 40.582031 127.621094 41.457031 128.558594 42.519531 128.546875 C 43.589844 128.535156 44.453125 127.570312 44.441406 126.390625 C 44.4375 126.132812 44.320312 120.066406 38.824219 117.902344 C 38.652344 117.835938 38.492188 117.804688 38.320312 117.789062 C 40.132812 114.929688 41.074219 112.46875 41.367188 111.632812 C 45.070312 110.140625 46.933594 102.597656 46.867188 95.160156 C 46.808594 88.921875 45.394531 82.644531 42.742188 79.945312 C 42.460938 78.90625 41.027344 74.140625 37.273438 70.574219 C 37.691406 70.460938 38.109375 70.335938 38.535156 70.230469 C 38.8125 70.15625 39.058594 70.019531 39.265625 69.84375 C 39.375 69.816406 39.484375 69.78125 39.585938 69.730469 C 41.050781 69.003906 43.371094 66.558594 42.742188 61.992188 C 42.59375 60.925781 41.753906 60.164062 40.808594 60.175781 C 40.714844 60.175781 40.628906 60.1875 40.539062 60.195312 C 39.476562 60.371094 38.75 61.464844 38.90625 62.632812 C 39.222656 64.957031 38.183594 65.710938 37.953125 65.851562 C 37.828125 65.910156 37.71875 65.988281 37.613281 66.074219 C 37.21875 66.175781 36.839844 66.289062 36.460938 66.40625 C 36.472656 65.4375 36.324219 64.363281 35.917969 63.171875 C 35.621094 62.300781 34.875 61.769531 34.082031 61.78125 C 33.863281 61.78125 33.640625 61.828125 33.425781 61.914062 C 32.417969 62.328125 31.910156 63.554688 32.285156 64.664062 C 32.875 66.402344 32.449219 67.371094 32.152344 67.792969 C 8.722656 76.488281 1.207031 97.78125 0.875 98.742188 C 0.617188 99.539062 0.796875 100.4375 1.34375 101.027344 Z M 39.789062 82.851562 C 40.347656 82.84375 41.660156 84.925781 42.425781 88.949219 C 42.277344 88.859375 42.128906 88.808594 41.976562 88.8125 C 40.796875 88.824219 39.871094 91.800781 39.902344 95.457031 C 39.9375 99.117188 40.917969 102.074219 42.09375 102.058594 C 42.21875 102.058594 42.335938 102.015625 42.453125 101.953125 C 41.75 105.6875 40.546875 107.632812 40.011719 107.640625 C 39.214844 107.648438 36.871094 103.410156 36.796875 95.277344 C 36.722656 87.148438 38.988281 82.859375 39.789062 82.851562 Z M 32.609375 72.148438 C 32.703125 72.234375 32.804688 72.316406 32.914062 72.386719 C 35.707031 74.097656 37.351562 76.925781 38.226562 78.933594 C 34.65625 80.617188 32.851562 88.011719 32.917969 95.320312 C 32.980469 101.871094 34.535156 108.453125 37.453125 110.90625 C 36.898438 112.265625 35.6875 114.851562 33.664062 117.480469 C 33.414062 117.363281 33.15625 117.308594 32.902344 117.308594 C 32.886719 117.308594 32.871094 117.320312 32.847656 117.320312 C 26.789062 115.617188 16.53125 111.078125 5.019531 99.003906 C 6.949219 94.511719 14.660156 79.226562 32.609375 72.148438 Z M 32.609375 72.148438 "/>
<path style="fill-rule:nonzero;fill:rgb(0%,0%,0%);fill-opacity:1;stroke-width:2.98583;stroke-linecap:round;stroke-linejoin:round;stroke:rgb(91.764706%,91.764706%,91.764706%);stroke-opacity:1;stroke-miterlimit:0.9;" d="M 24.397494 77.670515 L -378.304473 133.349673 " transform="matrix(-1.324213,0.0478999,-0.0477992,-1.327003,88.332554,197.056604)"/>
<path style="fill-rule:nonzero;fill:rgb(0%,0%,0%);fill-opacity:1;stroke-width:3.19573;stroke-linecap:round;stroke-linejoin:round;stroke:rgb(91.764706%,91.764706%,91.764706%);stroke-opacity:1;stroke-miterlimit:0.9;" d="M 24.597531 75.887988 L -372.182032 -13.300486 " transform="matrix(-1.324213,0.0478999,-0.0477992,-1.327003,88.332554,197.056604)"/>
<path style="fill-rule:nonzero;fill:url(#pattern0);stroke-width:2.98583;stroke-linecap:round;stroke-linejoin:round;stroke:rgb(91.764706%,91.764706%,91.764706%);stroke-opacity:1;stroke-miterlimit:0.9;" d="M 384.078707 -73.083337 C 384.078713 -32.781391 379.199865 -0.113281 373.186055 -0.11328 C 367.172244 -0.113279 362.296336 -32.781388 362.29633 -73.083334 C 362.296325 -113.382338 367.172224 -146.05339 373.186035 -146.053391 C 379.199846 -146.053392 384.078702 -113.382341 384.078707 -73.083337 Z M 384.078707 -73.083337 " transform="matrix(1.325075,0.000000177764,-0.00000017739,1.327867,88.332554,197.056604)"/>
<path style="fill:none;stroke-width:0.957204;stroke-linecap:round;stroke-linejoin:round;stroke:rgb(91.764706%,91.764706%,91.764706%);stroke-opacity:1;stroke-miterlimit:0.9;" d="M 60.344061 -75.410216 C 60.344062 -67.902876 57.652588 -61.816399 54.336148 -61.816399 C 51.01676 -61.816398 48.328232 -67.902874 48.328231 -75.410215 C 48.32823 -82.917555 51.016757 -89.004032 54.336144 -89.004032 C 57.652584 -89.004033 60.34406 -82.917557 60.344061 -75.410216 Z M 60.344061 -75.410216 " transform="matrix(1.325075,0.000000177764,-0.00000017739,1.327867,88.332554,197.056604)"/>
<path style=" stroke:none;fill-rule:nonzero;fill:rgb(91.764706%,91.764706%,91.764706%);fill-opacity:1;" d="M 188.863281 92.921875 C 188.863281 92.171875 188.667969 91.234375 187.785156 91.234375 C 187.261719 91.234375 186.683594 91.867188 186.683594 92.394531 C 186.683594 92.617188 186.792969 92.753906 186.984375 93.003906 C 187.371094 93.417969 187.871094 94.109375 187.871094 95.300781 C 187.871094 96.210938 187.289062 97.652344 186.902344 98.453125 C 186.183594 99.835938 185.027344 101.054688 183.699219 101.054688 C 182.097656 101.054688 181.492188 100.03125 181.214844 98.589844 C 181.492188 97.953125 182.070312 96.296875 182.070312 95.632812 C 182.070312 95.355469 181.988281 95.132812 181.65625 95.132812 C 181.464844 95.132812 181.269531 95.214844 181.132812 95.4375 C 180.773438 95.992188 180.472656 97.984375 180.472656 98.535156 C 180 99.476562 178.621094 101.054688 177.019531 101.054688 C 175.308594 101.054688 174.867188 99.53125 174.867188 98.09375 C 174.867188 95.464844 176.496094 93.140625 176.964844 92.503906 C 177.214844 92.117188 177.378906 91.867188 177.378906 91.8125 C 177.378906 91.648438 177.296875 91.371094 177.074219 91.371094 C 176.660156 91.371094 176.523438 91.703125 176.328125 92.007812 C 175.03125 94 174.121094 96.820312 174.121094 99.253906 C 174.121094 100.832031 174.703125 102.714844 176.605469 102.714844 C 178.703125 102.714844 180.027344 100.914062 180.554688 99.945312 C 180.773438 101.386719 181.519531 102.714844 183.371094 102.714844 C 185.300781 102.714844 186.515625 101.027344 187.425781 98.949219 C 188.089844 97.484375 188.863281 94.304688 188.863281 92.921875 Z M 188.863281 92.921875 "/>
</g>
</svg>
