<?xml version="1.0" encoding="UTF-8" standalone="no"?>
<!-- Created with Inkscape (http://www.inkscape.org/) -->

<svg
   width="150.80234mm"
   height="150.80237mm"
   viewBox="0 0 150.80234 150.80237"
   version="1.1"
   id="svg1"
   inkscape:export-filename="Mean_anomaly_diagram.svg"
   inkscape:export-xdpi="96"
   inkscape:export-ydpi="96"
   xmlns:inkscape="http://www.inkscape.org/namespaces/inkscape"
   xmlns:sodipodi="http://sodipodi.sourceforge.net/DTD/sodipodi-0.dtd"
   xmlns="http://www.w3.org/2000/svg"
   xmlns:svg="http://www.w3.org/2000/svg">
  <sodipodi:namedview
     id="namedview1"
     pagecolor="#ffffff"
     bordercolor="#000000"
     borderopacity="0.25"
     inkscape:showpageshadow="2"
     inkscape:pageopacity="0.0"
     inkscape:pagecheckerboard="0"
     inkscape:deskcolor="#d1d1d1"
     inkscape:document-units="mm"
     showguides="true"
     inkscape:zoom="1.7582795"
     inkscape:cx="416.31607"
     inkscape:cy="212.70794"
     inkscape:window-width="1020"
     inkscape:window-height="1022"
     inkscape:window-x="0"
     inkscape:window-y="0"
     inkscape:window-maximized="1"
     inkscape:current-layer="layer1">
    <sodipodi:guide
       position="34.248109,75.837251"
       orientation="0,-1"
       id="guide1"
       inkscape:locked="false" />
    <sodipodi:guide
       position="75.401168,106.15435"
       orientation="0,-1"
       id="guide3"
       inkscape:locked="false" />
    <sodipodi:guide
       position="75.401168,45.410542"
       orientation="0,-1"
       id="guide4"
       inkscape:locked="false" />
    <sodipodi:guide
       position="0.28381889,113.15188"
       orientation="1,0"
       id="guide5"
       inkscape:locked="false" />
    <sodipodi:guide
       position="150.51852,106.35435"
       orientation="1,0"
       id="guide6"
       inkscape:locked="false" />
    <sodipodi:guide
       position="18.952195,105.09866"
       orientation="1,0"
       id="guide7"
       inkscape:locked="false" />
    <sodipodi:guide
       position="122.02533,75.830921"
       orientation="1,0"
       id="guide8"
       inkscape:locked="false" />
    <inkscape:page
       x="0"
       y="-3.4277438e-14"
       width="150.80234"
       height="150.80235"
       id="page2"
       margin="0"
       bleed="0" />
  </sodipodi:namedview>
  <defs
     id="defs1" />
  <g
     inkscape:label="Layer 1"
     inkscape:groupmode="layer"
     id="layer1"
     transform="translate(-30.545279,-15.861352)">
    <ellipse
       style="fill:none;stroke:#eaeaea;stroke-width:0.4;stroke-miterlimit:0.9;stroke-dasharray:none;stroke-opacity:1"
       id="path1"
       cx="105.94645"
       cy="90.881256"
       rx="74.917358"
       ry="30.371902" />
    <circle
       style="fill:none;stroke:#eaeaea;stroke-width:0.567628;stroke-miterlimit:0.9;stroke-dasharray:none;stroke-opacity:1"
       id="path8"
       cx="105.94645"
       cy="-91.26252"
       transform="scale(1,-1)"
       r="75.117355" />
    <ellipse
       style="fill:#eaeaea;fill-opacity:1;stroke:#eaeaea;stroke-width:0.189704;stroke-miterlimit:0.9;stroke-dasharray:none;stroke-opacity:1"
       id="path11"
       cx="152.57811"
       cy="90.791168"
       rx="0.83411163"
       ry="0.8601805" />
    <ellipse
       style="fill:none;fill-opacity:1;stroke:#eaeaea;stroke-width:0.353;stroke-miterlimit:0.9;stroke-dasharray:none;stroke-dashoffset:0;stroke-opacity:1"
       id="path14"
       cx="140.52068"
       cy="63.863029"
       rx="1.6587831"
       ry="1.6211634" />
    <path
       style="fill:#000000;fill-opacity:1;stroke:#eaeaea;stroke-width:0;stroke-miterlimit:0.9;stroke-dasharray:none;stroke-dashoffset:0;stroke-opacity:1"
       d="M 152.57227,90.982246 120.62242,17.466704"
       id="path15" />
    <path
       style="fill:#000000;fill-opacity:1;stroke:#eaeaea;stroke-width:0.4;stroke-miterlimit:0.9;stroke-dasharray:2.4, 2.4;stroke-dashoffset:0;stroke-opacity:1"
       d="M 31.029089,90.881254 181.06381,90.826449"
       id="path16" />
    <path
       style="fill:none;fill-opacity:1;stroke:#eaeaea;stroke-width:0.4;stroke-miterlimit:0.9;stroke-dasharray:none;stroke-dashoffset:0;stroke-opacity:1"
       id="path18"
       sodipodi:type="arc"
       sodipodi:cx="152.5706"
       sodipodi:cy="90.826454"
       sodipodi:rx="9.6097574"
       sodipodi:ry="9.302845"
       sodipodi:start="4.3005719"
       sodipodi:end="0.0009926856"
       sodipodi:arc-type="slice"
       d="m 148.72406,82.301373 a 9.6097574,9.302845 0 0 1 9.11281,0.743527 9.6097574,9.302845 0 0 1 4.34349,7.790789 l -9.60976,-0.0092 z" />
    <g
       inkscape:label=""
       transform="translate(166.41363,78.489841)"
       id="g22"
       style="fill:#eaeaea;fill-opacity:1">
      <g
         fill="#000000"
         fill-opacity="1"
         id="g2-1-1-1"
         transform="matrix(0.352778,0,0,0.352778,-75.978,-4.5119)"
         style="fill:#eaeaea;fill-opacity:1">
        <g
           id="use1-1-1-1"
           transform="translate(214.355,26.899)"
           style="fill:#eaeaea;fill-opacity:1">
          <path
             d="m 18.75,-12.59375 c 0.1875,-0.703125 0.234375,-0.921875 1.703125,-0.921875 0.390625,0 0.578125,0 0.578125,-0.390625 0,-0.203125 -0.140625,-0.203125 -0.546875,-0.203125 h -2.46875 C 17.5,-14.109375 17.46875,-14.09375 17.25,-13.75 L 9.703125,-1.84375 8.15625,-13.65625 c -0.0625,-0.453125 -0.078125,-0.453125 -0.609375,-0.453125 h -2.5625 c -0.40625,0 -0.578125,0 -0.578125,0.390625 0,0.203125 0.171875,0.203125 0.484375,0.203125 1.265625,0 1.265625,0.171875 1.265625,0.40625 0,0.03125 0,0.15625 -0.078125,0.46875 l -2.65625,10.53125 c -0.234375,1 -0.71875,1.453125 -2.09375,1.515625 -0.0625,0 -0.3125,0.015625 -0.3125,0.359375 C 1.015625,0 1.203125,0 1.28125,0 1.6875,0 2.75,-0.046875 3.15625,-0.046875 h 1 C 4.4375,-0.046875 4.796875,0 5.078125,0 c 0.140625,0 0.375,0 0.375,-0.390625 0,-0.1875 -0.203125,-0.203125 -0.28125,-0.203125 -0.6875,-0.03125 -1.34375,-0.15625 -1.34375,-0.890625 0,-0.203125 0,-0.234375 0.078125,-0.515625 L 6.75,-13.390625 H 6.78125 L 8.484375,-0.5625 C 8.546875,-0.0625 8.578125,0 8.765625,0 8.984375,0 9.09375,-0.171875 9.1875,-0.34375 L 17.5,-13.484375 h 0.01563 l -3,11.953125 c -0.1875,0.71875 -0.21875,0.9375 -1.671875,0.9375 -0.390625,0 -0.59375,0 -0.59375,0.359375 C 12.25,0 12.4375,0 12.5625,0 c 0.34375,0 0.765625,-0.046875 1.109375,-0.046875 h 2.4375 C 16.46875,-0.046875 16.890625,0 17.25,0 c 0.15625,0 0.390625,0 0.390625,-0.390625 0,-0.203125 -0.1875,-0.203125 -0.5,-0.203125 -1.25,0 -1.25,-0.171875 -1.25,-0.375 0,-0.015625 0,-0.171875 0.03125,-0.328125 z m 0,0"
             id="path2-1-1-1"
             style="fill:#eaeaea;fill-opacity:1" />
        </g>
      </g>
    </g>
    <g
       inkscape:label=""
       transform="translate(153.5123,84.669431)"
       id="g23"
       style="fill:#eaeaea;fill-opacity:1">
      <g
         fill="#000000"
         fill-opacity="1"
         id="g2-1-1-1-1"
         transform="matrix(0.352778,0,0,0.352778,-77.983,-4.35756)"
         style="fill:#eaeaea;fill-opacity:1">
        <g
           id="use1-1-1-1-1"
           transform="translate(220.226,26.899)"
           style="fill:#eaeaea;fill-opacity:1">
          <path
             d="m 9.15625,-10.390625 c 0,-2.109375 -0.671875,-4.15625 -2.359375,-4.15625 -2.890625,0 -5.96875,6.0625 -5.96875,10.59375 0,0.953125 0.203125,4.15625 2.375,4.15625 2.8125,0 5.953125,-5.90625 5.953125,-10.59375 z m -6.265625,2.90625 c 0.3125,-1.21875 0.75,-2.953125 1.578125,-4.40625 0.671875,-1.25 1.390625,-2.234375 2.3125,-2.234375 0.671875,0 1.125,0.578125 1.125,2.5625 0,0.734375 -0.0625,1.765625 -0.65625,4.078125 z m 4.21875,0.625 c -0.515625,2.03125 -0.953125,3.328125 -1.703125,4.625 -0.59375,1.0625 -1.3125,2.03125 -2.1875,2.03125 -0.640625,0 -1.15625,-0.5 -1.15625,-2.546875 0,-1.34375 0.328125,-2.75 0.671875,-4.109375 z m 0,0"
             id="path2-1-1-1-1"
             style="fill:#eaeaea;fill-opacity:1" />
        </g>
      </g>
    </g>
    <path
       style="fill:#9a9a9a;fill-opacity:0.357488;stroke:#eaeaea;stroke-width:0.4;stroke-miterlimit:0.9;stroke-dasharray:none;stroke-dashoffset:0;stroke-opacity:1"
       id="path23"
       sodipodi:type="arc"
       sodipodi:cx="152.64433"
       sodipodi:cy="90.709541"
       sodipodi:rx="14.822136"
       sodipodi:ry="14.822136"
       sodipodi:start="4.8146348"
       sodipodi:end="6.2816178"
       sodipodi:arc-type="slice"
       d="m 154.1572,75.964815 a 14.822136,14.822136 0 0 1 13.30925,14.721493 l -14.82212,0.02323 z" />
    <path
       style="fill:#9a9a9a;fill-opacity:0.357488;stroke:#eaeaea;stroke-width:0.353;stroke-miterlimit:0.9;stroke-dasharray:4.236, 4.236;stroke-dashoffset:0;stroke-opacity:1"
       d="m 152.60739,90.355001 5.49067,-52.9776"
       id="path24" />
    <text
       xml:space="preserve"
       style="font-style:normal;font-variant:normal;font-weight:normal;font-stretch:normal;font-size:7.05556px;font-family:'Jost*';-inkscape-font-specification:'Jost*, Normal';font-variant-ligatures:normal;font-variant-caps:normal;font-variant-numeric:normal;font-variant-east-asian:normal;text-align:start;writing-mode:lr-tb;direction:ltr;text-anchor:start;fill:#eaeaea;fill-opacity:1;stroke:#000000;stroke-width:0.344536;stroke-miterlimit:0.9;stroke-dasharray:4.13445, 4.13445;stroke-dashoffset:0;stroke-opacity:0.999988"
       x="110.61253"
       y="40.068691"
       id="text24"
       transform="scale(0.99699426,1.0030148)"><tspan
         sodipodi:role="line"
         id="tspan24"
         style="font-style:normal;font-variant:normal;font-weight:normal;font-stretch:normal;font-size:7.05556px;font-family:'Jost*';-inkscape-font-specification:'Jost*, Normal';font-variant-ligatures:normal;font-variant-caps:normal;font-variant-numeric:normal;font-variant-east-asian:normal;fill:#eaeaea;fill-opacity:1;stroke:none;stroke-width:0.344537"
         x="110.61253"
         y="40.068691">Mean Anomaly</tspan></text>
    <ellipse
       style="fill:none;fill-opacity:1;stroke:#eaeaea;stroke-width:0.353;stroke-miterlimit:0.9;stroke-dasharray:none;stroke-dashoffset:0;stroke-opacity:1"
       id="ellipse24"
       cx="158.00726"
       cy="37.48793"
       rx="1.6587831"
       ry="1.6211634" />
    <text
       xml:space="preserve"
       style="font-style:normal;font-variant:normal;font-weight:normal;font-stretch:normal;font-size:7.05556px;font-family:'Jost*';-inkscape-font-specification:'Jost*, Normal';font-variant-ligatures:normal;font-variant-caps:normal;font-variant-numeric:normal;font-variant-east-asian:normal;text-align:start;writing-mode:lr-tb;direction:ltr;text-anchor:start;fill:#eaeaea;fill-opacity:1;stroke:none;stroke-width:0.352999;stroke-miterlimit:0.9;stroke-dasharray:4.23601, 4.23601;stroke-dashoffset:0;stroke-opacity:0.999988"
       x="100.00481"
       y="70.969696"
       id="text25"><tspan
         sodipodi:role="line"
         id="tspan25"
         style="font-style:normal;font-variant:normal;font-weight:normal;font-stretch:normal;font-size:7.05556px;font-family:'Jost*';-inkscape-font-specification:'Jost*, Normal';font-variant-ligatures:normal;font-variant-caps:normal;font-variant-numeric:normal;font-variant-east-asian:normal;fill:#eaeaea;fill-opacity:1;stroke-width:0.353"
         x="100.00481"
         y="70.969696">True Anomaly</tspan></text>
    <path
       style="fill:#000000;fill-opacity:1;stroke:#eaeaea;stroke-width:0.396684;stroke-miterlimit:0.9;stroke-dasharray:none;stroke-dashoffset:0;stroke-opacity:1"
       d="M 152.55253,90.819036 140.40098,63.865908"
       id="path25" />
  </g>
</svg>
