<?xml version="1.0" encoding="utf-8"?>
<svg xmlns="http://www.w3.org/2000/svg" version="1.0" width="688" height="775" id="eulerangles">
  <title>Eulerangles</title>
  <desc>
     Eulerangles
     from Wikimedia Commons
     about: http://commons.wikimedia.org/wiki/Image:Eulerangles.svg
  </desc>
  <path d="M 105.218 625.938 C 109.048 687.219 140.614 773.409 227.215 773.382 C 298.924 773.36 367.64 715.422 412.558 657.041 C 286.306 682.695 181.59 663.153 105.218 625.937 L 105.218 625.938 Z" style="fill-opacity: 1; stroke: none; fill: rgba(235, 45, 46, 0.3);" id="white_lower_half"/>
  <path d="M 105.03 624.57 C 109.729 690.632 135.8 742.531 181.646 763.601 C 249.961 794.998 342.237 748.789 412.894 656.681" style="fill:none;fill-opacity:1;stroke:#eb2d2e;stroke-width:3;stroke-miterlimit:10;stroke-dasharray:none;stroke-dashoffset:0;stroke-opacity:1" id="path12382"/>
  <path d="M 605.085 493.65 C 605.085 590.435 469.968 668.896 303.293 668.896 C 136.617 668.896 1.5 590.435 1.5 493.65 C 1.5 396.864 136.617 318.404 303.293 318.404 C 469.968 318.404 605.085 396.864 605.085 493.65 Z" style="fill-opacity: 1; stroke: rgb(0, 141, 209); stroke-width: 3; stroke-miterlimit: 10; stroke-dasharray: none; stroke-dashoffset: 0; stroke-opacity: 1; fill: rgba(0, 141, 209, 0.3);" id="path2323"/>
  <g id="arrow_y" transform="matrix(0.933629, 0, 0, 0.928232, 0.099556, 55.685223)">
    <path d="M 325,466.75 L 642.08,466.75" style="fill:none;stroke:#008dd1;stroke-width:3;stroke-linecap:butt;stroke-opacity:1" id="arrowline_y"/>
    <path d="M 612.07665,467.22142 L 600.27228,479.41392 L 642.07273,466.73627 L 599.88416,455.41706 L 612.07665,467.22142 z " style="fill:#008dd1;fill-rule:evenodd;stroke:#008dd1;stroke-width:2.4pt;marker-start:none" id="arrowhead_y"/>
  </g>
  <path d="M 412.661 655.297 C 433.353 628.325 452.174 597.428 468.008 563.374 C 500.126 494.294 514.309 424.247 511.713 364.761 C 511.801 364.809 511.888 364.858 511.976 364.906 C 508.869 295.052 482.571 239.781 434.893 217.868 C 420.662 211.328 405.423 208.156 389.524 208.064 C 388.464 208.058 387.38 208.072 386.315 208.093 C 326.083 209.283 257.32 253.956 202.098 326.79 C 201.875 326.837 201.651 326.888 201.427 326.936" style="fill-opacity: 1; stroke: rgb(235, 45, 46); stroke-width: 3; stroke-miterlimit: 10; stroke-dasharray: none; stroke-dashoffset: 0; stroke-opacity: 1; fill: rgba(235, 45, 46, 0.3);" id="path11396"/>
  <g id="g3506" transform="matrix(0.933629, 0, 0, 0.928232, 0.099556, 55.685223)">
    <path d="M 214.453,293.719 L 491.484,723.813" style="fill:none;stroke:#00aa4f;stroke-width:3;stroke-linecap:butt;stroke-opacity:1" id="arrowline_N"/>
    <path d="M 475.24243,698.57848 L 458.6559,694.98867 L 491.48834,723.79892 L 478.83225,681.99194 L 475.24243,698.57848 z " style="fill:#00aa4f;fill-rule:evenodd;stroke:#00aa4f;stroke-width:2.4pt;marker-start:none" id="path3512"/>
  </g>
  <text x="494.64572" y="765.84717" style="font-size: 32px; font-style: normal; font-variant: normal; font-weight: normal; font-stretch: normal; text-align: start; line-height: 100%; writing-mode: lr-tb; text-anchor: start; fill: rgb(0, 170, 79); fill-opacity: 1; stroke: none; stroke-width: 1px; stroke-linecap: butt; stroke-linejoin: miter; stroke-opacity: 1; font-family: &quot;Times New Roman&quot;; white-space: pre;" id="text13359" transform="matrix(0.933629, 0, 0, 0.928232, 0.099556, 55.685223)"><tspan x="494.64572" y="765.84717" style="font-size:48px;font-style:normal;font-variant:normal;font-weight:bold;font-stretch:normal;text-align:start;line-height:100%;writing-mode:lr-tb;text-anchor:start;fill:#00aa4f;fill-opacity:1;font-family:Times New Roman" id="tspan13361">N</tspan></text>
  <g id="arrow_x" transform="matrix(0.933629, 0, 0, 0.928232, 0.099556, 55.685223)">
    <path d="M 325.5,466 L 205.609,642.219" style="fill:none;stroke:#008dd1;stroke-width:3;stroke-linecap:butt;stroke-opacity:1" id="arrowline_x"/>
    <path d="M 222.55123,617.46705 L 219.42031,600.7878 L 205.61581,642.22976 L 239.23047,614.33614 L 222.55123,617.46705 z " style="fill:#008dd1;fill-rule:evenodd;stroke:#008dd1;stroke-width:2.4pt;marker-start:none" id="arrowhead_x"/>
  </g>
  <text x="156.52582" y="746.62305" transform="matrix(1.014725, 0, 0, 0.854049, 0.099556, 55.685223)" style="font-size: 48px; font-style: normal; font-variant: normal; font-weight: normal; font-stretch: normal; text-align: start; line-height: 100%; writing-mode: lr-tb; text-anchor: start; fill: rgb(0, 141, 209); fill-opacity: 1; stroke: rgb(80, 177, 223); stroke-width: 1px; stroke-linecap: butt; stroke-linejoin: miter; stroke-opacity: 1; font-family: &quot;Times New Roman&quot;; white-space: pre;" id="text14442"><tspan x="156.52582" y="746.62305" style="font-size:48px;font-style:normal;font-variant:normal;font-weight:normal;font-stretch:normal;text-align:start;line-height:100%;writing-mode:lr-tb;text-anchor:start;fill:#008dd1;fill-opacity:1;stroke:#50b1df;stroke-width:1;stroke-opacity:1;font-family:Times New Roman" id="tspan14444">X</tspan></text>
  <text x="608.22498" y="511.67343" transform="matrix(1.014725, 0, 0, 0.854049, 0.099556, 55.685223)" style="font-size: 48px; font-style: normal; font-variant: normal; font-weight: normal; font-stretch: normal; text-align: start; line-height: 100%; writing-mode: lr-tb; text-anchor: start; fill: rgb(0, 141, 209); fill-opacity: 1; stroke: rgb(80, 177, 223); stroke-width: 1px; stroke-linecap: butt; stroke-linejoin: miter; stroke-opacity: 1; font-family: &quot;Times New Roman&quot;; white-space: pre;" id="text15495"><tspan x="608.22498" y="511.67343" style="font-size:48px;font-style:normal;font-variant:normal;font-weight:normal;font-stretch:normal;text-align:start;line-height:100%;writing-mode:lr-tb;text-anchor:start;fill:#008dd1;fill-opacity:1;stroke:#50b1df;stroke-width:1;stroke-opacity:1;font-family:Times New Roman" id="tspan15497">Y</tspan></text>
  <text x="286.65585" y="33.120461" transform="matrix(1.014725, 0, 0, 0.854049, 0.099556, 55.685223)" style="font-size: 48px; font-style: normal; font-variant: normal; font-weight: normal; font-stretch: normal; text-align: start; line-height: 100%; writing-mode: lr-tb; text-anchor: start; fill: rgb(0, 141, 209); fill-opacity: 1; stroke: rgb(80, 177, 223); stroke-width: 1px; stroke-linecap: butt; stroke-linejoin: miter; stroke-opacity: 1; font-family: &quot;Times New Roman&quot;; white-space: pre;" id="text15501"><tspan x="286.65585" y="33.120461" style="font-size:48px;font-style:normal;font-variant:normal;font-weight:normal;font-stretch:normal;text-align:start;line-height:100%;writing-mode:lr-tb;text-anchor:start;fill:#008dd1;fill-opacity:1;stroke:#50b1df;stroke-width:1;stroke-opacity:1;font-family:Times New Roman" id="tspan15503">Z</tspan></text>
  <g id="arrow_z" transform="matrix(0.933629, 0, 0, 0.928232, 0.099556, 55.685223)">
    <path d="M 325.3,465.535 L 325.3,42" style="fill:none;stroke:#008dd1;stroke-width:3;stroke-linecap:butt;stroke-opacity:1" id="arrowline_z"/>
    <path d="M 325.3,76.387 L 339.6,90 L 325.3,42.046 L 311.8,90 L 325.3,76.387 L 325.3,76.387 z" style="fill:#008dd1;fill-rule:evenodd;stroke:#008dd1;stroke-width:2.74754028pt;stroke-miterlimit:10" id="arrowhead_z"/>
  </g>
  <text x="3.711575" y="256.73026" style="font-size: 32px; font-style: normal; font-variant: normal; font-weight: normal; font-stretch: normal; text-align: start; line-height: 100%; writing-mode: lr-tb; text-anchor: start; fill: rgb(235, 45, 46); fill-opacity: 1; stroke: none; stroke-width: 1px; stroke-linecap: butt; stroke-linejoin: miter; stroke-opacity: 1; font-family: &quot;Times New Roman&quot;; white-space: pre;" id="text17562" transform="matrix(0.933629, 0, 0, 0.928232, 0.099556, 55.685223)"><tspan x="3.711575" y="256.73026" style="font-size:48px;font-style:normal;font-variant:normal;font-weight:bold;font-stretch:normal;text-align:start;line-height:100%;writing-mode:lr-tb;text-anchor:start;fill:#eb2d2e;fill-opacity:1;stroke:none;stroke-opacity:1;font-family:Times New Roman" id="tspan17564">z</tspan></text>
  <g id="arrow_X" transform="matrix(0.933629, 0, 0, 0.928232, 0.099556, 55.685223)">
    <path d="M 325.000,464.703 L 518.141,499.047" style="fill:none;stroke:#eb2d2e;stroke-width:3;stroke-linecap:butt;stroke-opacity:1" id="arrowline_X"/>
    <path d="M 488.59136,493.80952 L 474.68275,503.53323 L 518.13176,499.04063 L 478.86764,479.90091 L 488.59136,493.80952 z " style="fill:#eb2d2e;fill-rule:evenodd;stroke:#eb2d2e;stroke-width:2.4pt;marker-start:none" id="arrowhead_X"/>
  </g>
  <text x="528.99091" y="519.36993" style="font-size: 32px; font-style: normal; font-variant: normal; font-weight: normal; font-stretch: normal; text-align: start; line-height: 100%; writing-mode: lr-tb; text-anchor: start; fill: rgb(235, 45, 46); fill-opacity: 1; stroke: none; stroke-width: 1px; stroke-linecap: butt; stroke-linejoin: miter; stroke-opacity: 1; font-family: &quot;Times New Roman&quot;; white-space: pre;" id="text20565" transform="matrix(0.933629, 0, 0, 0.928232, 0.099556, 55.685223)"><tspan x="528.99091" y="519.36993" style="font-size:48px;font-style:normal;font-variant:normal;font-weight:bold;font-stretch:normal;text-align:start;line-height:100%;writing-mode:lr-tb;text-anchor:start;fill:#eb2d2e;fill-opacity:1;font-family:Times New Roman" id="tspan20567">x</tspan></text>
  <g id="arrow_Y" transform="matrix(0.933629, 0, 0, 0.928232, 0.099556, 55.685223)">
    <path d="M 324.938,465.828 L 466.19,183.24" style="fill:none;stroke:#eb2d2e;stroke-width:3;stroke-linecap:butt;stroke-opacity:1" id="arrowline_Y"/>
    <path d="M 453.44,208.69 L 458.807,224.792 L 466.857,181.859 L 437.341,214.059 L 453.44,208.692 z" style="fill:#eb2d2e;fill-rule:evenodd;stroke:#eb2d2e;stroke-width:2.4pt;marker-start:none" id="arrowhead_Y"/>
  </g>
  <g id="arrow_Z" transform="matrix(0.933629, 0, 0, 0.928232, 0.099556, 55.685223)">
    <path d="M 48.156,262.797 L 325.4,465.1" style="fill:none;stroke:#eb2d2e;stroke-width:3;stroke-linecap:butt;stroke-opacity:1" id="arrowline_Z"/>
    <path d="M 72.389732,280.4784 L 89.157189,277.8607 L 48.15828,262.79121 L 75.007436,297.24586 L 72.389732,280.4784 z " style="fill:#eb2d2e;fill-rule:evenodd;stroke:#eb2d2e;stroke-width:2.4pt;marker-start:none" id="arrowhead_Z"/>
  </g>
  <text x="452.2193" y="163.79622" style="font-size: 32px; font-style: normal; font-variant: normal; font-weight: normal; font-stretch: normal; text-align: start; line-height: 100%; writing-mode: lr-tb; text-anchor: start; fill: rgb(235, 45, 46); fill-opacity: 1; stroke: none; stroke-width: 1px; stroke-linecap: butt; stroke-linejoin: miter; stroke-opacity: 1; font-family: &quot;Times New Roman&quot;; white-space: pre;" id="text20573" transform="matrix(0.933629, 0, 0, 0.928232, 0.099556, 55.685223)"><tspan x="452.2193" y="163.79622" style="font-size:48px;font-style:normal;font-variant:normal;font-weight:bold;font-stretch:normal;text-align:start;line-height:100%;writing-mode:lr-tb;text-anchor:start;fill:#eb2d2e;fill-opacity:1;font-family:Times New Roman" id="tspan20575">y</tspan></text>
  <g id="arrow_alpha" transform="matrix(0.910611, 0, 0, 0.928232, 8.572159, 55.685223)" style="">
    <path d="M 280.674,531.717 C 309.087,538.627 336.587,538.607 363.342,532.692" style="fill:none;stroke:#000000;stroke-width:3;stroke-linecap:butt;stroke-opacity:1" id="arrowline_alpha"/>
    <path d="M 347.359,528.737 L 368.081,531.847 L 350.281,542.903 C 352.495,538.086 351.297,532.369 347.359,528.737 z" style="fill:#000000;stroke:none" id="arrowhead_alpha"/>
  </g>
  <text x="310" y="575" style="font-size: 48px; font-style: normal; font-variant: normal; font-weight: normal; font-stretch: normal; text-align: start; line-height: 125%; writing-mode: lr-tb; text-anchor: start; fill: rgb(0, 0, 0); fill-opacity: 1; stroke: none; stroke-width: 1px; stroke-linecap: butt; stroke-linejoin: miter; stroke-opacity: 1; font-family: &quot;Times New Roman&quot;; white-space: pre;" id="text22598" transform="matrix(0.933629, 0, 0, 0.928232, 0.099556, 55.685223)"><tspan x="310" y="575" id="tspan22600">Ω</tspan></text>
  <g id="arrow_beta" transform="matrix(0, 0.928232, -0.933629, 0, 193.88205, 192.231827)" style="transform-origin: 293.439px 400.975px;">
    <path d="M 265.4,413.89 C 280.416,396.443 301.787,384.585 325.316,383.17" style="fill:none;stroke:#000000;stroke-width:3;stroke-linecap:butt;stroke-opacity:1" id="arrowline_beta"/>
    <path d="M 279.47676,407.91167 L 261.56162,418.78009 L 268.16776,398.89457 C 269.54744,404.01301 274.12626,407.64072 279.47676,407.91167 z" style="fill:#000000;stroke:none" id="arrowhead_beta"/>
  </g>
  <text x="547.114" y="581.129" style="font-size: 48px; font-style: normal; font-variant: normal; font-weight: normal; font-stretch: normal; text-align: start; line-height: 125%; writing-mode: lr-tb; text-anchor: start; fill: rgb(0, 0, 0); fill-opacity: 1; stroke: none; stroke-width: 1px; stroke-linecap: butt; stroke-linejoin: miter; stroke-opacity: 1; font-family: &quot;Times New Roman&quot;; white-space: pre;" id="text22604" transform="matrix(0.933629, 0, 0, 0.928232, 0.099556, 55.685223)"><tspan x="547.114" y="581.129" id="tspan22606" style="font-size: 48px; word-spacing: 0px;">i</tspan></text>
  <g id="arrow_gamma" transform="matrix(0.851482, 0, 0, 0.895482, 33.752335, 72.600807)" style="">
    <path d="M 397.416,577.941 C 415.327,554.908 433.572,522.032 444.696,490.34" style="fill:none;stroke:#000000;stroke-width:3;stroke-linecap:butt;stroke-opacity:1" id="arrowline_gamma"/>
    <path d="M 432.585,501.546 L 446.4,485.79 L 446.083,506.742 C 443.227,502.276 437.769,500.194 432.585,501.546 z" style="fill:#000000;stroke:none" id="arrowhead_gamma"/>
  </g>
  <text x="431.0061" y="564.82678" style="font-size: 48px; font-style: normal; font-variant: normal; font-weight: normal; font-stretch: normal; text-align: start; line-height: 125%; writing-mode: lr-tb; text-anchor: start; fill: rgb(0, 0, 0); fill-opacity: 1; stroke: none; stroke-width: 1px; stroke-linecap: butt; stroke-linejoin: miter; stroke-opacity: 1; font-family: &quot;Times New Roman&quot;; white-space: pre;" id="text22610" transform="matrix(0.933629, 0, 0, 0.928232, -2.918386, 56.691204)">ω</text>
</svg>