<svg xmlns="http://www.w3.org/2000/svg" width="600" height="600" viewBox="0 0 600 600">
<style>
.sphere { fill: none; stroke: #bbb; stroke-width: 4; }
.arc { fill: none; stroke: #fbc02d; stroke-width: 4; }
.arc-back { fill: none; stroke: #fbc02d; stroke-width: 4; opacity: 0.4; }
.great-circle { fill: none; stroke: #00bcd4; stroke-width: 3; opacity: 0.9; }
.great-circle-back { fill: none; stroke: #00bcd4; stroke-width: 3; opacity: 0.4; }
.small-circle { fill: none; stroke: #e64a19; stroke-width: 3; opacity: 0.9; }
.small-circle-back { fill: none; stroke: #e64a19; stroke-width: 3; opacity: 0.4; }
.point { fill: #e53935; stroke: none; }
.point-back { fill: #e53935; stroke: none; opacity: 0.4; }
.label { fill: #fff; font-size: 28px; font-family: sans-serif; font-weight: bold; pointer-events: none; }
.label-back { fill: #fff; font-size: 28px; font-family: sans-serif; font-weight: bold; pointer-events: none; opacity: 0.4; }
.small-label { fill: #ffb74d; font-size: 18px; font-family: sans-serif; font-weight: 500; pointer-events: none; }
.small-label-back { fill: #ffb74d; font-size: 18px; font-family: sans-serif; font-weight: 500; pointer-events: none; opacity: 0.4; }
</style>
<path d="M 425.00 509.38 L 424.85 510.94 L 424.40 512.49 L 423.65 514.04 L 422.60 515.58 L 421.25 517.11 L 419.62 518.61 L 417.69 520.09 L 415.48 521.55 L 413.00 522.98 M 187.00 522.98 L 184.52 521.55 L 182.31 520.09 L 180.38 518.61 L 178.75 517.11 L 177.40 515.58 L 176.35 514.04 L 175.60 512.49 L 175.15 510.94 L 175.00 509.38 L 175.15 507.82 L 175.60 506.26 L 176.35 504.71 L 177.40 503.17 L 178.75 501.65 L 180.38 500.14 L 182.31 498.66 L 184.52 497.20 L 187.00 495.77 L 189.76 494.38 L 192.78 493.02 L 196.07 491.70 L 199.60 490.42 L 203.37 489.19 L 207.38 488.01 L 211.61 486.88 L 216.06 485.80 L 220.70 484.78 L 225.54 483.82 L 230.55 482.92 L 235.74 482.09 L 241.08 481.32 L 246.56 480.62 L 252.16 479.98 L 257.89 479.42 L 263.71 478.93 L 269.63 478.52 L 275.61 478.17 L 281.66 477.91 L 287.75 477.72 L 293.87 477.60 L 300.00 477.56 L 306.13 477.60 L 312.25 477.72 L 318.34 477.91 L 324.39 478.17 L 330.37 478.52 L 336.29 478.93 L 342.11 479.42 L 347.84 479.98 L 353.44 480.62 L 358.92 481.32 L 364.26 482.09 L 369.45 482.92 L 374.46 483.82 L 379.30 484.78 L 383.94 485.80 L 388.39 486.88 L 392.62 488.01 L 396.63 489.19 L 400.40 490.42 L 403.93 491.70 L 407.22 493.02 L 410.24 494.38 L 413.00 495.77 L 415.48 497.20 L 417.69 498.66 L 419.62 500.14 L 421.25 501.65 L 422.60 503.17 L 423.65 504.71 L 424.40 506.26 L 424.85 507.82 L 425.00 509.38 " stroke='#fff' stroke-width='1' stroke-dasharray='6,6' opacity='0.08' fill='none'/><path d="M 410.24 524.37 L 407.22 525.73 L 403.93 527.05 L 400.40 528.33 L 396.63 529.56 L 392.62 530.74 L 388.39 531.87 L 383.94 532.95 L 379.30 533.97 L 374.46 534.93 L 369.45 535.83 L 364.26 536.66 L 358.92 537.43 L 353.44 538.14 L 347.84 538.77 L 342.11 539.33 L 336.29 539.82 L 330.37 540.24 L 324.39 540.58 L 318.34 540.85 L 312.25 541.04 L 306.13 541.15 L 300.00 541.19 L 293.87 541.15 L 287.75 541.04 L 281.66 540.85 L 275.61 540.58 L 269.63 540.24 L 263.71 539.82 L 257.89 539.33 L 252.16 538.77 L 246.56 538.14 L 241.08 537.43 L 235.74 536.66 L 230.55 535.83 L 225.54 534.93 L 220.70 533.97 L 216.06 532.95 L 211.61 531.87 L 207.38 530.74 L 203.37 529.56 L 199.60 528.33 L 196.07 527.05 L 192.78 525.73 L 189.76 524.37 " stroke='#fff' stroke-width='1' stroke-dasharray='6,6' opacity='0.18' fill='none'/><path d="M 516.51 420.88 L 516.25 423.59 L 515.46 426.28 L 514.16 428.97 M 85.84 428.97 L 84.54 426.28 L 83.75 423.59 L 83.49 420.88 L 83.75 418.18 L 84.54 415.48 L 85.84 412.80 L 87.65 410.13 L 89.98 407.49 L 92.82 404.89 L 96.15 402.32 L 99.97 399.80 L 104.28 397.32 L 109.06 394.91 L 114.30 392.55 L 119.98 390.27 L 126.10 388.06 L 132.64 385.93 L 139.58 383.88 L 146.91 381.92 L 154.60 380.05 L 162.65 378.29 L 171.03 376.62 L 179.72 375.07 L 188.69 373.62 L 197.94 372.29 L 207.43 371.07 L 217.15 369.97 L 227.06 369.00 L 237.15 368.15 L 247.39 367.43 L 257.76 366.84 L 268.23 366.38 L 278.78 366.04 L 289.38 365.85 L 300.00 365.78 L 310.62 365.85 L 321.22 366.04 L 331.77 366.38 L 342.24 366.84 L 352.61 367.43 L 362.85 368.15 L 372.94 369.00 L 382.85 369.97 L 392.57 371.07 L 402.06 372.29 L 411.31 373.62 L 420.28 375.07 L 428.97 376.62 L 437.35 378.29 L 445.40 380.05 L 453.09 381.92 L 460.42 383.88 L 467.36 385.93 L 473.90 388.06 L 480.02 390.27 L 485.70 392.55 L 490.94 394.91 L 495.72 397.32 L 500.03 399.80 L 503.85 402.32 L 507.18 404.89 L 510.02 407.49 L 512.35 410.13 L 514.16 412.80 L 515.46 415.48 L 516.25 418.18 L 516.51 420.88 " stroke='#fff' stroke-width='1' stroke-dasharray='6,6' opacity='0.08' fill='none'/><path d="M 512.35 431.63 L 510.02 434.27 L 507.18 436.88 L 503.85 439.45 L 500.03 441.97 L 495.72 444.44 L 490.94 446.86 L 485.70 449.21 L 480.02 451.50 L 473.90 453.71 L 467.36 455.84 L 460.42 457.89 L 453.09 459.85 L 445.40 461.71 L 437.35 463.48 L 428.97 465.14 L 420.28 466.70 L 411.31 468.15 L 402.06 469.48 L 392.57 470.70 L 382.85 471.79 L 372.94 472.77 L 362.85 473.61 L 352.61 474.34 L 342.24 474.93 L 331.77 475.39 L 321.22 475.72 L 310.62 475.92 L 300.00 475.99 L 289.38 475.92 L 278.78 475.72 L 268.23 475.39 L 257.76 474.93 L 247.39 474.34 L 237.15 473.61 L 227.06 472.77 L 217.15 471.79 L 207.43 470.70 L 197.94 469.48 L 188.69 468.15 L 179.72 466.70 L 171.03 465.14 L 162.65 463.48 L 154.60 461.71 L 146.91 459.85 L 139.58 457.89 L 132.64 455.84 L 126.10 453.71 L 119.98 451.50 L 114.30 449.21 L 109.06 446.86 L 104.28 444.44 L 99.97 441.97 L 96.15 439.45 L 92.82 436.88 L 89.98 434.27 L 87.65 431.63 " stroke='#fff' stroke-width='1' stroke-dasharray='6,6' opacity='0.18' fill='none'/><path d="M 50.30 296.88 L 51.20 293.76 L 52.71 290.66 L 54.80 287.59 L 57.49 284.54 L 60.76 281.53 L 64.61 278.56 L 69.03 275.65 L 74.00 272.80 L 79.52 270.01 L 85.57 267.29 L 92.13 264.65 L 99.20 262.10 L 106.75 259.63 L 114.76 257.27 L 123.22 255.01 L 132.11 252.85 L 141.40 250.81 L 151.08 248.89 L 161.11 247.09 L 171.47 245.42 L 182.15 243.88 L 193.11 242.48 L 204.33 241.21 L 215.78 240.09 L 227.43 239.11 L 239.25 238.28 L 251.23 237.59 L 263.32 237.06 L 275.50 236.68 L 287.73 236.45 L 300.00 236.37 L 312.27 236.45 L 324.50 236.68 L 336.68 237.06 L 348.77 237.59 L 360.75 238.28 L 372.57 239.11 L 384.22 240.09 L 395.67 241.21 L 406.89 242.48 L 417.85 243.88 L 428.53 245.42 L 438.89 247.09 L 448.92 248.89 L 458.60 250.81 L 467.89 252.85 L 476.78 255.01 L 485.24 257.27 L 493.25 259.63 L 500.80 262.10 L 507.87 264.65 L 514.43 267.29 L 520.48 270.01 L 526.00 272.80 L 530.97 275.65 L 535.39 278.56 L 539.24 281.53 L 542.51 284.54 L 545.20 287.59 L 547.29 290.66 L 548.80 293.76 L 549.70 296.88 L 550.00 300.00 " stroke='#fff' stroke-width='1' stroke-dasharray='6,6' opacity='0.08' fill='none'/><path d="M 550.00 300.00 L 549.70 303.12 L 548.80 306.24 L 547.29 309.34 L 545.20 312.41 L 542.51 315.46 L 539.24 318.47 L 535.39 321.44 L 530.97 324.35 L 526.00 327.20 L 520.48 329.99 L 514.43 332.71 L 507.87 335.35 L 500.80 337.90 L 493.25 340.37 L 485.24 342.73 L 476.78 344.99 L 467.89 347.15 L 458.60 349.19 L 448.92 351.11 L 438.89 352.91 L 428.53 354.58 L 417.85 356.12 L 406.89 357.52 L 395.67 358.79 L 384.22 359.91 L 372.57 360.89 L 360.75 361.72 L 348.77 362.41 L 336.68 362.94 L 324.50 363.32 L 312.27 363.55 L 300.00 363.63 L 287.73 363.55 L 275.50 363.32 L 263.32 362.94 L 251.23 362.41 L 239.25 361.72 L 227.43 360.89 L 215.78 359.91 L 204.33 358.79 L 193.11 357.52 L 182.15 356.12 L 171.47 354.58 L 161.11 352.91 L 151.08 351.11 L 141.40 349.19 L 132.11 347.15 L 123.22 344.99 L 114.76 342.73 L 106.75 340.37 L 99.20 337.90 L 92.13 335.35 L 85.57 332.71 L 79.52 329.99 L 74.00 327.20 L 69.03 324.35 L 64.61 321.44 L 60.76 318.47 L 57.49 315.46 L 54.80 312.41 L 52.71 309.34 L 51.20 306.24 L 50.30 303.12 L 50.00 300.00 " stroke='#fff' stroke-width='1' stroke-dasharray='6,6' opacity='0.18' fill='none'/><path d="M 87.65 168.37 L 89.98 165.73 L 92.82 163.12 L 96.15 160.55 L 99.97 158.03 L 104.28 155.56 L 109.06 153.14 L 114.30 150.79 L 119.98 148.50 L 126.10 146.29 L 132.64 144.16 L 139.58 142.11 L 146.91 140.15 L 154.60 138.29 L 162.65 136.52 L 171.03 134.86 L 179.72 133.30 L 188.69 131.85 L 197.94 130.52 L 207.43 129.30 L 217.15 128.21 L 227.06 127.23 L 237.15 126.39 L 247.39 125.66 L 257.76 125.07 L 268.23 124.61 L 278.78 124.28 L 289.38 124.08 L 300.00 124.01 L 310.62 124.08 L 321.22 124.28 L 331.77 124.61 L 342.24 125.07 L 352.61 125.66 L 362.85 126.39 L 372.94 127.23 L 382.85 128.21 L 392.57 129.30 L 402.06 130.52 L 411.31 131.85 L 420.28 133.30 L 428.97 134.86 L 437.35 136.52 L 445.40 138.29 L 453.09 140.15 L 460.42 142.11 L 467.36 144.16 L 473.90 146.29 L 480.02 148.50 L 485.70 150.79 L 490.94 153.14 L 495.72 155.56 L 500.03 158.03 L 503.85 160.55 L 507.18 163.12 L 510.02 165.73 L 512.35 168.37 " stroke='#fff' stroke-width='1' stroke-dasharray='6,6' opacity='0.08' fill='none'/><path d="M 516.51 179.12 L 516.25 181.82 L 515.46 184.52 L 514.16 187.20 L 512.35 189.87 L 510.02 192.51 L 507.18 195.11 L 503.85 197.68 L 500.03 200.20 L 495.72 202.68 L 490.94 205.09 L 485.70 207.45 L 480.02 209.73 L 473.90 211.94 L 467.36 214.07 L 460.42 216.12 L 453.09 218.08 L 445.40 219.95 L 437.35 221.71 L 428.97 223.38 L 420.28 224.93 L 411.31 226.38 L 402.06 227.71 L 392.57 228.93 L 382.85 230.03 L 372.94 231.00 L 362.85 231.85 L 352.61 232.57 L 342.24 233.16 L 331.77 233.62 L 321.22 233.96 L 310.62 234.15 L 300.00 234.22 L 289.38 234.15 L 278.78 233.96 L 268.23 233.62 L 257.76 233.16 L 247.39 232.57 L 237.15 231.85 L 227.06 231.00 L 217.15 230.03 L 207.43 228.93 L 197.94 227.71 L 188.69 226.38 L 179.72 224.93 L 171.03 223.38 L 162.65 221.71 L 154.60 219.95 L 146.91 218.08 L 139.58 216.12 L 132.64 214.07 L 126.10 211.94 L 119.98 209.73 L 114.30 207.45 L 109.06 205.09 L 104.28 202.68 L 99.97 200.20 L 96.15 197.68 L 92.82 195.11 L 89.98 192.51 L 87.65 189.87 L 85.84 187.20 L 84.54 184.52 L 83.75 181.82 L 83.49 179.12 L 83.75 176.41 L 84.54 173.72 L 85.84 171.03 M 514.16 171.03 L 515.46 173.72 L 516.25 176.41 L 516.51 179.12 " stroke='#fff' stroke-width='1' stroke-dasharray='6,6' opacity='0.18' fill='none'/><path d="M 189.76 75.63 L 192.78 74.27 L 196.07 72.95 L 199.60 71.67 L 203.37 70.44 L 207.38 69.26 L 211.61 68.13 L 216.06 67.05 L 220.70 66.03 L 225.54 65.07 L 230.55 64.17 L 235.74 63.34 L 241.08 62.57 L 246.56 61.86 L 252.16 61.23 L 257.89 60.67 L 263.71 60.18 L 269.63 59.76 L 275.61 59.42 L 281.66 59.15 L 287.75 58.96 L 293.87 58.85 L 300.00 58.81 L 306.13 58.85 L 312.25 58.96 L 318.34 59.15 L 324.39 59.42 L 330.37 59.76 L 336.29 60.18 L 342.11 60.67 L 347.84 61.23 L 353.44 61.86 L 358.92 62.57 L 364.26 63.34 L 369.45 64.17 L 374.46 65.07 L 379.30 66.03 L 383.94 67.05 L 388.39 68.13 L 392.62 69.26 L 396.63 70.44 L 400.40 71.67 L 403.93 72.95 L 407.22 74.27 L 410.24 75.63 " stroke='#fff' stroke-width='1' stroke-dasharray='6,6' opacity='0.08' fill='none'/><path d="M 425.00 90.62 L 424.85 92.18 L 424.40 93.74 L 423.65 95.29 L 422.60 96.83 L 421.25 98.35 L 419.62 99.86 L 417.69 101.34 L 415.48 102.80 L 413.00 104.23 L 410.24 105.62 L 407.22 106.98 L 403.93 108.30 L 400.40 109.58 L 396.63 110.81 L 392.62 111.99 L 388.39 113.12 L 383.94 114.20 L 379.30 115.22 L 374.46 116.18 L 369.45 117.08 L 364.26 117.91 L 358.92 118.68 L 353.44 119.38 L 347.84 120.02 L 342.11 120.58 L 336.29 121.07 L 330.37 121.48 L 324.39 121.83 L 318.34 122.09 L 312.25 122.28 L 306.13 122.40 L 300.00 122.44 L 293.87 122.40 L 287.75 122.28 L 281.66 122.09 L 275.61 121.83 L 269.63 121.48 L 263.71 121.07 L 257.89 120.58 L 252.16 120.02 L 246.56 119.38 L 241.08 118.68 L 235.74 117.91 L 230.55 117.08 L 225.54 116.18 L 220.70 115.22 L 216.06 114.20 L 211.61 113.12 L 207.38 111.99 L 203.37 110.81 L 199.60 109.58 L 196.07 108.30 L 192.78 106.98 L 189.76 105.62 L 187.00 104.23 L 184.52 102.80 L 182.31 101.34 L 180.38 99.86 L 178.75 98.35 L 177.40 96.83 L 176.35 95.29 L 175.60 93.74 L 175.15 92.18 L 175.00 90.62 L 175.15 89.06 L 175.60 87.51 L 176.35 85.96 L 177.40 84.42 L 178.75 82.89 L 180.38 81.39 L 182.31 79.91 L 184.52 78.45 L 187.00 77.02 M 413.00 77.02 L 415.48 78.45 L 417.69 79.91 L 419.62 81.39 L 421.25 82.89 L 422.60 84.42 L 423.65 85.96 L 424.40 87.51 L 424.85 89.06 L 425.00 90.62 " stroke='#fff' stroke-width='1' stroke-dasharray='6,6' opacity='0.18' fill='none'/><path d="M 300.00 541.77 L 306.14 541.69 L 312.27 541.48 L 318.39 541.11 L 324.50 540.60 L 330.60 539.95 L 336.68 539.15 L 342.74 538.21 L 348.77 537.12 L 354.78 535.89 L 360.75 534.52 L 366.68 533.01 L 372.57 531.36 L 378.42 529.56 L 384.22 527.63 L 389.97 525.57 L 395.67 523.36 L 401.31 521.03 L 406.89 518.55 L 412.40 515.95 L 417.85 513.22 L 423.22 510.36 L 428.53 507.37 L 433.75 504.26 L 438.89 501.02 L 443.95 497.67 L 448.92 494.19 L 453.81 490.60 L 458.60 486.89 L 463.29 483.07 L 467.89 479.14 L 472.39 475.10 L 476.78 470.96 L 481.06 466.71 L 485.24 462.36 L 489.30 457.92 L 493.25 453.38 L 497.09 448.74 L 500.80 444.02 L 504.40 439.21 L 507.87 434.32 L 511.21 429.34 L 514.43 424.29 L 517.52 419.17 L 520.48 413.97 L 523.31 408.70 L 526.00 403.37 L 528.55 397.97 L 530.97 392.52 L 533.25 387.01 L 535.39 381.45 L 537.38 375.84 L 539.24 370.18 L 540.94 364.48 L 542.51 358.74 L 543.93 352.97 L 545.20 347.17 L 546.32 341.33 L 547.29 335.47 L 548.12 329.59 L 548.80 323.70 L 549.32 317.79 L 549.70 311.86 L 549.92 305.93 " stroke='#fff' stroke-width='1' stroke-dasharray='6,6' opacity='0.08' fill='none'/><path d="M 550.00 300.00 L 549.92 294.07 L 549.70 288.14 L 549.32 282.21 L 548.80 276.30 L 548.12 270.41 L 547.29 264.53 L 546.32 258.67 L 545.20 252.83 L 543.93 247.03 L 542.51 241.26 L 540.94 235.52 L 539.24 229.82 L 537.38 224.16 L 535.39 218.55 L 533.25 212.99 L 530.97 207.48 L 528.55 202.03 L 526.00 196.63 L 523.31 191.30 L 520.48 186.03 L 517.52 180.83 L 514.43 175.71 L 511.21 170.66 L 507.87 165.68 L 504.40 160.79 L 500.80 155.98 L 497.09 151.26 L 493.25 146.62 L 489.30 142.08 L 485.24 137.64 L 481.06 133.29 L 476.78 129.04 L 472.39 124.90 L 467.89 120.86 L 463.29 116.93 L 458.60 113.11 L 453.81 109.40 L 448.92 105.81 L 443.95 102.33 L 438.89 98.98 L 433.75 95.74 L 428.53 92.63 L 423.22 89.64 L 417.85 86.78 L 412.40 84.05 L 406.89 81.45 L 401.31 78.97 L 395.67 76.64 L 389.97 74.43 L 384.22 72.37 L 378.42 70.44 L 372.57 68.64 L 366.68 66.99 L 360.75 65.48 L 354.78 64.11 L 348.77 62.88 L 342.74 61.79 L 336.68 60.85 L 330.60 60.05 L 324.50 59.40 L 318.39 58.89 L 312.27 58.52 L 306.14 58.31 L 300.00 58.23 " stroke='#fff' stroke-width='1' stroke-dasharray='6,6' opacity='0.18' fill='none'/><path d="M 300.00 541.77 L 305.31 542.48 L 310.62 543.04 L 315.93 543.45 L 321.22 543.72 L 326.50 543.84 L 331.77 543.82 L 337.01 543.65 L 342.24 543.33 L 347.44 542.86 L 352.61 542.25 L 357.75 541.49 L 362.85 540.59 L 367.91 539.54 L 372.94 538.35 L 377.92 537.02 L 382.85 535.54 L 387.74 533.92 L 392.57 532.16 L 397.34 530.26 " stroke='#fff' stroke-width='1' stroke-dasharray='6,6' opacity='0.08' fill='none'/><path d="M 402.06 528.22 L 406.72 526.04 L 411.31 523.73 L 415.83 521.28 L 420.28 518.70 L 424.67 515.98 L 428.97 513.14 L 433.20 510.17 L 437.35 507.07 L 441.42 503.85 L 445.40 500.50 L 449.29 497.04 L 453.09 493.45 L 456.80 489.75 L 460.42 485.93 L 463.94 482.01 L 467.36 477.97 L 470.68 473.82 L 473.90 469.57 L 477.01 465.22 L 480.02 460.77 L 482.92 456.22 L 485.70 451.58 L 488.38 446.85 L 490.94 442.03 L 493.39 437.12 L 495.72 432.13 L 497.93 427.06 L 500.03 421.91 L 502.00 416.69 L 503.85 411.40 L 505.58 406.05 L 507.18 400.63 L 508.66 395.14 L 510.02 389.61 L 511.25 384.01 L 512.35 378.37 L 513.32 372.68 L 514.16 366.94 L 514.88 361.17 L 515.46 355.36 L 515.92 349.51 L 516.25 343.64 L 516.44 337.74 L 516.51 331.81 L 516.44 325.87 L 516.25 319.91 L 515.92 313.94 L 515.46 307.96 L 514.88 301.98 L 514.16 296.00 L 513.32 290.01 L 512.35 284.04 L 511.25 278.07 L 510.02 272.12 L 508.66 266.18 L 507.18 260.26 L 505.58 254.37 L 503.85 248.51 L 502.00 242.67 L 500.03 236.87 L 497.93 231.11 L 495.72 225.39 L 493.39 219.72 L 490.94 214.09 L 488.38 208.51 L 485.70 202.99 L 482.92 197.53 L 480.02 192.13 L 477.01 186.80 L 473.90 181.53 L 470.68 176.34 L 467.36 171.22 L 463.94 166.17 L 460.42 161.21 L 456.80 156.33 L 453.09 151.54 L 449.29 146.84 L 445.40 142.23 L 441.42 137.71 L 437.35 133.29 L 433.20 128.98 L 428.97 124.76 L 424.67 120.65 L 420.28 116.65 L 415.83 112.76 L 411.31 108.99 L 406.72 105.32 L 402.06 101.78 L 397.34 98.35 L 392.57 95.05 L 387.74 91.87 L 382.85 88.81 L 377.92 85.88 L 372.94 83.08 L 367.91 80.41 L 362.85 77.88 L 357.75 75.48 L 352.61 73.21 L 347.44 71.08 L 342.24 69.08 L 337.01 67.23 L 331.77 65.52 L 326.50 63.95 L 321.22 62.52 L 315.93 61.23 L 310.62 60.09 L 305.31 59.09 L 300.00 58.23 " stroke='#fff' stroke-width='1' stroke-dasharray='6,6' opacity='0.18' fill='none'/><path d="M 300.00 541.77 L 303.07 543.05 L 306.13 544.18 L 309.20 545.17 L 312.25 546.00 L 315.30 546.69 L 318.34 547.24 L 321.37 547.63 L 324.39 547.87 L 327.39 547.97 L 330.37 547.91 L 333.34 547.71 L 336.29 547.35 " stroke='#fff' stroke-width='1' stroke-dasharray='6,6' opacity='0.08' fill='none'/><path d="M 339.21 546.85 L 342.11 546.20 L 344.99 545.40 L 347.84 544.45 L 350.66 543.36 L 353.44 542.12 L 356.20 540.73 L 358.92 539.20 L 361.61 537.52 L 364.26 535.70 L 366.87 533.74 L 369.45 531.64 L 371.98 529.39 L 374.46 527.01 L 376.90 524.50 L 379.30 521.85 L 381.65 519.06 L 383.94 516.14 L 386.19 513.10 L 388.39 509.92 L 390.53 506.62 L 392.62 503.19 L 394.65 499.64 L 396.63 495.97 L 398.54 492.18 L 400.40 488.28 L 402.20 484.26 L 403.93 480.14 L 405.61 475.90 L 407.22 471.56 L 408.76 467.11 L 410.24 462.57 L 411.65 457.92 L 413.00 453.18 L 414.28 448.35 L 415.48 443.43 L 416.62 438.42 L 417.69 433.33 L 418.69 428.16 L 419.62 422.91 L 420.47 417.59 L 421.25 412.20 L 421.96 406.74 L 422.60 401.21 L 423.16 395.63 L 423.65 389.98 L 424.06 384.28 L 424.40 378.54 L 424.66 372.74 L 424.85 366.90 L 424.96 361.02 L 425.00 355.10 L 424.96 349.15 L 424.85 343.17 L 424.66 337.17 L 424.40 331.14 L 424.06 325.09 L 423.65 319.03 L 423.16 312.96 L 422.60 306.88 L 421.96 300.79 L 421.25 294.71 L 420.47 288.63 L 419.62 282.55 L 418.69 276.48 L 417.69 270.43 L 416.62 264.40 L 415.48 258.39 L 414.28 252.40 L 413.00 246.44 L 411.65 240.52 L 410.24 234.63 L 408.76 228.78 L 407.22 222.97 L 405.61 217.21 L 403.93 211.50 L 402.20 205.84 L 400.40 200.24 L 398.54 194.70 L 396.63 189.22 L 394.65 183.81 L 392.62 178.47 L 390.53 173.20 L 388.39 168.01 L 386.19 162.90 L 383.94 157.87 L 381.65 152.92 L 379.30 148.07 L 376.90 143.31 L 374.46 138.64 L 371.98 134.06 L 369.45 129.59 L 366.87 125.22 L 364.26 120.96 L 361.61 116.80 L 358.92 112.76 L 356.20 108.82 L 353.44 105.01 L 350.66 101.30 L 347.84 97.72 L 344.99 94.26 L 342.11 90.93 L 339.21 87.72 L 336.29 84.64 L 333.34 81.69 L 330.37 78.87 L 327.39 76.18 L 324.39 73.63 L 321.37 71.21 L 318.34 68.94 L 315.30 66.80 L 312.25 64.80 L 309.20 62.94 L 306.13 61.23 L 303.07 59.66 L 300.00 58.23 " stroke='#fff' stroke-width='1' stroke-dasharray='6,6' opacity='0.18' fill='none'/><path d="M 300.00 541.77 L 300.00 543.26 L 300.00 544.60 L 300.00 545.79 L 300.00 546.84 L 300.00 547.74 L 300.00 548.49 L 300.00 549.09 L 300.00 549.54 L 300.00 549.83 L 300.00 549.98 " stroke='#fff' stroke-width='1' stroke-dasharray='6,6' opacity='0.08' fill='none'/><path d="M 300.00 549.98 L 300.00 549.83 L 300.00 549.52 L 300.00 549.07 L 300.00 548.47 L 300.00 547.71 L 300.00 546.81 L 300.00 545.76 L 300.00 544.56 L 300.00 543.21 L 300.00 541.72 L 300.00 540.08 L 300.00 538.30 L 300.00 536.37 L 300.00 534.30 L 300.00 532.09 L 300.00 529.74 L 300.00 527.25 L 300.00 524.63 L 300.00 521.87 L 300.00 518.97 L 300.00 515.95 L 300.00 512.79 L 300.00 509.51 L 300.00 506.10 L 300.00 502.56 L 300.00 498.90 L 300.00 495.13 L 300.00 491.23 L 300.00 487.22 L 300.00 483.10 L 300.00 478.87 L 300.00 474.53 L 300.00 470.08 L 300.00 465.54 L 300.00 460.89 L 300.00 456.14 L 300.00 451.31 L 300.00 446.38 L 300.00 441.36 L 300.00 436.26 L 300.00 431.07 L 300.00 425.81 L 300.00 420.47 L 300.00 415.05 L 300.00 409.57 L 300.00 404.03 L 300.00 398.41 L 300.00 392.75 L 300.00 387.02 L 300.00 381.24 L 300.00 375.42 L 300.00 369.54 L 300.00 363.63 L 300.00 357.68 L 300.00 351.69 L 300.00 345.67 L 300.00 339.63 L 300.00 333.56 L 300.00 327.47 L 300.00 321.36 L 300.00 315.24 L 300.00 309.11 L 300.00 302.98 L 300.00 296.84 L 300.00 290.71 L 300.00 284.58 L 300.00 278.46 L 300.00 272.35 L 300.00 266.27 L 300.00 260.20 L 300.00 254.15 L 300.00 248.13 L 300.00 242.15 L 300.00 236.20 L 300.00 230.28 L 300.00 224.41 L 300.00 218.59 L 300.00 212.81 L 300.00 207.09 L 300.00 201.42 L 300.00 195.81 L 300.00 190.26 L 300.00 184.78 L 300.00 179.37 L 300.00 174.04 L 300.00 168.78 L 300.00 163.59 L 300.00 158.49 L 300.00 153.48 L 300.00 148.55 L 300.00 143.71 L 300.00 138.97 L 300.00 134.33 L 300.00 129.78 L 300.00 125.34 L 300.00 121.00 L 300.00 116.77 L 300.00 112.66 L 300.00 108.65 L 300.00 104.76 L 300.00 100.99 L 300.00 97.33 L 300.00 93.80 L 300.00 90.39 L 300.00 87.11 L 300.00 83.96 L 300.00 80.94 L 300.00 78.05 L 300.00 75.29 L 300.00 72.67 L 300.00 70.19 L 300.00 67.84 L 300.00 65.63 L 300.00 63.57 L 300.00 61.65 L 300.00 59.87 L 300.00 58.23 " stroke='#fff' stroke-width='1' stroke-dasharray='6,6' opacity='0.18' fill='none'/><path d="M 300.00 541.77 L 296.93 543.05 L 293.87 544.18 L 290.80 545.17 L 287.75 546.00 L 284.70 546.69 L 281.66 547.24 L 278.63 547.63 L 275.61 547.87 L 272.61 547.97 L 269.63 547.91 L 266.66 547.71 L 263.71 547.35 " stroke='#fff' stroke-width='1' stroke-dasharray='6,6' opacity='0.08' fill='none'/><path d="M 260.79 546.85 L 257.89 546.20 L 255.01 545.40 L 252.16 544.45 L 249.34 543.36 L 246.56 542.12 L 243.80 540.73 L 241.08 539.20 L 238.39 537.52 L 235.74 535.70 L 233.13 533.74 L 230.55 531.64 L 228.02 529.39 L 225.54 527.01 L 223.10 524.50 L 220.70 521.85 L 218.35 519.06 L 216.06 516.14 L 213.81 513.10 L 211.61 509.92 L 209.47 506.62 L 207.38 503.19 L 205.35 499.64 L 203.37 495.97 L 201.46 492.18 L 199.60 488.28 L 197.80 484.26 L 196.07 480.14 L 194.39 475.90 L 192.78 471.56 L 191.24 467.11 L 189.76 462.57 L 188.35 457.92 L 187.00 453.18 L 185.72 448.35 L 184.52 443.43 L 183.38 438.42 L 182.31 433.33 L 181.31 428.16 L 180.38 422.91 L 179.53 417.59 L 178.75 412.20 L 178.04 406.74 L 177.40 401.21 L 176.84 395.63 L 176.35 389.98 L 175.94 384.28 L 175.60 378.54 L 175.34 372.74 L 175.15 366.90 L 175.04 361.02 L 175.00 355.10 L 175.04 349.15 L 175.15 343.17 L 175.34 337.17 L 175.60 331.14 L 175.94 325.09 L 176.35 319.03 L 176.84 312.96 L 177.40 306.88 L 178.04 300.79 L 178.75 294.71 L 179.53 288.63 L 180.38 282.55 L 181.31 276.48 L 182.31 270.43 L 183.38 264.40 L 184.52 258.39 L 185.72 252.40 L 187.00 246.44 L 188.35 240.52 L 189.76 234.63 L 191.24 228.78 L 192.78 222.97 L 194.39 217.21 L 196.07 211.50 L 197.80 205.84 L 199.60 200.24 L 201.46 194.70 L 203.37 189.22 L 205.35 183.81 L 207.38 178.47 L 209.47 173.20 L 211.61 168.01 L 213.81 162.90 L 216.06 157.87 L 218.35 152.92 L 220.70 148.07 L 223.10 143.31 L 225.54 138.64 L 228.02 134.06 L 230.55 129.59 L 233.13 125.22 L 235.74 120.96 L 238.39 116.80 L 241.08 112.76 L 243.80 108.82 L 246.56 105.01 L 249.34 101.30 L 252.16 97.72 L 255.01 94.26 L 257.89 90.93 L 260.79 87.72 L 263.71 84.64 L 266.66 81.69 L 269.63 78.87 L 272.61 76.18 L 275.61 73.63 L 278.63 71.21 L 281.66 68.94 L 284.70 66.80 L 287.75 64.80 L 290.80 62.94 L 293.87 61.23 L 296.93 59.66 L 300.00 58.23 " stroke='#fff' stroke-width='1' stroke-dasharray='6,6' opacity='0.18' fill='none'/><path d="M 300.00 541.77 L 294.69 542.48 L 289.38 543.04 L 284.07 543.45 L 278.78 543.72 L 273.50 543.84 L 268.23 543.82 L 262.99 543.65 L 257.76 543.33 L 252.56 542.86 L 247.39 542.25 L 242.25 541.49 L 237.15 540.59 L 232.09 539.54 L 227.06 538.35 L 222.08 537.02 L 217.15 535.54 L 212.26 533.92 L 207.43 532.16 L 202.66 530.26 " stroke='#fff' stroke-width='1' stroke-dasharray='6,6' opacity='0.08' fill='none'/><path d="M 197.94 528.22 L 193.28 526.04 L 188.69 523.73 L 184.17 521.28 L 179.72 518.70 L 175.33 515.98 L 171.03 513.14 L 166.80 510.17 L 162.65 507.07 L 158.58 503.85 L 154.60 500.50 L 150.71 497.04 L 146.91 493.45 L 143.20 489.75 L 139.58 485.93 L 136.06 482.01 L 132.64 477.97 L 129.32 473.82 L 126.10 469.57 L 122.99 465.22 L 119.98 460.77 L 117.08 456.22 L 114.30 451.58 L 111.62 446.85 L 109.06 442.03 L 106.61 437.12 L 104.28 432.13 L 102.07 427.06 L 99.97 421.91 L 98.00 416.69 L 96.15 411.40 L 94.42 406.05 L 92.82 400.63 L 91.34 395.14 L 89.98 389.61 L 88.75 384.01 L 87.65 378.37 L 86.68 372.68 L 85.84 366.94 L 85.12 361.17 L 84.54 355.36 L 84.08 349.51 L 83.75 343.64 L 83.56 337.74 L 83.49 331.81 L 83.56 325.87 L 83.75 319.91 L 84.08 313.94 L 84.54 307.96 L 85.12 301.98 L 85.84 296.00 L 86.68 290.01 L 87.65 284.04 L 88.75 278.07 L 89.98 272.12 L 91.34 266.18 L 92.82 260.26 L 94.42 254.37 L 96.15 248.51 L 98.00 242.67 L 99.97 236.87 L 102.07 231.11 L 104.28 225.39 L 106.61 219.72 L 109.06 214.09 L 111.62 208.51 L 114.30 202.99 L 117.08 197.53 L 119.98 192.13 L 122.99 186.80 L 126.10 181.53 L 129.32 176.34 L 132.64 171.22 L 136.06 166.17 L 139.58 161.21 L 143.20 156.33 L 146.91 151.54 L 150.71 146.84 L 154.60 142.23 L 158.58 137.71 L 162.65 133.29 L 166.80 128.98 L 171.03 124.76 L 175.33 120.65 L 179.72 116.65 L 184.17 112.76 L 188.69 108.99 L 193.28 105.32 L 197.94 101.78 L 202.66 98.35 L 207.43 95.05 L 212.26 91.87 L 217.15 88.81 L 222.08 85.88 L 227.06 83.08 L 232.09 80.41 L 237.15 77.88 L 242.25 75.48 L 247.39 73.21 L 252.56 71.08 L 257.76 69.08 L 262.99 67.23 L 268.23 65.52 L 273.50 63.95 L 278.78 62.52 L 284.07 61.23 L 289.38 60.09 L 294.69 59.09 L 300.00 58.23 " stroke='#fff' stroke-width='1' stroke-dasharray='6,6' opacity='0.18' fill='none'/><path d="M 300.00 541.77 L 293.86 541.69 L 287.73 541.48 L 281.61 541.11 L 275.50 540.60 L 269.40 539.95 L 263.32 539.15 L 257.26 538.21 L 251.23 537.12 L 245.22 535.89 L 239.25 534.52 L 233.32 533.01 L 227.43 531.36 L 221.58 529.56 L 215.78 527.63 L 210.03 525.57 L 204.33 523.36 L 198.69 521.03 L 193.11 518.55 L 187.60 515.95 L 182.15 513.22 L 176.78 510.36 L 171.47 507.37 L 166.25 504.26 L 161.11 501.02 L 156.05 497.67 L 151.08 494.19 L 146.19 490.60 L 141.40 486.89 L 136.71 483.07 L 132.11 479.14 L 127.61 475.10 L 123.22 470.96 L 118.94 466.71 L 114.76 462.36 L 110.70 457.92 L 106.75 453.38 L 102.91 448.74 L 99.20 444.02 L 95.60 439.21 L 92.13 434.32 L 88.79 429.34 L 85.57 424.29 L 82.48 419.17 L 79.52 413.97 L 76.69 408.70 L 74.00 403.37 L 71.45 397.97 L 69.03 392.52 L 66.75 387.01 L 64.61 381.45 L 62.62 375.84 L 60.76 370.18 L 59.06 364.48 L 57.49 358.74 L 56.07 352.97 L 54.80 347.17 L 53.68 341.33 L 52.71 335.47 L 51.88 329.59 L 51.20 323.70 L 50.68 317.79 L 50.30 311.86 L 50.08 305.93 " stroke='#fff' stroke-width='1' stroke-dasharray='6,6' opacity='0.08' fill='none'/><path d="M 50.00 300.00 L 50.08 294.07 L 50.30 288.14 L 50.68 282.21 L 51.20 276.30 L 51.88 270.41 L 52.71 264.53 L 53.68 258.67 L 54.80 252.83 L 56.07 247.03 L 57.49 241.26 L 59.06 235.52 L 60.76 229.82 L 62.62 224.16 L 64.61 218.55 L 66.75 212.99 L 69.03 207.48 L 71.45 202.03 L 74.00 196.63 L 76.69 191.30 L 79.52 186.03 L 82.48 180.83 L 85.57 175.71 L 88.79 170.66 L 92.13 165.68 L 95.60 160.79 L 99.20 155.98 L 102.91 151.26 L 106.75 146.62 L 110.70 142.08 L 114.76 137.64 L 118.94 133.29 L 123.22 129.04 L 127.61 124.90 L 132.11 120.86 L 136.71 116.93 L 141.40 113.11 L 146.19 109.40 L 151.08 105.81 L 156.05 102.33 L 161.11 98.98 L 166.25 95.74 L 171.47 92.63 L 176.78 89.64 L 182.15 86.78 L 187.60 84.05 L 193.11 81.45 L 198.69 78.97 L 204.33 76.64 L 210.03 74.43 L 215.78 72.37 L 221.58 70.44 L 227.43 68.64 L 233.32 66.99 L 239.25 65.48 L 245.22 64.11 L 251.23 62.88 L 257.26 61.79 L 263.32 60.85 L 269.40 60.05 L 275.50 59.40 L 281.61 58.89 L 287.73 58.52 L 293.86 58.31 L 300.00 58.23 " stroke='#fff' stroke-width='1' stroke-dasharray='6,6' opacity='0.18' fill='none'/><path d="M 300.00 541.77 L 294.69 540.91 L 289.38 539.91 L 284.07 538.77 L 278.78 537.48 L 273.50 536.05 L 268.23 534.48 L 262.99 532.77 L 257.76 530.92 L 252.56 528.92 L 247.39 526.79 L 242.25 524.52 L 237.15 522.12 L 232.09 519.59 L 227.06 516.92 L 222.08 514.12 L 217.15 511.19 L 212.26 508.13 L 207.43 504.95 L 202.66 501.65 L 197.94 498.22 L 193.28 494.68 L 188.69 491.01 L 184.17 487.24 L 179.72 483.35 L 175.33 479.35 L 171.03 475.24 L 166.80 471.02 L 162.65 466.71 L 158.58 462.29 L 154.60 457.77 L 150.71 453.16 L 146.91 448.46 L 143.20 443.67 L 139.58 438.79 L 136.06 433.83 L 132.64 428.78 L 129.32 423.66 L 126.10 418.47 L 122.99 413.20 L 119.98 407.87 L 117.08 402.47 L 114.30 397.01 L 111.62 391.49 L 109.06 385.91 L 106.61 380.28 L 104.28 374.61 L 102.07 368.89 L 99.97 363.13 L 98.00 357.33 L 96.15 351.49 L 94.42 345.63 L 92.82 339.74 L 91.34 333.82 L 89.98 327.88 L 88.75 321.93 L 87.65 315.96 L 86.68 309.99 L 85.84 304.00 L 85.12 298.02 L 84.54 292.04 L 84.08 286.06 L 83.75 280.09 L 83.56 274.13 L 83.49 268.19 L 83.56 262.26 L 83.75 256.36 L 84.08 250.49 L 84.54 244.64 L 85.12 238.83 L 85.84 233.06 L 86.68 227.32 L 87.65 221.63 L 88.75 215.99 L 89.98 210.39 L 91.34 204.86 L 92.82 199.37 L 94.42 193.95 L 96.15 188.60 L 98.00 183.31 L 99.97 178.09 L 102.07 172.94 L 104.28 167.87 L 106.61 162.88 L 109.06 157.97 L 111.62 153.15 L 114.30 148.42 L 117.08 143.78 L 119.98 139.23 L 122.99 134.78 L 126.10 130.43 L 129.32 126.18 L 132.64 122.03 L 136.06 117.99 L 139.58 114.07 L 143.20 110.25 L 146.91 106.55 L 150.71 102.96 L 154.60 99.50 L 158.58 96.15 L 162.65 92.93 L 166.80 89.83 L 171.03 86.86 L 175.33 84.02 L 179.72 81.30 L 184.17 78.72 L 188.69 76.27 L 193.28 73.96 L 197.94 71.78 " stroke='#fff' stroke-width='1' stroke-dasharray='6,6' opacity='0.08' fill='none'/><path d="M 202.66 69.74 L 207.43 67.84 L 212.26 66.08 L 217.15 64.46 L 222.08 62.98 L 227.06 61.65 L 232.09 60.46 L 237.15 59.41 L 242.25 58.51 L 247.39 57.75 L 252.56 57.14 L 257.76 56.67 L 262.99 56.35 L 268.23 56.18 L 273.50 56.16 L 278.78 56.28 L 284.07 56.55 L 289.38 56.96 L 294.69 57.52 L 300.00 58.23 " stroke='#fff' stroke-width='1' stroke-dasharray='6,6' opacity='0.18' fill='none'/><path d="M 300.00 541.77 L 296.93 540.34 L 293.87 538.77 L 290.80 537.06 L 287.75 535.20 L 284.70 533.20 L 281.66 531.06 L 278.63 528.79 L 275.61 526.37 L 272.61 523.82 L 269.63 521.13 L 266.66 518.31 L 263.71 515.36 L 260.79 512.28 L 257.89 509.07 L 255.01 505.74 L 252.16 502.28 L 249.34 498.70 L 246.56 494.99 L 243.80 491.18 L 241.08 487.24 L 238.39 483.20 L 235.74 479.04 L 233.13 474.78 L 230.55 470.41 L 228.02 465.94 L 225.54 461.36 L 223.10 456.69 L 220.70 451.93 L 218.35 447.08 L 216.06 442.13 L 213.81 437.10 L 211.61 431.99 L 209.47 426.80 L 207.38 421.53 L 205.35 416.19 L 203.37 410.78 L 201.46 405.30 L 199.60 399.76 L 197.80 394.16 L 196.07 388.50 L 194.39 382.79 L 192.78 377.03 L 191.24 371.22 L 189.76 365.37 L 188.35 359.48 L 187.00 353.56 L 185.72 347.60 L 184.52 341.61 L 183.38 335.60 L 182.31 329.57 L 181.31 323.52 L 180.38 317.45 L 179.53 311.37 L 178.75 305.29 L 178.04 299.21 L 177.40 293.12 L 176.84 287.04 L 176.35 280.97 L 175.94 274.91 L 175.60 268.86 L 175.34 262.83 L 175.15 256.83 L 175.04 250.85 L 175.00 244.90 L 175.04 238.98 L 175.15 233.10 L 175.34 227.26 L 175.60 221.46 L 175.94 215.72 L 176.35 210.02 L 176.84 204.37 L 177.40 198.79 L 178.04 193.26 L 178.75 187.80 L 179.53 182.41 L 180.38 177.09 L 181.31 171.84 L 182.31 166.67 L 183.38 161.58 L 184.52 156.57 L 185.72 151.65 L 187.00 146.82 L 188.35 142.08 L 189.76 137.43 L 191.24 132.89 L 192.78 128.44 L 194.39 124.10 L 196.07 119.86 L 197.80 115.74 L 199.60 111.72 L 201.46 107.82 L 203.37 104.03 L 205.35 100.36 L 207.38 96.81 L 209.47 93.38 L 211.61 90.08 L 213.81 86.90 L 216.06 83.86 L 218.35 80.94 L 220.70 78.15 L 223.10 75.50 L 225.54 72.99 L 228.02 70.61 L 230.55 68.36 L 233.13 66.26 L 235.74 64.30 L 238.39 62.48 L 241.08 60.80 L 243.80 59.27 L 246.56 57.88 L 249.34 56.64 L 252.16 55.55 L 255.01 54.60 L 257.89 53.80 L 260.79 53.15 " stroke='#fff' stroke-width='1' stroke-dasharray='6,6' opacity='0.08' fill='none'/><path d="M 263.71 52.65 L 266.66 52.29 L 269.63 52.09 L 272.61 52.03 L 275.61 52.13 L 278.63 52.37 L 281.66 52.76 L 284.70 53.31 L 287.75 54.00 L 290.80 54.83 L 293.87 55.82 L 296.93 56.95 L 300.00 58.23 " stroke='#fff' stroke-width='1' stroke-dasharray='6,6' opacity='0.18' fill='none'/><path d="M 300.00 541.77 L 300.00 540.13 L 300.00 538.35 L 300.00 536.43 L 300.00 534.37 L 300.00 532.16 L 300.00 529.81 L 300.00 527.33 L 300.00 524.71 L 300.00 521.95 L 300.00 519.06 L 300.00 516.04 L 300.00 512.89 L 300.00 509.61 L 300.00 506.20 L 300.00 502.67 L 300.00 499.01 L 300.00 495.24 L 300.00 491.35 L 300.00 487.34 L 300.00 483.23 L 300.00 479.00 L 300.00 474.66 L 300.00 470.22 L 300.00 465.67 L 300.00 461.03 L 300.00 456.29 L 300.00 451.45 L 300.00 446.52 L 300.00 441.51 L 300.00 436.41 L 300.00 431.22 L 300.00 425.96 L 300.00 420.63 L 300.00 415.22 L 300.00 409.74 L 300.00 404.19 L 300.00 398.58 L 300.00 392.91 L 300.00 387.19 L 300.00 381.41 L 300.00 375.59 L 300.00 369.72 L 300.00 363.80 L 300.00 357.85 L 300.00 351.87 L 300.00 345.85 L 300.00 339.80 L 300.00 333.73 L 300.00 327.65 L 300.00 321.54 L 300.00 315.42 L 300.00 309.29 L 300.00 303.16 L 300.00 297.02 L 300.00 290.89 L 300.00 284.76 L 300.00 278.64 L 300.00 272.53 L 300.00 266.44 L 300.00 260.37 L 300.00 254.33 L 300.00 248.31 L 300.00 242.32 L 300.00 236.37 L 300.00 230.46 L 300.00 224.58 L 300.00 218.76 L 300.00 212.98 L 300.00 207.25 L 300.00 201.59 L 300.00 195.97 L 300.00 190.43 L 300.00 184.95 L 300.00 179.53 L 300.00 174.19 L 300.00 168.93 L 300.00 163.74 L 300.00 158.64 L 300.00 153.62 L 300.00 148.69 L 300.00 143.86 L 300.00 139.11 L 300.00 134.46 L 300.00 129.92 L 300.00 125.47 L 300.00 121.13 L 300.00 116.90 L 300.00 112.78 L 300.00 108.77 L 300.00 104.87 L 300.00 101.10 L 300.00 97.44 L 300.00 93.90 L 300.00 90.49 L 300.00 87.21 L 300.00 84.05 L 300.00 81.03 L 300.00 78.13 L 300.00 75.37 L 300.00 72.75 L 300.00 70.26 L 300.00 67.91 L 300.00 65.70 L 300.00 63.63 L 300.00 61.70 L 300.00 59.92 L 300.00 58.28 L 300.00 56.79 L 300.00 55.44 L 300.00 54.24 L 300.00 53.19 L 300.00 52.29 L 300.00 51.53 L 300.00 50.93 L 300.00 50.48 L 300.00 50.17 L 300.00 50.02 " stroke='#fff' stroke-width='1' stroke-dasharray='6,6' opacity='0.08' fill='none'/><path d="M 300.00 50.02 L 300.00 50.17 L 300.00 50.46 L 300.00 50.91 L 300.00 51.51 L 300.00 52.26 L 300.00 53.16 L 300.00 54.21 L 300.00 55.40 L 300.00 56.74 L 300.00 58.23 " stroke='#fff' stroke-width='1' stroke-dasharray='6,6' opacity='0.18' fill='none'/><path d="M 300.00 541.77 L 303.07 540.34 L 306.13 538.77 L 309.20 537.06 L 312.25 535.20 L 315.30 533.20 L 318.34 531.06 L 321.37 528.79 L 324.39 526.37 L 327.39 523.82 L 330.37 521.13 L 333.34 518.31 L 336.29 515.36 L 339.21 512.28 L 342.11 509.07 L 344.99 505.74 L 347.84 502.28 L 350.66 498.70 L 353.44 494.99 L 356.20 491.18 L 358.92 487.24 L 361.61 483.20 L 364.26 479.04 L 366.87 474.78 L 369.45 470.41 L 371.98 465.94 L 374.46 461.36 L 376.90 456.69 L 379.30 451.93 L 381.65 447.08 L 383.94 442.13 L 386.19 437.10 L 388.39 431.99 L 390.53 426.80 L 392.62 421.53 L 394.65 416.19 L 396.63 410.78 L 398.54 405.30 L 400.40 399.76 L 402.20 394.16 L 403.93 388.50 L 405.61 382.79 L 407.22 377.03 L 408.76 371.22 L 410.24 365.37 L 411.65 359.48 L 413.00 353.56 L 414.28 347.60 L 415.48 341.61 L 416.62 335.60 L 417.69 329.57 L 418.69 323.52 L 419.62 317.45 L 420.47 311.37 L 421.25 305.29 L 421.96 299.21 L 422.60 293.12 L 423.16 287.04 L 423.65 280.97 L 424.06 274.91 L 424.40 268.86 L 424.66 262.83 L 424.85 256.83 L 424.96 250.85 L 425.00 244.90 L 424.96 238.98 L 424.85 233.10 L 424.66 227.26 L 424.40 221.46 L 424.06 215.72 L 423.65 210.02 L 423.16 204.37 L 422.60 198.79 L 421.96 193.26 L 421.25 187.80 L 420.47 182.41 L 419.62 177.09 L 418.69 171.84 L 417.69 166.67 L 416.62 161.58 L 415.48 156.57 L 414.28 151.65 L 413.00 146.82 L 411.65 142.08 L 410.24 137.43 L 408.76 132.89 L 407.22 128.44 L 405.61 124.10 L 403.93 119.86 L 402.20 115.74 L 400.40 111.72 L 398.54 107.82 L 396.63 104.03 L 394.65 100.36 L 392.62 96.81 L 390.53 93.38 L 388.39 90.08 L 386.19 86.90 L 383.94 83.86 L 381.65 80.94 L 379.30 78.15 L 376.90 75.50 L 374.46 72.99 L 371.98 70.61 L 369.45 68.36 L 366.87 66.26 L 364.26 64.30 L 361.61 62.48 L 358.92 60.80 L 356.20 59.27 L 353.44 57.88 L 350.66 56.64 L 347.84 55.55 L 344.99 54.60 L 342.11 53.80 L 339.21 53.15 " stroke='#fff' stroke-width='1' stroke-dasharray='6,6' opacity='0.08' fill='none'/><path d="M 336.29 52.65 L 333.34 52.29 L 330.37 52.09 L 327.39 52.03 L 324.39 52.13 L 321.37 52.37 L 318.34 52.76 L 315.30 53.31 L 312.25 54.00 L 309.20 54.83 L 306.13 55.82 L 303.07 56.95 L 300.00 58.23 " stroke='#fff' stroke-width='1' stroke-dasharray='6,6' opacity='0.18' fill='none'/><path d="M 300.00 541.77 L 305.31 540.91 L 310.62 539.91 L 315.93 538.77 L 321.22 537.48 L 326.50 536.05 L 331.77 534.48 L 337.01 532.77 L 342.24 530.92 L 347.44 528.92 L 352.61 526.79 L 357.75 524.52 L 362.85 522.12 L 367.91 519.59 L 372.94 516.92 L 377.92 514.12 L 382.85 511.19 L 387.74 508.13 L 392.57 504.95 L 397.34 501.65 L 402.06 498.22 L 406.72 494.68 L 411.31 491.01 L 415.83 487.24 L 420.28 483.35 L 424.67 479.35 L 428.97 475.24 L 433.20 471.02 L 437.35 466.71 L 441.42 462.29 L 445.40 457.77 L 449.29 453.16 L 453.09 448.46 L 456.80 443.67 L 460.42 438.79 L 463.94 433.83 L 467.36 428.78 L 470.68 423.66 L 473.90 418.47 L 477.01 413.20 L 480.02 407.87 L 482.92 402.47 L 485.70 397.01 L 488.38 391.49 L 490.94 385.91 L 493.39 380.28 L 495.72 374.61 L 497.93 368.89 L 500.03 363.13 L 502.00 357.33 L 503.85 351.49 L 505.58 345.63 L 507.18 339.74 L 508.66 333.82 L 510.02 327.88 L 511.25 321.93 L 512.35 315.96 L 513.32 309.99 L 514.16 304.00 L 514.88 298.02 L 515.46 292.04 L 515.92 286.06 L 516.25 280.09 L 516.44 274.13 L 516.51 268.19 L 516.44 262.26 L 516.25 256.36 L 515.92 250.49 L 515.46 244.64 L 514.88 238.83 L 514.16 233.06 L 513.32 227.32 L 512.35 221.63 L 511.25 215.99 L 510.02 210.39 L 508.66 204.86 L 507.18 199.37 L 505.58 193.95 L 503.85 188.60 L 502.00 183.31 L 500.03 178.09 L 497.93 172.94 L 495.72 167.87 L 493.39 162.88 L 490.94 157.97 L 488.38 153.15 L 485.70 148.42 L 482.92 143.78 L 480.02 139.23 L 477.01 134.78 L 473.90 130.43 L 470.68 126.18 L 467.36 122.03 L 463.94 117.99 L 460.42 114.07 L 456.80 110.25 L 453.09 106.55 L 449.29 102.96 L 445.40 99.50 L 441.42 96.15 L 437.35 92.93 L 433.20 89.83 L 428.97 86.86 L 424.67 84.02 L 420.28 81.30 L 415.83 78.72 L 411.31 76.27 L 406.72 73.96 L 402.06 71.78 " stroke='#fff' stroke-width='1' stroke-dasharray='6,6' opacity='0.08' fill='none'/><path d="M 397.34 69.74 L 392.57 67.84 L 387.74 66.08 L 382.85 64.46 L 377.92 62.98 L 372.94 61.65 L 367.91 60.46 L 362.85 59.41 L 357.75 58.51 L 352.61 57.75 L 347.44 57.14 L 342.24 56.67 L 337.01 56.35 L 331.77 56.18 L 326.50 56.16 L 321.22 56.28 L 315.93 56.55 L 310.62 56.96 L 305.31 57.52 L 300.00 58.23 " stroke='#fff' stroke-width='1' stroke-dasharray='6,6' opacity='0.18' fill='none'/><path d="M 425.00 509.38 L 424.85 510.94 L 424.40 512.49 L 423.65 514.04 L 422.60 515.58 L 421.25 517.11 L 419.62 518.61 L 417.69 520.09 L 415.48 521.55 L 413.00 522.98 M 187.00 522.98 L 184.52 521.55 L 182.31 520.09 L 180.38 518.61 L 178.75 517.11 L 177.40 515.58 L 176.35 514.04 L 175.60 512.49 L 175.15 510.94 L 175.00 509.38 L 175.15 507.82 L 175.60 506.26 L 176.35 504.71 L 177.40 503.17 L 178.75 501.65 L 180.38 500.14 L 182.31 498.66 L 184.52 497.20 L 187.00 495.77 L 189.76 494.38 L 192.78 493.02 L 196.07 491.70 L 199.60 490.42 L 203.37 489.19 L 207.38 488.01 L 211.61 486.88 L 216.06 485.80 L 220.70 484.78 L 225.54 483.82 L 230.55 482.92 L 235.74 482.09 L 241.08 481.32 L 246.56 480.62 L 252.16 479.98 L 257.89 479.42 L 263.71 478.93 L 269.63 478.52 L 275.61 478.17 L 281.66 477.91 L 287.75 477.72 L 293.87 477.60 L 300.00 477.56 L 306.13 477.60 L 312.25 477.72 L 318.34 477.91 L 324.39 478.17 L 330.37 478.52 L 336.29 478.93 L 342.11 479.42 L 347.84 479.98 L 353.44 480.62 L 358.92 481.32 L 364.26 482.09 L 369.45 482.92 L 374.46 483.82 L 379.30 484.78 L 383.94 485.80 L 388.39 486.88 L 392.62 488.01 L 396.63 489.19 L 400.40 490.42 L 403.93 491.70 L 407.22 493.02 L 410.24 494.38 L 413.00 495.77 L 415.48 497.20 L 417.69 498.66 L 419.62 500.14 L 421.25 501.65 L 422.60 503.17 L 423.65 504.71 L 424.40 506.26 L 424.85 507.82 L 425.00 509.38 " stroke='#fff' stroke-width='1' stroke-dasharray='6,6' opacity='0.08' fill='none'/><path d="M 410.24 524.37 L 407.22 525.73 L 403.93 527.05 L 400.40 528.33 L 396.63 529.56 L 392.62 530.74 L 388.39 531.87 L 383.94 532.95 L 379.30 533.97 L 374.46 534.93 L 369.45 535.83 L 364.26 536.66 L 358.92 537.43 L 353.44 538.14 L 347.84 538.77 L 342.11 539.33 L 336.29 539.82 L 330.37 540.24 L 324.39 540.58 L 318.34 540.85 L 312.25 541.04 L 306.13 541.15 L 300.00 541.19 L 293.87 541.15 L 287.75 541.04 L 281.66 540.85 L 275.61 540.58 L 269.63 540.24 L 263.71 539.82 L 257.89 539.33 L 252.16 538.77 L 246.56 538.14 L 241.08 537.43 L 235.74 536.66 L 230.55 535.83 L 225.54 534.93 L 220.70 533.97 L 216.06 532.95 L 211.61 531.87 L 207.38 530.74 L 203.37 529.56 L 199.60 528.33 L 196.07 527.05 L 192.78 525.73 L 189.76 524.37 " stroke='#fff' stroke-width='1' stroke-dasharray='6,6' opacity='0.18' fill='none'/><path d="M 516.51 420.88 L 516.25 423.59 L 515.46 426.28 L 514.16 428.97 M 85.84 428.97 L 84.54 426.28 L 83.75 423.59 L 83.49 420.88 L 83.75 418.18 L 84.54 415.48 L 85.84 412.80 L 87.65 410.13 L 89.98 407.49 L 92.82 404.89 L 96.15 402.32 L 99.97 399.80 L 104.28 397.32 L 109.06 394.91 L 114.30 392.55 L 119.98 390.27 L 126.10 388.06 L 132.64 385.93 L 139.58 383.88 L 146.91 381.92 L 154.60 380.05 L 162.65 378.29 L 171.03 376.62 L 179.72 375.07 L 188.69 373.62 L 197.94 372.29 L 207.43 371.07 L 217.15 369.97 L 227.06 369.00 L 237.15 368.15 L 247.39 367.43 L 257.76 366.84 L 268.23 366.38 L 278.78 366.04 L 289.38 365.85 L 300.00 365.78 L 310.62 365.85 L 321.22 366.04 L 331.77 366.38 L 342.24 366.84 L 352.61 367.43 L 362.85 368.15 L 372.94 369.00 L 382.85 369.97 L 392.57 371.07 L 402.06 372.29 L 411.31 373.62 L 420.28 375.07 L 428.97 376.62 L 437.35 378.29 L 445.40 380.05 L 453.09 381.92 L 460.42 383.88 L 467.36 385.93 L 473.90 388.06 L 480.02 390.27 L 485.70 392.55 L 490.94 394.91 L 495.72 397.32 L 500.03 399.80 L 503.85 402.32 L 507.18 404.89 L 510.02 407.49 L 512.35 410.13 L 514.16 412.80 L 515.46 415.48 L 516.25 418.18 L 516.51 420.88 " stroke='#fff' stroke-width='1' stroke-dasharray='6,6' opacity='0.08' fill='none'/><path d="M 512.35 431.63 L 510.02 434.27 L 507.18 436.88 L 503.85 439.45 L 500.03 441.97 L 495.72 444.44 L 490.94 446.86 L 485.70 449.21 L 480.02 451.50 L 473.90 453.71 L 467.36 455.84 L 460.42 457.89 L 453.09 459.85 L 445.40 461.71 L 437.35 463.48 L 428.97 465.14 L 420.28 466.70 L 411.31 468.15 L 402.06 469.48 L 392.57 470.70 L 382.85 471.79 L 372.94 472.77 L 362.85 473.61 L 352.61 474.34 L 342.24 474.93 L 331.77 475.39 L 321.22 475.72 L 310.62 475.92 L 300.00 475.99 L 289.38 475.92 L 278.78 475.72 L 268.23 475.39 L 257.76 474.93 L 247.39 474.34 L 237.15 473.61 L 227.06 472.77 L 217.15 471.79 L 207.43 470.70 L 197.94 469.48 L 188.69 468.15 L 179.72 466.70 L 171.03 465.14 L 162.65 463.48 L 154.60 461.71 L 146.91 459.85 L 139.58 457.89 L 132.64 455.84 L 126.10 453.71 L 119.98 451.50 L 114.30 449.21 L 109.06 446.86 L 104.28 444.44 L 99.97 441.97 L 96.15 439.45 L 92.82 436.88 L 89.98 434.27 L 87.65 431.63 " stroke='#fff' stroke-width='1' stroke-dasharray='6,6' opacity='0.18' fill='none'/><path d="M 50.30 296.88 L 51.20 293.76 L 52.71 290.66 L 54.80 287.59 L 57.49 284.54 L 60.76 281.53 L 64.61 278.56 L 69.03 275.65 L 74.00 272.80 L 79.52 270.01 L 85.57 267.29 L 92.13 264.65 L 99.20 262.10 L 106.75 259.63 L 114.76 257.27 L 123.22 255.01 L 132.11 252.85 L 141.40 250.81 L 151.08 248.89 L 161.11 247.09 L 171.47 245.42 L 182.15 243.88 L 193.11 242.48 L 204.33 241.21 L 215.78 240.09 L 227.43 239.11 L 239.25 238.28 L 251.23 237.59 L 263.32 237.06 L 275.50 236.68 L 287.73 236.45 L 300.00 236.37 L 312.27 236.45 L 324.50 236.68 L 336.68 237.06 L 348.77 237.59 L 360.75 238.28 L 372.57 239.11 L 384.22 240.09 L 395.67 241.21 L 406.89 242.48 L 417.85 243.88 L 428.53 245.42 L 438.89 247.09 L 448.92 248.89 L 458.60 250.81 L 467.89 252.85 L 476.78 255.01 L 485.24 257.27 L 493.25 259.63 L 500.80 262.10 L 507.87 264.65 L 514.43 267.29 L 520.48 270.01 L 526.00 272.80 L 530.97 275.65 L 535.39 278.56 L 539.24 281.53 L 542.51 284.54 L 545.20 287.59 L 547.29 290.66 L 548.80 293.76 L 549.70 296.88 L 550.00 300.00 " stroke='#fff' stroke-width='1' stroke-dasharray='6,6' opacity='0.08' fill='none'/><path d="M 550.00 300.00 L 549.70 303.12 L 548.80 306.24 L 547.29 309.34 L 545.20 312.41 L 542.51 315.46 L 539.24 318.47 L 535.39 321.44 L 530.97 324.35 L 526.00 327.20 L 520.48 329.99 L 514.43 332.71 L 507.87 335.35 L 500.80 337.90 L 493.25 340.37 L 485.24 342.73 L 476.78 344.99 L 467.89 347.15 L 458.60 349.19 L 448.92 351.11 L 438.89 352.91 L 428.53 354.58 L 417.85 356.12 L 406.89 357.52 L 395.67 358.79 L 384.22 359.91 L 372.57 360.89 L 360.75 361.72 L 348.77 362.41 L 336.68 362.94 L 324.50 363.32 L 312.27 363.55 L 300.00 363.63 L 287.73 363.55 L 275.50 363.32 L 263.32 362.94 L 251.23 362.41 L 239.25 361.72 L 227.43 360.89 L 215.78 359.91 L 204.33 358.79 L 193.11 357.52 L 182.15 356.12 L 171.47 354.58 L 161.11 352.91 L 151.08 351.11 L 141.40 349.19 L 132.11 347.15 L 123.22 344.99 L 114.76 342.73 L 106.75 340.37 L 99.20 337.90 L 92.13 335.35 L 85.57 332.71 L 79.52 329.99 L 74.00 327.20 L 69.03 324.35 L 64.61 321.44 L 60.76 318.47 L 57.49 315.46 L 54.80 312.41 L 52.71 309.34 L 51.20 306.24 L 50.30 303.12 L 50.00 300.00 " stroke='#fff' stroke-width='1' stroke-dasharray='6,6' opacity='0.18' fill='none'/><path d="M 87.65 168.37 L 89.98 165.73 L 92.82 163.12 L 96.15 160.55 L 99.97 158.03 L 104.28 155.56 L 109.06 153.14 L 114.30 150.79 L 119.98 148.50 L 126.10 146.29 L 132.64 144.16 L 139.58 142.11 L 146.91 140.15 L 154.60 138.29 L 162.65 136.52 L 171.03 134.86 L 179.72 133.30 L 188.69 131.85 L 197.94 130.52 L 207.43 129.30 L 217.15 128.21 L 227.06 127.23 L 237.15 126.39 L 247.39 125.66 L 257.76 125.07 L 268.23 124.61 L 278.78 124.28 L 289.38 124.08 L 300.00 124.01 L 310.62 124.08 L 321.22 124.28 L 331.77 124.61 L 342.24 125.07 L 352.61 125.66 L 362.85 126.39 L 372.94 127.23 L 382.85 128.21 L 392.57 129.30 L 402.06 130.52 L 411.31 131.85 L 420.28 133.30 L 428.97 134.86 L 437.35 136.52 L 445.40 138.29 L 453.09 140.15 L 460.42 142.11 L 467.36 144.16 L 473.90 146.29 L 480.02 148.50 L 485.70 150.79 L 490.94 153.14 L 495.72 155.56 L 500.03 158.03 L 503.85 160.55 L 507.18 163.12 L 510.02 165.73 L 512.35 168.37 " stroke='#fff' stroke-width='1' stroke-dasharray='6,6' opacity='0.08' fill='none'/><path d="M 516.51 179.12 L 516.25 181.82 L 515.46 184.52 L 514.16 187.20 L 512.35 189.87 L 510.02 192.51 L 507.18 195.11 L 503.85 197.68 L 500.03 200.20 L 495.72 202.68 L 490.94 205.09 L 485.70 207.45 L 480.02 209.73 L 473.90 211.94 L 467.36 214.07 L 460.42 216.12 L 453.09 218.08 L 445.40 219.95 L 437.35 221.71 L 428.97 223.38 L 420.28 224.93 L 411.31 226.38 L 402.06 227.71 L 392.57 228.93 L 382.85 230.03 L 372.94 231.00 L 362.85 231.85 L 352.61 232.57 L 342.24 233.16 L 331.77 233.62 L 321.22 233.96 L 310.62 234.15 L 300.00 234.22 L 289.38 234.15 L 278.78 233.96 L 268.23 233.62 L 257.76 233.16 L 247.39 232.57 L 237.15 231.85 L 227.06 231.00 L 217.15 230.03 L 207.43 228.93 L 197.94 227.71 L 188.69 226.38 L 179.72 224.93 L 171.03 223.38 L 162.65 221.71 L 154.60 219.95 L 146.91 218.08 L 139.58 216.12 L 132.64 214.07 L 126.10 211.94 L 119.98 209.73 L 114.30 207.45 L 109.06 205.09 L 104.28 202.68 L 99.97 200.20 L 96.15 197.68 L 92.82 195.11 L 89.98 192.51 L 87.65 189.87 L 85.84 187.20 L 84.54 184.52 L 83.75 181.82 L 83.49 179.12 L 83.75 176.41 L 84.54 173.72 L 85.84 171.03 M 514.16 171.03 L 515.46 173.72 L 516.25 176.41 L 516.51 179.12 " stroke='#fff' stroke-width='1' stroke-dasharray='6,6' opacity='0.18' fill='none'/><path d="M 189.76 75.63 L 192.78 74.27 L 196.07 72.95 L 199.60 71.67 L 203.37 70.44 L 207.38 69.26 L 211.61 68.13 L 216.06 67.05 L 220.70 66.03 L 225.54 65.07 L 230.55 64.17 L 235.74 63.34 L 241.08 62.57 L 246.56 61.86 L 252.16 61.23 L 257.89 60.67 L 263.71 60.18 L 269.63 59.76 L 275.61 59.42 L 281.66 59.15 L 287.75 58.96 L 293.87 58.85 L 300.00 58.81 L 306.13 58.85 L 312.25 58.96 L 318.34 59.15 L 324.39 59.42 L 330.37 59.76 L 336.29 60.18 L 342.11 60.67 L 347.84 61.23 L 353.44 61.86 L 358.92 62.57 L 364.26 63.34 L 369.45 64.17 L 374.46 65.07 L 379.30 66.03 L 383.94 67.05 L 388.39 68.13 L 392.62 69.26 L 396.63 70.44 L 400.40 71.67 L 403.93 72.95 L 407.22 74.27 L 410.24 75.63 " stroke='#fff' stroke-width='1' stroke-dasharray='6,6' opacity='0.08' fill='none'/><path d="M 425.00 90.62 L 424.85 92.18 L 424.40 93.74 L 423.65 95.29 L 422.60 96.83 L 421.25 98.35 L 419.62 99.86 L 417.69 101.34 L 415.48 102.80 L 413.00 104.23 L 410.24 105.62 L 407.22 106.98 L 403.93 108.30 L 400.40 109.58 L 396.63 110.81 L 392.62 111.99 L 388.39 113.12 L 383.94 114.20 L 379.30 115.22 L 374.46 116.18 L 369.45 117.08 L 364.26 117.91 L 358.92 118.68 L 353.44 119.38 L 347.84 120.02 L 342.11 120.58 L 336.29 121.07 L 330.37 121.48 L 324.39 121.83 L 318.34 122.09 L 312.25 122.28 L 306.13 122.40 L 300.00 122.44 L 293.87 122.40 L 287.75 122.28 L 281.66 122.09 L 275.61 121.83 L 269.63 121.48 L 263.71 121.07 L 257.89 120.58 L 252.16 120.02 L 246.56 119.38 L 241.08 118.68 L 235.74 117.91 L 230.55 117.08 L 225.54 116.18 L 220.70 115.22 L 216.06 114.20 L 211.61 113.12 L 207.38 111.99 L 203.37 110.81 L 199.60 109.58 L 196.07 108.30 L 192.78 106.98 L 189.76 105.62 L 187.00 104.23 L 184.52 102.80 L 182.31 101.34 L 180.38 99.86 L 178.75 98.35 L 177.40 96.83 L 176.35 95.29 L 175.60 93.74 L 175.15 92.18 L 175.00 90.62 L 175.15 89.06 L 175.60 87.51 L 176.35 85.96 L 177.40 84.42 L 178.75 82.89 L 180.38 81.39 L 182.31 79.91 L 184.52 78.45 L 187.00 77.02 M 413.00 77.02 L 415.48 78.45 L 417.69 79.91 L 419.62 81.39 L 421.25 82.89 L 422.60 84.42 L 423.65 85.96 L 424.40 87.51 L 424.85 89.06 L 425.00 90.62 " stroke='#fff' stroke-width='1' stroke-dasharray='6,6' opacity='0.18' fill='none'/><path d="M 300.00 541.77 L 306.14 541.69 L 312.27 541.48 L 318.39 541.11 L 324.50 540.60 L 330.60 539.95 L 336.68 539.15 L 342.74 538.21 L 348.77 537.12 L 354.78 535.89 L 360.75 534.52 L 366.68 533.01 L 372.57 531.36 L 378.42 529.56 L 384.22 527.63 L 389.97 525.57 L 395.67 523.36 L 401.31 521.03 L 406.89 518.55 L 412.40 515.95 L 417.85 513.22 L 423.22 510.36 L 428.53 507.37 L 433.75 504.26 L 438.89 501.02 L 443.95 497.67 L 448.92 494.19 L 453.81 490.60 L 458.60 486.89 L 463.29 483.07 L 467.89 479.14 L 472.39 475.10 L 476.78 470.96 L 481.06 466.71 L 485.24 462.36 L 489.30 457.92 L 493.25 453.38 L 497.09 448.74 L 500.80 444.02 L 504.40 439.21 L 507.87 434.32 L 511.21 429.34 L 514.43 424.29 L 517.52 419.17 L 520.48 413.97 L 523.31 408.70 L 526.00 403.37 L 528.55 397.97 L 530.97 392.52 L 533.25 387.01 L 535.39 381.45 L 537.38 375.84 L 539.24 370.18 L 540.94 364.48 L 542.51 358.74 L 543.93 352.97 L 545.20 347.17 L 546.32 341.33 L 547.29 335.47 L 548.12 329.59 L 548.80 323.70 L 549.32 317.79 L 549.70 311.86 L 549.92 305.93 " stroke='#fff' stroke-width='1' stroke-dasharray='6,6' opacity='0.08' fill='none'/><path d="M 550.00 300.00 L 549.92 294.07 L 549.70 288.14 L 549.32 282.21 L 548.80 276.30 L 548.12 270.41 L 547.29 264.53 L 546.32 258.67 L 545.20 252.83 L 543.93 247.03 L 542.51 241.26 L 540.94 235.52 L 539.24 229.82 L 537.38 224.16 L 535.39 218.55 L 533.25 212.99 L 530.97 207.48 L 528.55 202.03 L 526.00 196.63 L 523.31 191.30 L 520.48 186.03 L 517.52 180.83 L 514.43 175.71 L 511.21 170.66 L 507.87 165.68 L 504.40 160.79 L 500.80 155.98 L 497.09 151.26 L 493.25 146.62 L 489.30 142.08 L 485.24 137.64 L 481.06 133.29 L 476.78 129.04 L 472.39 124.90 L 467.89 120.86 L 463.29 116.93 L 458.60 113.11 L 453.81 109.40 L 448.92 105.81 L 443.95 102.33 L 438.89 98.98 L 433.75 95.74 L 428.53 92.63 L 423.22 89.64 L 417.85 86.78 L 412.40 84.05 L 406.89 81.45 L 401.31 78.97 L 395.67 76.64 L 389.97 74.43 L 384.22 72.37 L 378.42 70.44 L 372.57 68.64 L 366.68 66.99 L 360.75 65.48 L 354.78 64.11 L 348.77 62.88 L 342.74 61.79 L 336.68 60.85 L 330.60 60.05 L 324.50 59.40 L 318.39 58.89 L 312.27 58.52 L 306.14 58.31 L 300.00 58.23 " stroke='#fff' stroke-width='1' stroke-dasharray='6,6' opacity='0.18' fill='none'/><path d="M 300.00 541.77 L 305.31 542.48 L 310.62 543.04 L 315.93 543.45 L 321.22 543.72 L 326.50 543.84 L 331.77 543.82 L 337.01 543.65 L 342.24 543.33 L 347.44 542.86 L 352.61 542.25 L 357.75 541.49 L 362.85 540.59 L 367.91 539.54 L 372.94 538.35 L 377.92 537.02 L 382.85 535.54 L 387.74 533.92 L 392.57 532.16 L 397.34 530.26 " stroke='#fff' stroke-width='1' stroke-dasharray='6,6' opacity='0.08' fill='none'/><path d="M 402.06 528.22 L 406.72 526.04 L 411.31 523.73 L 415.83 521.28 L 420.28 518.70 L 424.67 515.98 L 428.97 513.14 L 433.20 510.17 L 437.35 507.07 L 441.42 503.85 L 445.40 500.50 L 449.29 497.04 L 453.09 493.45 L 456.80 489.75 L 460.42 485.93 L 463.94 482.01 L 467.36 477.97 L 470.68 473.82 L 473.90 469.57 L 477.01 465.22 L 480.02 460.77 L 482.92 456.22 L 485.70 451.58 L 488.38 446.85 L 490.94 442.03 L 493.39 437.12 L 495.72 432.13 L 497.93 427.06 L 500.03 421.91 L 502.00 416.69 L 503.85 411.40 L 505.58 406.05 L 507.18 400.63 L 508.66 395.14 L 510.02 389.61 L 511.25 384.01 L 512.35 378.37 L 513.32 372.68 L 514.16 366.94 L 514.88 361.17 L 515.46 355.36 L 515.92 349.51 L 516.25 343.64 L 516.44 337.74 L 516.51 331.81 L 516.44 325.87 L 516.25 319.91 L 515.92 313.94 L 515.46 307.96 L 514.88 301.98 L 514.16 296.00 L 513.32 290.01 L 512.35 284.04 L 511.25 278.07 L 510.02 272.12 L 508.66 266.18 L 507.18 260.26 L 505.58 254.37 L 503.85 248.51 L 502.00 242.67 L 500.03 236.87 L 497.93 231.11 L 495.72 225.39 L 493.39 219.72 L 490.94 214.09 L 488.38 208.51 L 485.70 202.99 L 482.92 197.53 L 480.02 192.13 L 477.01 186.80 L 473.90 181.53 L 470.68 176.34 L 467.36 171.22 L 463.94 166.17 L 460.42 161.21 L 456.80 156.33 L 453.09 151.54 L 449.29 146.84 L 445.40 142.23 L 441.42 137.71 L 437.35 133.29 L 433.20 128.98 L 428.97 124.76 L 424.67 120.65 L 420.28 116.65 L 415.83 112.76 L 411.31 108.99 L 406.72 105.32 L 402.06 101.78 L 397.34 98.35 L 392.57 95.05 L 387.74 91.87 L 382.85 88.81 L 377.92 85.88 L 372.94 83.08 L 367.91 80.41 L 362.85 77.88 L 357.75 75.48 L 352.61 73.21 L 347.44 71.08 L 342.24 69.08 L 337.01 67.23 L 331.77 65.52 L 326.50 63.95 L 321.22 62.52 L 315.93 61.23 L 310.62 60.09 L 305.31 59.09 L 300.00 58.23 " stroke='#fff' stroke-width='1' stroke-dasharray='6,6' opacity='0.18' fill='none'/><path d="M 300.00 541.77 L 303.07 543.05 L 306.13 544.18 L 309.20 545.17 L 312.25 546.00 L 315.30 546.69 L 318.34 547.24 L 321.37 547.63 L 324.39 547.87 L 327.39 547.97 L 330.37 547.91 L 333.34 547.71 L 336.29 547.35 " stroke='#fff' stroke-width='1' stroke-dasharray='6,6' opacity='0.08' fill='none'/><path d="M 339.21 546.85 L 342.11 546.20 L 344.99 545.40 L 347.84 544.45 L 350.66 543.36 L 353.44 542.12 L 356.20 540.73 L 358.92 539.20 L 361.61 537.52 L 364.26 535.70 L 366.87 533.74 L 369.45 531.64 L 371.98 529.39 L 374.46 527.01 L 376.90 524.50 L 379.30 521.85 L 381.65 519.06 L 383.94 516.14 L 386.19 513.10 L 388.39 509.92 L 390.53 506.62 L 392.62 503.19 L 394.65 499.64 L 396.63 495.97 L 398.54 492.18 L 400.40 488.28 L 402.20 484.26 L 403.93 480.14 L 405.61 475.90 L 407.22 471.56 L 408.76 467.11 L 410.24 462.57 L 411.65 457.92 L 413.00 453.18 L 414.28 448.35 L 415.48 443.43 L 416.62 438.42 L 417.69 433.33 L 418.69 428.16 L 419.62 422.91 L 420.47 417.59 L 421.25 412.20 L 421.96 406.74 L 422.60 401.21 L 423.16 395.63 L 423.65 389.98 L 424.06 384.28 L 424.40 378.54 L 424.66 372.74 L 424.85 366.90 L 424.96 361.02 L 425.00 355.10 L 424.96 349.15 L 424.85 343.17 L 424.66 337.17 L 424.40 331.14 L 424.06 325.09 L 423.65 319.03 L 423.16 312.96 L 422.60 306.88 L 421.96 300.79 L 421.25 294.71 L 420.47 288.63 L 419.62 282.55 L 418.69 276.48 L 417.69 270.43 L 416.62 264.40 L 415.48 258.39 L 414.28 252.40 L 413.00 246.44 L 411.65 240.52 L 410.24 234.63 L 408.76 228.78 L 407.22 222.97 L 405.61 217.21 L 403.93 211.50 L 402.20 205.84 L 400.40 200.24 L 398.54 194.70 L 396.63 189.22 L 394.65 183.81 L 392.62 178.47 L 390.53 173.20 L 388.39 168.01 L 386.19 162.90 L 383.94 157.87 L 381.65 152.92 L 379.30 148.07 L 376.90 143.31 L 374.46 138.64 L 371.98 134.06 L 369.45 129.59 L 366.87 125.22 L 364.26 120.96 L 361.61 116.80 L 358.92 112.76 L 356.20 108.82 L 353.44 105.01 L 350.66 101.30 L 347.84 97.72 L 344.99 94.26 L 342.11 90.93 L 339.21 87.72 L 336.29 84.64 L 333.34 81.69 L 330.37 78.87 L 327.39 76.18 L 324.39 73.63 L 321.37 71.21 L 318.34 68.94 L 315.30 66.80 L 312.25 64.80 L 309.20 62.94 L 306.13 61.23 L 303.07 59.66 L 300.00 58.23 " stroke='#fff' stroke-width='1' stroke-dasharray='6,6' opacity='0.18' fill='none'/><path d="M 300.00 541.77 L 300.00 543.26 L 300.00 544.60 L 300.00 545.79 L 300.00 546.84 L 300.00 547.74 L 300.00 548.49 L 300.00 549.09 L 300.00 549.54 L 300.00 549.83 L 300.00 549.98 " stroke='#fff' stroke-width='1' stroke-dasharray='6,6' opacity='0.08' fill='none'/><path d="M 300.00 549.98 L 300.00 549.83 L 300.00 549.52 L 300.00 549.07 L 300.00 548.47 L 300.00 547.71 L 300.00 546.81 L 300.00 545.76 L 300.00 544.56 L 300.00 543.21 L 300.00 541.72 L 300.00 540.08 L 300.00 538.30 L 300.00 536.37 L 300.00 534.30 L 300.00 532.09 L 300.00 529.74 L 300.00 527.25 L 300.00 524.63 L 300.00 521.87 L 300.00 518.97 L 300.00 515.95 L 300.00 512.79 L 300.00 509.51 L 300.00 506.10 L 300.00 502.56 L 300.00 498.90 L 300.00 495.13 L 300.00 491.23 L 300.00 487.22 L 300.00 483.10 L 300.00 478.87 L 300.00 474.53 L 300.00 470.08 L 300.00 465.54 L 300.00 460.89 L 300.00 456.14 L 300.00 451.31 L 300.00 446.38 L 300.00 441.36 L 300.00 436.26 L 300.00 431.07 L 300.00 425.81 L 300.00 420.47 L 300.00 415.05 L 300.00 409.57 L 300.00 404.03 L 300.00 398.41 L 300.00 392.75 L 300.00 387.02 L 300.00 381.24 L 300.00 375.42 L 300.00 369.54 L 300.00 363.63 L 300.00 357.68 L 300.00 351.69 L 300.00 345.67 L 300.00 339.63 L 300.00 333.56 L 300.00 327.47 L 300.00 321.36 L 300.00 315.24 L 300.00 309.11 L 300.00 302.98 L 300.00 296.84 L 300.00 290.71 L 300.00 284.58 L 300.00 278.46 L 300.00 272.35 L 300.00 266.27 L 300.00 260.20 L 300.00 254.15 L 300.00 248.13 L 300.00 242.15 L 300.00 236.20 L 300.00 230.28 L 300.00 224.41 L 300.00 218.59 L 300.00 212.81 L 300.00 207.09 L 300.00 201.42 L 300.00 195.81 L 300.00 190.26 L 300.00 184.78 L 300.00 179.37 L 300.00 174.04 L 300.00 168.78 L 300.00 163.59 L 300.00 158.49 L 300.00 153.48 L 300.00 148.55 L 300.00 143.71 L 300.00 138.97 L 300.00 134.33 L 300.00 129.78 L 300.00 125.34 L 300.00 121.00 L 300.00 116.77 L 300.00 112.66 L 300.00 108.65 L 300.00 104.76 L 300.00 100.99 L 300.00 97.33 L 300.00 93.80 L 300.00 90.39 L 300.00 87.11 L 300.00 83.96 L 300.00 80.94 L 300.00 78.05 L 300.00 75.29 L 300.00 72.67 L 300.00 70.19 L 300.00 67.84 L 300.00 65.63 L 300.00 63.57 L 300.00 61.65 L 300.00 59.87 L 300.00 58.23 " stroke='#fff' stroke-width='1' stroke-dasharray='6,6' opacity='0.18' fill='none'/><path d="M 300.00 541.77 L 296.93 543.05 L 293.87 544.18 L 290.80 545.17 L 287.75 546.00 L 284.70 546.69 L 281.66 547.24 L 278.63 547.63 L 275.61 547.87 L 272.61 547.97 L 269.63 547.91 L 266.66 547.71 L 263.71 547.35 " stroke='#fff' stroke-width='1' stroke-dasharray='6,6' opacity='0.08' fill='none'/><path d="M 260.79 546.85 L 257.89 546.20 L 255.01 545.40 L 252.16 544.45 L 249.34 543.36 L 246.56 542.12 L 243.80 540.73 L 241.08 539.20 L 238.39 537.52 L 235.74 535.70 L 233.13 533.74 L 230.55 531.64 L 228.02 529.39 L 225.54 527.01 L 223.10 524.50 L 220.70 521.85 L 218.35 519.06 L 216.06 516.14 L 213.81 513.10 L 211.61 509.92 L 209.47 506.62 L 207.38 503.19 L 205.35 499.64 L 203.37 495.97 L 201.46 492.18 L 199.60 488.28 L 197.80 484.26 L 196.07 480.14 L 194.39 475.90 L 192.78 471.56 L 191.24 467.11 L 189.76 462.57 L 188.35 457.92 L 187.00 453.18 L 185.72 448.35 L 184.52 443.43 L 183.38 438.42 L 182.31 433.33 L 181.31 428.16 L 180.38 422.91 L 179.53 417.59 L 178.75 412.20 L 178.04 406.74 L 177.40 401.21 L 176.84 395.63 L 176.35 389.98 L 175.94 384.28 L 175.60 378.54 L 175.34 372.74 L 175.15 366.90 L 175.04 361.02 L 175.00 355.10 L 175.04 349.15 L 175.15 343.17 L 175.34 337.17 L 175.60 331.14 L 175.94 325.09 L 176.35 319.03 L 176.84 312.96 L 177.40 306.88 L 178.04 300.79 L 178.75 294.71 L 179.53 288.63 L 180.38 282.55 L 181.31 276.48 L 182.31 270.43 L 183.38 264.40 L 184.52 258.39 L 185.72 252.40 L 187.00 246.44 L 188.35 240.52 L 189.76 234.63 L 191.24 228.78 L 192.78 222.97 L 194.39 217.21 L 196.07 211.50 L 197.80 205.84 L 199.60 200.24 L 201.46 194.70 L 203.37 189.22 L 205.35 183.81 L 207.38 178.47 L 209.47 173.20 L 211.61 168.01 L 213.81 162.90 L 216.06 157.87 L 218.35 152.92 L 220.70 148.07 L 223.10 143.31 L 225.54 138.64 L 228.02 134.06 L 230.55 129.59 L 233.13 125.22 L 235.74 120.96 L 238.39 116.80 L 241.08 112.76 L 243.80 108.82 L 246.56 105.01 L 249.34 101.30 L 252.16 97.72 L 255.01 94.26 L 257.89 90.93 L 260.79 87.72 L 263.71 84.64 L 266.66 81.69 L 269.63 78.87 L 272.61 76.18 L 275.61 73.63 L 278.63 71.21 L 281.66 68.94 L 284.70 66.80 L 287.75 64.80 L 290.80 62.94 L 293.87 61.23 L 296.93 59.66 L 300.00 58.23 " stroke='#fff' stroke-width='1' stroke-dasharray='6,6' opacity='0.18' fill='none'/><path d="M 300.00 541.77 L 294.69 542.48 L 289.38 543.04 L 284.07 543.45 L 278.78 543.72 L 273.50 543.84 L 268.23 543.82 L 262.99 543.65 L 257.76 543.33 L 252.56 542.86 L 247.39 542.25 L 242.25 541.49 L 237.15 540.59 L 232.09 539.54 L 227.06 538.35 L 222.08 537.02 L 217.15 535.54 L 212.26 533.92 L 207.43 532.16 L 202.66 530.26 " stroke='#fff' stroke-width='1' stroke-dasharray='6,6' opacity='0.08' fill='none'/><path d="M 197.94 528.22 L 193.28 526.04 L 188.69 523.73 L 184.17 521.28 L 179.72 518.70 L 175.33 515.98 L 171.03 513.14 L 166.80 510.17 L 162.65 507.07 L 158.58 503.85 L 154.60 500.50 L 150.71 497.04 L 146.91 493.45 L 143.20 489.75 L 139.58 485.93 L 136.06 482.01 L 132.64 477.97 L 129.32 473.82 L 126.10 469.57 L 122.99 465.22 L 119.98 460.77 L 117.08 456.22 L 114.30 451.58 L 111.62 446.85 L 109.06 442.03 L 106.61 437.12 L 104.28 432.13 L 102.07 427.06 L 99.97 421.91 L 98.00 416.69 L 96.15 411.40 L 94.42 406.05 L 92.82 400.63 L 91.34 395.14 L 89.98 389.61 L 88.75 384.01 L 87.65 378.37 L 86.68 372.68 L 85.84 366.94 L 85.12 361.17 L 84.54 355.36 L 84.08 349.51 L 83.75 343.64 L 83.56 337.74 L 83.49 331.81 L 83.56 325.87 L 83.75 319.91 L 84.08 313.94 L 84.54 307.96 L 85.12 301.98 L 85.84 296.00 L 86.68 290.01 L 87.65 284.04 L 88.75 278.07 L 89.98 272.12 L 91.34 266.18 L 92.82 260.26 L 94.42 254.37 L 96.15 248.51 L 98.00 242.67 L 99.97 236.87 L 102.07 231.11 L 104.28 225.39 L 106.61 219.72 L 109.06 214.09 L 111.62 208.51 L 114.30 202.99 L 117.08 197.53 L 119.98 192.13 L 122.99 186.80 L 126.10 181.53 L 129.32 176.34 L 132.64 171.22 L 136.06 166.17 L 139.58 161.21 L 143.20 156.33 L 146.91 151.54 L 150.71 146.84 L 154.60 142.23 L 158.58 137.71 L 162.65 133.29 L 166.80 128.98 L 171.03 124.76 L 175.33 120.65 L 179.72 116.65 L 184.17 112.76 L 188.69 108.99 L 193.28 105.32 L 197.94 101.78 L 202.66 98.35 L 207.43 95.05 L 212.26 91.87 L 217.15 88.81 L 222.08 85.88 L 227.06 83.08 L 232.09 80.41 L 237.15 77.88 L 242.25 75.48 L 247.39 73.21 L 252.56 71.08 L 257.76 69.08 L 262.99 67.23 L 268.23 65.52 L 273.50 63.95 L 278.78 62.52 L 284.07 61.23 L 289.38 60.09 L 294.69 59.09 L 300.00 58.23 " stroke='#fff' stroke-width='1' stroke-dasharray='6,6' opacity='0.18' fill='none'/><path d="M 300.00 541.77 L 293.86 541.69 L 287.73 541.48 L 281.61 541.11 L 275.50 540.60 L 269.40 539.95 L 263.32 539.15 L 257.26 538.21 L 251.23 537.12 L 245.22 535.89 L 239.25 534.52 L 233.32 533.01 L 227.43 531.36 L 221.58 529.56 L 215.78 527.63 L 210.03 525.57 L 204.33 523.36 L 198.69 521.03 L 193.11 518.55 L 187.60 515.95 L 182.15 513.22 L 176.78 510.36 L 171.47 507.37 L 166.25 504.26 L 161.11 501.02 L 156.05 497.67 L 151.08 494.19 L 146.19 490.60 L 141.40 486.89 L 136.71 483.07 L 132.11 479.14 L 127.61 475.10 L 123.22 470.96 L 118.94 466.71 L 114.76 462.36 L 110.70 457.92 L 106.75 453.38 L 102.91 448.74 L 99.20 444.02 L 95.60 439.21 L 92.13 434.32 L 88.79 429.34 L 85.57 424.29 L 82.48 419.17 L 79.52 413.97 L 76.69 408.70 L 74.00 403.37 L 71.45 397.97 L 69.03 392.52 L 66.75 387.01 L 64.61 381.45 L 62.62 375.84 L 60.76 370.18 L 59.06 364.48 L 57.49 358.74 L 56.07 352.97 L 54.80 347.17 L 53.68 341.33 L 52.71 335.47 L 51.88 329.59 L 51.20 323.70 L 50.68 317.79 L 50.30 311.86 L 50.08 305.93 " stroke='#fff' stroke-width='1' stroke-dasharray='6,6' opacity='0.08' fill='none'/><path d="M 50.00 300.00 L 50.08 294.07 L 50.30 288.14 L 50.68 282.21 L 51.20 276.30 L 51.88 270.41 L 52.71 264.53 L 53.68 258.67 L 54.80 252.83 L 56.07 247.03 L 57.49 241.26 L 59.06 235.52 L 60.76 229.82 L 62.62 224.16 L 64.61 218.55 L 66.75 212.99 L 69.03 207.48 L 71.45 202.03 L 74.00 196.63 L 76.69 191.30 L 79.52 186.03 L 82.48 180.83 L 85.57 175.71 L 88.79 170.66 L 92.13 165.68 L 95.60 160.79 L 99.20 155.98 L 102.91 151.26 L 106.75 146.62 L 110.70 142.08 L 114.76 137.64 L 118.94 133.29 L 123.22 129.04 L 127.61 124.90 L 132.11 120.86 L 136.71 116.93 L 141.40 113.11 L 146.19 109.40 L 151.08 105.81 L 156.05 102.33 L 161.11 98.98 L 166.25 95.74 L 171.47 92.63 L 176.78 89.64 L 182.15 86.78 L 187.60 84.05 L 193.11 81.45 L 198.69 78.97 L 204.33 76.64 L 210.03 74.43 L 215.78 72.37 L 221.58 70.44 L 227.43 68.64 L 233.32 66.99 L 239.25 65.48 L 245.22 64.11 L 251.23 62.88 L 257.26 61.79 L 263.32 60.85 L 269.40 60.05 L 275.50 59.40 L 281.61 58.89 L 287.73 58.52 L 293.86 58.31 L 300.00 58.23 " stroke='#fff' stroke-width='1' stroke-dasharray='6,6' opacity='0.18' fill='none'/><path d="M 300.00 541.77 L 294.69 540.91 L 289.38 539.91 L 284.07 538.77 L 278.78 537.48 L 273.50 536.05 L 268.23 534.48 L 262.99 532.77 L 257.76 530.92 L 252.56 528.92 L 247.39 526.79 L 242.25 524.52 L 237.15 522.12 L 232.09 519.59 L 227.06 516.92 L 222.08 514.12 L 217.15 511.19 L 212.26 508.13 L 207.43 504.95 L 202.66 501.65 L 197.94 498.22 L 193.28 494.68 L 188.69 491.01 L 184.17 487.24 L 179.72 483.35 L 175.33 479.35 L 171.03 475.24 L 166.80 471.02 L 162.65 466.71 L 158.58 462.29 L 154.60 457.77 L 150.71 453.16 L 146.91 448.46 L 143.20 443.67 L 139.58 438.79 L 136.06 433.83 L 132.64 428.78 L 129.32 423.66 L 126.10 418.47 L 122.99 413.20 L 119.98 407.87 L 117.08 402.47 L 114.30 397.01 L 111.62 391.49 L 109.06 385.91 L 106.61 380.28 L 104.28 374.61 L 102.07 368.89 L 99.97 363.13 L 98.00 357.33 L 96.15 351.49 L 94.42 345.63 L 92.82 339.74 L 91.34 333.82 L 89.98 327.88 L 88.75 321.93 L 87.65 315.96 L 86.68 309.99 L 85.84 304.00 L 85.12 298.02 L 84.54 292.04 L 84.08 286.06 L 83.75 280.09 L 83.56 274.13 L 83.49 268.19 L 83.56 262.26 L 83.75 256.36 L 84.08 250.49 L 84.54 244.64 L 85.12 238.83 L 85.84 233.06 L 86.68 227.32 L 87.65 221.63 L 88.75 215.99 L 89.98 210.39 L 91.34 204.86 L 92.82 199.37 L 94.42 193.95 L 96.15 188.60 L 98.00 183.31 L 99.97 178.09 L 102.07 172.94 L 104.28 167.87 L 106.61 162.88 L 109.06 157.97 L 111.62 153.15 L 114.30 148.42 L 117.08 143.78 L 119.98 139.23 L 122.99 134.78 L 126.10 130.43 L 129.32 126.18 L 132.64 122.03 L 136.06 117.99 L 139.58 114.07 L 143.20 110.25 L 146.91 106.55 L 150.71 102.96 L 154.60 99.50 L 158.58 96.15 L 162.65 92.93 L 166.80 89.83 L 171.03 86.86 L 175.33 84.02 L 179.72 81.30 L 184.17 78.72 L 188.69 76.27 L 193.28 73.96 L 197.94 71.78 " stroke='#fff' stroke-width='1' stroke-dasharray='6,6' opacity='0.08' fill='none'/><path d="M 202.66 69.74 L 207.43 67.84 L 212.26 66.08 L 217.15 64.46 L 222.08 62.98 L 227.06 61.65 L 232.09 60.46 L 237.15 59.41 L 242.25 58.51 L 247.39 57.75 L 252.56 57.14 L 257.76 56.67 L 262.99 56.35 L 268.23 56.18 L 273.50 56.16 L 278.78 56.28 L 284.07 56.55 L 289.38 56.96 L 294.69 57.52 L 300.00 58.23 " stroke='#fff' stroke-width='1' stroke-dasharray='6,6' opacity='0.18' fill='none'/><path d="M 300.00 541.77 L 296.93 540.34 L 293.87 538.77 L 290.80 537.06 L 287.75 535.20 L 284.70 533.20 L 281.66 531.06 L 278.63 528.79 L 275.61 526.37 L 272.61 523.82 L 269.63 521.13 L 266.66 518.31 L 263.71 515.36 L 260.79 512.28 L 257.89 509.07 L 255.01 505.74 L 252.16 502.28 L 249.34 498.70 L 246.56 494.99 L 243.80 491.18 L 241.08 487.24 L 238.39 483.20 L 235.74 479.04 L 233.13 474.78 L 230.55 470.41 L 228.02 465.94 L 225.54 461.36 L 223.10 456.69 L 220.70 451.93 L 218.35 447.08 L 216.06 442.13 L 213.81 437.10 L 211.61 431.99 L 209.47 426.80 L 207.38 421.53 L 205.35 416.19 L 203.37 410.78 L 201.46 405.30 L 199.60 399.76 L 197.80 394.16 L 196.07 388.50 L 194.39 382.79 L 192.78 377.03 L 191.24 371.22 L 189.76 365.37 L 188.35 359.48 L 187.00 353.56 L 185.72 347.60 L 184.52 341.61 L 183.38 335.60 L 182.31 329.57 L 181.31 323.52 L 180.38 317.45 L 179.53 311.37 L 178.75 305.29 L 178.04 299.21 L 177.40 293.12 L 176.84 287.04 L 176.35 280.97 L 175.94 274.91 L 175.60 268.86 L 175.34 262.83 L 175.15 256.83 L 175.04 250.85 L 175.00 244.90 L 175.04 238.98 L 175.15 233.10 L 175.34 227.26 L 175.60 221.46 L 175.94 215.72 L 176.35 210.02 L 176.84 204.37 L 177.40 198.79 L 178.04 193.26 L 178.75 187.80 L 179.53 182.41 L 180.38 177.09 L 181.31 171.84 L 182.31 166.67 L 183.38 161.58 L 184.52 156.57 L 185.72 151.65 L 187.00 146.82 L 188.35 142.08 L 189.76 137.43 L 191.24 132.89 L 192.78 128.44 L 194.39 124.10 L 196.07 119.86 L 197.80 115.74 L 199.60 111.72 L 201.46 107.82 L 203.37 104.03 L 205.35 100.36 L 207.38 96.81 L 209.47 93.38 L 211.61 90.08 L 213.81 86.90 L 216.06 83.86 L 218.35 80.94 L 220.70 78.15 L 223.10 75.50 L 225.54 72.99 L 228.02 70.61 L 230.55 68.36 L 233.13 66.26 L 235.74 64.30 L 238.39 62.48 L 241.08 60.80 L 243.80 59.27 L 246.56 57.88 L 249.34 56.64 L 252.16 55.55 L 255.01 54.60 L 257.89 53.80 L 260.79 53.15 " stroke='#fff' stroke-width='1' stroke-dasharray='6,6' opacity='0.08' fill='none'/><path d="M 263.71 52.65 L 266.66 52.29 L 269.63 52.09 L 272.61 52.03 L 275.61 52.13 L 278.63 52.37 L 281.66 52.76 L 284.70 53.31 L 287.75 54.00 L 290.80 54.83 L 293.87 55.82 L 296.93 56.95 L 300.00 58.23 " stroke='#fff' stroke-width='1' stroke-dasharray='6,6' opacity='0.18' fill='none'/><path d="M 300.00 541.77 L 300.00 540.13 L 300.00 538.35 L 300.00 536.43 L 300.00 534.37 L 300.00 532.16 L 300.00 529.81 L 300.00 527.33 L 300.00 524.71 L 300.00 521.95 L 300.00 519.06 L 300.00 516.04 L 300.00 512.89 L 300.00 509.61 L 300.00 506.20 L 300.00 502.67 L 300.00 499.01 L 300.00 495.24 L 300.00 491.35 L 300.00 487.34 L 300.00 483.23 L 300.00 479.00 L 300.00 474.66 L 300.00 470.22 L 300.00 465.67 L 300.00 461.03 L 300.00 456.29 L 300.00 451.45 L 300.00 446.52 L 300.00 441.51 L 300.00 436.41 L 300.00 431.22 L 300.00 425.96 L 300.00 420.63 L 300.00 415.22 L 300.00 409.74 L 300.00 404.19 L 300.00 398.58 L 300.00 392.91 L 300.00 387.19 L 300.00 381.41 L 300.00 375.59 L 300.00 369.72 L 300.00 363.80 L 300.00 357.85 L 300.00 351.87 L 300.00 345.85 L 300.00 339.80 L 300.00 333.73 L 300.00 327.65 L 300.00 321.54 L 300.00 315.42 L 300.00 309.29 L 300.00 303.16 L 300.00 297.02 L 300.00 290.89 L 300.00 284.76 L 300.00 278.64 L 300.00 272.53 L 300.00 266.44 L 300.00 260.37 L 300.00 254.33 L 300.00 248.31 L 300.00 242.32 L 300.00 236.37 L 300.00 230.46 L 300.00 224.58 L 300.00 218.76 L 300.00 212.98 L 300.00 207.25 L 300.00 201.59 L 300.00 195.97 L 300.00 190.43 L 300.00 184.95 L 300.00 179.53 L 300.00 174.19 L 300.00 168.93 L 300.00 163.74 L 300.00 158.64 L 300.00 153.62 L 300.00 148.69 L 300.00 143.86 L 300.00 139.11 L 300.00 134.46 L 300.00 129.92 L 300.00 125.47 L 300.00 121.13 L 300.00 116.90 L 300.00 112.78 L 300.00 108.77 L 300.00 104.87 L 300.00 101.10 L 300.00 97.44 L 300.00 93.90 L 300.00 90.49 L 300.00 87.21 L 300.00 84.05 L 300.00 81.03 L 300.00 78.13 L 300.00 75.37 L 300.00 72.75 L 300.00 70.26 L 300.00 67.91 L 300.00 65.70 L 300.00 63.63 L 300.00 61.70 L 300.00 59.92 L 300.00 58.28 L 300.00 56.79 L 300.00 55.44 L 300.00 54.24 L 300.00 53.19 L 300.00 52.29 L 300.00 51.53 L 300.00 50.93 L 300.00 50.48 L 300.00 50.17 L 300.00 50.02 " stroke='#fff' stroke-width='1' stroke-dasharray='6,6' opacity='0.08' fill='none'/><path d="M 300.00 50.02 L 300.00 50.17 L 300.00 50.46 L 300.00 50.91 L 300.00 51.51 L 300.00 52.26 L 300.00 53.16 L 300.00 54.21 L 300.00 55.40 L 300.00 56.74 L 300.00 58.23 " stroke='#fff' stroke-width='1' stroke-dasharray='6,6' opacity='0.18' fill='none'/><path d="M 300.00 541.77 L 303.07 540.34 L 306.13 538.77 L 309.20 537.06 L 312.25 535.20 L 315.30 533.20 L 318.34 531.06 L 321.37 528.79 L 324.39 526.37 L 327.39 523.82 L 330.37 521.13 L 333.34 518.31 L 336.29 515.36 L 339.21 512.28 L 342.11 509.07 L 344.99 505.74 L 347.84 502.28 L 350.66 498.70 L 353.44 494.99 L 356.20 491.18 L 358.92 487.24 L 361.61 483.20 L 364.26 479.04 L 366.87 474.78 L 369.45 470.41 L 371.98 465.94 L 374.46 461.36 L 376.90 456.69 L 379.30 451.93 L 381.65 447.08 L 383.94 442.13 L 386.19 437.10 L 388.39 431.99 L 390.53 426.80 L 392.62 421.53 L 394.65 416.19 L 396.63 410.78 L 398.54 405.30 L 400.40 399.76 L 402.20 394.16 L 403.93 388.50 L 405.61 382.79 L 407.22 377.03 L 408.76 371.22 L 410.24 365.37 L 411.65 359.48 L 413.00 353.56 L 414.28 347.60 L 415.48 341.61 L 416.62 335.60 L 417.69 329.57 L 418.69 323.52 L 419.62 317.45 L 420.47 311.37 L 421.25 305.29 L 421.96 299.21 L 422.60 293.12 L 423.16 287.04 L 423.65 280.97 L 424.06 274.91 L 424.40 268.86 L 424.66 262.83 L 424.85 256.83 L 424.96 250.85 L 425.00 244.90 L 424.96 238.98 L 424.85 233.10 L 424.66 227.26 L 424.40 221.46 L 424.06 215.72 L 423.65 210.02 L 423.16 204.37 L 422.60 198.79 L 421.96 193.26 L 421.25 187.80 L 420.47 182.41 L 419.62 177.09 L 418.69 171.84 L 417.69 166.67 L 416.62 161.58 L 415.48 156.57 L 414.28 151.65 L 413.00 146.82 L 411.65 142.08 L 410.24 137.43 L 408.76 132.89 L 407.22 128.44 L 405.61 124.10 L 403.93 119.86 L 402.20 115.74 L 400.40 111.72 L 398.54 107.82 L 396.63 104.03 L 394.65 100.36 L 392.62 96.81 L 390.53 93.38 L 388.39 90.08 L 386.19 86.90 L 383.94 83.86 L 381.65 80.94 L 379.30 78.15 L 376.90 75.50 L 374.46 72.99 L 371.98 70.61 L 369.45 68.36 L 366.87 66.26 L 364.26 64.30 L 361.61 62.48 L 358.92 60.80 L 356.20 59.27 L 353.44 57.88 L 350.66 56.64 L 347.84 55.55 L 344.99 54.60 L 342.11 53.80 L 339.21 53.15 " stroke='#fff' stroke-width='1' stroke-dasharray='6,6' opacity='0.08' fill='none'/><path d="M 336.29 52.65 L 333.34 52.29 L 330.37 52.09 L 327.39 52.03 L 324.39 52.13 L 321.37 52.37 L 318.34 52.76 L 315.30 53.31 L 312.25 54.00 L 309.20 54.83 L 306.13 55.82 L 303.07 56.95 L 300.00 58.23 " stroke='#fff' stroke-width='1' stroke-dasharray='6,6' opacity='0.18' fill='none'/><path d="M 300.00 541.77 L 305.31 540.91 L 310.62 539.91 L 315.93 538.77 L 321.22 537.48 L 326.50 536.05 L 331.77 534.48 L 337.01 532.77 L 342.24 530.92 L 347.44 528.92 L 352.61 526.79 L 357.75 524.52 L 362.85 522.12 L 367.91 519.59 L 372.94 516.92 L 377.92 514.12 L 382.85 511.19 L 387.74 508.13 L 392.57 504.95 L 397.34 501.65 L 402.06 498.22 L 406.72 494.68 L 411.31 491.01 L 415.83 487.24 L 420.28 483.35 L 424.67 479.35 L 428.97 475.24 L 433.20 471.02 L 437.35 466.71 L 441.42 462.29 L 445.40 457.77 L 449.29 453.16 L 453.09 448.46 L 456.80 443.67 L 460.42 438.79 L 463.94 433.83 L 467.36 428.78 L 470.68 423.66 L 473.90 418.47 L 477.01 413.20 L 480.02 407.87 L 482.92 402.47 L 485.70 397.01 L 488.38 391.49 L 490.94 385.91 L 493.39 380.28 L 495.72 374.61 L 497.93 368.89 L 500.03 363.13 L 502.00 357.33 L 503.85 351.49 L 505.58 345.63 L 507.18 339.74 L 508.66 333.82 L 510.02 327.88 L 511.25 321.93 L 512.35 315.96 L 513.32 309.99 L 514.16 304.00 L 514.88 298.02 L 515.46 292.04 L 515.92 286.06 L 516.25 280.09 L 516.44 274.13 L 516.51 268.19 L 516.44 262.26 L 516.25 256.36 L 515.92 250.49 L 515.46 244.64 L 514.88 238.83 L 514.16 233.06 L 513.32 227.32 L 512.35 221.63 L 511.25 215.99 L 510.02 210.39 L 508.66 204.86 L 507.18 199.37 L 505.58 193.95 L 503.85 188.60 L 502.00 183.31 L 500.03 178.09 L 497.93 172.94 L 495.72 167.87 L 493.39 162.88 L 490.94 157.97 L 488.38 153.15 L 485.70 148.42 L 482.92 143.78 L 480.02 139.23 L 477.01 134.78 L 473.90 130.43 L 470.68 126.18 L 467.36 122.03 L 463.94 117.99 L 460.42 114.07 L 456.80 110.25 L 453.09 106.55 L 449.29 102.96 L 445.40 99.50 L 441.42 96.15 L 437.35 92.93 L 433.20 89.83 L 428.97 86.86 L 424.67 84.02 L 420.28 81.30 L 415.83 78.72 L 411.31 76.27 L 406.72 73.96 L 402.06 71.78 " stroke='#fff' stroke-width='1' stroke-dasharray='6,6' opacity='0.08' fill='none'/><path d="M 397.34 69.74 L 392.57 67.84 L 387.74 66.08 L 382.85 64.46 L 377.92 62.98 L 372.94 61.65 L 367.91 60.46 L 362.85 59.41 L 357.75 58.51 L 352.61 57.75 L 347.44 57.14 L 342.24 56.67 L 337.01 56.35 L 331.77 56.18 L 326.50 56.16 L 321.22 56.28 L 315.93 56.55 L 310.62 56.96 L 305.31 57.52 L 300.00 58.23 " stroke='#fff' stroke-width='1' stroke-dasharray='6,6' opacity='0.18' fill='none'/><path class="great-circle-back" d="M 50.30 296.29 L 51.20 293.11 L 52.71 289.96 L 54.80 286.83 L 57.49 283.73 L 60.77 280.67 L 64.61 277.65 L 69.03 274.69 L 74.00 271.79 L 79.52 268.96 L 85.57 266.21 L 92.13 263.53 L 99.20 260.95 L 106.75 258.45 L 114.76 256.06 L 123.22 253.77 L 132.11 251.60 L 141.40 249.54 L 151.08 247.60 L 161.11 245.79 L 171.47 244.11 L 182.15 242.56 L 193.11 241.16 L 204.33 239.89 L 215.78 238.77 L 227.43 237.80 L 239.26 236.97 L 251.23 236.30 L 263.32 235.78 L 275.50 235.42 L 287.73 235.21 L 300.00 235.16 L 312.27 235.26 L 324.50 235.52 L 336.68 235.94 L 348.77 236.51 L 360.74 237.23 L 372.57 238.11 L 384.22 239.13 L 395.67 240.30 L 406.89 241.61 L 417.85 243.07 L 428.53 244.66 L 438.89 246.38 L 448.92 248.24 L 458.60 250.22 L 467.89 252.31 L 476.78 254.53 L 485.24 256.85 L 493.25 259.28 L 500.80 261.80 L 507.87 264.42 L 514.43 267.12 L 520.48 269.90 L 526.00 272.76 L 530.97 275.68 L 535.39 278.66 L 539.23 281.69 L 542.51 284.76 L 545.20 287.87 L 547.29 291.01 L 548.80 294.18 L 549.70 297.35 L 550.00 300.53 "/><path class="great-circle" d="M 300.00 364.84 L 287.73 364.74 L 275.50 364.48 L 263.32 364.06 L 251.23 363.49 L 239.26 362.77 L 227.43 361.89 L 215.78 360.87 L 204.33 359.70 L 193.11 358.39 L 182.15 356.93 L 171.47 355.34 L 161.11 353.62 L 151.08 351.76 L 141.40 349.78 L 132.11 347.69 L 123.22 345.47 L 114.76 343.15 L 106.75 340.72 L 99.20 338.20 L 92.13 335.58 L 85.57 332.88 L 79.52 330.10 L 74.00 327.24 L 69.03 324.32 L 64.61 321.34 L 60.77 318.31 L 57.49 315.24 L 54.80 312.13 L 52.71 308.99 L 51.20 305.82 L 50.30 302.65 L 50.00 299.47 M 549.70 303.71 L 548.80 306.89 L 547.29 310.04 L 545.20 313.17 L 542.51 316.27 L 539.23 319.33 L 535.39 322.35 L 530.97 325.31 L 526.00 328.21 L 520.48 331.04 L 514.43 333.79 L 507.87 336.47 L 500.80 339.05 L 493.25 341.55 L 485.24 343.94 L 476.78 346.23 L 467.89 348.40 L 458.60 350.46 L 448.92 352.40 L 438.89 354.21 L 428.53 355.89 L 417.85 357.44 L 406.89 358.84 L 395.67 360.11 L 384.22 361.23 L 372.57 362.20 L 360.74 363.03 L 348.77 363.70 L 336.68 364.22 L 324.50 364.58 L 312.27 364.79 L 300.00 364.84 "/><path class="great-circle-back" d="M 187.26 523.05 L 181.55 519.53 L 176.13 515.49 L 171.00 510.92 L 166.19 505.85 L 161.69 500.28 L 157.53 494.23 L 153.72 487.71 L 150.25 480.74 L 147.15 473.33 L 144.41 465.51 L 142.05 457.28 L 140.07 448.68 L 138.48 439.72 L 137.27 430.42 L 136.46 420.81 L 136.04 410.91 L 136.01 400.74 L 136.38 390.33 L 137.15 379.70 L 138.30 368.88 L 139.85 357.89 L 141.78 346.76 L 144.10 335.52 L 146.78 324.20 L 149.84 312.82 L 153.26 301.40 L 157.03 289.98 L 161.15 278.59 L 165.60 267.25 L 170.38 255.98 L 175.47 244.83 L 180.86 233.80 L 186.53 222.94 L 192.48 212.26 L 198.69 201.79 L 205.14 191.56 L 211.82 181.59 L 218.71 171.91 L 225.80 162.53 L 233.07 153.49 L 240.50 144.79 L 248.07 136.48 L 255.76 128.55 L 263.57 121.04 L 271.46 113.96 L 279.42 107.33 L 287.43 101.16 L 295.47 95.47 L 303.52 90.28 L 311.56 85.59 L 319.58 81.41 L 327.54 77.77 L 335.44 74.65 L 343.26 72.08 L 350.97 70.06 L 358.56 68.60 L 366.01 67.69 L 373.30 67.34 L 380.41 67.55 L 387.33 68.32 L 394.03 69.65 L 400.51 71.54 L 406.75 73.97 "/><path class="great-circle" d="M 193.25 526.03 M 412.74 76.95 L 418.45 80.47 L 423.87 84.51 L 429.00 89.08 L 433.81 94.15 L 438.31 99.72 L 442.47 105.77 L 446.28 112.29 L 449.75 119.26 L 452.85 126.67 L 455.59 134.49 L 457.95 142.72 L 459.93 151.32 L 461.52 160.28 L 462.73 169.58 L 463.54 179.19 L 463.96 189.09 L 463.99 199.26 L 463.62 209.67 L 462.85 220.30 L 461.70 231.12 L 460.15 242.11 L 458.22 253.24 L 455.90 264.48 L 453.22 275.80 L 450.16 287.18 L 446.74 298.60 L 442.97 310.02 L 438.85 321.41 L 434.40 332.75 L 429.62 344.02 L 424.53 355.17 L 419.14 366.20 L 413.47 377.06 L 407.52 387.74 L 401.31 398.21 L 394.86 408.44 L 388.18 418.41 L 381.29 428.09 L 374.20 437.47 L 366.93 446.51 L 359.50 455.21 L 351.93 463.52 L 344.24 471.45 L 336.43 478.96 L 328.54 486.04 L 320.58 492.67 L 312.57 498.84 L 304.53 504.53 L 296.48 509.72 L 288.44 514.41 L 280.42 518.59 L 272.46 522.23 L 264.56 525.35 L 256.74 527.92 L 249.03 529.94 L 241.44 531.40 L 233.99 532.31 L 226.70 532.66 L 219.59 532.45 L 212.67 531.68 L 205.97 530.35 L 199.49 528.46 L 193.25 526.03 "/><path class="great-circle-back" d="M 299.32 541.46 L 309.98 539.62 L 320.61 537.21 L 331.20 534.22 L 341.70 530.67 L 352.11 526.57 L 362.39 521.91 L 372.52 516.73 L 382.48 511.02 L 392.24 504.80 L 401.77 498.09 L 411.06 490.90 L 420.09 483.25 L 428.82 475.16 L 437.24 466.65 L 445.33 457.74 L 453.08 448.45 L 460.45 438.80 L 467.44 428.81 L 474.02 418.52 L 480.19 407.94 L 485.92 397.10 L 491.20 386.02 L 496.02 374.74 L 500.37 363.28 L 504.24 351.66 L 507.61 339.93 L 510.49 328.09 L 512.85 316.19 L 514.71 304.25 L 516.05 292.29 L 516.86 280.36 L 517.16 268.48 L 516.93 256.67 L 516.18 244.96 L 514.91 233.39 L 513.12 221.97 L 510.82 210.75 L 508.00 199.74 L 504.69 188.97 L 500.89 178.47 L 496.60 168.26 L 491.84 158.37 L 486.61 148.82 L 480.94 139.64 L 474.83 130.84 L 468.30 122.45 L 461.36 114.49 L 454.03 106.97 L 446.34 99.92 L 438.29 93.35 L 429.90 87.28 L 421.21 81.72 L 412.22 76.68 M 197.04 527.81 L 206.54 531.76 L 216.27 535.15 L 226.21 537.97 L 236.32 540.22 L 246.58 541.89 L 256.97 542.97 L 267.47 543.47 L 278.04 543.39 L 288.67 542.72 L 299.32 541.46 "/><path class="great-circle" d="M 402.96 72.19 L 393.46 68.24 L 383.73 64.85 L 373.79 62.03 L 363.68 59.78 L 353.42 58.11 L 343.03 57.03 L 332.53 56.53 L 321.96 56.61 L 311.33 57.28 L 300.68 58.54 L 290.02 60.38 L 279.39 62.79 L 268.80 65.78 L 258.30 69.33 L 247.89 73.43 L 237.61 78.09 L 227.48 83.27 L 217.52 88.98 L 207.76 95.20 L 198.23 101.91 L 188.94 109.10 L 179.91 116.75 L 171.18 124.84 L 162.76 133.35 L 154.67 142.26 L 146.92 151.55 L 139.55 161.20 L 132.56 171.19 L 125.98 181.48 L 119.81 192.06 L 114.08 202.90 L 108.80 213.98 L 103.98 225.26 L 99.63 236.72 L 95.76 248.34 L 92.39 260.07 L 89.51 271.91 L 87.15 283.81 L 85.29 295.75 L 83.95 307.71 L 83.14 319.64 L 82.84 331.52 L 83.07 343.33 L 83.82 355.04 L 85.09 366.61 L 86.88 378.03 L 89.18 389.25 L 92.00 400.26 L 95.31 411.03 L 99.11 421.53 L 103.40 431.74 L 108.16 441.63 L 113.39 451.18 L 119.06 460.36 L 125.17 469.16 L 131.70 477.55 L 138.64 485.51 L 145.97 493.03 L 153.66 500.08 L 161.71 506.65 L 170.10 512.72 L 178.79 518.28 L 187.78 523.32 "/><path class="great-circle-back" d="M 110.34 461.94 L 109.01 458.65 L 108.14 454.97 L 107.73 450.92 L 107.79 446.51 L 108.31 441.75 L 109.29 436.64 L 110.72 431.21 L 112.62 425.46 L 114.97 419.41 L 117.76 413.06 L 120.99 406.45 L 124.65 399.58 L 128.74 392.47 L 133.24 385.14 L 138.14 377.60 L 143.42 369.88 L 149.09 361.99 L 155.12 353.95 L 161.50 345.77 L 168.21 337.49 L 175.24 329.12 L 182.58 320.68 L 190.19 312.18 L 198.07 303.66 L 206.19 295.13 L 214.54 286.61 L 223.10 278.13 L 231.84 269.69 L 240.74 261.33 L 249.79 253.06 L 258.96 244.91 L 268.23 236.89 L 277.57 229.02 L 286.97 221.32 L 296.40 213.81 L 305.84 206.51 L 315.26 199.43 L 324.65 192.60 L 333.98 186.02 L 343.23 179.72 L 352.37 173.71 L 361.38 168.00 L 370.25 162.61 L 378.95 157.56 L 387.46 152.84 L 395.76 148.48 L 403.83 144.49 L 411.64 140.87 L 419.19 137.63 L 426.45 134.78 L 433.41 132.33 L 440.04 130.29 L 446.34 128.66 L 452.29 127.43 L 457.87 126.63 L 463.06 126.24 L 467.87 126.27 L 472.27 126.71 L 476.25 127.58 L 479.82 128.86 L 482.94 130.55 L 485.63 132.66 M 112.13 464.84 L 110.34 461.94 "/><path class="great-circle" d="M 487.87 135.16 L 489.66 138.06 L 490.99 141.35 L 491.86 145.03 L 492.27 149.08 L 492.21 153.49 L 491.69 158.25 L 490.71 163.36 L 489.28 168.79 L 487.38 174.54 L 485.03 180.59 L 482.24 186.94 L 479.01 193.55 L 475.35 200.42 L 471.26 207.53 L 466.76 214.86 L 461.86 222.40 L 456.58 230.12 L 450.91 238.01 L 444.88 246.05 L 438.50 254.23 L 431.79 262.51 L 424.76 270.88 L 417.42 279.32 L 409.81 287.82 L 401.93 296.34 L 393.81 304.87 L 385.46 313.39 L 376.90 321.87 L 368.16 330.31 L 359.26 338.67 L 350.21 346.94 L 341.04 355.09 L 331.77 363.11 L 322.43 370.98 L 313.03 378.68 L 303.60 386.19 L 294.16 393.49 L 284.74 400.57 L 275.35 407.40 L 266.02 413.98 L 256.77 420.28 L 247.63 426.29 L 238.62 432.00 L 229.75 437.39 L 221.05 442.44 L 212.54 447.16 L 204.24 451.52 L 196.17 455.51 L 188.36 459.13 L 180.81 462.37 L 173.55 465.22 L 166.59 467.67 L 159.96 469.71 L 153.66 471.34 L 147.71 472.57 L 142.13 473.37 L 136.94 473.76 L 132.13 473.73 L 127.73 473.29 L 123.75 472.42 L 120.18 471.14 L 117.06 469.45 L 114.37 467.34 "/><circle class="sphere" cx="300.00" cy="300.00" r="250.00"/><circle class="point-back" cx="488.67" cy="391.47" r="12.00"/><text class="label-back" x="504.67" y="379.47">Q</text><circle class="point-back" cx="176.14" cy="243.41" r="12.00"/><text class="label-back" x="192.14" y="231.41">E</text><circle class="point-back" cx="517.16" cy="268.98" r="12.00"/><text class="label-back" x="533.16" y="256.98">S</text><circle class="point-back" cx="299.45" cy="541.44" r="12.00"/><text class="label-back" x="315.45" y="529.44">Z'</text><circle class="point-back" cx="459.75" cy="479.70" r="12.00"/><text class="label-back" x="475.75" y="467.70">K'</text><circle class="point" cx="300.55" cy="58.56" r="12.00"/><text class="label" x="316.55" y="46.56">Z</text><circle class="point" cx="111.33" cy="208.53" r="12.00"/><text class="label" x="127.33" y="196.53">P</text><circle class="point" cx="424.05" cy="356.19" r="12.00"/><text class="label" x="440.05" y="344.19">W</text><circle class="point" cx="82.08" cy="331.31" r="12.00"/><text class="label" x="98.08" y="319.31">N</text><circle class="point" cx="140.25" cy="120.30" r="12.00"/><text class="label" x="156.25" y="108.30">K</text><circle class="point" cx="482.34" cy="186.73" r="12.00"/><text class="label" x="498.34" y="174.73">Sun</text><text class="label" x="300.00" y="371.07">Horizon</text><text class="label" x="183.00" y="547.73">Equator</text><text class="label" x="472.00" y="122.52">Ecliptic</text>
</svg>