<svg xmlns="http://www.w3.org/2000/svg" width="600" height="600" viewBox="0 0 600 600">
<style>
.sphere { fill: none; stroke: #bbb; stroke-width: 4; }
.arc { fill: none; stroke: #fbc02d; stroke-width: 4; }
.arc-back { fill: none; stroke: #fbc02d; stroke-width: 4; opacity: 0.4; }
.great-circle { fill: none; stroke: #00bcd4; stroke-width: 3; opacity: 0.9; }
.great-circle-back { fill: none; stroke: #00bcd4; stroke-width: 3; opacity: 0.4; }
.small-circle { fill: none; stroke: #e64a19; stroke-width: 3; opacity: 0.9; }
.small-circle-back { fill: none; stroke: #e64a19; stroke-width: 3; opacity: 0.4; }
.point { fill: #e53935; stroke: none; }
.point-back { fill: #e53935; stroke: none; opacity: 0.4; }
.label { fill: #fff; font-size: 28px; font-family: sans-serif; font-weight: bold; pointer-events: none; }
.label-back { fill: #fff; font-size: 28px; font-family: sans-serif; font-weight: bold; pointer-events: none; opacity: 0.4; }
.small-label { fill: #ffb74d; font-size: 18px; font-family: sans-serif; font-weight: 500; pointer-events: none; }
.small-label-back { fill: #ffb74d; font-size: 18px; font-family: sans-serif; font-weight: 500; pointer-events: none; opacity: 0.4; }
</style>
<path d="M 425.00 514.89 L 424.85 515.64 L 424.40 516.39 L 423.65 517.13 L 422.60 517.86 M 177.40 517.86 L 176.35 517.13 L 175.60 516.39 L 175.15 515.64 L 175.00 514.89 L 175.15 514.15 L 175.60 513.40 L 176.35 512.66 L 177.40 511.92 L 178.75 511.19 L 180.38 510.47 L 182.31 509.76 L 184.52 509.06 L 187.00 508.38 L 189.76 507.71 L 192.78 507.06 L 196.07 506.43 L 199.60 505.82 L 203.37 505.23 L 207.38 504.66 L 211.61 504.12 L 216.06 503.61 L 220.70 503.12 L 225.54 502.66 L 230.55 502.23 L 235.74 501.83 L 241.08 501.46 L 246.56 501.12 L 252.16 500.82 L 257.89 500.55 L 263.71 500.31 L 269.63 500.12 L 275.61 499.95 L 281.66 499.82 L 287.75 499.73 L 293.87 499.68 L 300.00 499.66 L 306.13 499.68 L 312.25 499.73 L 318.34 499.82 L 324.39 499.95 L 330.37 500.12 L 336.29 500.31 L 342.11 500.55 L 347.84 500.82 L 353.44 501.12 L 358.92 501.46 L 364.26 501.83 L 369.45 502.23 L 374.46 502.66 L 379.30 503.12 L 383.94 503.61 L 388.39 504.12 L 392.62 504.66 L 396.63 505.23 L 400.40 505.82 L 403.93 506.43 L 407.22 507.06 L 410.24 507.71 L 413.00 508.38 L 415.48 509.06 L 417.69 509.76 L 419.62 510.47 L 421.25 511.19 L 422.60 511.92 L 423.65 512.66 L 424.40 513.40 L 424.85 514.15 L 425.00 514.89 " stroke='#fff' stroke-width='1' stroke-dasharray='6,6' opacity='0.08' fill='none'/><path d="M 421.25 518.59 L 419.62 519.31 L 417.69 520.02 L 415.48 520.72 L 413.00 521.41 L 410.24 522.07 L 407.22 522.72 L 403.93 523.36 L 400.40 523.97 L 396.63 524.56 L 392.62 525.12 L 388.39 525.66 L 383.94 526.18 L 379.30 526.67 L 374.46 527.13 L 369.45 527.56 L 364.26 527.96 L 358.92 528.33 L 353.44 528.66 L 347.84 528.97 L 342.11 529.24 L 336.29 529.47 L 330.37 529.67 L 324.39 529.83 L 318.34 529.96 L 312.25 530.05 L 306.13 530.11 L 300.00 530.13 L 293.87 530.11 L 287.75 530.05 L 281.66 529.96 L 275.61 529.83 L 269.63 529.67 L 263.71 529.47 L 257.89 529.24 L 252.16 528.97 L 246.56 528.66 L 241.08 528.33 L 235.74 527.96 L 230.55 527.56 L 225.54 527.13 L 220.70 526.67 L 216.06 526.18 L 211.61 525.66 L 207.38 525.12 L 203.37 524.56 L 199.60 523.97 L 196.07 523.36 L 192.78 522.72 L 189.76 522.07 L 187.00 521.41 L 184.52 520.72 L 182.31 520.02 L 180.38 519.31 L 178.75 518.59 " stroke='#fff' stroke-width='1' stroke-dasharray='6,6' opacity='0.18' fill='none'/><path d="M 516.51 424.07 L 516.25 425.36 M 83.75 425.36 L 83.49 424.07 L 83.75 422.77 L 84.54 421.48 L 85.84 420.20 L 87.65 418.92 L 89.98 417.66 L 92.82 416.41 L 96.15 415.18 L 99.97 413.97 L 104.28 412.79 L 109.06 411.63 L 114.30 410.50 L 119.98 409.41 L 126.10 408.35 L 132.64 407.33 L 139.58 406.35 L 146.91 405.41 L 154.60 404.52 L 162.65 403.67 L 171.03 402.88 L 179.72 402.13 L 188.69 401.44 L 197.94 400.80 L 207.43 400.22 L 217.15 399.69 L 227.06 399.23 L 237.15 398.82 L 247.39 398.47 L 257.76 398.19 L 268.23 397.97 L 278.78 397.81 L 289.38 397.71 L 300.00 397.68 L 310.62 397.71 L 321.22 397.81 L 331.77 397.97 L 342.24 398.19 L 352.61 398.47 L 362.85 398.82 L 372.94 399.23 L 382.85 399.69 L 392.57 400.22 L 402.06 400.80 L 411.31 401.44 L 420.28 402.13 L 428.97 402.88 L 437.35 403.67 L 445.40 404.52 L 453.09 405.41 L 460.42 406.35 L 467.36 407.33 L 473.90 408.35 L 480.02 409.41 L 485.70 410.50 L 490.94 411.63 L 495.72 412.79 L 500.03 413.97 L 503.85 415.18 L 507.18 416.41 L 510.02 417.66 L 512.35 418.92 L 514.16 420.20 L 515.46 421.48 L 516.25 422.77 L 516.51 424.07 " stroke='#fff' stroke-width='1' stroke-dasharray='6,6' opacity='0.08' fill='none'/><path d="M 515.46 426.65 L 514.16 427.94 L 512.35 429.22 L 510.02 430.48 L 507.18 431.73 L 503.85 432.96 L 500.03 434.17 L 495.72 435.35 L 490.94 436.51 L 485.70 437.63 L 480.02 438.73 L 473.90 439.79 L 467.36 440.81 L 460.42 441.79 L 453.09 442.73 L 445.40 443.62 L 437.35 444.46 L 428.97 445.26 L 420.28 446.01 L 411.31 446.70 L 402.06 447.34 L 392.57 447.92 L 382.85 448.45 L 372.94 448.91 L 362.85 449.32 L 352.61 449.66 L 342.24 449.95 L 331.77 450.17 L 321.22 450.33 L 310.62 450.42 L 300.00 450.45 L 289.38 450.42 L 278.78 450.33 L 268.23 450.17 L 257.76 449.95 L 247.39 449.66 L 237.15 449.32 L 227.06 448.91 L 217.15 448.45 L 207.43 447.92 L 197.94 447.34 L 188.69 446.70 L 179.72 446.01 L 171.03 445.26 L 162.65 444.46 L 154.60 443.62 L 146.91 442.73 L 139.58 441.79 L 132.64 440.81 L 126.10 439.79 L 119.98 438.73 L 114.30 437.63 L 109.06 436.51 L 104.28 435.35 L 99.97 434.17 L 96.15 432.96 L 92.82 431.73 L 89.98 430.48 L 87.65 429.22 L 85.84 427.94 L 84.54 426.65 " stroke='#fff' stroke-width='1' stroke-dasharray='6,6' opacity='0.18' fill='none'/><path d="M 50.30 298.51 L 51.20 297.01 L 52.71 295.53 L 54.80 294.06 L 57.49 292.60 L 60.76 291.16 L 64.61 289.74 L 69.03 288.34 L 74.00 286.97 L 79.52 285.64 L 85.57 284.34 L 92.13 283.07 L 99.20 281.85 L 106.75 280.67 L 114.76 279.54 L 123.22 278.46 L 132.11 277.43 L 141.40 276.45 L 151.08 275.53 L 161.11 274.67 L 171.47 273.87 L 182.15 273.13 L 193.11 272.46 L 204.33 271.85 L 215.78 271.31 L 227.43 270.84 L 239.25 270.45 L 251.23 270.12 L 263.32 269.86 L 275.50 269.68 L 287.73 269.57 L 300.00 269.53 L 312.27 269.57 L 324.50 269.68 L 336.68 269.86 L 348.77 270.12 L 360.75 270.45 L 372.57 270.84 L 384.22 271.31 L 395.67 271.85 L 406.89 272.46 L 417.85 273.13 L 428.53 273.87 L 438.89 274.67 L 448.92 275.53 L 458.60 276.45 L 467.89 277.43 L 476.78 278.46 L 485.24 279.54 L 493.25 280.67 L 500.80 281.85 L 507.87 283.07 L 514.43 284.34 L 520.48 285.64 L 526.00 286.97 L 530.97 288.34 L 535.39 289.74 L 539.24 291.16 L 542.51 292.60 L 545.20 294.06 L 547.29 295.53 L 548.80 297.01 L 549.70 298.51 L 550.00 300.00 " stroke='#fff' stroke-width='1' stroke-dasharray='6,6' opacity='0.08' fill='none'/><path d="M 550.00 300.00 L 549.70 301.49 L 548.80 302.99 L 547.29 304.47 L 545.20 305.94 L 542.51 307.40 L 539.24 308.84 L 535.39 310.26 L 530.97 311.66 L 526.00 313.03 L 520.48 314.36 L 514.43 315.66 L 507.87 316.93 L 500.80 318.15 L 493.25 319.33 L 485.24 320.46 L 476.78 321.54 L 467.89 322.57 L 458.60 323.55 L 448.92 324.47 L 438.89 325.33 L 428.53 326.13 L 417.85 326.87 L 406.89 327.54 L 395.67 328.15 L 384.22 328.69 L 372.57 329.16 L 360.75 329.55 L 348.77 329.88 L 336.68 330.14 L 324.50 330.32 L 312.27 330.43 L 300.00 330.47 L 287.73 330.43 L 275.50 330.32 L 263.32 330.14 L 251.23 329.88 L 239.25 329.55 L 227.43 329.16 L 215.78 328.69 L 204.33 328.15 L 193.11 327.54 L 182.15 326.87 L 171.47 326.13 L 161.11 325.33 L 151.08 324.47 L 141.40 323.55 L 132.11 322.57 L 123.22 321.54 L 114.76 320.46 L 106.75 319.33 L 99.20 318.15 L 92.13 316.93 L 85.57 315.66 L 79.52 314.36 L 74.00 313.03 L 69.03 311.66 L 64.61 310.26 L 60.76 308.84 L 57.49 307.40 L 54.80 305.94 L 52.71 304.47 L 51.20 302.99 L 50.30 301.49 L 50.00 300.00 " stroke='#fff' stroke-width='1' stroke-dasharray='6,6' opacity='0.18' fill='none'/><path d="M 84.54 173.35 L 85.84 172.06 L 87.65 170.78 L 89.98 169.52 L 92.82 168.27 L 96.15 167.04 L 99.97 165.83 L 104.28 164.65 L 109.06 163.49 L 114.30 162.37 L 119.98 161.27 L 126.10 160.21 L 132.64 159.19 L 139.58 158.21 L 146.91 157.27 L 154.60 156.38 L 162.65 155.54 L 171.03 154.74 L 179.72 153.99 L 188.69 153.30 L 197.94 152.66 L 207.43 152.08 L 217.15 151.55 L 227.06 151.09 L 237.15 150.68 L 247.39 150.34 L 257.76 150.05 L 268.23 149.83 L 278.78 149.67 L 289.38 149.58 L 300.00 149.55 L 310.62 149.58 L 321.22 149.67 L 331.77 149.83 L 342.24 150.05 L 352.61 150.34 L 362.85 150.68 L 372.94 151.09 L 382.85 151.55 L 392.57 152.08 L 402.06 152.66 L 411.31 153.30 L 420.28 153.99 L 428.97 154.74 L 437.35 155.54 L 445.40 156.38 L 453.09 157.27 L 460.42 158.21 L 467.36 159.19 L 473.90 160.21 L 480.02 161.27 L 485.70 162.37 L 490.94 163.49 L 495.72 164.65 L 500.03 165.83 L 503.85 167.04 L 507.18 168.27 L 510.02 169.52 L 512.35 170.78 L 514.16 172.06 L 515.46 173.35 " stroke='#fff' stroke-width='1' stroke-dasharray='6,6' opacity='0.08' fill='none'/><path d="M 516.51 175.93 L 516.25 177.23 L 515.46 178.52 L 514.16 179.80 L 512.35 181.08 L 510.02 182.34 L 507.18 183.59 L 503.85 184.82 L 500.03 186.03 L 495.72 187.21 L 490.94 188.37 L 485.70 189.50 L 480.02 190.59 L 473.90 191.65 L 467.36 192.67 L 460.42 193.65 L 453.09 194.59 L 445.40 195.48 L 437.35 196.33 L 428.97 197.12 L 420.28 197.87 L 411.31 198.56 L 402.06 199.20 L 392.57 199.78 L 382.85 200.31 L 372.94 200.77 L 362.85 201.18 L 352.61 201.53 L 342.24 201.81 L 331.77 202.03 L 321.22 202.19 L 310.62 202.29 L 300.00 202.32 L 289.38 202.29 L 278.78 202.19 L 268.23 202.03 L 257.76 201.81 L 247.39 201.53 L 237.15 201.18 L 227.06 200.77 L 217.15 200.31 L 207.43 199.78 L 197.94 199.20 L 188.69 198.56 L 179.72 197.87 L 171.03 197.12 L 162.65 196.33 L 154.60 195.48 L 146.91 194.59 L 139.58 193.65 L 132.64 192.67 L 126.10 191.65 L 119.98 190.59 L 114.30 189.50 L 109.06 188.37 L 104.28 187.21 L 99.97 186.03 L 96.15 184.82 L 92.82 183.59 L 89.98 182.34 L 87.65 181.08 L 85.84 179.80 L 84.54 178.52 L 83.75 177.23 L 83.49 175.93 L 83.75 174.64 M 516.25 174.64 L 516.51 175.93 " stroke='#fff' stroke-width='1' stroke-dasharray='6,6' opacity='0.18' fill='none'/><path d="M 178.75 81.41 L 180.38 80.69 L 182.31 79.98 L 184.52 79.28 L 187.00 78.59 L 189.76 77.93 L 192.78 77.28 L 196.07 76.64 L 199.60 76.03 L 203.37 75.44 L 207.38 74.88 L 211.61 74.34 L 216.06 73.82 L 220.70 73.33 L 225.54 72.87 L 230.55 72.44 L 235.74 72.04 L 241.08 71.67 L 246.56 71.34 L 252.16 71.03 L 257.89 70.76 L 263.71 70.53 L 269.63 70.33 L 275.61 70.17 L 281.66 70.04 L 287.75 69.95 L 293.87 69.89 L 300.00 69.87 L 306.13 69.89 L 312.25 69.95 L 318.34 70.04 L 324.39 70.17 L 330.37 70.33 L 336.29 70.53 L 342.11 70.76 L 347.84 71.03 L 353.44 71.34 L 358.92 71.67 L 364.26 72.04 L 369.45 72.44 L 374.46 72.87 L 379.30 73.33 L 383.94 73.82 L 388.39 74.34 L 392.62 74.88 L 396.63 75.44 L 400.40 76.03 L 403.93 76.64 L 407.22 77.28 L 410.24 77.93 L 413.00 78.59 L 415.48 79.28 L 417.69 79.98 L 419.62 80.69 L 421.25 81.41 " stroke='#fff' stroke-width='1' stroke-dasharray='6,6' opacity='0.08' fill='none'/><path d="M 425.00 85.11 L 424.85 85.85 L 424.40 86.60 L 423.65 87.34 L 422.60 88.08 L 421.25 88.81 L 419.62 89.53 L 417.69 90.24 L 415.48 90.94 L 413.00 91.62 L 410.24 92.29 L 407.22 92.94 L 403.93 93.57 L 400.40 94.18 L 396.63 94.77 L 392.62 95.34 L 388.39 95.88 L 383.94 96.39 L 379.30 96.88 L 374.46 97.34 L 369.45 97.77 L 364.26 98.17 L 358.92 98.54 L 353.44 98.88 L 347.84 99.18 L 342.11 99.45 L 336.29 99.69 L 330.37 99.88 L 324.39 100.05 L 318.34 100.18 L 312.25 100.27 L 306.13 100.32 L 300.00 100.34 L 293.87 100.32 L 287.75 100.27 L 281.66 100.18 L 275.61 100.05 L 269.63 99.88 L 263.71 99.69 L 257.89 99.45 L 252.16 99.18 L 246.56 98.88 L 241.08 98.54 L 235.74 98.17 L 230.55 97.77 L 225.54 97.34 L 220.70 96.88 L 216.06 96.39 L 211.61 95.88 L 207.38 95.34 L 203.37 94.77 L 199.60 94.18 L 196.07 93.57 L 192.78 92.94 L 189.76 92.29 L 187.00 91.62 L 184.52 90.94 L 182.31 90.24 L 180.38 89.53 L 178.75 88.81 L 177.40 88.08 L 176.35 87.34 L 175.60 86.60 L 175.15 85.85 L 175.00 85.11 L 175.15 84.36 L 175.60 83.61 L 176.35 82.87 L 177.40 82.14 M 422.60 82.14 L 423.65 82.87 L 424.40 83.61 L 424.85 84.36 L 425.00 85.11 " stroke='#fff' stroke-width='1' stroke-dasharray='6,6' opacity='0.18' fill='none'/><path d="M 300.00 548.14 L 306.14 548.06 L 312.27 547.84 L 318.39 547.46 L 324.50 546.94 L 330.60 546.27 L 336.68 545.45 L 342.74 544.48 L 348.77 543.37 L 354.78 542.11 L 360.75 540.70 L 366.68 539.15 L 372.57 537.45 L 378.42 535.61 L 384.22 533.63 L 389.97 531.51 L 395.67 529.25 L 401.31 526.85 L 406.89 524.31 L 412.40 521.64 L 417.85 518.84 L 423.22 515.90 L 428.53 512.83 L 433.75 509.64 L 438.89 506.32 L 443.95 502.87 L 448.92 499.31 L 453.81 495.62 L 458.60 491.81 L 463.29 487.89 L 467.89 483.86 L 472.39 479.71 L 476.78 475.46 L 481.06 471.10 L 485.24 466.64 L 489.30 462.08 L 493.25 457.42 L 497.09 452.66 L 500.80 447.81 L 504.40 442.88 L 507.87 437.86 L 511.21 432.75 L 514.43 427.57 L 517.52 422.31 L 520.48 416.97 L 523.31 411.56 L 526.00 406.09 L 528.55 400.56 L 530.97 394.96 L 533.25 389.30 L 535.39 383.59 L 537.38 377.84 L 539.24 372.03 L 540.94 366.18 L 542.51 360.29 L 543.93 354.37 L 545.20 348.41 L 546.32 342.42 L 547.29 336.41 L 548.12 330.37 L 548.80 324.32 L 549.32 318.25 L 549.70 312.18 L 549.92 306.09 " stroke='#fff' stroke-width='1' stroke-dasharray='6,6' opacity='0.08' fill='none'/><path d="M 550.00 300.00 L 549.92 293.91 L 549.70 287.82 L 549.32 281.75 L 548.80 275.68 L 548.12 269.63 L 547.29 263.59 L 546.32 257.58 L 545.20 251.59 L 543.93 245.63 L 542.51 239.71 L 540.94 233.82 L 539.24 227.97 L 537.38 222.16 L 535.39 216.41 L 533.25 210.70 L 530.97 205.04 L 528.55 199.44 L 526.00 193.91 L 523.31 188.44 L 520.48 183.03 L 517.52 177.69 L 514.43 172.43 L 511.21 167.25 L 507.87 162.14 L 504.40 157.12 L 500.80 152.19 L 497.09 147.34 L 493.25 142.58 L 489.30 137.92 L 485.24 133.36 L 481.06 128.90 L 476.78 124.54 L 472.39 120.29 L 467.89 116.14 L 463.29 112.11 L 458.60 108.19 L 453.81 104.38 L 448.92 100.69 L 443.95 97.13 L 438.89 93.68 L 433.75 90.36 L 428.53 87.17 L 423.22 84.10 L 417.85 81.16 L 412.40 78.36 L 406.89 75.69 L 401.31 73.15 L 395.67 70.75 L 389.97 68.49 L 384.22 66.37 L 378.42 64.39 L 372.57 62.55 L 366.68 60.85 L 360.75 59.30 L 354.78 57.89 L 348.77 56.63 L 342.74 55.52 L 336.68 54.55 L 330.60 53.73 L 324.50 53.06 L 318.39 52.54 L 312.27 52.16 L 306.14 51.94 L 300.00 51.86 " stroke='#fff' stroke-width='1' stroke-dasharray='6,6' opacity='0.18' fill='none'/><path d="M 300.00 548.14 L 305.31 548.44 L 310.62 548.59 L 315.93 548.58 L 321.22 548.43 L 326.50 548.14 L 331.77 547.69 L 337.01 547.09 L 342.24 546.34 L 347.44 545.45 " stroke='#fff' stroke-width='1' stroke-dasharray='6,6' opacity='0.08' fill='none'/><path d="M 352.61 544.40 L 357.75 543.21 L 362.85 541.87 L 367.91 540.39 L 372.94 538.76 L 377.92 536.99 L 382.85 535.08 L 387.74 533.02 L 392.57 530.83 L 397.34 528.49 L 402.06 526.02 L 406.72 523.41 L 411.31 520.67 L 415.83 517.79 L 420.28 514.78 L 424.67 511.64 L 428.97 508.38 L 433.20 504.99 L 437.35 501.48 L 441.42 497.84 L 445.40 494.09 L 449.29 490.22 L 453.09 486.23 L 456.80 482.13 L 460.42 477.93 L 463.94 473.61 L 467.36 469.19 L 470.68 464.67 L 473.90 460.05 L 477.01 455.33 L 480.02 450.52 L 482.92 445.62 L 485.70 440.63 L 488.38 435.56 L 490.94 430.41 L 493.39 425.17 L 495.72 419.86 L 497.93 414.48 L 500.03 409.03 L 502.00 403.52 L 503.85 397.94 L 505.58 392.30 L 507.18 386.61 L 508.66 380.86 L 510.02 375.07 L 511.25 369.23 L 512.35 363.35 L 513.32 357.43 L 514.16 351.48 L 514.88 345.49 L 515.46 339.48 L 515.92 333.45 L 516.25 327.39 L 516.44 321.32 L 516.51 315.23 L 516.44 309.14 L 516.25 303.04 L 515.92 296.94 L 515.46 290.84 L 514.88 284.74 L 514.16 278.66 L 513.32 272.59 L 512.35 266.53 L 511.25 260.50 L 510.02 254.48 L 508.66 248.50 L 507.18 242.55 L 505.58 236.63 L 503.85 230.75 L 502.00 224.91 L 500.03 219.12 L 497.93 213.37 L 495.72 207.68 L 493.39 202.04 L 490.94 196.46 L 488.38 190.95 L 485.70 185.50 L 482.92 180.12 L 480.02 174.81 L 477.01 169.58 L 473.90 164.42 L 470.68 159.35 L 467.36 154.36 L 463.94 149.46 L 460.42 144.65 L 456.80 139.93 L 453.09 135.31 L 449.29 130.79 L 445.40 126.37 L 441.42 122.06 L 437.35 117.85 L 433.20 113.75 L 428.97 109.77 L 424.67 105.90 L 420.28 102.15 L 415.83 98.51 L 411.31 95.00 L 406.72 91.61 L 402.06 88.34 L 397.34 85.21 L 392.57 82.20 L 387.74 79.32 L 382.85 76.58 L 377.92 73.97 L 372.94 71.50 L 367.91 69.17 L 362.85 66.97 L 357.75 64.91 L 352.61 63.00 L 347.44 61.23 L 342.24 59.60 L 337.01 58.12 L 331.77 56.78 L 326.50 55.59 L 321.22 54.55 L 315.93 53.66 L 310.62 52.91 L 305.31 52.31 L 300.00 51.86 " stroke='#fff' stroke-width='1' stroke-dasharray='6,6' opacity='0.18' fill='none'/><path d="M 300.00 548.14 L 303.07 548.71 L 306.13 549.13 L 309.20 549.41 L 312.25 549.53 L 315.30 549.50 " stroke='#fff' stroke-width='1' stroke-dasharray='6,6' opacity='0.08' fill='none'/><path d="M 318.34 549.32 L 321.37 548.99 L 324.39 548.52 L 327.39 547.89 L 330.37 547.11 L 333.34 546.19 L 336.29 545.11 L 339.21 543.89 L 342.11 542.52 L 344.99 541.01 L 347.84 539.35 L 350.66 537.54 L 353.44 535.59 L 356.20 533.50 L 358.92 531.27 L 361.61 528.91 L 364.26 526.40 L 366.87 523.76 L 369.45 520.98 L 371.98 518.07 L 374.46 515.02 L 376.90 511.85 L 379.30 508.55 L 381.65 505.13 L 383.94 501.58 L 386.19 497.91 L 388.39 494.12 L 390.53 490.21 L 392.62 486.19 L 394.65 482.06 L 396.63 477.81 L 398.54 473.46 L 400.40 469.01 L 402.20 464.45 L 403.93 459.80 L 405.61 455.04 L 407.22 450.20 L 408.76 445.26 L 410.24 440.24 L 411.65 435.13 L 413.00 429.94 L 414.28 424.68 L 415.48 419.33 L 416.62 413.92 L 417.69 408.44 L 418.69 402.89 L 419.62 397.28 L 420.47 391.61 L 421.25 385.89 L 421.96 380.11 L 422.60 374.29 L 423.16 368.42 L 423.65 362.51 L 424.06 356.56 L 424.40 350.58 L 424.66 344.57 L 424.85 338.53 L 424.96 332.47 L 425.00 326.39 L 424.96 320.29 L 424.85 314.18 L 424.66 308.06 L 424.40 301.94 L 424.06 295.81 L 423.65 289.69 L 423.16 283.58 L 422.60 277.47 L 421.96 271.38 L 421.25 265.30 L 420.47 259.25 L 419.62 253.22 L 418.69 247.22 L 417.69 241.25 L 416.62 235.31 L 415.48 229.42 L 414.28 223.57 L 413.00 217.76 L 411.65 212.00 L 410.24 206.30 L 408.76 200.65 L 407.22 195.06 L 405.61 189.54 L 403.93 184.08 L 402.20 178.69 L 400.40 173.38 L 398.54 168.14 L 396.63 162.98 L 394.65 157.90 L 392.62 152.91 L 390.53 148.01 L 388.39 143.20 L 386.19 138.48 L 383.94 133.86 L 381.65 129.34 L 379.30 124.93 L 376.90 120.62 L 374.46 116.41 L 371.98 112.32 L 369.45 108.34 L 366.87 104.48 L 364.26 100.73 L 361.61 97.10 L 358.92 93.60 L 356.20 90.22 L 353.44 86.97 L 350.66 83.84 L 347.84 80.85 L 344.99 77.99 L 342.11 75.26 L 339.21 72.66 L 336.29 70.21 L 333.34 67.89 L 330.37 65.71 L 327.39 63.67 L 324.39 61.78 L 321.37 60.03 L 318.34 58.42 L 315.30 56.96 L 312.25 55.64 L 309.20 54.48 L 306.13 53.46 L 303.07 52.59 L 300.00 51.86 " stroke='#fff' stroke-width='1' stroke-dasharray='6,6' opacity='0.18' fill='none'/><path d="M 300.00 548.14 L 300.00 548.81 L 300.00 549.33 L 300.00 549.71 L 300.00 549.93 " stroke='#fff' stroke-width='1' stroke-dasharray='6,6' opacity='0.08' fill='none'/><path d="M 300.00 550.00 L 300.00 549.92 L 300.00 549.69 L 300.00 549.31 L 300.00 548.78 L 300.00 548.10 L 300.00 547.27 L 300.00 546.30 L 300.00 545.17 L 300.00 543.90 L 300.00 542.47 L 300.00 540.91 L 300.00 539.20 L 300.00 537.34 L 300.00 535.34 L 300.00 533.20 L 300.00 530.92 L 300.00 528.50 L 300.00 525.94 L 300.00 523.24 L 300.00 520.42 L 300.00 517.45 L 300.00 514.36 L 300.00 511.14 L 300.00 507.79 L 300.00 504.32 L 300.00 500.72 L 300.00 497.00 L 300.00 493.17 L 300.00 489.21 L 300.00 485.15 L 300.00 480.97 L 300.00 476.68 L 300.00 472.29 L 300.00 467.79 L 300.00 463.19 L 300.00 458.49 L 300.00 453.70 L 300.00 448.82 L 300.00 443.84 L 300.00 438.78 L 300.00 433.63 L 300.00 428.41 L 300.00 423.11 L 300.00 417.73 L 300.00 412.28 L 300.00 406.77 L 300.00 401.19 L 300.00 395.54 L 300.00 389.85 L 300.00 384.09 L 300.00 378.29 L 300.00 372.44 L 300.00 366.55 L 300.00 360.61 L 300.00 354.64 L 300.00 348.64 L 300.00 342.61 L 300.00 336.55 L 300.00 330.47 L 300.00 324.37 L 300.00 318.26 L 300.00 312.13 L 300.00 306.00 L 300.00 299.86 L 300.00 293.73 L 300.00 287.60 L 300.00 281.47 L 300.00 275.36 L 300.00 269.26 L 300.00 263.18 L 300.00 257.13 L 300.00 251.09 L 300.00 245.09 L 300.00 239.12 L 300.00 233.19 L 300.00 227.30 L 300.00 221.45 L 300.00 215.65 L 300.00 209.90 L 300.00 204.20 L 300.00 198.57 L 300.00 192.99 L 300.00 187.48 L 300.00 182.03 L 300.00 176.66 L 300.00 171.36 L 300.00 166.14 L 300.00 160.99 L 300.00 155.94 L 300.00 150.97 L 300.00 146.08 L 300.00 141.30 L 300.00 136.60 L 300.00 132.01 L 300.00 127.52 L 300.00 123.13 L 300.00 118.84 L 300.00 114.67 L 300.00 110.61 L 300.00 106.66 L 300.00 102.83 L 300.00 99.12 L 300.00 95.53 L 300.00 92.06 L 300.00 88.71 L 300.00 85.50 L 300.00 82.41 L 300.00 79.46 L 300.00 76.63 L 300.00 73.94 L 300.00 71.39 L 300.00 68.98 L 300.00 66.70 L 300.00 64.57 L 300.00 62.58 L 300.00 60.73 L 300.00 59.02 L 300.00 57.46 L 300.00 56.04 L 300.00 54.78 L 300.00 53.66 L 300.00 52.69 L 300.00 51.86 " stroke='#fff' stroke-width='1' stroke-dasharray='6,6' opacity='0.18' fill='none'/><path d="M 300.00 548.14 L 296.93 548.71 L 293.87 549.13 L 290.80 549.41 L 287.75 549.53 L 284.70 549.50 " stroke='#fff' stroke-width='1' stroke-dasharray='6,6' opacity='0.08' fill='none'/><path d="M 281.66 549.32 L 278.63 548.99 L 275.61 548.52 L 272.61 547.89 L 269.63 547.11 L 266.66 546.19 L 263.71 545.11 L 260.79 543.89 L 257.89 542.52 L 255.01 541.01 L 252.16 539.35 L 249.34 537.54 L 246.56 535.59 L 243.80 533.50 L 241.08 531.27 L 238.39 528.91 L 235.74 526.40 L 233.13 523.76 L 230.55 520.98 L 228.02 518.07 L 225.54 515.02 L 223.10 511.85 L 220.70 508.55 L 218.35 505.13 L 216.06 501.58 L 213.81 497.91 L 211.61 494.12 L 209.47 490.21 L 207.38 486.19 L 205.35 482.06 L 203.37 477.81 L 201.46 473.46 L 199.60 469.01 L 197.80 464.45 L 196.07 459.80 L 194.39 455.04 L 192.78 450.20 L 191.24 445.26 L 189.76 440.24 L 188.35 435.13 L 187.00 429.94 L 185.72 424.68 L 184.52 419.33 L 183.38 413.92 L 182.31 408.44 L 181.31 402.89 L 180.38 397.28 L 179.53 391.61 L 178.75 385.89 L 178.04 380.11 L 177.40 374.29 L 176.84 368.42 L 176.35 362.51 L 175.94 356.56 L 175.60 350.58 L 175.34 344.57 L 175.15 338.53 L 175.04 332.47 L 175.00 326.39 L 175.04 320.29 L 175.15 314.18 L 175.34 308.06 L 175.60 301.94 L 175.94 295.81 L 176.35 289.69 L 176.84 283.58 L 177.40 277.47 L 178.04 271.38 L 178.75 265.30 L 179.53 259.25 L 180.38 253.22 L 181.31 247.22 L 182.31 241.25 L 183.38 235.31 L 184.52 229.42 L 185.72 223.57 L 187.00 217.76 L 188.35 212.00 L 189.76 206.30 L 191.24 200.65 L 192.78 195.06 L 194.39 189.54 L 196.07 184.08 L 197.80 178.69 L 199.60 173.38 L 201.46 168.14 L 203.37 162.98 L 205.35 157.90 L 207.38 152.91 L 209.47 148.01 L 211.61 143.20 L 213.81 138.48 L 216.06 133.86 L 218.35 129.34 L 220.70 124.93 L 223.10 120.62 L 225.54 116.41 L 228.02 112.32 L 230.55 108.34 L 233.13 104.48 L 235.74 100.73 L 238.39 97.10 L 241.08 93.60 L 243.80 90.22 L 246.56 86.97 L 249.34 83.84 L 252.16 80.85 L 255.01 77.99 L 257.89 75.26 L 260.79 72.66 L 263.71 70.21 L 266.66 67.89 L 269.63 65.71 L 272.61 63.67 L 275.61 61.78 L 278.63 60.03 L 281.66 58.42 L 284.70 56.96 L 287.75 55.64 L 290.80 54.48 L 293.87 53.46 L 296.93 52.59 L 300.00 51.86 " stroke='#fff' stroke-width='1' stroke-dasharray='6,6' opacity='0.18' fill='none'/><path d="M 300.00 548.14 L 294.69 548.44 L 289.38 548.59 L 284.07 548.58 L 278.78 548.43 L 273.50 548.14 L 268.23 547.69 L 262.99 547.09 L 257.76 546.34 L 252.56 545.45 " stroke='#fff' stroke-width='1' stroke-dasharray='6,6' opacity='0.08' fill='none'/><path d="M 247.39 544.40 L 242.25 543.21 L 237.15 541.87 L 232.09 540.39 L 227.06 538.76 L 222.08 536.99 L 217.15 535.08 L 212.26 533.02 L 207.43 530.83 L 202.66 528.49 L 197.94 526.02 L 193.28 523.41 L 188.69 520.67 L 184.17 517.79 L 179.72 514.78 L 175.33 511.64 L 171.03 508.38 L 166.80 504.99 L 162.65 501.48 L 158.58 497.84 L 154.60 494.09 L 150.71 490.22 L 146.91 486.23 L 143.20 482.13 L 139.58 477.93 L 136.06 473.61 L 132.64 469.19 L 129.32 464.67 L 126.10 460.05 L 122.99 455.33 L 119.98 450.52 L 117.08 445.62 L 114.30 440.63 L 111.62 435.56 L 109.06 430.41 L 106.61 425.17 L 104.28 419.86 L 102.07 414.48 L 99.97 409.03 L 98.00 403.52 L 96.15 397.94 L 94.42 392.30 L 92.82 386.61 L 91.34 380.86 L 89.98 375.07 L 88.75 369.23 L 87.65 363.35 L 86.68 357.43 L 85.84 351.48 L 85.12 345.49 L 84.54 339.48 L 84.08 333.45 L 83.75 327.39 L 83.56 321.32 L 83.49 315.23 L 83.56 309.14 L 83.75 303.04 L 84.08 296.94 L 84.54 290.84 L 85.12 284.74 L 85.84 278.66 L 86.68 272.59 L 87.65 266.53 L 88.75 260.50 L 89.98 254.48 L 91.34 248.50 L 92.82 242.55 L 94.42 236.63 L 96.15 230.75 L 98.00 224.91 L 99.97 219.12 L 102.07 213.37 L 104.28 207.68 L 106.61 202.04 L 109.06 196.46 L 111.62 190.95 L 114.30 185.50 L 117.08 180.12 L 119.98 174.81 L 122.99 169.58 L 126.10 164.42 L 129.32 159.35 L 132.64 154.36 L 136.06 149.46 L 139.58 144.65 L 143.20 139.93 L 146.91 135.31 L 150.71 130.79 L 154.60 126.37 L 158.58 122.06 L 162.65 117.85 L 166.80 113.75 L 171.03 109.77 L 175.33 105.90 L 179.72 102.15 L 184.17 98.51 L 188.69 95.00 L 193.28 91.61 L 197.94 88.34 L 202.66 85.21 L 207.43 82.20 L 212.26 79.32 L 217.15 76.58 L 222.08 73.97 L 227.06 71.50 L 232.09 69.17 L 237.15 66.97 L 242.25 64.91 L 247.39 63.00 L 252.56 61.23 L 257.76 59.60 L 262.99 58.12 L 268.23 56.78 L 273.50 55.59 L 278.78 54.55 L 284.07 53.66 L 289.38 52.91 L 294.69 52.31 L 300.00 51.86 " stroke='#fff' stroke-width='1' stroke-dasharray='6,6' opacity='0.18' fill='none'/><path d="M 300.00 548.14 L 293.86 548.06 L 287.73 547.84 L 281.61 547.46 L 275.50 546.94 L 269.40 546.27 L 263.32 545.45 L 257.26 544.48 L 251.23 543.37 L 245.22 542.11 L 239.25 540.70 L 233.32 539.15 L 227.43 537.45 L 221.58 535.61 L 215.78 533.63 L 210.03 531.51 L 204.33 529.25 L 198.69 526.85 L 193.11 524.31 L 187.60 521.64 L 182.15 518.84 L 176.78 515.90 L 171.47 512.83 L 166.25 509.64 L 161.11 506.32 L 156.05 502.87 L 151.08 499.31 L 146.19 495.62 L 141.40 491.81 L 136.71 487.89 L 132.11 483.86 L 127.61 479.71 L 123.22 475.46 L 118.94 471.10 L 114.76 466.64 L 110.70 462.08 L 106.75 457.42 L 102.91 452.66 L 99.20 447.81 L 95.60 442.88 L 92.13 437.86 L 88.79 432.75 L 85.57 427.57 L 82.48 422.31 L 79.52 416.97 L 76.69 411.56 L 74.00 406.09 L 71.45 400.56 L 69.03 394.96 L 66.75 389.30 L 64.61 383.59 L 62.62 377.84 L 60.76 372.03 L 59.06 366.18 L 57.49 360.29 L 56.07 354.37 L 54.80 348.41 L 53.68 342.42 L 52.71 336.41 L 51.88 330.37 L 51.20 324.32 L 50.68 318.25 L 50.30 312.18 L 50.08 306.09 " stroke='#fff' stroke-width='1' stroke-dasharray='6,6' opacity='0.08' fill='none'/><path d="M 50.00 300.00 L 50.08 293.91 L 50.30 287.82 L 50.68 281.75 L 51.20 275.68 L 51.88 269.63 L 52.71 263.59 L 53.68 257.58 L 54.80 251.59 L 56.07 245.63 L 57.49 239.71 L 59.06 233.82 L 60.76 227.97 L 62.62 222.16 L 64.61 216.41 L 66.75 210.70 L 69.03 205.04 L 71.45 199.44 L 74.00 193.91 L 76.69 188.44 L 79.52 183.03 L 82.48 177.69 L 85.57 172.43 L 88.79 167.25 L 92.13 162.14 L 95.60 157.12 L 99.20 152.19 L 102.91 147.34 L 106.75 142.58 L 110.70 137.92 L 114.76 133.36 L 118.94 128.90 L 123.22 124.54 L 127.61 120.29 L 132.11 116.14 L 136.71 112.11 L 141.40 108.19 L 146.19 104.38 L 151.08 100.69 L 156.05 97.13 L 161.11 93.68 L 166.25 90.36 L 171.47 87.17 L 176.78 84.10 L 182.15 81.16 L 187.60 78.36 L 193.11 75.69 L 198.69 73.15 L 204.33 70.75 L 210.03 68.49 L 215.78 66.37 L 221.58 64.39 L 227.43 62.55 L 233.32 60.85 L 239.25 59.30 L 245.22 57.89 L 251.23 56.63 L 257.26 55.52 L 263.32 54.55 L 269.40 53.73 L 275.50 53.06 L 281.61 52.54 L 287.73 52.16 L 293.86 51.94 L 300.00 51.86 " stroke='#fff' stroke-width='1' stroke-dasharray='6,6' opacity='0.18' fill='none'/><path d="M 300.00 548.14 L 294.69 547.69 L 289.38 547.09 L 284.07 546.34 L 278.78 545.45 L 273.50 544.41 L 268.23 543.22 L 262.99 541.88 L 257.76 540.40 L 252.56 538.77 L 247.39 537.00 L 242.25 535.09 L 237.15 533.03 L 232.09 530.83 L 227.06 528.50 L 222.08 526.03 L 217.15 523.42 L 212.26 520.68 L 207.43 517.80 L 202.66 514.79 L 197.94 511.66 L 193.28 508.39 L 188.69 505.00 L 184.17 501.49 L 179.72 497.85 L 175.33 494.10 L 171.03 490.23 L 166.80 486.25 L 162.65 482.15 L 158.58 477.94 L 154.60 473.63 L 150.71 469.21 L 146.91 464.69 L 143.20 460.07 L 139.58 455.35 L 136.06 450.54 L 132.64 445.64 L 129.32 440.65 L 126.10 435.58 L 122.99 430.42 L 119.98 425.19 L 117.08 419.88 L 114.30 414.50 L 111.62 409.05 L 109.06 403.54 L 106.61 397.96 L 104.28 392.32 L 102.07 386.63 L 99.97 380.88 L 98.00 375.09 L 96.15 369.25 L 94.42 363.37 L 92.82 357.45 L 91.34 351.50 L 89.98 345.52 L 88.75 339.50 L 87.65 333.47 L 86.68 327.41 L 85.84 321.34 L 85.12 315.26 L 84.54 309.16 L 84.08 303.06 L 83.75 296.96 L 83.56 290.86 L 83.49 284.77 L 83.56 278.68 L 83.75 272.61 L 84.08 266.55 L 84.54 260.52 L 85.12 254.51 L 85.84 248.52 L 86.68 242.57 L 87.65 236.65 L 88.75 230.77 L 89.98 224.93 L 91.34 219.14 L 92.82 213.39 L 94.42 207.70 L 96.15 202.06 L 98.00 196.48 L 99.97 190.97 L 102.07 185.52 L 104.28 180.14 L 106.61 174.83 L 109.06 169.59 L 111.62 164.44 L 114.30 159.37 L 117.08 154.38 L 119.98 149.48 L 122.99 144.67 L 126.10 139.95 L 129.32 135.33 L 132.64 130.81 L 136.06 126.39 L 139.58 122.07 L 143.20 117.87 L 146.91 113.77 L 150.71 109.78 L 154.60 105.91 L 158.58 102.16 L 162.65 98.52 L 166.80 95.01 L 171.03 91.62 L 175.33 88.36 L 179.72 85.22 L 184.17 82.21 L 188.69 79.33 L 193.28 76.59 L 197.94 73.98 L 202.66 71.51 L 207.43 69.17 L 212.26 66.98 L 217.15 64.92 L 222.08 63.01 L 227.06 61.24 L 232.09 59.61 L 237.15 58.13 L 242.25 56.79 L 247.39 55.60 " stroke='#fff' stroke-width='1' stroke-dasharray='6,6' opacity='0.08' fill='none'/><path d="M 252.56 54.55 L 257.76 53.66 L 262.99 52.91 L 268.23 52.31 L 273.50 51.86 L 278.78 51.57 L 284.07 51.42 L 289.38 51.41 L 294.69 51.56 L 300.00 51.86 " stroke='#fff' stroke-width='1' stroke-dasharray='6,6' opacity='0.18' fill='none'/><path d="M 300.00 548.14 L 296.93 547.41 L 293.87 546.54 L 290.80 545.52 L 287.75 544.36 L 284.70 543.04 L 281.66 541.58 L 278.63 539.97 L 275.61 538.22 L 272.61 536.33 L 269.63 534.29 L 266.66 532.11 L 263.71 529.79 L 260.79 527.34 L 257.89 524.74 L 255.01 522.01 L 252.16 519.15 L 249.34 516.16 L 246.56 513.03 L 243.80 509.78 L 241.08 506.40 L 238.39 502.90 L 235.74 499.27 L 233.13 495.52 L 230.55 491.66 L 228.02 487.68 L 225.54 483.59 L 223.10 479.38 L 220.70 475.07 L 218.35 470.66 L 216.06 466.14 L 213.81 461.52 L 211.61 456.80 L 209.47 451.99 L 207.38 447.09 L 205.35 442.10 L 203.37 437.02 L 201.46 431.86 L 199.60 426.62 L 197.80 421.31 L 196.07 415.92 L 194.39 410.46 L 192.78 404.94 L 191.24 399.35 L 189.76 393.70 L 188.35 388.00 L 187.00 382.24 L 185.72 376.43 L 184.52 370.58 L 183.38 364.69 L 182.31 358.75 L 181.31 352.78 L 180.38 346.78 L 179.53 340.75 L 178.75 334.70 L 178.04 328.62 L 177.40 322.53 L 176.84 316.42 L 176.35 310.31 L 175.94 304.19 L 175.60 298.06 L 175.34 291.94 L 175.15 285.82 L 175.04 279.71 L 175.00 273.61 L 175.04 267.53 L 175.15 261.47 L 175.34 255.43 L 175.60 249.42 L 175.94 243.44 L 176.35 237.49 L 176.84 231.58 L 177.40 225.71 L 178.04 219.89 L 178.75 214.11 L 179.53 208.39 L 180.38 202.72 L 181.31 197.11 L 182.31 191.56 L 183.38 186.08 L 184.52 180.67 L 185.72 175.32 L 187.00 170.06 L 188.35 164.87 L 189.76 159.76 L 191.24 154.74 L 192.78 149.80 L 194.39 144.96 L 196.07 140.20 L 197.80 135.55 L 199.60 130.99 L 201.46 126.54 L 203.37 122.19 L 205.35 117.94 L 207.38 113.81 L 209.47 109.79 L 211.61 105.88 L 213.81 102.09 L 216.06 98.42 L 218.35 94.87 L 220.70 91.45 L 223.10 88.15 L 225.54 84.98 L 228.02 81.93 L 230.55 79.02 L 233.13 76.24 L 235.74 73.60 L 238.39 71.09 L 241.08 68.73 L 243.80 66.50 L 246.56 64.41 L 249.34 62.46 L 252.16 60.65 L 255.01 58.99 L 257.89 57.48 L 260.79 56.11 L 263.71 54.89 L 266.66 53.81 L 269.63 52.89 L 272.61 52.11 L 275.61 51.48 L 278.63 51.01 L 281.66 50.68 " stroke='#fff' stroke-width='1' stroke-dasharray='6,6' opacity='0.08' fill='none'/><path d="M 284.70 50.50 L 287.75 50.47 L 290.80 50.59 L 293.87 50.87 L 296.93 51.29 L 300.00 51.86 " stroke='#fff' stroke-width='1' stroke-dasharray='6,6' opacity='0.18' fill='none'/><path d="M 300.00 548.14 L 300.00 547.31 L 300.00 546.34 L 300.00 545.22 L 300.00 543.96 L 300.00 542.54 L 300.00 540.98 L 300.00 539.27 L 300.00 537.42 L 300.00 535.43 L 300.00 533.30 L 300.00 531.02 L 300.00 528.61 L 300.00 526.06 L 300.00 523.37 L 300.00 520.54 L 300.00 517.59 L 300.00 514.50 L 300.00 511.29 L 300.00 507.94 L 300.00 504.47 L 300.00 500.88 L 300.00 497.17 L 300.00 493.34 L 300.00 489.39 L 300.00 485.33 L 300.00 481.16 L 300.00 476.87 L 300.00 472.48 L 300.00 467.99 L 300.00 463.40 L 300.00 458.70 L 300.00 453.92 L 300.00 449.03 L 300.00 444.06 L 300.00 439.01 L 300.00 433.86 L 300.00 428.64 L 300.00 423.34 L 300.00 417.97 L 300.00 412.52 L 300.00 407.01 L 300.00 401.43 L 300.00 395.80 L 300.00 390.10 L 300.00 384.35 L 300.00 378.55 L 300.00 372.70 L 300.00 366.81 L 300.00 360.88 L 300.00 354.91 L 300.00 348.91 L 300.00 342.87 L 300.00 336.82 L 300.00 330.74 L 300.00 324.64 L 300.00 318.53 L 300.00 312.40 L 300.00 306.27 L 300.00 300.14 L 300.00 294.00 L 300.00 287.87 L 300.00 281.74 L 300.00 275.63 L 300.00 269.53 L 300.00 263.45 L 300.00 257.39 L 300.00 251.36 L 300.00 245.36 L 300.00 239.39 L 300.00 233.45 L 300.00 227.56 L 300.00 221.71 L 300.00 215.91 L 300.00 210.15 L 300.00 204.46 L 300.00 198.81 L 300.00 193.23 L 300.00 187.72 L 300.00 182.27 L 300.00 176.89 L 300.00 171.59 L 300.00 166.37 L 300.00 161.22 L 300.00 156.16 L 300.00 151.18 L 300.00 146.30 L 300.00 141.51 L 300.00 136.81 L 300.00 132.21 L 300.00 127.71 L 300.00 123.32 L 300.00 119.03 L 300.00 114.85 L 300.00 110.79 L 300.00 106.83 L 300.00 103.00 L 300.00 99.28 L 300.00 95.68 L 300.00 92.21 L 300.00 88.86 L 300.00 85.64 L 300.00 82.55 L 300.00 79.58 L 300.00 76.76 L 300.00 74.06 L 300.00 71.50 L 300.00 69.08 L 300.00 66.80 L 300.00 64.66 L 300.00 62.66 L 300.00 60.80 L 300.00 59.09 L 300.00 57.53 L 300.00 56.10 L 300.00 54.83 L 300.00 53.70 L 300.00 52.73 L 300.00 51.90 L 300.00 51.22 L 300.00 50.69 L 300.00 50.31 L 300.00 50.08 L 300.00 50.00 " stroke='#fff' stroke-width='1' stroke-dasharray='6,6' opacity='0.08' fill='none'/><path d="M 300.00 50.07 L 300.00 50.29 L 300.00 50.67 L 300.00 51.19 L 300.00 51.86 " stroke='#fff' stroke-width='1' stroke-dasharray='6,6' opacity='0.18' fill='none'/><path d="M 300.00 548.14 L 303.07 547.41 L 306.13 546.54 L 309.20 545.52 L 312.25 544.36 L 315.30 543.04 L 318.34 541.58 L 321.37 539.97 L 324.39 538.22 L 327.39 536.33 L 330.37 534.29 L 333.34 532.11 L 336.29 529.79 L 339.21 527.34 L 342.11 524.74 L 344.99 522.01 L 347.84 519.15 L 350.66 516.16 L 353.44 513.03 L 356.20 509.78 L 358.92 506.40 L 361.61 502.90 L 364.26 499.27 L 366.87 495.52 L 369.45 491.66 L 371.98 487.68 L 374.46 483.59 L 376.90 479.38 L 379.30 475.07 L 381.65 470.66 L 383.94 466.14 L 386.19 461.52 L 388.39 456.80 L 390.53 451.99 L 392.62 447.09 L 394.65 442.10 L 396.63 437.02 L 398.54 431.86 L 400.40 426.62 L 402.20 421.31 L 403.93 415.92 L 405.61 410.46 L 407.22 404.94 L 408.76 399.35 L 410.24 393.70 L 411.65 388.00 L 413.00 382.24 L 414.28 376.43 L 415.48 370.58 L 416.62 364.69 L 417.69 358.75 L 418.69 352.78 L 419.62 346.78 L 420.47 340.75 L 421.25 334.70 L 421.96 328.62 L 422.60 322.53 L 423.16 316.42 L 423.65 310.31 L 424.06 304.19 L 424.40 298.06 L 424.66 291.94 L 424.85 285.82 L 424.96 279.71 L 425.00 273.61 L 424.96 267.53 L 424.85 261.47 L 424.66 255.43 L 424.40 249.42 L 424.06 243.44 L 423.65 237.49 L 423.16 231.58 L 422.60 225.71 L 421.96 219.89 L 421.25 214.11 L 420.47 208.39 L 419.62 202.72 L 418.69 197.11 L 417.69 191.56 L 416.62 186.08 L 415.48 180.67 L 414.28 175.32 L 413.00 170.06 L 411.65 164.87 L 410.24 159.76 L 408.76 154.74 L 407.22 149.80 L 405.61 144.96 L 403.93 140.20 L 402.20 135.55 L 400.40 130.99 L 398.54 126.54 L 396.63 122.19 L 394.65 117.94 L 392.62 113.81 L 390.53 109.79 L 388.39 105.88 L 386.19 102.09 L 383.94 98.42 L 381.65 94.87 L 379.30 91.45 L 376.90 88.15 L 374.46 84.98 L 371.98 81.93 L 369.45 79.02 L 366.87 76.24 L 364.26 73.60 L 361.61 71.09 L 358.92 68.73 L 356.20 66.50 L 353.44 64.41 L 350.66 62.46 L 347.84 60.65 L 344.99 58.99 L 342.11 57.48 L 339.21 56.11 L 336.29 54.89 L 333.34 53.81 L 330.37 52.89 L 327.39 52.11 L 324.39 51.48 L 321.37 51.01 L 318.34 50.68 " stroke='#fff' stroke-width='1' stroke-dasharray='6,6' opacity='0.08' fill='none'/><path d="M 315.30 50.50 L 312.25 50.47 L 309.20 50.59 L 306.13 50.87 L 303.07 51.29 L 300.00 51.86 " stroke='#fff' stroke-width='1' stroke-dasharray='6,6' opacity='0.18' fill='none'/><path d="M 300.00 548.14 L 305.31 547.69 L 310.62 547.09 L 315.93 546.34 L 321.22 545.45 L 326.50 544.41 L 331.77 543.22 L 337.01 541.88 L 342.24 540.40 L 347.44 538.77 L 352.61 537.00 L 357.75 535.09 L 362.85 533.03 L 367.91 530.83 L 372.94 528.50 L 377.92 526.03 L 382.85 523.42 L 387.74 520.68 L 392.57 517.80 L 397.34 514.79 L 402.06 511.66 L 406.72 508.39 L 411.31 505.00 L 415.83 501.49 L 420.28 497.85 L 424.67 494.10 L 428.97 490.23 L 433.20 486.25 L 437.35 482.15 L 441.42 477.94 L 445.40 473.63 L 449.29 469.21 L 453.09 464.69 L 456.80 460.07 L 460.42 455.35 L 463.94 450.54 L 467.36 445.64 L 470.68 440.65 L 473.90 435.58 L 477.01 430.42 L 480.02 425.19 L 482.92 419.88 L 485.70 414.50 L 488.38 409.05 L 490.94 403.54 L 493.39 397.96 L 495.72 392.32 L 497.93 386.63 L 500.03 380.88 L 502.00 375.09 L 503.85 369.25 L 505.58 363.37 L 507.18 357.45 L 508.66 351.50 L 510.02 345.52 L 511.25 339.50 L 512.35 333.47 L 513.32 327.41 L 514.16 321.34 L 514.88 315.26 L 515.46 309.16 L 515.92 303.06 L 516.25 296.96 L 516.44 290.86 L 516.51 284.77 L 516.44 278.68 L 516.25 272.61 L 515.92 266.55 L 515.46 260.52 L 514.88 254.51 L 514.16 248.52 L 513.32 242.57 L 512.35 236.65 L 511.25 230.77 L 510.02 224.93 L 508.66 219.14 L 507.18 213.39 L 505.58 207.70 L 503.85 202.06 L 502.00 196.48 L 500.03 190.97 L 497.93 185.52 L 495.72 180.14 L 493.39 174.83 L 490.94 169.59 L 488.38 164.44 L 485.70 159.37 L 482.92 154.38 L 480.02 149.48 L 477.01 144.67 L 473.90 139.95 L 470.68 135.33 L 467.36 130.81 L 463.94 126.39 L 460.42 122.07 L 456.80 117.87 L 453.09 113.77 L 449.29 109.78 L 445.40 105.91 L 441.42 102.16 L 437.35 98.52 L 433.20 95.01 L 428.97 91.62 L 424.67 88.36 L 420.28 85.22 L 415.83 82.21 L 411.31 79.33 L 406.72 76.59 L 402.06 73.98 L 397.34 71.51 L 392.57 69.17 L 387.74 66.98 L 382.85 64.92 L 377.92 63.01 L 372.94 61.24 L 367.91 59.61 L 362.85 58.13 L 357.75 56.79 L 352.61 55.60 " stroke='#fff' stroke-width='1' stroke-dasharray='6,6' opacity='0.08' fill='none'/><path d="M 347.44 54.55 L 342.24 53.66 L 337.01 52.91 L 331.77 52.31 L 326.50 51.86 L 321.22 51.57 L 315.93 51.42 L 310.62 51.41 L 305.31 51.56 L 300.00 51.86 " stroke='#fff' stroke-width='1' stroke-dasharray='6,6' opacity='0.18' fill='none'/><path d="M 425.00 514.89 L 424.85 515.64 L 424.40 516.39 L 423.65 517.13 L 422.60 517.86 M 177.40 517.86 L 176.35 517.13 L 175.60 516.39 L 175.15 515.64 L 175.00 514.89 L 175.15 514.15 L 175.60 513.40 L 176.35 512.66 L 177.40 511.92 L 178.75 511.19 L 180.38 510.47 L 182.31 509.76 L 184.52 509.06 L 187.00 508.38 L 189.76 507.71 L 192.78 507.06 L 196.07 506.43 L 199.60 505.82 L 203.37 505.23 L 207.38 504.66 L 211.61 504.12 L 216.06 503.61 L 220.70 503.12 L 225.54 502.66 L 230.55 502.23 L 235.74 501.83 L 241.08 501.46 L 246.56 501.12 L 252.16 500.82 L 257.89 500.55 L 263.71 500.31 L 269.63 500.12 L 275.61 499.95 L 281.66 499.82 L 287.75 499.73 L 293.87 499.68 L 300.00 499.66 L 306.13 499.68 L 312.25 499.73 L 318.34 499.82 L 324.39 499.95 L 330.37 500.12 L 336.29 500.31 L 342.11 500.55 L 347.84 500.82 L 353.44 501.12 L 358.92 501.46 L 364.26 501.83 L 369.45 502.23 L 374.46 502.66 L 379.30 503.12 L 383.94 503.61 L 388.39 504.12 L 392.62 504.66 L 396.63 505.23 L 400.40 505.82 L 403.93 506.43 L 407.22 507.06 L 410.24 507.71 L 413.00 508.38 L 415.48 509.06 L 417.69 509.76 L 419.62 510.47 L 421.25 511.19 L 422.60 511.92 L 423.65 512.66 L 424.40 513.40 L 424.85 514.15 L 425.00 514.89 " stroke='#fff' stroke-width='1' stroke-dasharray='6,6' opacity='0.08' fill='none'/><path d="M 421.25 518.59 L 419.62 519.31 L 417.69 520.02 L 415.48 520.72 L 413.00 521.41 L 410.24 522.07 L 407.22 522.72 L 403.93 523.36 L 400.40 523.97 L 396.63 524.56 L 392.62 525.12 L 388.39 525.66 L 383.94 526.18 L 379.30 526.67 L 374.46 527.13 L 369.45 527.56 L 364.26 527.96 L 358.92 528.33 L 353.44 528.66 L 347.84 528.97 L 342.11 529.24 L 336.29 529.47 L 330.37 529.67 L 324.39 529.83 L 318.34 529.96 L 312.25 530.05 L 306.13 530.11 L 300.00 530.13 L 293.87 530.11 L 287.75 530.05 L 281.66 529.96 L 275.61 529.83 L 269.63 529.67 L 263.71 529.47 L 257.89 529.24 L 252.16 528.97 L 246.56 528.66 L 241.08 528.33 L 235.74 527.96 L 230.55 527.56 L 225.54 527.13 L 220.70 526.67 L 216.06 526.18 L 211.61 525.66 L 207.38 525.12 L 203.37 524.56 L 199.60 523.97 L 196.07 523.36 L 192.78 522.72 L 189.76 522.07 L 187.00 521.41 L 184.52 520.72 L 182.31 520.02 L 180.38 519.31 L 178.75 518.59 " stroke='#fff' stroke-width='1' stroke-dasharray='6,6' opacity='0.18' fill='none'/><path d="M 516.51 424.07 L 516.25 425.36 M 83.75 425.36 L 83.49 424.07 L 83.75 422.77 L 84.54 421.48 L 85.84 420.20 L 87.65 418.92 L 89.98 417.66 L 92.82 416.41 L 96.15 415.18 L 99.97 413.97 L 104.28 412.79 L 109.06 411.63 L 114.30 410.50 L 119.98 409.41 L 126.10 408.35 L 132.64 407.33 L 139.58 406.35 L 146.91 405.41 L 154.60 404.52 L 162.65 403.67 L 171.03 402.88 L 179.72 402.13 L 188.69 401.44 L 197.94 400.80 L 207.43 400.22 L 217.15 399.69 L 227.06 399.23 L 237.15 398.82 L 247.39 398.47 L 257.76 398.19 L 268.23 397.97 L 278.78 397.81 L 289.38 397.71 L 300.00 397.68 L 310.62 397.71 L 321.22 397.81 L 331.77 397.97 L 342.24 398.19 L 352.61 398.47 L 362.85 398.82 L 372.94 399.23 L 382.85 399.69 L 392.57 400.22 L 402.06 400.80 L 411.31 401.44 L 420.28 402.13 L 428.97 402.88 L 437.35 403.67 L 445.40 404.52 L 453.09 405.41 L 460.42 406.35 L 467.36 407.33 L 473.90 408.35 L 480.02 409.41 L 485.70 410.50 L 490.94 411.63 L 495.72 412.79 L 500.03 413.97 L 503.85 415.18 L 507.18 416.41 L 510.02 417.66 L 512.35 418.92 L 514.16 420.20 L 515.46 421.48 L 516.25 422.77 L 516.51 424.07 " stroke='#fff' stroke-width='1' stroke-dasharray='6,6' opacity='0.08' fill='none'/><path d="M 515.46 426.65 L 514.16 427.94 L 512.35 429.22 L 510.02 430.48 L 507.18 431.73 L 503.85 432.96 L 500.03 434.17 L 495.72 435.35 L 490.94 436.51 L 485.70 437.63 L 480.02 438.73 L 473.90 439.79 L 467.36 440.81 L 460.42 441.79 L 453.09 442.73 L 445.40 443.62 L 437.35 444.46 L 428.97 445.26 L 420.28 446.01 L 411.31 446.70 L 402.06 447.34 L 392.57 447.92 L 382.85 448.45 L 372.94 448.91 L 362.85 449.32 L 352.61 449.66 L 342.24 449.95 L 331.77 450.17 L 321.22 450.33 L 310.62 450.42 L 300.00 450.45 L 289.38 450.42 L 278.78 450.33 L 268.23 450.17 L 257.76 449.95 L 247.39 449.66 L 237.15 449.32 L 227.06 448.91 L 217.15 448.45 L 207.43 447.92 L 197.94 447.34 L 188.69 446.70 L 179.72 446.01 L 171.03 445.26 L 162.65 444.46 L 154.60 443.62 L 146.91 442.73 L 139.58 441.79 L 132.64 440.81 L 126.10 439.79 L 119.98 438.73 L 114.30 437.63 L 109.06 436.51 L 104.28 435.35 L 99.97 434.17 L 96.15 432.96 L 92.82 431.73 L 89.98 430.48 L 87.65 429.22 L 85.84 427.94 L 84.54 426.65 " stroke='#fff' stroke-width='1' stroke-dasharray='6,6' opacity='0.18' fill='none'/><path d="M 50.30 298.51 L 51.20 297.01 L 52.71 295.53 L 54.80 294.06 L 57.49 292.60 L 60.76 291.16 L 64.61 289.74 L 69.03 288.34 L 74.00 286.97 L 79.52 285.64 L 85.57 284.34 L 92.13 283.07 L 99.20 281.85 L 106.75 280.67 L 114.76 279.54 L 123.22 278.46 L 132.11 277.43 L 141.40 276.45 L 151.08 275.53 L 161.11 274.67 L 171.47 273.87 L 182.15 273.13 L 193.11 272.46 L 204.33 271.85 L 215.78 271.31 L 227.43 270.84 L 239.25 270.45 L 251.23 270.12 L 263.32 269.86 L 275.50 269.68 L 287.73 269.57 L 300.00 269.53 L 312.27 269.57 L 324.50 269.68 L 336.68 269.86 L 348.77 270.12 L 360.75 270.45 L 372.57 270.84 L 384.22 271.31 L 395.67 271.85 L 406.89 272.46 L 417.85 273.13 L 428.53 273.87 L 438.89 274.67 L 448.92 275.53 L 458.60 276.45 L 467.89 277.43 L 476.78 278.46 L 485.24 279.54 L 493.25 280.67 L 500.80 281.85 L 507.87 283.07 L 514.43 284.34 L 520.48 285.64 L 526.00 286.97 L 530.97 288.34 L 535.39 289.74 L 539.24 291.16 L 542.51 292.60 L 545.20 294.06 L 547.29 295.53 L 548.80 297.01 L 549.70 298.51 L 550.00 300.00 " stroke='#fff' stroke-width='1' stroke-dasharray='6,6' opacity='0.08' fill='none'/><path d="M 550.00 300.00 L 549.70 301.49 L 548.80 302.99 L 547.29 304.47 L 545.20 305.94 L 542.51 307.40 L 539.24 308.84 L 535.39 310.26 L 530.97 311.66 L 526.00 313.03 L 520.48 314.36 L 514.43 315.66 L 507.87 316.93 L 500.80 318.15 L 493.25 319.33 L 485.24 320.46 L 476.78 321.54 L 467.89 322.57 L 458.60 323.55 L 448.92 324.47 L 438.89 325.33 L 428.53 326.13 L 417.85 326.87 L 406.89 327.54 L 395.67 328.15 L 384.22 328.69 L 372.57 329.16 L 360.75 329.55 L 348.77 329.88 L 336.68 330.14 L 324.50 330.32 L 312.27 330.43 L 300.00 330.47 L 287.73 330.43 L 275.50 330.32 L 263.32 330.14 L 251.23 329.88 L 239.25 329.55 L 227.43 329.16 L 215.78 328.69 L 204.33 328.15 L 193.11 327.54 L 182.15 326.87 L 171.47 326.13 L 161.11 325.33 L 151.08 324.47 L 141.40 323.55 L 132.11 322.57 L 123.22 321.54 L 114.76 320.46 L 106.75 319.33 L 99.20 318.15 L 92.13 316.93 L 85.57 315.66 L 79.52 314.36 L 74.00 313.03 L 69.03 311.66 L 64.61 310.26 L 60.76 308.84 L 57.49 307.40 L 54.80 305.94 L 52.71 304.47 L 51.20 302.99 L 50.30 301.49 L 50.00 300.00 " stroke='#fff' stroke-width='1' stroke-dasharray='6,6' opacity='0.18' fill='none'/><path d="M 84.54 173.35 L 85.84 172.06 L 87.65 170.78 L 89.98 169.52 L 92.82 168.27 L 96.15 167.04 L 99.97 165.83 L 104.28 164.65 L 109.06 163.49 L 114.30 162.37 L 119.98 161.27 L 126.10 160.21 L 132.64 159.19 L 139.58 158.21 L 146.91 157.27 L 154.60 156.38 L 162.65 155.54 L 171.03 154.74 L 179.72 153.99 L 188.69 153.30 L 197.94 152.66 L 207.43 152.08 L 217.15 151.55 L 227.06 151.09 L 237.15 150.68 L 247.39 150.34 L 257.76 150.05 L 268.23 149.83 L 278.78 149.67 L 289.38 149.58 L 300.00 149.55 L 310.62 149.58 L 321.22 149.67 L 331.77 149.83 L 342.24 150.05 L 352.61 150.34 L 362.85 150.68 L 372.94 151.09 L 382.85 151.55 L 392.57 152.08 L 402.06 152.66 L 411.31 153.30 L 420.28 153.99 L 428.97 154.74 L 437.35 155.54 L 445.40 156.38 L 453.09 157.27 L 460.42 158.21 L 467.36 159.19 L 473.90 160.21 L 480.02 161.27 L 485.70 162.37 L 490.94 163.49 L 495.72 164.65 L 500.03 165.83 L 503.85 167.04 L 507.18 168.27 L 510.02 169.52 L 512.35 170.78 L 514.16 172.06 L 515.46 173.35 " stroke='#fff' stroke-width='1' stroke-dasharray='6,6' opacity='0.08' fill='none'/><path d="M 516.51 175.93 L 516.25 177.23 L 515.46 178.52 L 514.16 179.80 L 512.35 181.08 L 510.02 182.34 L 507.18 183.59 L 503.85 184.82 L 500.03 186.03 L 495.72 187.21 L 490.94 188.37 L 485.70 189.50 L 480.02 190.59 L 473.90 191.65 L 467.36 192.67 L 460.42 193.65 L 453.09 194.59 L 445.40 195.48 L 437.35 196.33 L 428.97 197.12 L 420.28 197.87 L 411.31 198.56 L 402.06 199.20 L 392.57 199.78 L 382.85 200.31 L 372.94 200.77 L 362.85 201.18 L 352.61 201.53 L 342.24 201.81 L 331.77 202.03 L 321.22 202.19 L 310.62 202.29 L 300.00 202.32 L 289.38 202.29 L 278.78 202.19 L 268.23 202.03 L 257.76 201.81 L 247.39 201.53 L 237.15 201.18 L 227.06 200.77 L 217.15 200.31 L 207.43 199.78 L 197.94 199.20 L 188.69 198.56 L 179.72 197.87 L 171.03 197.12 L 162.65 196.33 L 154.60 195.48 L 146.91 194.59 L 139.58 193.65 L 132.64 192.67 L 126.10 191.65 L 119.98 190.59 L 114.30 189.50 L 109.06 188.37 L 104.28 187.21 L 99.97 186.03 L 96.15 184.82 L 92.82 183.59 L 89.98 182.34 L 87.65 181.08 L 85.84 179.80 L 84.54 178.52 L 83.75 177.23 L 83.49 175.93 L 83.75 174.64 M 516.25 174.64 L 516.51 175.93 " stroke='#fff' stroke-width='1' stroke-dasharray='6,6' opacity='0.18' fill='none'/><path d="M 178.75 81.41 L 180.38 80.69 L 182.31 79.98 L 184.52 79.28 L 187.00 78.59 L 189.76 77.93 L 192.78 77.28 L 196.07 76.64 L 199.60 76.03 L 203.37 75.44 L 207.38 74.88 L 211.61 74.34 L 216.06 73.82 L 220.70 73.33 L 225.54 72.87 L 230.55 72.44 L 235.74 72.04 L 241.08 71.67 L 246.56 71.34 L 252.16 71.03 L 257.89 70.76 L 263.71 70.53 L 269.63 70.33 L 275.61 70.17 L 281.66 70.04 L 287.75 69.95 L 293.87 69.89 L 300.00 69.87 L 306.13 69.89 L 312.25 69.95 L 318.34 70.04 L 324.39 70.17 L 330.37 70.33 L 336.29 70.53 L 342.11 70.76 L 347.84 71.03 L 353.44 71.34 L 358.92 71.67 L 364.26 72.04 L 369.45 72.44 L 374.46 72.87 L 379.30 73.33 L 383.94 73.82 L 388.39 74.34 L 392.62 74.88 L 396.63 75.44 L 400.40 76.03 L 403.93 76.64 L 407.22 77.28 L 410.24 77.93 L 413.00 78.59 L 415.48 79.28 L 417.69 79.98 L 419.62 80.69 L 421.25 81.41 " stroke='#fff' stroke-width='1' stroke-dasharray='6,6' opacity='0.08' fill='none'/><path d="M 425.00 85.11 L 424.85 85.85 L 424.40 86.60 L 423.65 87.34 L 422.60 88.08 L 421.25 88.81 L 419.62 89.53 L 417.69 90.24 L 415.48 90.94 L 413.00 91.62 L 410.24 92.29 L 407.22 92.94 L 403.93 93.57 L 400.40 94.18 L 396.63 94.77 L 392.62 95.34 L 388.39 95.88 L 383.94 96.39 L 379.30 96.88 L 374.46 97.34 L 369.45 97.77 L 364.26 98.17 L 358.92 98.54 L 353.44 98.88 L 347.84 99.18 L 342.11 99.45 L 336.29 99.69 L 330.37 99.88 L 324.39 100.05 L 318.34 100.18 L 312.25 100.27 L 306.13 100.32 L 300.00 100.34 L 293.87 100.32 L 287.75 100.27 L 281.66 100.18 L 275.61 100.05 L 269.63 99.88 L 263.71 99.69 L 257.89 99.45 L 252.16 99.18 L 246.56 98.88 L 241.08 98.54 L 235.74 98.17 L 230.55 97.77 L 225.54 97.34 L 220.70 96.88 L 216.06 96.39 L 211.61 95.88 L 207.38 95.34 L 203.37 94.77 L 199.60 94.18 L 196.07 93.57 L 192.78 92.94 L 189.76 92.29 L 187.00 91.62 L 184.52 90.94 L 182.31 90.24 L 180.38 89.53 L 178.75 88.81 L 177.40 88.08 L 176.35 87.34 L 175.60 86.60 L 175.15 85.85 L 175.00 85.11 L 175.15 84.36 L 175.60 83.61 L 176.35 82.87 L 177.40 82.14 M 422.60 82.14 L 423.65 82.87 L 424.40 83.61 L 424.85 84.36 L 425.00 85.11 " stroke='#fff' stroke-width='1' stroke-dasharray='6,6' opacity='0.18' fill='none'/><path d="M 300.00 548.14 L 306.14 548.06 L 312.27 547.84 L 318.39 547.46 L 324.50 546.94 L 330.60 546.27 L 336.68 545.45 L 342.74 544.48 L 348.77 543.37 L 354.78 542.11 L 360.75 540.70 L 366.68 539.15 L 372.57 537.45 L 378.42 535.61 L 384.22 533.63 L 389.97 531.51 L 395.67 529.25 L 401.31 526.85 L 406.89 524.31 L 412.40 521.64 L 417.85 518.84 L 423.22 515.90 L 428.53 512.83 L 433.75 509.64 L 438.89 506.32 L 443.95 502.87 L 448.92 499.31 L 453.81 495.62 L 458.60 491.81 L 463.29 487.89 L 467.89 483.86 L 472.39 479.71 L 476.78 475.46 L 481.06 471.10 L 485.24 466.64 L 489.30 462.08 L 493.25 457.42 L 497.09 452.66 L 500.80 447.81 L 504.40 442.88 L 507.87 437.86 L 511.21 432.75 L 514.43 427.57 L 517.52 422.31 L 520.48 416.97 L 523.31 411.56 L 526.00 406.09 L 528.55 400.56 L 530.97 394.96 L 533.25 389.30 L 535.39 383.59 L 537.38 377.84 L 539.24 372.03 L 540.94 366.18 L 542.51 360.29 L 543.93 354.37 L 545.20 348.41 L 546.32 342.42 L 547.29 336.41 L 548.12 330.37 L 548.80 324.32 L 549.32 318.25 L 549.70 312.18 L 549.92 306.09 " stroke='#fff' stroke-width='1' stroke-dasharray='6,6' opacity='0.08' fill='none'/><path d="M 550.00 300.00 L 549.92 293.91 L 549.70 287.82 L 549.32 281.75 L 548.80 275.68 L 548.12 269.63 L 547.29 263.59 L 546.32 257.58 L 545.20 251.59 L 543.93 245.63 L 542.51 239.71 L 540.94 233.82 L 539.24 227.97 L 537.38 222.16 L 535.39 216.41 L 533.25 210.70 L 530.97 205.04 L 528.55 199.44 L 526.00 193.91 L 523.31 188.44 L 520.48 183.03 L 517.52 177.69 L 514.43 172.43 L 511.21 167.25 L 507.87 162.14 L 504.40 157.12 L 500.80 152.19 L 497.09 147.34 L 493.25 142.58 L 489.30 137.92 L 485.24 133.36 L 481.06 128.90 L 476.78 124.54 L 472.39 120.29 L 467.89 116.14 L 463.29 112.11 L 458.60 108.19 L 453.81 104.38 L 448.92 100.69 L 443.95 97.13 L 438.89 93.68 L 433.75 90.36 L 428.53 87.17 L 423.22 84.10 L 417.85 81.16 L 412.40 78.36 L 406.89 75.69 L 401.31 73.15 L 395.67 70.75 L 389.97 68.49 L 384.22 66.37 L 378.42 64.39 L 372.57 62.55 L 366.68 60.85 L 360.75 59.30 L 354.78 57.89 L 348.77 56.63 L 342.74 55.52 L 336.68 54.55 L 330.60 53.73 L 324.50 53.06 L 318.39 52.54 L 312.27 52.16 L 306.14 51.94 L 300.00 51.86 " stroke='#fff' stroke-width='1' stroke-dasharray='6,6' opacity='0.18' fill='none'/><path d="M 300.00 548.14 L 305.31 548.44 L 310.62 548.59 L 315.93 548.58 L 321.22 548.43 L 326.50 548.14 L 331.77 547.69 L 337.01 547.09 L 342.24 546.34 L 347.44 545.45 " stroke='#fff' stroke-width='1' stroke-dasharray='6,6' opacity='0.08' fill='none'/><path d="M 352.61 544.40 L 357.75 543.21 L 362.85 541.87 L 367.91 540.39 L 372.94 538.76 L 377.92 536.99 L 382.85 535.08 L 387.74 533.02 L 392.57 530.83 L 397.34 528.49 L 402.06 526.02 L 406.72 523.41 L 411.31 520.67 L 415.83 517.79 L 420.28 514.78 L 424.67 511.64 L 428.97 508.38 L 433.20 504.99 L 437.35 501.48 L 441.42 497.84 L 445.40 494.09 L 449.29 490.22 L 453.09 486.23 L 456.80 482.13 L 460.42 477.93 L 463.94 473.61 L 467.36 469.19 L 470.68 464.67 L 473.90 460.05 L 477.01 455.33 L 480.02 450.52 L 482.92 445.62 L 485.70 440.63 L 488.38 435.56 L 490.94 430.41 L 493.39 425.17 L 495.72 419.86 L 497.93 414.48 L 500.03 409.03 L 502.00 403.52 L 503.85 397.94 L 505.58 392.30 L 507.18 386.61 L 508.66 380.86 L 510.02 375.07 L 511.25 369.23 L 512.35 363.35 L 513.32 357.43 L 514.16 351.48 L 514.88 345.49 L 515.46 339.48 L 515.92 333.45 L 516.25 327.39 L 516.44 321.32 L 516.51 315.23 L 516.44 309.14 L 516.25 303.04 L 515.92 296.94 L 515.46 290.84 L 514.88 284.74 L 514.16 278.66 L 513.32 272.59 L 512.35 266.53 L 511.25 260.50 L 510.02 254.48 L 508.66 248.50 L 507.18 242.55 L 505.58 236.63 L 503.85 230.75 L 502.00 224.91 L 500.03 219.12 L 497.93 213.37 L 495.72 207.68 L 493.39 202.04 L 490.94 196.46 L 488.38 190.95 L 485.70 185.50 L 482.92 180.12 L 480.02 174.81 L 477.01 169.58 L 473.90 164.42 L 470.68 159.35 L 467.36 154.36 L 463.94 149.46 L 460.42 144.65 L 456.80 139.93 L 453.09 135.31 L 449.29 130.79 L 445.40 126.37 L 441.42 122.06 L 437.35 117.85 L 433.20 113.75 L 428.97 109.77 L 424.67 105.90 L 420.28 102.15 L 415.83 98.51 L 411.31 95.00 L 406.72 91.61 L 402.06 88.34 L 397.34 85.21 L 392.57 82.20 L 387.74 79.32 L 382.85 76.58 L 377.92 73.97 L 372.94 71.50 L 367.91 69.17 L 362.85 66.97 L 357.75 64.91 L 352.61 63.00 L 347.44 61.23 L 342.24 59.60 L 337.01 58.12 L 331.77 56.78 L 326.50 55.59 L 321.22 54.55 L 315.93 53.66 L 310.62 52.91 L 305.31 52.31 L 300.00 51.86 " stroke='#fff' stroke-width='1' stroke-dasharray='6,6' opacity='0.18' fill='none'/><path d="M 300.00 548.14 L 303.07 548.71 L 306.13 549.13 L 309.20 549.41 L 312.25 549.53 L 315.30 549.50 " stroke='#fff' stroke-width='1' stroke-dasharray='6,6' opacity='0.08' fill='none'/><path d="M 318.34 549.32 L 321.37 548.99 L 324.39 548.52 L 327.39 547.89 L 330.37 547.11 L 333.34 546.19 L 336.29 545.11 L 339.21 543.89 L 342.11 542.52 L 344.99 541.01 L 347.84 539.35 L 350.66 537.54 L 353.44 535.59 L 356.20 533.50 L 358.92 531.27 L 361.61 528.91 L 364.26 526.40 L 366.87 523.76 L 369.45 520.98 L 371.98 518.07 L 374.46 515.02 L 376.90 511.85 L 379.30 508.55 L 381.65 505.13 L 383.94 501.58 L 386.19 497.91 L 388.39 494.12 L 390.53 490.21 L 392.62 486.19 L 394.65 482.06 L 396.63 477.81 L 398.54 473.46 L 400.40 469.01 L 402.20 464.45 L 403.93 459.80 L 405.61 455.04 L 407.22 450.20 L 408.76 445.26 L 410.24 440.24 L 411.65 435.13 L 413.00 429.94 L 414.28 424.68 L 415.48 419.33 L 416.62 413.92 L 417.69 408.44 L 418.69 402.89 L 419.62 397.28 L 420.47 391.61 L 421.25 385.89 L 421.96 380.11 L 422.60 374.29 L 423.16 368.42 L 423.65 362.51 L 424.06 356.56 L 424.40 350.58 L 424.66 344.57 L 424.85 338.53 L 424.96 332.47 L 425.00 326.39 L 424.96 320.29 L 424.85 314.18 L 424.66 308.06 L 424.40 301.94 L 424.06 295.81 L 423.65 289.69 L 423.16 283.58 L 422.60 277.47 L 421.96 271.38 L 421.25 265.30 L 420.47 259.25 L 419.62 253.22 L 418.69 247.22 L 417.69 241.25 L 416.62 235.31 L 415.48 229.42 L 414.28 223.57 L 413.00 217.76 L 411.65 212.00 L 410.24 206.30 L 408.76 200.65 L 407.22 195.06 L 405.61 189.54 L 403.93 184.08 L 402.20 178.69 L 400.40 173.38 L 398.54 168.14 L 396.63 162.98 L 394.65 157.90 L 392.62 152.91 L 390.53 148.01 L 388.39 143.20 L 386.19 138.48 L 383.94 133.86 L 381.65 129.34 L 379.30 124.93 L 376.90 120.62 L 374.46 116.41 L 371.98 112.32 L 369.45 108.34 L 366.87 104.48 L 364.26 100.73 L 361.61 97.10 L 358.92 93.60 L 356.20 90.22 L 353.44 86.97 L 350.66 83.84 L 347.84 80.85 L 344.99 77.99 L 342.11 75.26 L 339.21 72.66 L 336.29 70.21 L 333.34 67.89 L 330.37 65.71 L 327.39 63.67 L 324.39 61.78 L 321.37 60.03 L 318.34 58.42 L 315.30 56.96 L 312.25 55.64 L 309.20 54.48 L 306.13 53.46 L 303.07 52.59 L 300.00 51.86 " stroke='#fff' stroke-width='1' stroke-dasharray='6,6' opacity='0.18' fill='none'/><path d="M 300.00 548.14 L 300.00 548.81 L 300.00 549.33 L 300.00 549.71 L 300.00 549.93 " stroke='#fff' stroke-width='1' stroke-dasharray='6,6' opacity='0.08' fill='none'/><path d="M 300.00 550.00 L 300.00 549.92 L 300.00 549.69 L 300.00 549.31 L 300.00 548.78 L 300.00 548.10 L 300.00 547.27 L 300.00 546.30 L 300.00 545.17 L 300.00 543.90 L 300.00 542.47 L 300.00 540.91 L 300.00 539.20 L 300.00 537.34 L 300.00 535.34 L 300.00 533.20 L 300.00 530.92 L 300.00 528.50 L 300.00 525.94 L 300.00 523.24 L 300.00 520.42 L 300.00 517.45 L 300.00 514.36 L 300.00 511.14 L 300.00 507.79 L 300.00 504.32 L 300.00 500.72 L 300.00 497.00 L 300.00 493.17 L 300.00 489.21 L 300.00 485.15 L 300.00 480.97 L 300.00 476.68 L 300.00 472.29 L 300.00 467.79 L 300.00 463.19 L 300.00 458.49 L 300.00 453.70 L 300.00 448.82 L 300.00 443.84 L 300.00 438.78 L 300.00 433.63 L 300.00 428.41 L 300.00 423.11 L 300.00 417.73 L 300.00 412.28 L 300.00 406.77 L 300.00 401.19 L 300.00 395.54 L 300.00 389.85 L 300.00 384.09 L 300.00 378.29 L 300.00 372.44 L 300.00 366.55 L 300.00 360.61 L 300.00 354.64 L 300.00 348.64 L 300.00 342.61 L 300.00 336.55 L 300.00 330.47 L 300.00 324.37 L 300.00 318.26 L 300.00 312.13 L 300.00 306.00 L 300.00 299.86 L 300.00 293.73 L 300.00 287.60 L 300.00 281.47 L 300.00 275.36 L 300.00 269.26 L 300.00 263.18 L 300.00 257.13 L 300.00 251.09 L 300.00 245.09 L 300.00 239.12 L 300.00 233.19 L 300.00 227.30 L 300.00 221.45 L 300.00 215.65 L 300.00 209.90 L 300.00 204.20 L 300.00 198.57 L 300.00 192.99 L 300.00 187.48 L 300.00 182.03 L 300.00 176.66 L 300.00 171.36 L 300.00 166.14 L 300.00 160.99 L 300.00 155.94 L 300.00 150.97 L 300.00 146.08 L 300.00 141.30 L 300.00 136.60 L 300.00 132.01 L 300.00 127.52 L 300.00 123.13 L 300.00 118.84 L 300.00 114.67 L 300.00 110.61 L 300.00 106.66 L 300.00 102.83 L 300.00 99.12 L 300.00 95.53 L 300.00 92.06 L 300.00 88.71 L 300.00 85.50 L 300.00 82.41 L 300.00 79.46 L 300.00 76.63 L 300.00 73.94 L 300.00 71.39 L 300.00 68.98 L 300.00 66.70 L 300.00 64.57 L 300.00 62.58 L 300.00 60.73 L 300.00 59.02 L 300.00 57.46 L 300.00 56.04 L 300.00 54.78 L 300.00 53.66 L 300.00 52.69 L 300.00 51.86 " stroke='#fff' stroke-width='1' stroke-dasharray='6,6' opacity='0.18' fill='none'/><path d="M 300.00 548.14 L 296.93 548.71 L 293.87 549.13 L 290.80 549.41 L 287.75 549.53 L 284.70 549.50 " stroke='#fff' stroke-width='1' stroke-dasharray='6,6' opacity='0.08' fill='none'/><path d="M 281.66 549.32 L 278.63 548.99 L 275.61 548.52 L 272.61 547.89 L 269.63 547.11 L 266.66 546.19 L 263.71 545.11 L 260.79 543.89 L 257.89 542.52 L 255.01 541.01 L 252.16 539.35 L 249.34 537.54 L 246.56 535.59 L 243.80 533.50 L 241.08 531.27 L 238.39 528.91 L 235.74 526.40 L 233.13 523.76 L 230.55 520.98 L 228.02 518.07 L 225.54 515.02 L 223.10 511.85 L 220.70 508.55 L 218.35 505.13 L 216.06 501.58 L 213.81 497.91 L 211.61 494.12 L 209.47 490.21 L 207.38 486.19 L 205.35 482.06 L 203.37 477.81 L 201.46 473.46 L 199.60 469.01 L 197.80 464.45 L 196.07 459.80 L 194.39 455.04 L 192.78 450.20 L 191.24 445.26 L 189.76 440.24 L 188.35 435.13 L 187.00 429.94 L 185.72 424.68 L 184.52 419.33 L 183.38 413.92 L 182.31 408.44 L 181.31 402.89 L 180.38 397.28 L 179.53 391.61 L 178.75 385.89 L 178.04 380.11 L 177.40 374.29 L 176.84 368.42 L 176.35 362.51 L 175.94 356.56 L 175.60 350.58 L 175.34 344.57 L 175.15 338.53 L 175.04 332.47 L 175.00 326.39 L 175.04 320.29 L 175.15 314.18 L 175.34 308.06 L 175.60 301.94 L 175.94 295.81 L 176.35 289.69 L 176.84 283.58 L 177.40 277.47 L 178.04 271.38 L 178.75 265.30 L 179.53 259.25 L 180.38 253.22 L 181.31 247.22 L 182.31 241.25 L 183.38 235.31 L 184.52 229.42 L 185.72 223.57 L 187.00 217.76 L 188.35 212.00 L 189.76 206.30 L 191.24 200.65 L 192.78 195.06 L 194.39 189.54 L 196.07 184.08 L 197.80 178.69 L 199.60 173.38 L 201.46 168.14 L 203.37 162.98 L 205.35 157.90 L 207.38 152.91 L 209.47 148.01 L 211.61 143.20 L 213.81 138.48 L 216.06 133.86 L 218.35 129.34 L 220.70 124.93 L 223.10 120.62 L 225.54 116.41 L 228.02 112.32 L 230.55 108.34 L 233.13 104.48 L 235.74 100.73 L 238.39 97.10 L 241.08 93.60 L 243.80 90.22 L 246.56 86.97 L 249.34 83.84 L 252.16 80.85 L 255.01 77.99 L 257.89 75.26 L 260.79 72.66 L 263.71 70.21 L 266.66 67.89 L 269.63 65.71 L 272.61 63.67 L 275.61 61.78 L 278.63 60.03 L 281.66 58.42 L 284.70 56.96 L 287.75 55.64 L 290.80 54.48 L 293.87 53.46 L 296.93 52.59 L 300.00 51.86 " stroke='#fff' stroke-width='1' stroke-dasharray='6,6' opacity='0.18' fill='none'/><path d="M 300.00 548.14 L 294.69 548.44 L 289.38 548.59 L 284.07 548.58 L 278.78 548.43 L 273.50 548.14 L 268.23 547.69 L 262.99 547.09 L 257.76 546.34 L 252.56 545.45 " stroke='#fff' stroke-width='1' stroke-dasharray='6,6' opacity='0.08' fill='none'/><path d="M 247.39 544.40 L 242.25 543.21 L 237.15 541.87 L 232.09 540.39 L 227.06 538.76 L 222.08 536.99 L 217.15 535.08 L 212.26 533.02 L 207.43 530.83 L 202.66 528.49 L 197.94 526.02 L 193.28 523.41 L 188.69 520.67 L 184.17 517.79 L 179.72 514.78 L 175.33 511.64 L 171.03 508.38 L 166.80 504.99 L 162.65 501.48 L 158.58 497.84 L 154.60 494.09 L 150.71 490.22 L 146.91 486.23 L 143.20 482.13 L 139.58 477.93 L 136.06 473.61 L 132.64 469.19 L 129.32 464.67 L 126.10 460.05 L 122.99 455.33 L 119.98 450.52 L 117.08 445.62 L 114.30 440.63 L 111.62 435.56 L 109.06 430.41 L 106.61 425.17 L 104.28 419.86 L 102.07 414.48 L 99.97 409.03 L 98.00 403.52 L 96.15 397.94 L 94.42 392.30 L 92.82 386.61 L 91.34 380.86 L 89.98 375.07 L 88.75 369.23 L 87.65 363.35 L 86.68 357.43 L 85.84 351.48 L 85.12 345.49 L 84.54 339.48 L 84.08 333.45 L 83.75 327.39 L 83.56 321.32 L 83.49 315.23 L 83.56 309.14 L 83.75 303.04 L 84.08 296.94 L 84.54 290.84 L 85.12 284.74 L 85.84 278.66 L 86.68 272.59 L 87.65 266.53 L 88.75 260.50 L 89.98 254.48 L 91.34 248.50 L 92.82 242.55 L 94.42 236.63 L 96.15 230.75 L 98.00 224.91 L 99.97 219.12 L 102.07 213.37 L 104.28 207.68 L 106.61 202.04 L 109.06 196.46 L 111.62 190.95 L 114.30 185.50 L 117.08 180.12 L 119.98 174.81 L 122.99 169.58 L 126.10 164.42 L 129.32 159.35 L 132.64 154.36 L 136.06 149.46 L 139.58 144.65 L 143.20 139.93 L 146.91 135.31 L 150.71 130.79 L 154.60 126.37 L 158.58 122.06 L 162.65 117.85 L 166.80 113.75 L 171.03 109.77 L 175.33 105.90 L 179.72 102.15 L 184.17 98.51 L 188.69 95.00 L 193.28 91.61 L 197.94 88.34 L 202.66 85.21 L 207.43 82.20 L 212.26 79.32 L 217.15 76.58 L 222.08 73.97 L 227.06 71.50 L 232.09 69.17 L 237.15 66.97 L 242.25 64.91 L 247.39 63.00 L 252.56 61.23 L 257.76 59.60 L 262.99 58.12 L 268.23 56.78 L 273.50 55.59 L 278.78 54.55 L 284.07 53.66 L 289.38 52.91 L 294.69 52.31 L 300.00 51.86 " stroke='#fff' stroke-width='1' stroke-dasharray='6,6' opacity='0.18' fill='none'/><path d="M 300.00 548.14 L 293.86 548.06 L 287.73 547.84 L 281.61 547.46 L 275.50 546.94 L 269.40 546.27 L 263.32 545.45 L 257.26 544.48 L 251.23 543.37 L 245.22 542.11 L 239.25 540.70 L 233.32 539.15 L 227.43 537.45 L 221.58 535.61 L 215.78 533.63 L 210.03 531.51 L 204.33 529.25 L 198.69 526.85 L 193.11 524.31 L 187.60 521.64 L 182.15 518.84 L 176.78 515.90 L 171.47 512.83 L 166.25 509.64 L 161.11 506.32 L 156.05 502.87 L 151.08 499.31 L 146.19 495.62 L 141.40 491.81 L 136.71 487.89 L 132.11 483.86 L 127.61 479.71 L 123.22 475.46 L 118.94 471.10 L 114.76 466.64 L 110.70 462.08 L 106.75 457.42 L 102.91 452.66 L 99.20 447.81 L 95.60 442.88 L 92.13 437.86 L 88.79 432.75 L 85.57 427.57 L 82.48 422.31 L 79.52 416.97 L 76.69 411.56 L 74.00 406.09 L 71.45 400.56 L 69.03 394.96 L 66.75 389.30 L 64.61 383.59 L 62.62 377.84 L 60.76 372.03 L 59.06 366.18 L 57.49 360.29 L 56.07 354.37 L 54.80 348.41 L 53.68 342.42 L 52.71 336.41 L 51.88 330.37 L 51.20 324.32 L 50.68 318.25 L 50.30 312.18 L 50.08 306.09 " stroke='#fff' stroke-width='1' stroke-dasharray='6,6' opacity='0.08' fill='none'/><path d="M 50.00 300.00 L 50.08 293.91 L 50.30 287.82 L 50.68 281.75 L 51.20 275.68 L 51.88 269.63 L 52.71 263.59 L 53.68 257.58 L 54.80 251.59 L 56.07 245.63 L 57.49 239.71 L 59.06 233.82 L 60.76 227.97 L 62.62 222.16 L 64.61 216.41 L 66.75 210.70 L 69.03 205.04 L 71.45 199.44 L 74.00 193.91 L 76.69 188.44 L 79.52 183.03 L 82.48 177.69 L 85.57 172.43 L 88.79 167.25 L 92.13 162.14 L 95.60 157.12 L 99.20 152.19 L 102.91 147.34 L 106.75 142.58 L 110.70 137.92 L 114.76 133.36 L 118.94 128.90 L 123.22 124.54 L 127.61 120.29 L 132.11 116.14 L 136.71 112.11 L 141.40 108.19 L 146.19 104.38 L 151.08 100.69 L 156.05 97.13 L 161.11 93.68 L 166.25 90.36 L 171.47 87.17 L 176.78 84.10 L 182.15 81.16 L 187.60 78.36 L 193.11 75.69 L 198.69 73.15 L 204.33 70.75 L 210.03 68.49 L 215.78 66.37 L 221.58 64.39 L 227.43 62.55 L 233.32 60.85 L 239.25 59.30 L 245.22 57.89 L 251.23 56.63 L 257.26 55.52 L 263.32 54.55 L 269.40 53.73 L 275.50 53.06 L 281.61 52.54 L 287.73 52.16 L 293.86 51.94 L 300.00 51.86 " stroke='#fff' stroke-width='1' stroke-dasharray='6,6' opacity='0.18' fill='none'/><path d="M 300.00 548.14 L 294.69 547.69 L 289.38 547.09 L 284.07 546.34 L 278.78 545.45 L 273.50 544.41 L 268.23 543.22 L 262.99 541.88 L 257.76 540.40 L 252.56 538.77 L 247.39 537.00 L 242.25 535.09 L 237.15 533.03 L 232.09 530.83 L 227.06 528.50 L 222.08 526.03 L 217.15 523.42 L 212.26 520.68 L 207.43 517.80 L 202.66 514.79 L 197.94 511.66 L 193.28 508.39 L 188.69 505.00 L 184.17 501.49 L 179.72 497.85 L 175.33 494.10 L 171.03 490.23 L 166.80 486.25 L 162.65 482.15 L 158.58 477.94 L 154.60 473.63 L 150.71 469.21 L 146.91 464.69 L 143.20 460.07 L 139.58 455.35 L 136.06 450.54 L 132.64 445.64 L 129.32 440.65 L 126.10 435.58 L 122.99 430.42 L 119.98 425.19 L 117.08 419.88 L 114.30 414.50 L 111.62 409.05 L 109.06 403.54 L 106.61 397.96 L 104.28 392.32 L 102.07 386.63 L 99.97 380.88 L 98.00 375.09 L 96.15 369.25 L 94.42 363.37 L 92.82 357.45 L 91.34 351.50 L 89.98 345.52 L 88.75 339.50 L 87.65 333.47 L 86.68 327.41 L 85.84 321.34 L 85.12 315.26 L 84.54 309.16 L 84.08 303.06 L 83.75 296.96 L 83.56 290.86 L 83.49 284.77 L 83.56 278.68 L 83.75 272.61 L 84.08 266.55 L 84.54 260.52 L 85.12 254.51 L 85.84 248.52 L 86.68 242.57 L 87.65 236.65 L 88.75 230.77 L 89.98 224.93 L 91.34 219.14 L 92.82 213.39 L 94.42 207.70 L 96.15 202.06 L 98.00 196.48 L 99.97 190.97 L 102.07 185.52 L 104.28 180.14 L 106.61 174.83 L 109.06 169.59 L 111.62 164.44 L 114.30 159.37 L 117.08 154.38 L 119.98 149.48 L 122.99 144.67 L 126.10 139.95 L 129.32 135.33 L 132.64 130.81 L 136.06 126.39 L 139.58 122.07 L 143.20 117.87 L 146.91 113.77 L 150.71 109.78 L 154.60 105.91 L 158.58 102.16 L 162.65 98.52 L 166.80 95.01 L 171.03 91.62 L 175.33 88.36 L 179.72 85.22 L 184.17 82.21 L 188.69 79.33 L 193.28 76.59 L 197.94 73.98 L 202.66 71.51 L 207.43 69.17 L 212.26 66.98 L 217.15 64.92 L 222.08 63.01 L 227.06 61.24 L 232.09 59.61 L 237.15 58.13 L 242.25 56.79 L 247.39 55.60 " stroke='#fff' stroke-width='1' stroke-dasharray='6,6' opacity='0.08' fill='none'/><path d="M 252.56 54.55 L 257.76 53.66 L 262.99 52.91 L 268.23 52.31 L 273.50 51.86 L 278.78 51.57 L 284.07 51.42 L 289.38 51.41 L 294.69 51.56 L 300.00 51.86 " stroke='#fff' stroke-width='1' stroke-dasharray='6,6' opacity='0.18' fill='none'/><path d="M 300.00 548.14 L 296.93 547.41 L 293.87 546.54 L 290.80 545.52 L 287.75 544.36 L 284.70 543.04 L 281.66 541.58 L 278.63 539.97 L 275.61 538.22 L 272.61 536.33 L 269.63 534.29 L 266.66 532.11 L 263.71 529.79 L 260.79 527.34 L 257.89 524.74 L 255.01 522.01 L 252.16 519.15 L 249.34 516.16 L 246.56 513.03 L 243.80 509.78 L 241.08 506.40 L 238.39 502.90 L 235.74 499.27 L 233.13 495.52 L 230.55 491.66 L 228.02 487.68 L 225.54 483.59 L 223.10 479.38 L 220.70 475.07 L 218.35 470.66 L 216.06 466.14 L 213.81 461.52 L 211.61 456.80 L 209.47 451.99 L 207.38 447.09 L 205.35 442.10 L 203.37 437.02 L 201.46 431.86 L 199.60 426.62 L 197.80 421.31 L 196.07 415.92 L 194.39 410.46 L 192.78 404.94 L 191.24 399.35 L 189.76 393.70 L 188.35 388.00 L 187.00 382.24 L 185.72 376.43 L 184.52 370.58 L 183.38 364.69 L 182.31 358.75 L 181.31 352.78 L 180.38 346.78 L 179.53 340.75 L 178.75 334.70 L 178.04 328.62 L 177.40 322.53 L 176.84 316.42 L 176.35 310.31 L 175.94 304.19 L 175.60 298.06 L 175.34 291.94 L 175.15 285.82 L 175.04 279.71 L 175.00 273.61 L 175.04 267.53 L 175.15 261.47 L 175.34 255.43 L 175.60 249.42 L 175.94 243.44 L 176.35 237.49 L 176.84 231.58 L 177.40 225.71 L 178.04 219.89 L 178.75 214.11 L 179.53 208.39 L 180.38 202.72 L 181.31 197.11 L 182.31 191.56 L 183.38 186.08 L 184.52 180.67 L 185.72 175.32 L 187.00 170.06 L 188.35 164.87 L 189.76 159.76 L 191.24 154.74 L 192.78 149.80 L 194.39 144.96 L 196.07 140.20 L 197.80 135.55 L 199.60 130.99 L 201.46 126.54 L 203.37 122.19 L 205.35 117.94 L 207.38 113.81 L 209.47 109.79 L 211.61 105.88 L 213.81 102.09 L 216.06 98.42 L 218.35 94.87 L 220.70 91.45 L 223.10 88.15 L 225.54 84.98 L 228.02 81.93 L 230.55 79.02 L 233.13 76.24 L 235.74 73.60 L 238.39 71.09 L 241.08 68.73 L 243.80 66.50 L 246.56 64.41 L 249.34 62.46 L 252.16 60.65 L 255.01 58.99 L 257.89 57.48 L 260.79 56.11 L 263.71 54.89 L 266.66 53.81 L 269.63 52.89 L 272.61 52.11 L 275.61 51.48 L 278.63 51.01 L 281.66 50.68 " stroke='#fff' stroke-width='1' stroke-dasharray='6,6' opacity='0.08' fill='none'/><path d="M 284.70 50.50 L 287.75 50.47 L 290.80 50.59 L 293.87 50.87 L 296.93 51.29 L 300.00 51.86 " stroke='#fff' stroke-width='1' stroke-dasharray='6,6' opacity='0.18' fill='none'/><path d="M 300.00 548.14 L 300.00 547.31 L 300.00 546.34 L 300.00 545.22 L 300.00 543.96 L 300.00 542.54 L 300.00 540.98 L 300.00 539.27 L 300.00 537.42 L 300.00 535.43 L 300.00 533.30 L 300.00 531.02 L 300.00 528.61 L 300.00 526.06 L 300.00 523.37 L 300.00 520.54 L 300.00 517.59 L 300.00 514.50 L 300.00 511.29 L 300.00 507.94 L 300.00 504.47 L 300.00 500.88 L 300.00 497.17 L 300.00 493.34 L 300.00 489.39 L 300.00 485.33 L 300.00 481.16 L 300.00 476.87 L 300.00 472.48 L 300.00 467.99 L 300.00 463.40 L 300.00 458.70 L 300.00 453.92 L 300.00 449.03 L 300.00 444.06 L 300.00 439.01 L 300.00 433.86 L 300.00 428.64 L 300.00 423.34 L 300.00 417.97 L 300.00 412.52 L 300.00 407.01 L 300.00 401.43 L 300.00 395.80 L 300.00 390.10 L 300.00 384.35 L 300.00 378.55 L 300.00 372.70 L 300.00 366.81 L 300.00 360.88 L 300.00 354.91 L 300.00 348.91 L 300.00 342.87 L 300.00 336.82 L 300.00 330.74 L 300.00 324.64 L 300.00 318.53 L 300.00 312.40 L 300.00 306.27 L 300.00 300.14 L 300.00 294.00 L 300.00 287.87 L 300.00 281.74 L 300.00 275.63 L 300.00 269.53 L 300.00 263.45 L 300.00 257.39 L 300.00 251.36 L 300.00 245.36 L 300.00 239.39 L 300.00 233.45 L 300.00 227.56 L 300.00 221.71 L 300.00 215.91 L 300.00 210.15 L 300.00 204.46 L 300.00 198.81 L 300.00 193.23 L 300.00 187.72 L 300.00 182.27 L 300.00 176.89 L 300.00 171.59 L 300.00 166.37 L 300.00 161.22 L 300.00 156.16 L 300.00 151.18 L 300.00 146.30 L 300.00 141.51 L 300.00 136.81 L 300.00 132.21 L 300.00 127.71 L 300.00 123.32 L 300.00 119.03 L 300.00 114.85 L 300.00 110.79 L 300.00 106.83 L 300.00 103.00 L 300.00 99.28 L 300.00 95.68 L 300.00 92.21 L 300.00 88.86 L 300.00 85.64 L 300.00 82.55 L 300.00 79.58 L 300.00 76.76 L 300.00 74.06 L 300.00 71.50 L 300.00 69.08 L 300.00 66.80 L 300.00 64.66 L 300.00 62.66 L 300.00 60.80 L 300.00 59.09 L 300.00 57.53 L 300.00 56.10 L 300.00 54.83 L 300.00 53.70 L 300.00 52.73 L 300.00 51.90 L 300.00 51.22 L 300.00 50.69 L 300.00 50.31 L 300.00 50.08 L 300.00 50.00 " stroke='#fff' stroke-width='1' stroke-dasharray='6,6' opacity='0.08' fill='none'/><path d="M 300.00 50.07 L 300.00 50.29 L 300.00 50.67 L 300.00 51.19 L 300.00 51.86 " stroke='#fff' stroke-width='1' stroke-dasharray='6,6' opacity='0.18' fill='none'/><path d="M 300.00 548.14 L 303.07 547.41 L 306.13 546.54 L 309.20 545.52 L 312.25 544.36 L 315.30 543.04 L 318.34 541.58 L 321.37 539.97 L 324.39 538.22 L 327.39 536.33 L 330.37 534.29 L 333.34 532.11 L 336.29 529.79 L 339.21 527.34 L 342.11 524.74 L 344.99 522.01 L 347.84 519.15 L 350.66 516.16 L 353.44 513.03 L 356.20 509.78 L 358.92 506.40 L 361.61 502.90 L 364.26 499.27 L 366.87 495.52 L 369.45 491.66 L 371.98 487.68 L 374.46 483.59 L 376.90 479.38 L 379.30 475.07 L 381.65 470.66 L 383.94 466.14 L 386.19 461.52 L 388.39 456.80 L 390.53 451.99 L 392.62 447.09 L 394.65 442.10 L 396.63 437.02 L 398.54 431.86 L 400.40 426.62 L 402.20 421.31 L 403.93 415.92 L 405.61 410.46 L 407.22 404.94 L 408.76 399.35 L 410.24 393.70 L 411.65 388.00 L 413.00 382.24 L 414.28 376.43 L 415.48 370.58 L 416.62 364.69 L 417.69 358.75 L 418.69 352.78 L 419.62 346.78 L 420.47 340.75 L 421.25 334.70 L 421.96 328.62 L 422.60 322.53 L 423.16 316.42 L 423.65 310.31 L 424.06 304.19 L 424.40 298.06 L 424.66 291.94 L 424.85 285.82 L 424.96 279.71 L 425.00 273.61 L 424.96 267.53 L 424.85 261.47 L 424.66 255.43 L 424.40 249.42 L 424.06 243.44 L 423.65 237.49 L 423.16 231.58 L 422.60 225.71 L 421.96 219.89 L 421.25 214.11 L 420.47 208.39 L 419.62 202.72 L 418.69 197.11 L 417.69 191.56 L 416.62 186.08 L 415.48 180.67 L 414.28 175.32 L 413.00 170.06 L 411.65 164.87 L 410.24 159.76 L 408.76 154.74 L 407.22 149.80 L 405.61 144.96 L 403.93 140.20 L 402.20 135.55 L 400.40 130.99 L 398.54 126.54 L 396.63 122.19 L 394.65 117.94 L 392.62 113.81 L 390.53 109.79 L 388.39 105.88 L 386.19 102.09 L 383.94 98.42 L 381.65 94.87 L 379.30 91.45 L 376.90 88.15 L 374.46 84.98 L 371.98 81.93 L 369.45 79.02 L 366.87 76.24 L 364.26 73.60 L 361.61 71.09 L 358.92 68.73 L 356.20 66.50 L 353.44 64.41 L 350.66 62.46 L 347.84 60.65 L 344.99 58.99 L 342.11 57.48 L 339.21 56.11 L 336.29 54.89 L 333.34 53.81 L 330.37 52.89 L 327.39 52.11 L 324.39 51.48 L 321.37 51.01 L 318.34 50.68 " stroke='#fff' stroke-width='1' stroke-dasharray='6,6' opacity='0.08' fill='none'/><path d="M 315.30 50.50 L 312.25 50.47 L 309.20 50.59 L 306.13 50.87 L 303.07 51.29 L 300.00 51.86 " stroke='#fff' stroke-width='1' stroke-dasharray='6,6' opacity='0.18' fill='none'/><path d="M 300.00 548.14 L 305.31 547.69 L 310.62 547.09 L 315.93 546.34 L 321.22 545.45 L 326.50 544.41 L 331.77 543.22 L 337.01 541.88 L 342.24 540.40 L 347.44 538.77 L 352.61 537.00 L 357.75 535.09 L 362.85 533.03 L 367.91 530.83 L 372.94 528.50 L 377.92 526.03 L 382.85 523.42 L 387.74 520.68 L 392.57 517.80 L 397.34 514.79 L 402.06 511.66 L 406.72 508.39 L 411.31 505.00 L 415.83 501.49 L 420.28 497.85 L 424.67 494.10 L 428.97 490.23 L 433.20 486.25 L 437.35 482.15 L 441.42 477.94 L 445.40 473.63 L 449.29 469.21 L 453.09 464.69 L 456.80 460.07 L 460.42 455.35 L 463.94 450.54 L 467.36 445.64 L 470.68 440.65 L 473.90 435.58 L 477.01 430.42 L 480.02 425.19 L 482.92 419.88 L 485.70 414.50 L 488.38 409.05 L 490.94 403.54 L 493.39 397.96 L 495.72 392.32 L 497.93 386.63 L 500.03 380.88 L 502.00 375.09 L 503.85 369.25 L 505.58 363.37 L 507.18 357.45 L 508.66 351.50 L 510.02 345.52 L 511.25 339.50 L 512.35 333.47 L 513.32 327.41 L 514.16 321.34 L 514.88 315.26 L 515.46 309.16 L 515.92 303.06 L 516.25 296.96 L 516.44 290.86 L 516.51 284.77 L 516.44 278.68 L 516.25 272.61 L 515.92 266.55 L 515.46 260.52 L 514.88 254.51 L 514.16 248.52 L 513.32 242.57 L 512.35 236.65 L 511.25 230.77 L 510.02 224.93 L 508.66 219.14 L 507.18 213.39 L 505.58 207.70 L 503.85 202.06 L 502.00 196.48 L 500.03 190.97 L 497.93 185.52 L 495.72 180.14 L 493.39 174.83 L 490.94 169.59 L 488.38 164.44 L 485.70 159.37 L 482.92 154.38 L 480.02 149.48 L 477.01 144.67 L 473.90 139.95 L 470.68 135.33 L 467.36 130.81 L 463.94 126.39 L 460.42 122.07 L 456.80 117.87 L 453.09 113.77 L 449.29 109.78 L 445.40 105.91 L 441.42 102.16 L 437.35 98.52 L 433.20 95.01 L 428.97 91.62 L 424.67 88.36 L 420.28 85.22 L 415.83 82.21 L 411.31 79.33 L 406.72 76.59 L 402.06 73.98 L 397.34 71.51 L 392.57 69.17 L 387.74 66.98 L 382.85 64.92 L 377.92 63.01 L 372.94 61.24 L 367.91 59.61 L 362.85 58.13 L 357.75 56.79 L 352.61 55.60 " stroke='#fff' stroke-width='1' stroke-dasharray='6,6' opacity='0.08' fill='none'/><path d="M 347.44 54.55 L 342.24 53.66 L 337.01 52.91 L 331.77 52.31 L 326.50 51.86 L 321.22 51.57 L 315.93 51.42 L 310.62 51.41 L 305.31 51.56 L 300.00 51.86 " stroke='#fff' stroke-width='1' stroke-dasharray='6,6' opacity='0.18' fill='none'/><path class="great-circle-back" d="M 303.34 411.88 L 291.07 411.72 L 278.83 411.29 L 266.63 410.60 L 254.51 409.63 L 242.51 408.41 L 230.64 406.92 L 218.94 405.17 L 207.43 403.17 L 196.15 400.93 L 185.12 398.44 L 174.36 395.71 L 163.91 392.75 L 153.78 389.57 L 144.01 386.17 L 134.61 382.57 L 125.61 378.76 L 117.03 374.77 L 108.89 370.60 L 101.22 366.25 L 94.02 361.75 L 87.31 357.10 L 81.12 352.31 L 75.46 347.39 L 70.34 342.36 L 65.77 337.23 L 61.77 332.01 L 58.34 326.71 L 55.49 321.35 L 53.23 315.93 L 51.56 310.48 L 50.50 305.00 L 50.03 299.51 M 549.83 305.98 L 549.09 311.45 L 547.75 316.90 L 545.82 322.31 L 543.29 327.66 L 540.18 332.94 L 536.48 338.15 L 532.22 343.27 L 527.40 348.28 L 522.03 353.17 L 516.12 357.94 L 509.70 362.56 L 502.77 367.04 L 495.35 371.35 L 487.46 375.50 L 479.12 379.46 L 470.35 383.22 L 461.16 386.79 L 451.59 390.15 L 441.66 393.30 L 431.38 396.21 L 420.78 398.90 L 409.90 401.35 L 398.75 403.55 L 387.36 405.50 L 375.76 407.20 L 363.98 408.64 L 352.05 409.82 L 339.99 410.74 L 327.83 411.39 L 315.61 411.77 L 303.34 411.88 "/><path class="great-circle" d="M 50.17 294.02 L 50.91 288.55 L 52.25 283.10 L 54.18 277.69 L 56.71 272.34 L 59.82 267.06 L 63.52 261.85 L 67.78 256.73 L 72.60 251.72 L 77.97 246.83 L 83.88 242.06 L 90.30 237.44 L 97.23 232.96 L 104.65 228.65 L 112.54 224.50 L 120.88 220.54 L 129.65 216.78 L 138.84 213.21 L 148.41 209.85 L 158.34 206.70 L 168.62 203.79 L 179.22 201.10 L 190.10 198.65 L 201.25 196.45 L 212.64 194.50 L 224.24 192.80 L 236.02 191.36 L 247.95 190.18 L 260.01 189.26 L 272.17 188.61 L 284.39 188.23 L 296.66 188.12 L 308.93 188.28 L 321.17 188.71 L 333.37 189.40 L 345.49 190.37 L 357.49 191.59 L 369.36 193.08 L 381.06 194.83 L 392.57 196.83 L 403.85 199.07 L 414.88 201.56 L 425.64 204.29 L 436.09 207.25 L 446.22 210.43 L 455.99 213.83 L 465.39 217.43 L 474.39 221.24 L 482.97 225.23 L 491.11 229.40 L 498.78 233.75 L 505.98 238.25 L 512.69 242.90 L 518.88 247.69 L 524.54 252.61 L 529.66 257.64 L 534.23 262.77 L 538.23 267.99 L 541.66 273.29 L 544.51 278.65 L 546.77 284.07 L 548.44 289.52 L 549.50 295.00 L 549.97 300.49 "/><path class="great-circle-back" d="M 50.00 300.91 L 50.30 299.43 L 51.21 297.94 L 52.71 296.47 L 54.81 295.00 L 57.49 293.54 L 60.77 292.09 L 64.62 290.67 L 69.03 289.27 L 74.00 287.89 L 79.52 286.55 L 85.57 285.23 L 92.13 283.95 L 99.20 282.71 L 106.75 281.52 L 114.76 280.36 L 123.22 279.26 L 132.11 278.20 L 141.40 277.20 L 151.08 276.25 L 161.11 275.36 L 171.48 274.52 L 182.15 273.75 L 193.11 273.04 L 204.33 272.40 L 215.78 271.83 L 227.43 271.32 L 239.26 270.88 L 251.23 270.51 L 263.32 270.21 L 275.50 269.99 L 287.73 269.83 L 300.00 269.75 L 312.27 269.74 L 324.50 269.81 L 336.68 269.94 L 348.77 270.15 L 360.74 270.43 L 372.57 270.79 L 384.22 271.21 L 395.67 271.70 L 406.89 272.26 L 417.85 272.89 L 428.52 273.58 L 438.89 274.34 L 448.92 275.16 L 458.60 276.04 L 467.89 276.97 L 476.78 277.96 L 485.24 279.01 L 493.25 280.10 L 500.80 281.25 L 507.87 282.43 L 514.43 283.66 L 520.48 284.93 L 526.00 286.24 L 530.97 287.58 L 535.38 288.95 L 539.23 290.34 L 542.51 291.76 L 545.19 293.20 L 547.29 294.66 L 548.79 296.13 L 549.70 297.60 "/><path class="great-circle" d="M 300.00 330.25 L 287.73 330.26 L 275.50 330.19 L 263.32 330.06 L 251.23 329.85 L 239.26 329.57 L 227.43 329.21 L 215.78 328.79 L 204.33 328.30 L 193.11 327.74 L 182.15 327.11 L 171.48 326.42 L 161.11 325.66 L 151.08 324.84 L 141.40 323.96 L 132.11 323.03 L 123.22 322.04 L 114.76 320.99 L 106.75 319.90 L 99.20 318.75 L 92.13 317.57 L 85.57 316.34 L 79.52 315.07 L 74.00 313.76 L 69.03 312.42 L 64.62 311.05 L 60.77 309.66 L 57.49 308.24 L 54.81 306.80 L 52.71 305.34 L 51.21 303.87 L 50.30 302.40 M 550.00 299.09 L 549.70 300.57 L 548.79 302.06 L 547.29 303.53 L 545.19 305.00 L 542.51 306.46 L 539.23 307.91 L 535.38 309.33 L 530.97 310.73 L 526.00 312.11 L 520.48 313.45 L 514.43 314.77 L 507.87 316.05 L 500.80 317.29 L 493.25 318.48 L 485.24 319.64 L 476.78 320.74 L 467.89 321.80 L 458.60 322.80 L 448.92 323.75 L 438.89 324.64 L 428.52 325.48 L 417.85 326.25 L 406.89 326.96 L 395.67 327.60 L 384.22 328.17 L 372.57 328.68 L 360.74 329.12 L 348.77 329.49 L 336.68 329.79 L 324.50 330.01 L 312.27 330.17 L 300.00 330.25 "/><path class="small-circle-back" d="M 84.46 173.49 L 85.75 172.21 L 87.57 170.94 L 89.89 169.67 L 92.72 168.43 L 96.05 167.20 L 99.87 165.98 L 104.17 164.80 L 108.94 163.63 L 114.16 162.50 L 119.84 161.39 L 125.95 160.32 L 132.47 159.28 L 139.40 158.29 L 146.72 157.33 L 154.40 156.42 L 162.43 155.55 L 170.79 154.73 L 179.47 153.96 L 188.43 153.24 L 197.66 152.57 L 207.13 151.96 L 216.83 151.40 L 226.73 150.91 L 236.80 150.47 L 247.02 150.09 L 257.37 149.77 L 267.83 149.51 L 278.35 149.31 L 288.93 149.18 L 299.54 149.11 L 310.14 149.10 L 320.72 149.16 L 331.25 149.28 L 341.70 149.46 L 352.05 149.70 L 362.27 150.01 L 372.35 150.37 L 382.24 150.80 L 391.94 151.28 L 401.42 151.83 L 410.65 152.43 L 419.61 153.08 L 428.28 153.79 L 436.64 154.55 L 444.68 155.35 L 452.36 156.21 L 459.67 157.11 L 466.60 158.06 L 473.13 159.05 L 479.24 160.08 L 484.91 161.14 L 490.14 162.24 L 494.91 163.37 L 499.21 164.52 L 503.02 165.71 L 506.35 166.91 L 509.18 168.14 L 511.51 169.39 L 513.32 170.64 L 514.62 171.91 "/><path class="small-circle" d="M 299.54 201.41 L 288.93 201.42 L 278.35 201.36 L 267.83 201.25 L 257.37 201.06 L 247.02 200.82 L 236.80 200.52 L 226.73 200.15 L 216.83 199.72 L 207.13 199.24 L 197.66 198.70 L 188.43 198.10 L 179.47 197.44 L 170.79 196.74 L 162.43 195.98 L 154.40 195.17 L 146.72 194.31 L 139.40 193.41 L 132.47 192.46 L 125.95 191.48 L 119.84 190.45 L 114.16 189.38 L 108.94 188.29 L 104.17 187.16 L 99.87 186.00 L 96.05 184.82 L 92.72 183.61 L 89.89 182.38 L 87.57 181.14 L 85.75 179.88 L 84.46 178.61 L 83.68 177.33 L 83.42 176.05 L 83.68 174.77 M 515.40 173.19 L 515.66 174.47 L 515.40 175.76 L 514.62 177.04 L 513.32 178.32 L 511.51 179.59 L 509.18 180.85 L 506.35 182.10 L 503.02 183.33 L 499.21 184.54 L 494.91 185.73 L 490.14 186.89 L 484.91 188.03 L 479.24 189.13 L 473.13 190.21 L 466.60 191.24 L 459.67 192.24 L 452.36 193.19 L 444.68 194.11 L 436.64 194.98 L 428.28 195.80 L 419.61 196.57 L 410.65 197.29 L 401.42 197.95 L 391.94 198.56 L 382.24 199.12 L 372.35 199.62 L 362.27 200.06 L 352.05 200.44 L 341.70 200.76 L 331.25 201.01 L 320.72 201.21 L 310.14 201.34 L 299.54 201.41 "/><path class="arc" d="M 408.20 200.02 L 407.16 196.26 L 406.09 192.54 L 404.99 188.84 L 403.86 185.17 L 402.70 181.54 L 401.51 177.93 L 400.30 174.36 L 399.06 170.83 L 397.79 167.33 L 396.50 163.86 L 395.18 160.43 L 393.83 157.04 L 392.46 153.69 L 391.06 150.38 L 389.64 147.11 L 388.19 143.88 L 386.72 140.69 L 385.23 137.55 L 383.71 134.45 L 382.17 131.39 L 380.61 128.39 L 379.03 125.42 L 377.42 122.51 L 375.79 119.64 L 374.15 116.83 L 372.48 114.06 L 370.79 111.34 L 369.09 108.68 L 367.36 106.06 L 365.62 103.50 L 363.86 100.99 L 362.08 98.54 L 360.29 96.14 L 358.47 93.80 L 356.65 91.51 L 354.80 89.28 L 352.95 87.11 L 351.07 84.99 L 349.19 82.93 L 347.29 80.93 L 345.38 79.00 L 343.45 77.12 L 341.52 75.30 L 339.57 73.54 L 337.61 71.85 L 335.64 70.21 L 333.66 68.64 L 331.68 67.13 L 329.68 65.69 L 327.68 64.31 L 325.66 62.99 L 323.65 61.74 L 321.62 60.55 L 319.59 59.43 L 317.55 58.37 L 315.51 57.38 L 313.47 56.45 L 311.42 55.59 L 309.37 54.80 L 307.31 54.07 L 305.25 53.41 L 303.20 52.82 L 301.14 52.30 L 299.08 51.84 "/><path class="arc" d="M 191.70 198.32 L 192.73 194.61 L 193.78 190.94 L 194.86 187.29 L 195.97 183.67 L 197.11 180.08 L 198.27 176.53 L 199.46 173.01 L 200.68 169.52 L 201.92 166.07 L 203.19 162.65 L 204.49 159.27 L 205.81 155.92 L 207.16 152.62 L 208.53 149.35 L 209.93 146.12 L 211.35 142.94 L 212.79 139.79 L 214.26 136.69 L 215.75 133.64 L 217.26 130.62 L 218.79 127.65 L 220.35 124.73 L 221.92 121.86 L 223.52 119.03 L 225.14 116.25 L 226.78 113.52 L 228.43 110.84 L 230.11 108.20 L 231.81 105.62 L 233.52 103.10 L 235.25 100.62 L 237.00 98.20 L 238.76 95.83 L 240.54 93.51 L 242.34 91.25 L 244.15 89.05 L 245.98 86.90 L 247.82 84.81 L 249.68 82.77 L 251.55 80.80 L 253.43 78.88 L 255.32 77.02 L 257.23 75.22 L 259.14 73.48 L 261.07 71.80 L 263.01 70.18 L 264.96 68.63 L 266.92 67.13 L 268.88 65.69 L 270.86 64.32 L 272.84 63.01 L 274.83 61.77 L 276.83 60.58 L 278.83 59.47 L 280.84 58.41 L 282.85 57.42 L 284.87 56.49 L 286.89 55.63 L 288.92 54.84 L 290.95 54.11 L 292.98 53.44 L 295.01 52.84 L 297.04 52.31 L 299.08 51.84 "/><circle class="sphere" cx="300.00" cy="300.00" r="250.00"/><circle class="point-back" cx="300.92" cy="548.16" r="12.00"/><text class="label-back" x="316.92" y="536.16">Q</text><circle class="point" cx="299.08" cy="51.84" r="12.00"/><text class="label" x="315.08" y="39.84">P</text><circle class="point" cx="191.70" cy="198.32" r="12.00"/><text class="label" x="207.70" y="186.32">A</text><circle class="point" cx="408.20" cy="200.02" r="12.00"/><text class="label" x="424.20" y="188.02">B</text><text class="label" x="300.00" y="333.15">Equator</text>
</svg>