<svg xmlns="http://www.w3.org/2000/svg" width="600" height="600" viewBox="0 0 600 600">
<style>
.sphere { fill: none; stroke: #bbb; stroke-width: 4; }
.arc { fill: none; stroke: #fbc02d; stroke-width: 4; }
.arc-back { fill: none; stroke: #fbc02d; stroke-width: 4; opacity: 0.4; }
.great-circle { fill: none; stroke: #00bcd4; stroke-width: 3; opacity: 0.9; }
.great-circle-back { fill: none; stroke: #00bcd4; stroke-width: 3; opacity: 0.4; }
.small-circle { fill: none; stroke: #e64a19; stroke-width: 3; opacity: 0.9; }
.small-circle-back { fill: none; stroke: #e64a19; stroke-width: 3; opacity: 0.4; }
.point { fill: #e53935; stroke: none; }
.point-back { fill: #e53935; stroke: none; opacity: 0.4; }
.label { fill: #fff; font-size: 28px; font-family: sans-serif; font-weight: bold; pointer-events: none; }
.label-back { fill: #fff; font-size: 28px; font-family: sans-serif; font-weight: bold; pointer-events: none; opacity: 0.4; }
.small-label { fill: #ffb74d; font-size: 18px; font-family: sans-serif; font-weight: 500; pointer-events: none; }
.small-label-back { fill: #ffb74d; font-size: 18px; font-family: sans-serif; font-weight: 500; pointer-events: none; opacity: 0.4; }
</style>
<path d="M 425.00 513.71 L 424.85 514.69 L 424.40 515.67 L 423.65 516.65 L 422.60 517.62 L 421.25 518.58 M 178.75 518.58 L 177.40 517.62 L 176.35 516.65 L 175.60 515.67 L 175.15 514.69 L 175.00 513.71 L 175.15 512.73 L 175.60 511.75 L 176.35 510.77 L 177.40 509.80 L 178.75 508.84 L 180.38 507.90 L 182.31 506.96 L 184.52 506.04 L 187.00 505.15 L 189.76 504.27 L 192.78 503.41 L 196.07 502.58 L 199.60 501.78 L 203.37 501.00 L 207.38 500.26 L 211.61 499.55 L 216.06 498.87 L 220.70 498.23 L 225.54 497.62 L 230.55 497.06 L 235.74 496.53 L 241.08 496.05 L 246.56 495.60 L 252.16 495.21 L 257.89 494.85 L 263.71 494.54 L 269.63 494.28 L 275.61 494.07 L 281.66 493.90 L 287.75 493.78 L 293.87 493.71 L 300.00 493.68 L 306.13 493.71 L 312.25 493.78 L 318.34 493.90 L 324.39 494.07 L 330.37 494.28 L 336.29 494.54 L 342.11 494.85 L 347.84 495.21 L 353.44 495.60 L 358.92 496.05 L 364.26 496.53 L 369.45 497.06 L 374.46 497.62 L 379.30 498.23 L 383.94 498.87 L 388.39 499.55 L 392.62 500.26 L 396.63 501.00 L 400.40 501.78 L 403.93 502.58 L 407.22 503.41 L 410.24 504.27 L 413.00 505.15 L 415.48 506.04 L 417.69 506.96 L 419.62 507.90 L 421.25 508.84 L 422.60 509.80 L 423.65 510.77 L 424.40 511.75 L 424.85 512.73 L 425.00 513.71 " stroke='#fff' stroke-width='1' stroke-dasharray='6,6' opacity='0.08' fill='none'/><path d="M 419.62 519.52 L 417.69 520.46 L 415.48 521.37 L 413.00 522.27 L 410.24 523.15 L 407.22 524.01 L 403.93 524.84 L 400.40 525.64 L 396.63 526.41 L 392.62 527.16 L 388.39 527.87 L 383.94 528.55 L 379.30 529.19 L 374.46 529.80 L 369.45 530.36 L 364.26 530.89 L 358.92 531.37 L 353.44 531.81 L 347.84 532.21 L 342.11 532.57 L 336.29 532.88 L 330.37 533.14 L 324.39 533.35 L 318.34 533.52 L 312.25 533.64 L 306.13 533.71 L 300.00 533.74 L 293.87 533.71 L 287.75 533.64 L 281.66 533.52 L 275.61 533.35 L 269.63 533.14 L 263.71 532.88 L 257.89 532.57 L 252.16 532.21 L 246.56 531.81 L 241.08 531.37 L 235.74 530.89 L 230.55 530.36 L 225.54 529.80 L 220.70 529.19 L 216.06 528.55 L 211.61 527.87 L 207.38 527.16 L 203.37 526.41 L 199.60 525.64 L 196.07 524.84 L 192.78 524.01 L 189.76 523.15 L 187.00 522.27 L 184.52 521.37 L 182.31 520.46 L 180.38 519.52 " stroke='#fff' stroke-width='1' stroke-dasharray='6,6' opacity='0.18' fill='none'/><path d="M 516.51 423.39 L 516.25 425.09 M 83.75 425.09 L 83.49 423.39 L 83.75 421.68 L 84.54 419.98 L 85.84 418.29 L 87.65 416.62 L 89.98 414.96 L 92.82 413.32 L 96.15 411.70 L 99.97 410.11 L 104.28 408.55 L 109.06 407.03 L 114.30 405.55 L 119.98 404.11 L 126.10 402.72 L 132.64 401.38 L 139.58 400.09 L 146.91 398.86 L 154.60 397.68 L 162.65 396.57 L 171.03 395.52 L 179.72 394.54 L 188.69 393.63 L 197.94 392.79 L 207.43 392.03 L 217.15 391.34 L 227.06 390.72 L 237.15 390.19 L 247.39 389.73 L 257.76 389.36 L 268.23 389.07 L 278.78 388.86 L 289.38 388.74 L 300.00 388.70 L 310.62 388.74 L 321.22 388.86 L 331.77 389.07 L 342.24 389.36 L 352.61 389.73 L 362.85 390.19 L 372.94 390.72 L 382.85 391.34 L 392.57 392.03 L 402.06 392.79 L 411.31 393.63 L 420.28 394.54 L 428.97 395.52 L 437.35 396.57 L 445.40 397.68 L 453.09 398.86 L 460.42 400.09 L 467.36 401.38 L 473.90 402.72 L 480.02 404.11 L 485.70 405.55 L 490.94 407.03 L 495.72 408.55 L 500.03 410.11 L 503.85 411.70 L 507.18 413.32 L 510.02 414.96 L 512.35 416.62 L 514.16 418.29 L 515.46 419.98 L 516.25 421.68 L 516.51 423.39 " stroke='#fff' stroke-width='1' stroke-dasharray='6,6' opacity='0.08' fill='none'/><path d="M 515.46 426.79 L 514.16 428.48 L 512.35 430.15 L 510.02 431.81 L 507.18 433.46 L 503.85 435.07 L 500.03 436.66 L 495.72 438.22 L 490.94 439.74 L 485.70 441.22 L 480.02 442.66 L 473.90 444.05 L 467.36 445.39 L 460.42 446.68 L 453.09 447.91 L 445.40 449.09 L 437.35 450.20 L 428.97 451.25 L 420.28 452.23 L 411.31 453.14 L 402.06 453.98 L 392.57 454.74 L 382.85 455.43 L 372.94 456.05 L 362.85 456.58 L 352.61 457.04 L 342.24 457.41 L 331.77 457.70 L 321.22 457.91 L 310.62 458.03 L 300.00 458.08 L 289.38 458.03 L 278.78 457.91 L 268.23 457.70 L 257.76 457.41 L 247.39 457.04 L 237.15 456.58 L 227.06 456.05 L 217.15 455.43 L 207.43 454.74 L 197.94 453.98 L 188.69 453.14 L 179.72 452.23 L 171.03 451.25 L 162.65 450.20 L 154.60 449.09 L 146.91 447.91 L 139.58 446.68 L 132.64 445.39 L 126.10 444.05 L 119.98 442.66 L 114.30 441.22 L 109.06 439.74 L 104.28 438.22 L 99.97 436.66 L 96.15 435.07 L 92.82 433.46 L 89.98 431.81 L 87.65 430.15 L 85.84 428.48 L 84.54 426.79 " stroke='#fff' stroke-width='1' stroke-dasharray='6,6' opacity='0.18' fill='none'/><path d="M 50.30 298.03 L 51.20 296.07 L 52.71 294.12 L 54.80 292.19 L 57.49 290.27 L 60.76 288.37 L 64.61 286.51 L 69.03 284.67 L 74.00 282.87 L 79.52 281.12 L 85.57 279.41 L 92.13 277.75 L 99.20 276.14 L 106.75 274.59 L 114.76 273.10 L 123.22 271.68 L 132.11 270.32 L 141.40 269.04 L 151.08 267.83 L 161.11 266.69 L 171.47 265.64 L 182.15 264.67 L 193.11 263.79 L 204.33 262.99 L 215.78 262.28 L 227.43 261.67 L 239.25 261.14 L 251.23 260.71 L 263.32 260.38 L 275.50 260.14 L 287.73 259.99 L 300.00 259.94 L 312.27 259.99 L 324.50 260.14 L 336.68 260.38 L 348.77 260.71 L 360.75 261.14 L 372.57 261.67 L 384.22 262.28 L 395.67 262.99 L 406.89 263.79 L 417.85 264.67 L 428.53 265.64 L 438.89 266.69 L 448.92 267.83 L 458.60 269.04 L 467.89 270.32 L 476.78 271.68 L 485.24 273.10 L 493.25 274.59 L 500.80 276.14 L 507.87 277.75 L 514.43 279.41 L 520.48 281.12 L 526.00 282.87 L 530.97 284.67 L 535.39 286.51 L 539.24 288.37 L 542.51 290.27 L 545.20 292.19 L 547.29 294.12 L 548.80 296.07 L 549.70 298.03 L 550.00 300.00 " stroke='#fff' stroke-width='1' stroke-dasharray='6,6' opacity='0.08' fill='none'/><path d="M 550.00 300.00 L 549.70 301.97 L 548.80 303.93 L 547.29 305.88 L 545.20 307.81 L 542.51 309.73 L 539.24 311.63 L 535.39 313.49 L 530.97 315.33 L 526.00 317.13 L 520.48 318.88 L 514.43 320.59 L 507.87 322.25 L 500.80 323.86 L 493.25 325.41 L 485.24 326.90 L 476.78 328.32 L 467.89 329.68 L 458.60 330.96 L 448.92 332.17 L 438.89 333.31 L 428.53 334.36 L 417.85 335.33 L 406.89 336.21 L 395.67 337.01 L 384.22 337.72 L 372.57 338.33 L 360.75 338.86 L 348.77 339.29 L 336.68 339.62 L 324.50 339.86 L 312.27 340.01 L 300.00 340.06 L 287.73 340.01 L 275.50 339.86 L 263.32 339.62 L 251.23 339.29 L 239.25 338.86 L 227.43 338.33 L 215.78 337.72 L 204.33 337.01 L 193.11 336.21 L 182.15 335.33 L 171.47 334.36 L 161.11 333.31 L 151.08 332.17 L 141.40 330.96 L 132.11 329.68 L 123.22 328.32 L 114.76 326.90 L 106.75 325.41 L 99.20 323.86 L 92.13 322.25 L 85.57 320.59 L 79.52 318.88 L 74.00 317.13 L 69.03 315.33 L 64.61 313.49 L 60.76 311.63 L 57.49 309.73 L 54.80 307.81 L 52.71 305.88 L 51.20 303.93 L 50.30 301.97 L 50.00 300.00 " stroke='#fff' stroke-width='1' stroke-dasharray='6,6' opacity='0.18' fill='none'/><path d="M 84.54 173.21 L 85.84 171.52 L 87.65 169.85 L 89.98 168.19 L 92.82 166.54 L 96.15 164.93 L 99.97 163.34 L 104.28 161.78 L 109.06 160.26 L 114.30 158.78 L 119.98 157.34 L 126.10 155.95 L 132.64 154.61 L 139.58 153.32 L 146.91 152.09 L 154.60 150.91 L 162.65 149.80 L 171.03 148.75 L 179.72 147.77 L 188.69 146.86 L 197.94 146.02 L 207.43 145.26 L 217.15 144.57 L 227.06 143.95 L 237.15 143.42 L 247.39 142.96 L 257.76 142.59 L 268.23 142.30 L 278.78 142.09 L 289.38 141.97 L 300.00 141.92 L 310.62 141.97 L 321.22 142.09 L 331.77 142.30 L 342.24 142.59 L 352.61 142.96 L 362.85 143.42 L 372.94 143.95 L 382.85 144.57 L 392.57 145.26 L 402.06 146.02 L 411.31 146.86 L 420.28 147.77 L 428.97 148.75 L 437.35 149.80 L 445.40 150.91 L 453.09 152.09 L 460.42 153.32 L 467.36 154.61 L 473.90 155.95 L 480.02 157.34 L 485.70 158.78 L 490.94 160.26 L 495.72 161.78 L 500.03 163.34 L 503.85 164.93 L 507.18 166.54 L 510.02 168.19 L 512.35 169.85 L 514.16 171.52 L 515.46 173.21 " stroke='#fff' stroke-width='1' stroke-dasharray='6,6' opacity='0.08' fill='none'/><path d="M 516.51 176.61 L 516.25 178.32 L 515.46 180.02 L 514.16 181.71 L 512.35 183.38 L 510.02 185.04 L 507.18 186.68 L 503.85 188.30 L 500.03 189.89 L 495.72 191.45 L 490.94 192.97 L 485.70 194.45 L 480.02 195.89 L 473.90 197.28 L 467.36 198.62 L 460.42 199.91 L 453.09 201.14 L 445.40 202.32 L 437.35 203.43 L 428.97 204.48 L 420.28 205.46 L 411.31 206.37 L 402.06 207.21 L 392.57 207.97 L 382.85 208.66 L 372.94 209.28 L 362.85 209.81 L 352.61 210.27 L 342.24 210.64 L 331.77 210.93 L 321.22 211.14 L 310.62 211.26 L 300.00 211.30 L 289.38 211.26 L 278.78 211.14 L 268.23 210.93 L 257.76 210.64 L 247.39 210.27 L 237.15 209.81 L 227.06 209.28 L 217.15 208.66 L 207.43 207.97 L 197.94 207.21 L 188.69 206.37 L 179.72 205.46 L 171.03 204.48 L 162.65 203.43 L 154.60 202.32 L 146.91 201.14 L 139.58 199.91 L 132.64 198.62 L 126.10 197.28 L 119.98 195.89 L 114.30 194.45 L 109.06 192.97 L 104.28 191.45 L 99.97 189.89 L 96.15 188.30 L 92.82 186.68 L 89.98 185.04 L 87.65 183.38 L 85.84 181.71 L 84.54 180.02 L 83.75 178.32 L 83.49 176.61 L 83.75 174.91 M 516.25 174.91 L 516.51 176.61 " stroke='#fff' stroke-width='1' stroke-dasharray='6,6' opacity='0.18' fill='none'/><path d="M 180.38 80.48 L 182.31 79.54 L 184.52 78.63 L 187.00 77.73 L 189.76 76.85 L 192.78 75.99 L 196.07 75.16 L 199.60 74.36 L 203.37 73.59 L 207.38 72.84 L 211.61 72.13 L 216.06 71.45 L 220.70 70.81 L 225.54 70.20 L 230.55 69.64 L 235.74 69.11 L 241.08 68.63 L 246.56 68.19 L 252.16 67.79 L 257.89 67.43 L 263.71 67.12 L 269.63 66.86 L 275.61 66.65 L 281.66 66.48 L 287.75 66.36 L 293.87 66.29 L 300.00 66.26 L 306.13 66.29 L 312.25 66.36 L 318.34 66.48 L 324.39 66.65 L 330.37 66.86 L 336.29 67.12 L 342.11 67.43 L 347.84 67.79 L 353.44 68.19 L 358.92 68.63 L 364.26 69.11 L 369.45 69.64 L 374.46 70.20 L 379.30 70.81 L 383.94 71.45 L 388.39 72.13 L 392.62 72.84 L 396.63 73.59 L 400.40 74.36 L 403.93 75.16 L 407.22 75.99 L 410.24 76.85 L 413.00 77.73 L 415.48 78.63 L 417.69 79.54 L 419.62 80.48 " stroke='#fff' stroke-width='1' stroke-dasharray='6,6' opacity='0.08' fill='none'/><path d="M 425.00 86.29 L 424.85 87.27 L 424.40 88.25 L 423.65 89.23 L 422.60 90.20 L 421.25 91.16 L 419.62 92.10 L 417.69 93.04 L 415.48 93.96 L 413.00 94.85 L 410.24 95.73 L 407.22 96.59 L 403.93 97.42 L 400.40 98.22 L 396.63 99.00 L 392.62 99.74 L 388.39 100.45 L 383.94 101.13 L 379.30 101.77 L 374.46 102.38 L 369.45 102.94 L 364.26 103.47 L 358.92 103.95 L 353.44 104.40 L 347.84 104.79 L 342.11 105.15 L 336.29 105.46 L 330.37 105.72 L 324.39 105.93 L 318.34 106.10 L 312.25 106.22 L 306.13 106.29 L 300.00 106.32 L 293.87 106.29 L 287.75 106.22 L 281.66 106.10 L 275.61 105.93 L 269.63 105.72 L 263.71 105.46 L 257.89 105.15 L 252.16 104.79 L 246.56 104.40 L 241.08 103.95 L 235.74 103.47 L 230.55 102.94 L 225.54 102.38 L 220.70 101.77 L 216.06 101.13 L 211.61 100.45 L 207.38 99.74 L 203.37 99.00 L 199.60 98.22 L 196.07 97.42 L 192.78 96.59 L 189.76 95.73 L 187.00 94.85 L 184.52 93.96 L 182.31 93.04 L 180.38 92.10 L 178.75 91.16 L 177.40 90.20 L 176.35 89.23 L 175.60 88.25 L 175.15 87.27 L 175.00 86.29 L 175.15 85.31 L 175.60 84.33 L 176.35 83.35 L 177.40 82.38 L 178.75 81.42 M 421.25 81.42 L 422.60 82.38 L 423.65 83.35 L 424.40 84.33 L 424.85 85.31 L 425.00 86.29 " stroke='#fff' stroke-width='1' stroke-dasharray='6,6' opacity='0.18' fill='none'/><path d="M 300.00 546.77 L 306.14 546.70 L 312.27 546.47 L 318.39 546.10 L 324.50 545.58 L 330.60 544.91 L 336.68 544.10 L 342.74 543.14 L 348.77 542.03 L 354.78 540.77 L 360.75 539.37 L 366.68 537.83 L 372.57 536.14 L 378.42 534.32 L 384.22 532.34 L 389.97 530.23 L 395.67 527.99 L 401.31 525.60 L 406.89 523.08 L 412.40 520.42 L 417.85 517.63 L 423.22 514.71 L 428.53 511.66 L 433.75 508.48 L 438.89 505.18 L 443.95 501.76 L 448.92 498.21 L 453.81 494.54 L 458.60 490.76 L 463.29 486.86 L 467.89 482.84 L 472.39 478.72 L 476.78 474.49 L 481.06 470.16 L 485.24 465.72 L 489.30 461.18 L 493.25 456.55 L 497.09 451.82 L 500.80 447.00 L 504.40 442.09 L 507.87 437.10 L 511.21 432.02 L 514.43 426.87 L 517.52 421.63 L 520.48 416.33 L 523.31 410.95 L 526.00 405.51 L 528.55 400.00 L 530.97 394.43 L 533.25 388.81 L 535.39 383.13 L 537.38 377.41 L 539.24 371.63 L 540.94 365.82 L 542.51 359.96 L 543.93 354.07 L 545.20 348.14 L 546.32 342.19 L 547.29 336.21 L 548.12 330.21 L 548.80 324.19 L 549.32 318.15 L 549.70 312.11 L 549.92 306.06 " stroke='#fff' stroke-width='1' stroke-dasharray='6,6' opacity='0.08' fill='none'/><path d="M 550.00 300.00 L 549.92 293.94 L 549.70 287.89 L 549.32 281.85 L 548.80 275.81 L 548.12 269.79 L 547.29 263.79 L 546.32 257.81 L 545.20 251.86 L 543.93 245.93 L 542.51 240.04 L 540.94 234.18 L 539.24 228.37 L 537.38 222.59 L 535.39 216.87 L 533.25 211.19 L 530.97 205.57 L 528.55 200.00 L 526.00 194.49 L 523.31 189.05 L 520.48 183.67 L 517.52 178.37 L 514.43 173.13 L 511.21 167.98 L 507.87 162.90 L 504.40 157.91 L 500.80 153.00 L 497.09 148.18 L 493.25 143.45 L 489.30 138.82 L 485.24 134.28 L 481.06 129.84 L 476.78 125.51 L 472.39 121.28 L 467.89 117.16 L 463.29 113.14 L 458.60 109.24 L 453.81 105.46 L 448.92 101.79 L 443.95 98.24 L 438.89 94.82 L 433.75 91.52 L 428.53 88.34 L 423.22 85.29 L 417.85 82.37 L 412.40 79.58 L 406.89 76.92 L 401.31 74.40 L 395.67 72.01 L 389.97 69.77 L 384.22 67.66 L 378.42 65.68 L 372.57 63.86 L 366.68 62.17 L 360.75 60.63 L 354.78 59.23 L 348.77 57.97 L 342.74 56.86 L 336.68 55.90 L 330.60 55.09 L 324.50 54.42 L 318.39 53.90 L 312.27 53.53 L 306.14 53.30 L 300.00 53.23 " stroke='#fff' stroke-width='1' stroke-dasharray='6,6' opacity='0.18' fill='none'/><path d="M 300.00 546.77 L 305.31 547.19 L 310.62 547.46 L 315.93 547.57 L 321.22 547.54 L 326.50 547.37 L 331.77 547.04 L 337.01 546.56 L 342.24 545.94 L 347.44 545.16 L 352.61 544.24 L 357.75 543.17 L 362.85 541.96 " stroke='#fff' stroke-width='1' stroke-dasharray='6,6' opacity='0.08' fill='none'/><path d="M 367.91 540.60 L 372.94 539.09 L 377.92 537.44 L 382.85 535.65 L 387.74 533.72 L 392.57 531.64 L 397.34 529.43 L 402.06 527.07 L 406.72 524.58 L 411.31 521.96 L 415.83 519.20 L 420.28 516.31 L 424.67 513.29 L 428.97 510.14 L 433.20 506.86 L 437.35 503.46 L 441.42 499.94 L 445.40 496.29 L 449.29 492.53 L 453.09 488.65 L 456.80 484.66 L 460.42 480.56 L 463.94 476.35 L 467.36 472.03 L 470.68 467.61 L 473.90 463.09 L 477.01 458.47 L 480.02 453.75 L 482.92 448.94 L 485.70 444.04 L 488.38 439.06 L 490.94 433.99 L 493.39 428.84 L 495.72 423.61 L 497.93 418.31 L 500.03 412.94 L 502.00 407.50 L 503.85 401.99 L 505.58 396.42 L 507.18 390.80 L 508.66 385.12 L 510.02 379.39 L 511.25 373.61 L 512.35 367.79 L 513.32 361.92 L 514.16 356.02 L 514.88 350.08 L 515.46 344.12 L 515.92 338.13 L 516.25 332.11 L 516.44 326.08 L 516.51 320.03 L 516.44 313.97 L 516.25 307.90 L 515.92 301.82 L 515.46 295.74 L 514.88 289.67 L 514.16 283.60 L 513.32 277.55 L 512.35 271.50 L 511.25 265.47 L 510.02 259.47 L 508.66 253.49 L 507.18 247.53 L 505.58 241.61 L 503.85 235.72 L 502.00 229.87 L 500.03 224.07 L 497.93 218.31 L 495.72 212.60 L 493.39 206.94 L 490.94 201.34 L 488.38 195.79 L 485.70 190.31 L 482.92 184.90 L 480.02 179.55 L 477.01 174.28 L 473.90 169.09 L 470.68 163.97 L 467.36 158.93 L 463.94 153.98 L 460.42 149.12 L 456.80 144.35 L 453.09 139.67 L 449.29 135.09 L 445.40 130.61 L 441.42 126.23 L 437.35 121.95 L 433.20 117.78 L 428.97 113.72 L 424.67 109.78 L 420.28 105.95 L 415.83 102.23 L 411.31 98.63 L 406.72 95.16 L 402.06 91.81 L 397.34 88.58 L 392.57 85.49 L 387.74 82.52 L 382.85 79.68 L 377.92 76.97 L 372.94 74.40 L 367.91 71.97 L 362.85 69.67 L 357.75 67.51 L 352.61 65.49 L 347.44 63.61 L 342.24 61.88 L 337.01 60.29 L 331.77 58.84 L 326.50 57.54 L 321.22 56.38 L 315.93 55.37 L 310.62 54.51 L 305.31 53.80 L 300.00 53.23 " stroke='#fff' stroke-width='1' stroke-dasharray='6,6' opacity='0.18' fill='none'/><path d="M 300.00 546.77 L 303.07 547.55 L 306.13 548.17 L 309.20 548.65 L 312.25 548.98 L 315.30 549.16 L 318.34 549.19 L 321.37 549.07 " stroke='#fff' stroke-width='1' stroke-dasharray='6,6' opacity='0.08' fill='none'/><path d="M 324.39 548.80 L 327.39 548.37 L 330.37 547.80 L 333.34 547.08 L 336.29 546.21 L 339.21 545.20 L 342.11 544.03 L 344.99 542.72 L 347.84 541.26 L 350.66 539.66 L 353.44 537.91 L 356.20 536.02 L 358.92 533.98 L 361.61 531.81 L 364.26 529.50 L 366.87 527.04 L 369.45 524.45 L 371.98 521.73 L 374.46 518.87 L 376.90 515.88 L 379.30 512.76 L 381.65 509.52 L 383.94 506.14 L 386.19 502.64 L 388.39 499.02 L 390.53 495.28 L 392.62 491.42 L 394.65 487.45 L 396.63 483.37 L 398.54 479.17 L 400.40 474.86 L 402.20 470.45 L 403.93 465.94 L 405.61 461.33 L 407.22 456.62 L 408.76 451.82 L 410.24 446.92 L 411.65 441.94 L 413.00 436.87 L 414.28 431.72 L 415.48 426.48 L 416.62 421.18 L 417.69 415.80 L 418.69 410.35 L 419.62 404.83 L 420.47 399.25 L 421.25 393.61 L 421.96 387.91 L 422.60 382.17 L 423.16 376.37 L 423.65 370.52 L 424.06 364.64 L 424.40 358.71 L 424.66 352.75 L 424.85 346.76 L 424.96 340.74 L 425.00 334.69 L 424.96 328.62 L 424.85 322.54 L 424.66 316.44 L 424.40 310.34 L 424.06 304.22 L 423.65 298.11 L 423.16 291.99 L 422.60 285.88 L 421.96 279.78 L 421.25 273.69 L 420.47 267.62 L 419.62 261.56 L 418.69 255.53 L 417.69 249.53 L 416.62 243.55 L 415.48 237.61 L 414.28 231.71 L 413.00 225.85 L 411.65 220.04 L 410.24 214.27 L 408.76 208.55 L 407.22 202.89 L 405.61 197.29 L 403.93 191.75 L 402.20 186.27 L 400.40 180.86 L 398.54 175.53 L 396.63 170.27 L 394.65 165.08 L 392.62 159.98 L 390.53 154.97 L 388.39 150.04 L 386.19 145.20 L 383.94 140.45 L 381.65 135.80 L 379.30 131.25 L 376.90 126.80 L 374.46 122.46 L 371.98 118.22 L 369.45 114.09 L 366.87 110.07 L 364.26 106.17 L 361.61 102.39 L 358.92 98.72 L 356.20 95.18 L 353.44 91.75 L 350.66 88.46 L 347.84 85.29 L 344.99 82.25 L 342.11 79.34 L 339.21 76.57 L 336.29 73.93 L 333.34 71.42 L 330.37 69.05 L 327.39 66.83 L 324.39 64.74 L 321.37 62.79 L 318.34 60.99 L 315.30 59.33 L 312.25 57.82 L 309.20 56.45 L 306.13 55.23 L 303.07 54.16 L 300.00 53.23 " stroke='#fff' stroke-width='1' stroke-dasharray='6,6' opacity='0.18' fill='none'/><path d="M 300.00 546.77 L 300.00 547.68 L 300.00 548.44 L 300.00 549.05 L 300.00 549.51 L 300.00 549.82 L 300.00 549.98 " stroke='#fff' stroke-width='1' stroke-dasharray='6,6' opacity='0.08' fill='none'/><path d="M 300.00 549.99 L 300.00 549.84 L 300.00 549.55 L 300.00 549.11 L 300.00 548.51 L 300.00 547.77 L 300.00 546.88 L 300.00 545.84 L 300.00 544.65 L 300.00 543.31 L 300.00 541.83 L 300.00 540.20 L 300.00 538.43 L 300.00 536.51 L 300.00 534.46 L 300.00 532.25 L 300.00 529.91 L 300.00 527.44 L 300.00 524.82 L 300.00 522.07 L 300.00 519.18 L 300.00 516.17 L 300.00 513.02 L 300.00 509.74 L 300.00 506.34 L 300.00 502.82 L 300.00 499.17 L 300.00 495.40 L 300.00 491.51 L 300.00 487.51 L 300.00 483.40 L 300.00 479.17 L 300.00 474.84 L 300.00 470.40 L 300.00 465.86 L 300.00 461.22 L 300.00 456.49 L 300.00 451.65 L 300.00 446.73 L 300.00 441.72 L 300.00 436.62 L 300.00 431.44 L 300.00 426.18 L 300.00 420.85 L 300.00 415.44 L 300.00 409.97 L 300.00 404.42 L 300.00 398.82 L 300.00 393.15 L 300.00 387.43 L 300.00 381.66 L 300.00 375.83 L 300.00 369.96 L 300.00 364.05 L 300.00 358.10 L 300.00 352.12 L 300.00 346.10 L 300.00 340.06 L 300.00 333.99 L 300.00 327.90 L 300.00 321.79 L 300.00 315.68 L 300.00 309.55 L 300.00 303.41 L 300.00 297.28 L 300.00 291.14 L 300.00 285.02 L 300.00 278.90 L 300.00 272.79 L 300.00 266.70 L 300.00 260.63 L 300.00 254.58 L 300.00 248.56 L 300.00 242.57 L 300.00 236.62 L 300.00 230.70 L 300.00 224.83 L 300.00 219.00 L 300.00 213.22 L 300.00 207.49 L 300.00 201.82 L 300.00 196.21 L 300.00 190.66 L 300.00 185.17 L 300.00 179.76 L 300.00 174.41 L 300.00 169.15 L 300.00 163.96 L 300.00 158.85 L 300.00 153.83 L 300.00 148.90 L 300.00 144.06 L 300.00 139.31 L 300.00 134.66 L 300.00 130.10 L 300.00 125.65 L 300.00 121.31 L 300.00 117.07 L 300.00 112.95 L 300.00 108.93 L 300.00 105.03 L 300.00 101.25 L 300.00 97.59 L 300.00 94.05 L 300.00 90.63 L 300.00 87.34 L 300.00 84.18 L 300.00 81.15 L 300.00 78.25 L 300.00 75.48 L 300.00 72.85 L 300.00 70.36 L 300.00 68.00 L 300.00 65.79 L 300.00 63.71 L 300.00 61.78 L 300.00 59.99 L 300.00 58.34 L 300.00 56.85 L 300.00 55.49 L 300.00 54.29 L 300.00 53.23 " stroke='#fff' stroke-width='1' stroke-dasharray='6,6' opacity='0.18' fill='none'/><path d="M 300.00 546.77 L 296.93 547.55 L 293.87 548.17 L 290.80 548.65 L 287.75 548.98 L 284.70 549.16 L 281.66 549.19 L 278.63 549.07 " stroke='#fff' stroke-width='1' stroke-dasharray='6,6' opacity='0.08' fill='none'/><path d="M 275.61 548.80 L 272.61 548.37 L 269.63 547.80 L 266.66 547.08 L 263.71 546.21 L 260.79 545.20 L 257.89 544.03 L 255.01 542.72 L 252.16 541.26 L 249.34 539.66 L 246.56 537.91 L 243.80 536.02 L 241.08 533.98 L 238.39 531.81 L 235.74 529.50 L 233.13 527.04 L 230.55 524.45 L 228.02 521.73 L 225.54 518.87 L 223.10 515.88 L 220.70 512.76 L 218.35 509.52 L 216.06 506.14 L 213.81 502.64 L 211.61 499.02 L 209.47 495.28 L 207.38 491.42 L 205.35 487.45 L 203.37 483.37 L 201.46 479.17 L 199.60 474.86 L 197.80 470.45 L 196.07 465.94 L 194.39 461.33 L 192.78 456.62 L 191.24 451.82 L 189.76 446.92 L 188.35 441.94 L 187.00 436.87 L 185.72 431.72 L 184.52 426.48 L 183.38 421.18 L 182.31 415.80 L 181.31 410.35 L 180.38 404.83 L 179.53 399.25 L 178.75 393.61 L 178.04 387.91 L 177.40 382.17 L 176.84 376.37 L 176.35 370.52 L 175.94 364.64 L 175.60 358.71 L 175.34 352.75 L 175.15 346.76 L 175.04 340.74 L 175.00 334.69 L 175.04 328.62 L 175.15 322.54 L 175.34 316.44 L 175.60 310.34 L 175.94 304.22 L 176.35 298.11 L 176.84 291.99 L 177.40 285.88 L 178.04 279.78 L 178.75 273.69 L 179.53 267.62 L 180.38 261.56 L 181.31 255.53 L 182.31 249.53 L 183.38 243.55 L 184.52 237.61 L 185.72 231.71 L 187.00 225.85 L 188.35 220.04 L 189.76 214.27 L 191.24 208.55 L 192.78 202.89 L 194.39 197.29 L 196.07 191.75 L 197.80 186.27 L 199.60 180.86 L 201.46 175.53 L 203.37 170.27 L 205.35 165.08 L 207.38 159.98 L 209.47 154.97 L 211.61 150.04 L 213.81 145.20 L 216.06 140.45 L 218.35 135.80 L 220.70 131.25 L 223.10 126.80 L 225.54 122.46 L 228.02 118.22 L 230.55 114.09 L 233.13 110.07 L 235.74 106.17 L 238.39 102.39 L 241.08 98.72 L 243.80 95.18 L 246.56 91.75 L 249.34 88.46 L 252.16 85.29 L 255.01 82.25 L 257.89 79.34 L 260.79 76.57 L 263.71 73.93 L 266.66 71.42 L 269.63 69.05 L 272.61 66.83 L 275.61 64.74 L 278.63 62.79 L 281.66 60.99 L 284.70 59.33 L 287.75 57.82 L 290.80 56.45 L 293.87 55.23 L 296.93 54.16 L 300.00 53.23 " stroke='#fff' stroke-width='1' stroke-dasharray='6,6' opacity='0.18' fill='none'/><path d="M 300.00 546.77 L 294.69 547.19 L 289.38 547.46 L 284.07 547.57 L 278.78 547.54 L 273.50 547.37 L 268.23 547.04 L 262.99 546.56 L 257.76 545.94 L 252.56 545.16 L 247.39 544.24 L 242.25 543.17 L 237.15 541.96 " stroke='#fff' stroke-width='1' stroke-dasharray='6,6' opacity='0.08' fill='none'/><path d="M 232.09 540.60 L 227.06 539.09 L 222.08 537.44 L 217.15 535.65 L 212.26 533.72 L 207.43 531.64 L 202.66 529.43 L 197.94 527.07 L 193.28 524.58 L 188.69 521.96 L 184.17 519.20 L 179.72 516.31 L 175.33 513.29 L 171.03 510.14 L 166.80 506.86 L 162.65 503.46 L 158.58 499.94 L 154.60 496.29 L 150.71 492.53 L 146.91 488.65 L 143.20 484.66 L 139.58 480.56 L 136.06 476.35 L 132.64 472.03 L 129.32 467.61 L 126.10 463.09 L 122.99 458.47 L 119.98 453.75 L 117.08 448.94 L 114.30 444.04 L 111.62 439.06 L 109.06 433.99 L 106.61 428.84 L 104.28 423.61 L 102.07 418.31 L 99.97 412.94 L 98.00 407.50 L 96.15 401.99 L 94.42 396.42 L 92.82 390.80 L 91.34 385.12 L 89.98 379.39 L 88.75 373.61 L 87.65 367.79 L 86.68 361.92 L 85.84 356.02 L 85.12 350.08 L 84.54 344.12 L 84.08 338.13 L 83.75 332.11 L 83.56 326.08 L 83.49 320.03 L 83.56 313.97 L 83.75 307.90 L 84.08 301.82 L 84.54 295.74 L 85.12 289.67 L 85.84 283.60 L 86.68 277.55 L 87.65 271.50 L 88.75 265.47 L 89.98 259.47 L 91.34 253.49 L 92.82 247.53 L 94.42 241.61 L 96.15 235.72 L 98.00 229.87 L 99.97 224.07 L 102.07 218.31 L 104.28 212.60 L 106.61 206.94 L 109.06 201.34 L 111.62 195.79 L 114.30 190.31 L 117.08 184.90 L 119.98 179.55 L 122.99 174.28 L 126.10 169.09 L 129.32 163.97 L 132.64 158.93 L 136.06 153.98 L 139.58 149.12 L 143.20 144.35 L 146.91 139.67 L 150.71 135.09 L 154.60 130.61 L 158.58 126.23 L 162.65 121.95 L 166.80 117.78 L 171.03 113.72 L 175.33 109.78 L 179.72 105.95 L 184.17 102.23 L 188.69 98.63 L 193.28 95.16 L 197.94 91.81 L 202.66 88.58 L 207.43 85.49 L 212.26 82.52 L 217.15 79.68 L 222.08 76.97 L 227.06 74.40 L 232.09 71.97 L 237.15 69.67 L 242.25 67.51 L 247.39 65.49 L 252.56 63.61 L 257.76 61.88 L 262.99 60.29 L 268.23 58.84 L 273.50 57.54 L 278.78 56.38 L 284.07 55.37 L 289.38 54.51 L 294.69 53.80 L 300.00 53.23 " stroke='#fff' stroke-width='1' stroke-dasharray='6,6' opacity='0.18' fill='none'/><path d="M 300.00 546.77 L 293.86 546.70 L 287.73 546.47 L 281.61 546.10 L 275.50 545.58 L 269.40 544.91 L 263.32 544.10 L 257.26 543.14 L 251.23 542.03 L 245.22 540.77 L 239.25 539.37 L 233.32 537.83 L 227.43 536.14 L 221.58 534.32 L 215.78 532.34 L 210.03 530.23 L 204.33 527.99 L 198.69 525.60 L 193.11 523.08 L 187.60 520.42 L 182.15 517.63 L 176.78 514.71 L 171.47 511.66 L 166.25 508.48 L 161.11 505.18 L 156.05 501.76 L 151.08 498.21 L 146.19 494.54 L 141.40 490.76 L 136.71 486.86 L 132.11 482.84 L 127.61 478.72 L 123.22 474.49 L 118.94 470.16 L 114.76 465.72 L 110.70 461.18 L 106.75 456.55 L 102.91 451.82 L 99.20 447.00 L 95.60 442.09 L 92.13 437.10 L 88.79 432.02 L 85.57 426.87 L 82.48 421.63 L 79.52 416.33 L 76.69 410.95 L 74.00 405.51 L 71.45 400.00 L 69.03 394.43 L 66.75 388.81 L 64.61 383.13 L 62.62 377.41 L 60.76 371.63 L 59.06 365.82 L 57.49 359.96 L 56.07 354.07 L 54.80 348.14 L 53.68 342.19 L 52.71 336.21 L 51.88 330.21 L 51.20 324.19 L 50.68 318.15 L 50.30 312.11 L 50.08 306.06 " stroke='#fff' stroke-width='1' stroke-dasharray='6,6' opacity='0.08' fill='none'/><path d="M 50.00 300.00 L 50.08 293.94 L 50.30 287.89 L 50.68 281.85 L 51.20 275.81 L 51.88 269.79 L 52.71 263.79 L 53.68 257.81 L 54.80 251.86 L 56.07 245.93 L 57.49 240.04 L 59.06 234.18 L 60.76 228.37 L 62.62 222.59 L 64.61 216.87 L 66.75 211.19 L 69.03 205.57 L 71.45 200.00 L 74.00 194.49 L 76.69 189.05 L 79.52 183.67 L 82.48 178.37 L 85.57 173.13 L 88.79 167.98 L 92.13 162.90 L 95.60 157.91 L 99.20 153.00 L 102.91 148.18 L 106.75 143.45 L 110.70 138.82 L 114.76 134.28 L 118.94 129.84 L 123.22 125.51 L 127.61 121.28 L 132.11 117.16 L 136.71 113.14 L 141.40 109.24 L 146.19 105.46 L 151.08 101.79 L 156.05 98.24 L 161.11 94.82 L 166.25 91.52 L 171.47 88.34 L 176.78 85.29 L 182.15 82.37 L 187.60 79.58 L 193.11 76.92 L 198.69 74.40 L 204.33 72.01 L 210.03 69.77 L 215.78 67.66 L 221.58 65.68 L 227.43 63.86 L 233.32 62.17 L 239.25 60.63 L 245.22 59.23 L 251.23 57.97 L 257.26 56.86 L 263.32 55.90 L 269.40 55.09 L 275.50 54.42 L 281.61 53.90 L 287.73 53.53 L 293.86 53.30 L 300.00 53.23 " stroke='#fff' stroke-width='1' stroke-dasharray='6,6' opacity='0.18' fill='none'/><path d="M 300.00 546.77 L 294.69 546.20 L 289.38 545.49 L 284.07 544.63 L 278.78 543.62 L 273.50 542.46 L 268.23 541.16 L 262.99 539.71 L 257.76 538.12 L 252.56 536.39 L 247.39 534.51 L 242.25 532.49 L 237.15 530.33 L 232.09 528.03 L 227.06 525.60 L 222.08 523.03 L 217.15 520.32 L 212.26 517.48 L 207.43 514.51 L 202.66 511.42 L 197.94 508.19 L 193.28 504.84 L 188.69 501.37 L 184.17 497.77 L 179.72 494.05 L 175.33 490.22 L 171.03 486.28 L 166.80 482.22 L 162.65 478.05 L 158.58 473.77 L 154.60 469.39 L 150.71 464.91 L 146.91 460.33 L 143.20 455.65 L 139.58 450.88 L 136.06 446.02 L 132.64 441.07 L 129.32 436.03 L 126.10 430.91 L 122.99 425.72 L 119.98 420.45 L 117.08 415.10 L 114.30 409.69 L 111.62 404.21 L 109.06 398.66 L 106.61 393.06 L 104.28 387.40 L 102.07 381.69 L 99.97 375.93 L 98.00 370.13 L 96.15 364.28 L 94.42 358.39 L 92.82 352.47 L 91.34 346.51 L 89.98 340.53 L 88.75 334.53 L 87.65 328.50 L 86.68 322.45 L 85.84 316.40 L 85.12 310.33 L 84.54 304.26 L 84.08 298.18 L 83.75 292.10 L 83.56 286.03 L 83.49 279.97 L 83.56 273.92 L 83.75 267.89 L 84.08 261.87 L 84.54 255.88 L 85.12 249.92 L 85.84 243.98 L 86.68 238.08 L 87.65 232.21 L 88.75 226.39 L 89.98 220.61 L 91.34 214.88 L 92.82 209.20 L 94.42 203.58 L 96.15 198.01 L 98.00 192.50 L 99.97 187.06 L 102.07 181.69 L 104.28 176.39 L 106.61 171.16 L 109.06 166.01 L 111.62 160.94 L 114.30 155.96 L 117.08 151.06 L 119.98 146.25 L 122.99 141.53 L 126.10 136.91 L 129.32 132.39 L 132.64 127.97 L 136.06 123.65 L 139.58 119.44 L 143.20 115.34 L 146.91 111.35 L 150.71 107.47 L 154.60 103.71 L 158.58 100.06 L 162.65 96.54 L 166.80 93.14 L 171.03 89.86 L 175.33 86.71 L 179.72 83.69 L 184.17 80.80 L 188.69 78.04 L 193.28 75.42 L 197.94 72.93 L 202.66 70.57 L 207.43 68.36 L 212.26 66.28 L 217.15 64.35 L 222.08 62.56 L 227.06 60.91 L 232.09 59.40 " stroke='#fff' stroke-width='1' stroke-dasharray='6,6' opacity='0.08' fill='none'/><path d="M 237.15 58.04 L 242.25 56.83 L 247.39 55.76 L 252.56 54.84 L 257.76 54.06 L 262.99 53.44 L 268.23 52.96 L 273.50 52.63 L 278.78 52.46 L 284.07 52.43 L 289.38 52.54 L 294.69 52.81 L 300.00 53.23 " stroke='#fff' stroke-width='1' stroke-dasharray='6,6' opacity='0.18' fill='none'/><path d="M 300.00 546.77 L 296.93 545.84 L 293.87 544.77 L 290.80 543.55 L 287.75 542.18 L 284.70 540.67 L 281.66 539.01 L 278.63 537.21 L 275.61 535.26 L 272.61 533.17 L 269.63 530.95 L 266.66 528.58 L 263.71 526.07 L 260.79 523.43 L 257.89 520.66 L 255.01 517.75 L 252.16 514.71 L 249.34 511.54 L 246.56 508.25 L 243.80 504.82 L 241.08 501.28 L 238.39 497.61 L 235.74 493.83 L 233.13 489.93 L 230.55 485.91 L 228.02 481.78 L 225.54 477.54 L 223.10 473.20 L 220.70 468.75 L 218.35 464.20 L 216.06 459.55 L 213.81 454.80 L 211.61 449.96 L 209.47 445.03 L 207.38 440.02 L 205.35 434.92 L 203.37 429.73 L 201.46 424.47 L 199.60 419.14 L 197.80 413.73 L 196.07 408.25 L 194.39 402.71 L 192.78 397.11 L 191.24 391.45 L 189.76 385.73 L 188.35 379.96 L 187.00 374.15 L 185.72 368.29 L 184.52 362.39 L 183.38 356.45 L 182.31 350.47 L 181.31 344.47 L 180.38 338.44 L 179.53 332.38 L 178.75 326.31 L 178.04 320.22 L 177.40 314.12 L 176.84 308.01 L 176.35 301.89 L 175.94 295.78 L 175.60 289.66 L 175.34 283.56 L 175.15 277.46 L 175.04 271.38 L 175.00 265.31 L 175.04 259.26 L 175.15 253.24 L 175.34 247.25 L 175.60 241.29 L 175.94 235.36 L 176.35 229.48 L 176.84 223.63 L 177.40 217.83 L 178.04 212.09 L 178.75 206.39 L 179.53 200.75 L 180.38 195.17 L 181.31 189.65 L 182.31 184.20 L 183.38 178.82 L 184.52 173.52 L 185.72 168.28 L 187.00 163.13 L 188.35 158.06 L 189.76 153.08 L 191.24 148.18 L 192.78 143.38 L 194.39 138.67 L 196.07 134.06 L 197.80 129.55 L 199.60 125.14 L 201.46 120.83 L 203.37 116.63 L 205.35 112.55 L 207.38 108.58 L 209.47 104.72 L 211.61 100.98 L 213.81 97.36 L 216.06 93.86 L 218.35 90.48 L 220.70 87.24 L 223.10 84.12 L 225.54 81.13 L 228.02 78.27 L 230.55 75.55 L 233.13 72.96 L 235.74 70.50 L 238.39 68.19 L 241.08 66.02 L 243.80 63.98 L 246.56 62.09 L 249.34 60.34 L 252.16 58.74 L 255.01 57.28 L 257.89 55.97 L 260.79 54.80 L 263.71 53.79 L 266.66 52.92 L 269.63 52.20 L 272.61 51.63 L 275.61 51.20 " stroke='#fff' stroke-width='1' stroke-dasharray='6,6' opacity='0.08' fill='none'/><path d="M 278.63 50.93 L 281.66 50.81 L 284.70 50.84 L 287.75 51.02 L 290.80 51.35 L 293.87 51.83 L 296.93 52.45 L 300.00 53.23 " stroke='#fff' stroke-width='1' stroke-dasharray='6,6' opacity='0.18' fill='none'/><path d="M 300.00 546.77 L 300.00 545.71 L 300.00 544.51 L 300.00 543.15 L 300.00 541.66 L 300.00 540.01 L 300.00 538.22 L 300.00 536.29 L 300.00 534.21 L 300.00 532.00 L 300.00 529.64 L 300.00 527.15 L 300.00 524.52 L 300.00 521.75 L 300.00 518.85 L 300.00 515.82 L 300.00 512.66 L 300.00 509.37 L 300.00 505.95 L 300.00 502.41 L 300.00 498.75 L 300.00 494.97 L 300.00 491.07 L 300.00 487.05 L 300.00 482.93 L 300.00 478.69 L 300.00 474.35 L 300.00 469.90 L 300.00 465.34 L 300.00 460.69 L 300.00 455.94 L 300.00 451.10 L 300.00 446.17 L 300.00 441.15 L 300.00 436.04 L 300.00 430.85 L 300.00 425.59 L 300.00 420.24 L 300.00 414.83 L 300.00 409.34 L 300.00 403.79 L 300.00 398.18 L 300.00 392.51 L 300.00 386.78 L 300.00 381.00 L 300.00 375.17 L 300.00 369.30 L 300.00 363.38 L 300.00 357.43 L 300.00 351.44 L 300.00 345.42 L 300.00 339.37 L 300.00 333.30 L 300.00 327.21 L 300.00 321.10 L 300.00 314.98 L 300.00 308.86 L 300.00 302.72 L 300.00 296.59 L 300.00 290.45 L 300.00 284.32 L 300.00 278.21 L 300.00 272.10 L 300.00 266.01 L 300.00 259.94 L 300.00 253.90 L 300.00 247.88 L 300.00 241.90 L 300.00 235.95 L 300.00 230.04 L 300.00 224.17 L 300.00 218.34 L 300.00 212.57 L 300.00 206.85 L 300.00 201.18 L 300.00 195.58 L 300.00 190.03 L 300.00 184.56 L 300.00 179.15 L 300.00 173.82 L 300.00 168.56 L 300.00 163.38 L 300.00 158.28 L 300.00 153.27 L 300.00 148.35 L 300.00 143.51 L 300.00 138.78 L 300.00 134.14 L 300.00 129.60 L 300.00 125.16 L 300.00 120.83 L 300.00 116.60 L 300.00 112.49 L 300.00 108.49 L 300.00 104.60 L 300.00 100.83 L 300.00 97.18 L 300.00 93.66 L 300.00 90.26 L 300.00 86.98 L 300.00 83.83 L 300.00 80.82 L 300.00 77.93 L 300.00 75.18 L 300.00 72.56 L 300.00 70.09 L 300.00 67.75 L 300.00 65.54 L 300.00 63.49 L 300.00 61.57 L 300.00 59.80 L 300.00 58.17 L 300.00 56.69 L 300.00 55.35 L 300.00 54.16 L 300.00 53.12 L 300.00 52.23 L 300.00 51.49 L 300.00 50.89 L 300.00 50.45 L 300.00 50.16 L 300.00 50.01 " stroke='#fff' stroke-width='1' stroke-dasharray='6,6' opacity='0.08' fill='none'/><path d="M 300.00 50.02 L 300.00 50.18 L 300.00 50.49 L 300.00 50.95 L 300.00 51.56 L 300.00 52.32 L 300.00 53.23 " stroke='#fff' stroke-width='1' stroke-dasharray='6,6' opacity='0.18' fill='none'/><path d="M 300.00 546.77 L 303.07 545.84 L 306.13 544.77 L 309.20 543.55 L 312.25 542.18 L 315.30 540.67 L 318.34 539.01 L 321.37 537.21 L 324.39 535.26 L 327.39 533.17 L 330.37 530.95 L 333.34 528.58 L 336.29 526.07 L 339.21 523.43 L 342.11 520.66 L 344.99 517.75 L 347.84 514.71 L 350.66 511.54 L 353.44 508.25 L 356.20 504.82 L 358.92 501.28 L 361.61 497.61 L 364.26 493.83 L 366.87 489.93 L 369.45 485.91 L 371.98 481.78 L 374.46 477.54 L 376.90 473.20 L 379.30 468.75 L 381.65 464.20 L 383.94 459.55 L 386.19 454.80 L 388.39 449.96 L 390.53 445.03 L 392.62 440.02 L 394.65 434.92 L 396.63 429.73 L 398.54 424.47 L 400.40 419.14 L 402.20 413.73 L 403.93 408.25 L 405.61 402.71 L 407.22 397.11 L 408.76 391.45 L 410.24 385.73 L 411.65 379.96 L 413.00 374.15 L 414.28 368.29 L 415.48 362.39 L 416.62 356.45 L 417.69 350.47 L 418.69 344.47 L 419.62 338.44 L 420.47 332.38 L 421.25 326.31 L 421.96 320.22 L 422.60 314.12 L 423.16 308.01 L 423.65 301.89 L 424.06 295.78 L 424.40 289.66 L 424.66 283.56 L 424.85 277.46 L 424.96 271.38 L 425.00 265.31 L 424.96 259.26 L 424.85 253.24 L 424.66 247.25 L 424.40 241.29 L 424.06 235.36 L 423.65 229.48 L 423.16 223.63 L 422.60 217.83 L 421.96 212.09 L 421.25 206.39 L 420.47 200.75 L 419.62 195.17 L 418.69 189.65 L 417.69 184.20 L 416.62 178.82 L 415.48 173.52 L 414.28 168.28 L 413.00 163.13 L 411.65 158.06 L 410.24 153.08 L 408.76 148.18 L 407.22 143.38 L 405.61 138.67 L 403.93 134.06 L 402.20 129.55 L 400.40 125.14 L 398.54 120.83 L 396.63 116.63 L 394.65 112.55 L 392.62 108.58 L 390.53 104.72 L 388.39 100.98 L 386.19 97.36 L 383.94 93.86 L 381.65 90.48 L 379.30 87.24 L 376.90 84.12 L 374.46 81.13 L 371.98 78.27 L 369.45 75.55 L 366.87 72.96 L 364.26 70.50 L 361.61 68.19 L 358.92 66.02 L 356.20 63.98 L 353.44 62.09 L 350.66 60.34 L 347.84 58.74 L 344.99 57.28 L 342.11 55.97 L 339.21 54.80 L 336.29 53.79 L 333.34 52.92 L 330.37 52.20 L 327.39 51.63 L 324.39 51.20 " stroke='#fff' stroke-width='1' stroke-dasharray='6,6' opacity='0.08' fill='none'/><path d="M 321.37 50.93 L 318.34 50.81 L 315.30 50.84 L 312.25 51.02 L 309.20 51.35 L 306.13 51.83 L 303.07 52.45 L 300.00 53.23 " stroke='#fff' stroke-width='1' stroke-dasharray='6,6' opacity='0.18' fill='none'/><path d="M 300.00 546.77 L 305.31 546.20 L 310.62 545.49 L 315.93 544.63 L 321.22 543.62 L 326.50 542.46 L 331.77 541.16 L 337.01 539.71 L 342.24 538.12 L 347.44 536.39 L 352.61 534.51 L 357.75 532.49 L 362.85 530.33 L 367.91 528.03 L 372.94 525.60 L 377.92 523.03 L 382.85 520.32 L 387.74 517.48 L 392.57 514.51 L 397.34 511.42 L 402.06 508.19 L 406.72 504.84 L 411.31 501.37 L 415.83 497.77 L 420.28 494.05 L 424.67 490.22 L 428.97 486.28 L 433.20 482.22 L 437.35 478.05 L 441.42 473.77 L 445.40 469.39 L 449.29 464.91 L 453.09 460.33 L 456.80 455.65 L 460.42 450.88 L 463.94 446.02 L 467.36 441.07 L 470.68 436.03 L 473.90 430.91 L 477.01 425.72 L 480.02 420.45 L 482.92 415.10 L 485.70 409.69 L 488.38 404.21 L 490.94 398.66 L 493.39 393.06 L 495.72 387.40 L 497.93 381.69 L 500.03 375.93 L 502.00 370.13 L 503.85 364.28 L 505.58 358.39 L 507.18 352.47 L 508.66 346.51 L 510.02 340.53 L 511.25 334.53 L 512.35 328.50 L 513.32 322.45 L 514.16 316.40 L 514.88 310.33 L 515.46 304.26 L 515.92 298.18 L 516.25 292.10 L 516.44 286.03 L 516.51 279.97 L 516.44 273.92 L 516.25 267.89 L 515.92 261.87 L 515.46 255.88 L 514.88 249.92 L 514.16 243.98 L 513.32 238.08 L 512.35 232.21 L 511.25 226.39 L 510.02 220.61 L 508.66 214.88 L 507.18 209.20 L 505.58 203.58 L 503.85 198.01 L 502.00 192.50 L 500.03 187.06 L 497.93 181.69 L 495.72 176.39 L 493.39 171.16 L 490.94 166.01 L 488.38 160.94 L 485.70 155.96 L 482.92 151.06 L 480.02 146.25 L 477.01 141.53 L 473.90 136.91 L 470.68 132.39 L 467.36 127.97 L 463.94 123.65 L 460.42 119.44 L 456.80 115.34 L 453.09 111.35 L 449.29 107.47 L 445.40 103.71 L 441.42 100.06 L 437.35 96.54 L 433.20 93.14 L 428.97 89.86 L 424.67 86.71 L 420.28 83.69 L 415.83 80.80 L 411.31 78.04 L 406.72 75.42 L 402.06 72.93 L 397.34 70.57 L 392.57 68.36 L 387.74 66.28 L 382.85 64.35 L 377.92 62.56 L 372.94 60.91 L 367.91 59.40 " stroke='#fff' stroke-width='1' stroke-dasharray='6,6' opacity='0.08' fill='none'/><path d="M 362.85 58.04 L 357.75 56.83 L 352.61 55.76 L 347.44 54.84 L 342.24 54.06 L 337.01 53.44 L 331.77 52.96 L 326.50 52.63 L 321.22 52.46 L 315.93 52.43 L 310.62 52.54 L 305.31 52.81 L 300.00 53.23 " stroke='#fff' stroke-width='1' stroke-dasharray='6,6' opacity='0.18' fill='none'/><path d="M 425.00 513.71 L 424.85 514.69 L 424.40 515.67 L 423.65 516.65 L 422.60 517.62 L 421.25 518.58 M 178.75 518.58 L 177.40 517.62 L 176.35 516.65 L 175.60 515.67 L 175.15 514.69 L 175.00 513.71 L 175.15 512.73 L 175.60 511.75 L 176.35 510.77 L 177.40 509.80 L 178.75 508.84 L 180.38 507.90 L 182.31 506.96 L 184.52 506.04 L 187.00 505.15 L 189.76 504.27 L 192.78 503.41 L 196.07 502.58 L 199.60 501.78 L 203.37 501.00 L 207.38 500.26 L 211.61 499.55 L 216.06 498.87 L 220.70 498.23 L 225.54 497.62 L 230.55 497.06 L 235.74 496.53 L 241.08 496.05 L 246.56 495.60 L 252.16 495.21 L 257.89 494.85 L 263.71 494.54 L 269.63 494.28 L 275.61 494.07 L 281.66 493.90 L 287.75 493.78 L 293.87 493.71 L 300.00 493.68 L 306.13 493.71 L 312.25 493.78 L 318.34 493.90 L 324.39 494.07 L 330.37 494.28 L 336.29 494.54 L 342.11 494.85 L 347.84 495.21 L 353.44 495.60 L 358.92 496.05 L 364.26 496.53 L 369.45 497.06 L 374.46 497.62 L 379.30 498.23 L 383.94 498.87 L 388.39 499.55 L 392.62 500.26 L 396.63 501.00 L 400.40 501.78 L 403.93 502.58 L 407.22 503.41 L 410.24 504.27 L 413.00 505.15 L 415.48 506.04 L 417.69 506.96 L 419.62 507.90 L 421.25 508.84 L 422.60 509.80 L 423.65 510.77 L 424.40 511.75 L 424.85 512.73 L 425.00 513.71 " stroke='#fff' stroke-width='1' stroke-dasharray='6,6' opacity='0.08' fill='none'/><path d="M 419.62 519.52 L 417.69 520.46 L 415.48 521.37 L 413.00 522.27 L 410.24 523.15 L 407.22 524.01 L 403.93 524.84 L 400.40 525.64 L 396.63 526.41 L 392.62 527.16 L 388.39 527.87 L 383.94 528.55 L 379.30 529.19 L 374.46 529.80 L 369.45 530.36 L 364.26 530.89 L 358.92 531.37 L 353.44 531.81 L 347.84 532.21 L 342.11 532.57 L 336.29 532.88 L 330.37 533.14 L 324.39 533.35 L 318.34 533.52 L 312.25 533.64 L 306.13 533.71 L 300.00 533.74 L 293.87 533.71 L 287.75 533.64 L 281.66 533.52 L 275.61 533.35 L 269.63 533.14 L 263.71 532.88 L 257.89 532.57 L 252.16 532.21 L 246.56 531.81 L 241.08 531.37 L 235.74 530.89 L 230.55 530.36 L 225.54 529.80 L 220.70 529.19 L 216.06 528.55 L 211.61 527.87 L 207.38 527.16 L 203.37 526.41 L 199.60 525.64 L 196.07 524.84 L 192.78 524.01 L 189.76 523.15 L 187.00 522.27 L 184.52 521.37 L 182.31 520.46 L 180.38 519.52 " stroke='#fff' stroke-width='1' stroke-dasharray='6,6' opacity='0.18' fill='none'/><path d="M 516.51 423.39 L 516.25 425.09 M 83.75 425.09 L 83.49 423.39 L 83.75 421.68 L 84.54 419.98 L 85.84 418.29 L 87.65 416.62 L 89.98 414.96 L 92.82 413.32 L 96.15 411.70 L 99.97 410.11 L 104.28 408.55 L 109.06 407.03 L 114.30 405.55 L 119.98 404.11 L 126.10 402.72 L 132.64 401.38 L 139.58 400.09 L 146.91 398.86 L 154.60 397.68 L 162.65 396.57 L 171.03 395.52 L 179.72 394.54 L 188.69 393.63 L 197.94 392.79 L 207.43 392.03 L 217.15 391.34 L 227.06 390.72 L 237.15 390.19 L 247.39 389.73 L 257.76 389.36 L 268.23 389.07 L 278.78 388.86 L 289.38 388.74 L 300.00 388.70 L 310.62 388.74 L 321.22 388.86 L 331.77 389.07 L 342.24 389.36 L 352.61 389.73 L 362.85 390.19 L 372.94 390.72 L 382.85 391.34 L 392.57 392.03 L 402.06 392.79 L 411.31 393.63 L 420.28 394.54 L 428.97 395.52 L 437.35 396.57 L 445.40 397.68 L 453.09 398.86 L 460.42 400.09 L 467.36 401.38 L 473.90 402.72 L 480.02 404.11 L 485.70 405.55 L 490.94 407.03 L 495.72 408.55 L 500.03 410.11 L 503.85 411.70 L 507.18 413.32 L 510.02 414.96 L 512.35 416.62 L 514.16 418.29 L 515.46 419.98 L 516.25 421.68 L 516.51 423.39 " stroke='#fff' stroke-width='1' stroke-dasharray='6,6' opacity='0.08' fill='none'/><path d="M 515.46 426.79 L 514.16 428.48 L 512.35 430.15 L 510.02 431.81 L 507.18 433.46 L 503.85 435.07 L 500.03 436.66 L 495.72 438.22 L 490.94 439.74 L 485.70 441.22 L 480.02 442.66 L 473.90 444.05 L 467.36 445.39 L 460.42 446.68 L 453.09 447.91 L 445.40 449.09 L 437.35 450.20 L 428.97 451.25 L 420.28 452.23 L 411.31 453.14 L 402.06 453.98 L 392.57 454.74 L 382.85 455.43 L 372.94 456.05 L 362.85 456.58 L 352.61 457.04 L 342.24 457.41 L 331.77 457.70 L 321.22 457.91 L 310.62 458.03 L 300.00 458.08 L 289.38 458.03 L 278.78 457.91 L 268.23 457.70 L 257.76 457.41 L 247.39 457.04 L 237.15 456.58 L 227.06 456.05 L 217.15 455.43 L 207.43 454.74 L 197.94 453.98 L 188.69 453.14 L 179.72 452.23 L 171.03 451.25 L 162.65 450.20 L 154.60 449.09 L 146.91 447.91 L 139.58 446.68 L 132.64 445.39 L 126.10 444.05 L 119.98 442.66 L 114.30 441.22 L 109.06 439.74 L 104.28 438.22 L 99.97 436.66 L 96.15 435.07 L 92.82 433.46 L 89.98 431.81 L 87.65 430.15 L 85.84 428.48 L 84.54 426.79 " stroke='#fff' stroke-width='1' stroke-dasharray='6,6' opacity='0.18' fill='none'/><path d="M 50.30 298.03 L 51.20 296.07 L 52.71 294.12 L 54.80 292.19 L 57.49 290.27 L 60.76 288.37 L 64.61 286.51 L 69.03 284.67 L 74.00 282.87 L 79.52 281.12 L 85.57 279.41 L 92.13 277.75 L 99.20 276.14 L 106.75 274.59 L 114.76 273.10 L 123.22 271.68 L 132.11 270.32 L 141.40 269.04 L 151.08 267.83 L 161.11 266.69 L 171.47 265.64 L 182.15 264.67 L 193.11 263.79 L 204.33 262.99 L 215.78 262.28 L 227.43 261.67 L 239.25 261.14 L 251.23 260.71 L 263.32 260.38 L 275.50 260.14 L 287.73 259.99 L 300.00 259.94 L 312.27 259.99 L 324.50 260.14 L 336.68 260.38 L 348.77 260.71 L 360.75 261.14 L 372.57 261.67 L 384.22 262.28 L 395.67 262.99 L 406.89 263.79 L 417.85 264.67 L 428.53 265.64 L 438.89 266.69 L 448.92 267.83 L 458.60 269.04 L 467.89 270.32 L 476.78 271.68 L 485.24 273.10 L 493.25 274.59 L 500.80 276.14 L 507.87 277.75 L 514.43 279.41 L 520.48 281.12 L 526.00 282.87 L 530.97 284.67 L 535.39 286.51 L 539.24 288.37 L 542.51 290.27 L 545.20 292.19 L 547.29 294.12 L 548.80 296.07 L 549.70 298.03 L 550.00 300.00 " stroke='#fff' stroke-width='1' stroke-dasharray='6,6' opacity='0.08' fill='none'/><path d="M 550.00 300.00 L 549.70 301.97 L 548.80 303.93 L 547.29 305.88 L 545.20 307.81 L 542.51 309.73 L 539.24 311.63 L 535.39 313.49 L 530.97 315.33 L 526.00 317.13 L 520.48 318.88 L 514.43 320.59 L 507.87 322.25 L 500.80 323.86 L 493.25 325.41 L 485.24 326.90 L 476.78 328.32 L 467.89 329.68 L 458.60 330.96 L 448.92 332.17 L 438.89 333.31 L 428.53 334.36 L 417.85 335.33 L 406.89 336.21 L 395.67 337.01 L 384.22 337.72 L 372.57 338.33 L 360.75 338.86 L 348.77 339.29 L 336.68 339.62 L 324.50 339.86 L 312.27 340.01 L 300.00 340.06 L 287.73 340.01 L 275.50 339.86 L 263.32 339.62 L 251.23 339.29 L 239.25 338.86 L 227.43 338.33 L 215.78 337.72 L 204.33 337.01 L 193.11 336.21 L 182.15 335.33 L 171.47 334.36 L 161.11 333.31 L 151.08 332.17 L 141.40 330.96 L 132.11 329.68 L 123.22 328.32 L 114.76 326.90 L 106.75 325.41 L 99.20 323.86 L 92.13 322.25 L 85.57 320.59 L 79.52 318.88 L 74.00 317.13 L 69.03 315.33 L 64.61 313.49 L 60.76 311.63 L 57.49 309.73 L 54.80 307.81 L 52.71 305.88 L 51.20 303.93 L 50.30 301.97 L 50.00 300.00 " stroke='#fff' stroke-width='1' stroke-dasharray='6,6' opacity='0.18' fill='none'/><path d="M 84.54 173.21 L 85.84 171.52 L 87.65 169.85 L 89.98 168.19 L 92.82 166.54 L 96.15 164.93 L 99.97 163.34 L 104.28 161.78 L 109.06 160.26 L 114.30 158.78 L 119.98 157.34 L 126.10 155.95 L 132.64 154.61 L 139.58 153.32 L 146.91 152.09 L 154.60 150.91 L 162.65 149.80 L 171.03 148.75 L 179.72 147.77 L 188.69 146.86 L 197.94 146.02 L 207.43 145.26 L 217.15 144.57 L 227.06 143.95 L 237.15 143.42 L 247.39 142.96 L 257.76 142.59 L 268.23 142.30 L 278.78 142.09 L 289.38 141.97 L 300.00 141.92 L 310.62 141.97 L 321.22 142.09 L 331.77 142.30 L 342.24 142.59 L 352.61 142.96 L 362.85 143.42 L 372.94 143.95 L 382.85 144.57 L 392.57 145.26 L 402.06 146.02 L 411.31 146.86 L 420.28 147.77 L 428.97 148.75 L 437.35 149.80 L 445.40 150.91 L 453.09 152.09 L 460.42 153.32 L 467.36 154.61 L 473.90 155.95 L 480.02 157.34 L 485.70 158.78 L 490.94 160.26 L 495.72 161.78 L 500.03 163.34 L 503.85 164.93 L 507.18 166.54 L 510.02 168.19 L 512.35 169.85 L 514.16 171.52 L 515.46 173.21 " stroke='#fff' stroke-width='1' stroke-dasharray='6,6' opacity='0.08' fill='none'/><path d="M 516.51 176.61 L 516.25 178.32 L 515.46 180.02 L 514.16 181.71 L 512.35 183.38 L 510.02 185.04 L 507.18 186.68 L 503.85 188.30 L 500.03 189.89 L 495.72 191.45 L 490.94 192.97 L 485.70 194.45 L 480.02 195.89 L 473.90 197.28 L 467.36 198.62 L 460.42 199.91 L 453.09 201.14 L 445.40 202.32 L 437.35 203.43 L 428.97 204.48 L 420.28 205.46 L 411.31 206.37 L 402.06 207.21 L 392.57 207.97 L 382.85 208.66 L 372.94 209.28 L 362.85 209.81 L 352.61 210.27 L 342.24 210.64 L 331.77 210.93 L 321.22 211.14 L 310.62 211.26 L 300.00 211.30 L 289.38 211.26 L 278.78 211.14 L 268.23 210.93 L 257.76 210.64 L 247.39 210.27 L 237.15 209.81 L 227.06 209.28 L 217.15 208.66 L 207.43 207.97 L 197.94 207.21 L 188.69 206.37 L 179.72 205.46 L 171.03 204.48 L 162.65 203.43 L 154.60 202.32 L 146.91 201.14 L 139.58 199.91 L 132.64 198.62 L 126.10 197.28 L 119.98 195.89 L 114.30 194.45 L 109.06 192.97 L 104.28 191.45 L 99.97 189.89 L 96.15 188.30 L 92.82 186.68 L 89.98 185.04 L 87.65 183.38 L 85.84 181.71 L 84.54 180.02 L 83.75 178.32 L 83.49 176.61 L 83.75 174.91 M 516.25 174.91 L 516.51 176.61 " stroke='#fff' stroke-width='1' stroke-dasharray='6,6' opacity='0.18' fill='none'/><path d="M 180.38 80.48 L 182.31 79.54 L 184.52 78.63 L 187.00 77.73 L 189.76 76.85 L 192.78 75.99 L 196.07 75.16 L 199.60 74.36 L 203.37 73.59 L 207.38 72.84 L 211.61 72.13 L 216.06 71.45 L 220.70 70.81 L 225.54 70.20 L 230.55 69.64 L 235.74 69.11 L 241.08 68.63 L 246.56 68.19 L 252.16 67.79 L 257.89 67.43 L 263.71 67.12 L 269.63 66.86 L 275.61 66.65 L 281.66 66.48 L 287.75 66.36 L 293.87 66.29 L 300.00 66.26 L 306.13 66.29 L 312.25 66.36 L 318.34 66.48 L 324.39 66.65 L 330.37 66.86 L 336.29 67.12 L 342.11 67.43 L 347.84 67.79 L 353.44 68.19 L 358.92 68.63 L 364.26 69.11 L 369.45 69.64 L 374.46 70.20 L 379.30 70.81 L 383.94 71.45 L 388.39 72.13 L 392.62 72.84 L 396.63 73.59 L 400.40 74.36 L 403.93 75.16 L 407.22 75.99 L 410.24 76.85 L 413.00 77.73 L 415.48 78.63 L 417.69 79.54 L 419.62 80.48 " stroke='#fff' stroke-width='1' stroke-dasharray='6,6' opacity='0.08' fill='none'/><path d="M 425.00 86.29 L 424.85 87.27 L 424.40 88.25 L 423.65 89.23 L 422.60 90.20 L 421.25 91.16 L 419.62 92.10 L 417.69 93.04 L 415.48 93.96 L 413.00 94.85 L 410.24 95.73 L 407.22 96.59 L 403.93 97.42 L 400.40 98.22 L 396.63 99.00 L 392.62 99.74 L 388.39 100.45 L 383.94 101.13 L 379.30 101.77 L 374.46 102.38 L 369.45 102.94 L 364.26 103.47 L 358.92 103.95 L 353.44 104.40 L 347.84 104.79 L 342.11 105.15 L 336.29 105.46 L 330.37 105.72 L 324.39 105.93 L 318.34 106.10 L 312.25 106.22 L 306.13 106.29 L 300.00 106.32 L 293.87 106.29 L 287.75 106.22 L 281.66 106.10 L 275.61 105.93 L 269.63 105.72 L 263.71 105.46 L 257.89 105.15 L 252.16 104.79 L 246.56 104.40 L 241.08 103.95 L 235.74 103.47 L 230.55 102.94 L 225.54 102.38 L 220.70 101.77 L 216.06 101.13 L 211.61 100.45 L 207.38 99.74 L 203.37 99.00 L 199.60 98.22 L 196.07 97.42 L 192.78 96.59 L 189.76 95.73 L 187.00 94.85 L 184.52 93.96 L 182.31 93.04 L 180.38 92.10 L 178.75 91.16 L 177.40 90.20 L 176.35 89.23 L 175.60 88.25 L 175.15 87.27 L 175.00 86.29 L 175.15 85.31 L 175.60 84.33 L 176.35 83.35 L 177.40 82.38 L 178.75 81.42 M 421.25 81.42 L 422.60 82.38 L 423.65 83.35 L 424.40 84.33 L 424.85 85.31 L 425.00 86.29 " stroke='#fff' stroke-width='1' stroke-dasharray='6,6' opacity='0.18' fill='none'/><path d="M 300.00 546.77 L 306.14 546.70 L 312.27 546.47 L 318.39 546.10 L 324.50 545.58 L 330.60 544.91 L 336.68 544.10 L 342.74 543.14 L 348.77 542.03 L 354.78 540.77 L 360.75 539.37 L 366.68 537.83 L 372.57 536.14 L 378.42 534.32 L 384.22 532.34 L 389.97 530.23 L 395.67 527.99 L 401.31 525.60 L 406.89 523.08 L 412.40 520.42 L 417.85 517.63 L 423.22 514.71 L 428.53 511.66 L 433.75 508.48 L 438.89 505.18 L 443.95 501.76 L 448.92 498.21 L 453.81 494.54 L 458.60 490.76 L 463.29 486.86 L 467.89 482.84 L 472.39 478.72 L 476.78 474.49 L 481.06 470.16 L 485.24 465.72 L 489.30 461.18 L 493.25 456.55 L 497.09 451.82 L 500.80 447.00 L 504.40 442.09 L 507.87 437.10 L 511.21 432.02 L 514.43 426.87 L 517.52 421.63 L 520.48 416.33 L 523.31 410.95 L 526.00 405.51 L 528.55 400.00 L 530.97 394.43 L 533.25 388.81 L 535.39 383.13 L 537.38 377.41 L 539.24 371.63 L 540.94 365.82 L 542.51 359.96 L 543.93 354.07 L 545.20 348.14 L 546.32 342.19 L 547.29 336.21 L 548.12 330.21 L 548.80 324.19 L 549.32 318.15 L 549.70 312.11 L 549.92 306.06 " stroke='#fff' stroke-width='1' stroke-dasharray='6,6' opacity='0.08' fill='none'/><path d="M 550.00 300.00 L 549.92 293.94 L 549.70 287.89 L 549.32 281.85 L 548.80 275.81 L 548.12 269.79 L 547.29 263.79 L 546.32 257.81 L 545.20 251.86 L 543.93 245.93 L 542.51 240.04 L 540.94 234.18 L 539.24 228.37 L 537.38 222.59 L 535.39 216.87 L 533.25 211.19 L 530.97 205.57 L 528.55 200.00 L 526.00 194.49 L 523.31 189.05 L 520.48 183.67 L 517.52 178.37 L 514.43 173.13 L 511.21 167.98 L 507.87 162.90 L 504.40 157.91 L 500.80 153.00 L 497.09 148.18 L 493.25 143.45 L 489.30 138.82 L 485.24 134.28 L 481.06 129.84 L 476.78 125.51 L 472.39 121.28 L 467.89 117.16 L 463.29 113.14 L 458.60 109.24 L 453.81 105.46 L 448.92 101.79 L 443.95 98.24 L 438.89 94.82 L 433.75 91.52 L 428.53 88.34 L 423.22 85.29 L 417.85 82.37 L 412.40 79.58 L 406.89 76.92 L 401.31 74.40 L 395.67 72.01 L 389.97 69.77 L 384.22 67.66 L 378.42 65.68 L 372.57 63.86 L 366.68 62.17 L 360.75 60.63 L 354.78 59.23 L 348.77 57.97 L 342.74 56.86 L 336.68 55.90 L 330.60 55.09 L 324.50 54.42 L 318.39 53.90 L 312.27 53.53 L 306.14 53.30 L 300.00 53.23 " stroke='#fff' stroke-width='1' stroke-dasharray='6,6' opacity='0.18' fill='none'/><path d="M 300.00 546.77 L 305.31 547.19 L 310.62 547.46 L 315.93 547.57 L 321.22 547.54 L 326.50 547.37 L 331.77 547.04 L 337.01 546.56 L 342.24 545.94 L 347.44 545.16 L 352.61 544.24 L 357.75 543.17 L 362.85 541.96 " stroke='#fff' stroke-width='1' stroke-dasharray='6,6' opacity='0.08' fill='none'/><path d="M 367.91 540.60 L 372.94 539.09 L 377.92 537.44 L 382.85 535.65 L 387.74 533.72 L 392.57 531.64 L 397.34 529.43 L 402.06 527.07 L 406.72 524.58 L 411.31 521.96 L 415.83 519.20 L 420.28 516.31 L 424.67 513.29 L 428.97 510.14 L 433.20 506.86 L 437.35 503.46 L 441.42 499.94 L 445.40 496.29 L 449.29 492.53 L 453.09 488.65 L 456.80 484.66 L 460.42 480.56 L 463.94 476.35 L 467.36 472.03 L 470.68 467.61 L 473.90 463.09 L 477.01 458.47 L 480.02 453.75 L 482.92 448.94 L 485.70 444.04 L 488.38 439.06 L 490.94 433.99 L 493.39 428.84 L 495.72 423.61 L 497.93 418.31 L 500.03 412.94 L 502.00 407.50 L 503.85 401.99 L 505.58 396.42 L 507.18 390.80 L 508.66 385.12 L 510.02 379.39 L 511.25 373.61 L 512.35 367.79 L 513.32 361.92 L 514.16 356.02 L 514.88 350.08 L 515.46 344.12 L 515.92 338.13 L 516.25 332.11 L 516.44 326.08 L 516.51 320.03 L 516.44 313.97 L 516.25 307.90 L 515.92 301.82 L 515.46 295.74 L 514.88 289.67 L 514.16 283.60 L 513.32 277.55 L 512.35 271.50 L 511.25 265.47 L 510.02 259.47 L 508.66 253.49 L 507.18 247.53 L 505.58 241.61 L 503.85 235.72 L 502.00 229.87 L 500.03 224.07 L 497.93 218.31 L 495.72 212.60 L 493.39 206.94 L 490.94 201.34 L 488.38 195.79 L 485.70 190.31 L 482.92 184.90 L 480.02 179.55 L 477.01 174.28 L 473.90 169.09 L 470.68 163.97 L 467.36 158.93 L 463.94 153.98 L 460.42 149.12 L 456.80 144.35 L 453.09 139.67 L 449.29 135.09 L 445.40 130.61 L 441.42 126.23 L 437.35 121.95 L 433.20 117.78 L 428.97 113.72 L 424.67 109.78 L 420.28 105.95 L 415.83 102.23 L 411.31 98.63 L 406.72 95.16 L 402.06 91.81 L 397.34 88.58 L 392.57 85.49 L 387.74 82.52 L 382.85 79.68 L 377.92 76.97 L 372.94 74.40 L 367.91 71.97 L 362.85 69.67 L 357.75 67.51 L 352.61 65.49 L 347.44 63.61 L 342.24 61.88 L 337.01 60.29 L 331.77 58.84 L 326.50 57.54 L 321.22 56.38 L 315.93 55.37 L 310.62 54.51 L 305.31 53.80 L 300.00 53.23 " stroke='#fff' stroke-width='1' stroke-dasharray='6,6' opacity='0.18' fill='none'/><path d="M 300.00 546.77 L 303.07 547.55 L 306.13 548.17 L 309.20 548.65 L 312.25 548.98 L 315.30 549.16 L 318.34 549.19 L 321.37 549.07 " stroke='#fff' stroke-width='1' stroke-dasharray='6,6' opacity='0.08' fill='none'/><path d="M 324.39 548.80 L 327.39 548.37 L 330.37 547.80 L 333.34 547.08 L 336.29 546.21 L 339.21 545.20 L 342.11 544.03 L 344.99 542.72 L 347.84 541.26 L 350.66 539.66 L 353.44 537.91 L 356.20 536.02 L 358.92 533.98 L 361.61 531.81 L 364.26 529.50 L 366.87 527.04 L 369.45 524.45 L 371.98 521.73 L 374.46 518.87 L 376.90 515.88 L 379.30 512.76 L 381.65 509.52 L 383.94 506.14 L 386.19 502.64 L 388.39 499.02 L 390.53 495.28 L 392.62 491.42 L 394.65 487.45 L 396.63 483.37 L 398.54 479.17 L 400.40 474.86 L 402.20 470.45 L 403.93 465.94 L 405.61 461.33 L 407.22 456.62 L 408.76 451.82 L 410.24 446.92 L 411.65 441.94 L 413.00 436.87 L 414.28 431.72 L 415.48 426.48 L 416.62 421.18 L 417.69 415.80 L 418.69 410.35 L 419.62 404.83 L 420.47 399.25 L 421.25 393.61 L 421.96 387.91 L 422.60 382.17 L 423.16 376.37 L 423.65 370.52 L 424.06 364.64 L 424.40 358.71 L 424.66 352.75 L 424.85 346.76 L 424.96 340.74 L 425.00 334.69 L 424.96 328.62 L 424.85 322.54 L 424.66 316.44 L 424.40 310.34 L 424.06 304.22 L 423.65 298.11 L 423.16 291.99 L 422.60 285.88 L 421.96 279.78 L 421.25 273.69 L 420.47 267.62 L 419.62 261.56 L 418.69 255.53 L 417.69 249.53 L 416.62 243.55 L 415.48 237.61 L 414.28 231.71 L 413.00 225.85 L 411.65 220.04 L 410.24 214.27 L 408.76 208.55 L 407.22 202.89 L 405.61 197.29 L 403.93 191.75 L 402.20 186.27 L 400.40 180.86 L 398.54 175.53 L 396.63 170.27 L 394.65 165.08 L 392.62 159.98 L 390.53 154.97 L 388.39 150.04 L 386.19 145.20 L 383.94 140.45 L 381.65 135.80 L 379.30 131.25 L 376.90 126.80 L 374.46 122.46 L 371.98 118.22 L 369.45 114.09 L 366.87 110.07 L 364.26 106.17 L 361.61 102.39 L 358.92 98.72 L 356.20 95.18 L 353.44 91.75 L 350.66 88.46 L 347.84 85.29 L 344.99 82.25 L 342.11 79.34 L 339.21 76.57 L 336.29 73.93 L 333.34 71.42 L 330.37 69.05 L 327.39 66.83 L 324.39 64.74 L 321.37 62.79 L 318.34 60.99 L 315.30 59.33 L 312.25 57.82 L 309.20 56.45 L 306.13 55.23 L 303.07 54.16 L 300.00 53.23 " stroke='#fff' stroke-width='1' stroke-dasharray='6,6' opacity='0.18' fill='none'/><path d="M 300.00 546.77 L 300.00 547.68 L 300.00 548.44 L 300.00 549.05 L 300.00 549.51 L 300.00 549.82 L 300.00 549.98 " stroke='#fff' stroke-width='1' stroke-dasharray='6,6' opacity='0.08' fill='none'/><path d="M 300.00 549.99 L 300.00 549.84 L 300.00 549.55 L 300.00 549.11 L 300.00 548.51 L 300.00 547.77 L 300.00 546.88 L 300.00 545.84 L 300.00 544.65 L 300.00 543.31 L 300.00 541.83 L 300.00 540.20 L 300.00 538.43 L 300.00 536.51 L 300.00 534.46 L 300.00 532.25 L 300.00 529.91 L 300.00 527.44 L 300.00 524.82 L 300.00 522.07 L 300.00 519.18 L 300.00 516.17 L 300.00 513.02 L 300.00 509.74 L 300.00 506.34 L 300.00 502.82 L 300.00 499.17 L 300.00 495.40 L 300.00 491.51 L 300.00 487.51 L 300.00 483.40 L 300.00 479.17 L 300.00 474.84 L 300.00 470.40 L 300.00 465.86 L 300.00 461.22 L 300.00 456.49 L 300.00 451.65 L 300.00 446.73 L 300.00 441.72 L 300.00 436.62 L 300.00 431.44 L 300.00 426.18 L 300.00 420.85 L 300.00 415.44 L 300.00 409.97 L 300.00 404.42 L 300.00 398.82 L 300.00 393.15 L 300.00 387.43 L 300.00 381.66 L 300.00 375.83 L 300.00 369.96 L 300.00 364.05 L 300.00 358.10 L 300.00 352.12 L 300.00 346.10 L 300.00 340.06 L 300.00 333.99 L 300.00 327.90 L 300.00 321.79 L 300.00 315.68 L 300.00 309.55 L 300.00 303.41 L 300.00 297.28 L 300.00 291.14 L 300.00 285.02 L 300.00 278.90 L 300.00 272.79 L 300.00 266.70 L 300.00 260.63 L 300.00 254.58 L 300.00 248.56 L 300.00 242.57 L 300.00 236.62 L 300.00 230.70 L 300.00 224.83 L 300.00 219.00 L 300.00 213.22 L 300.00 207.49 L 300.00 201.82 L 300.00 196.21 L 300.00 190.66 L 300.00 185.17 L 300.00 179.76 L 300.00 174.41 L 300.00 169.15 L 300.00 163.96 L 300.00 158.85 L 300.00 153.83 L 300.00 148.90 L 300.00 144.06 L 300.00 139.31 L 300.00 134.66 L 300.00 130.10 L 300.00 125.65 L 300.00 121.31 L 300.00 117.07 L 300.00 112.95 L 300.00 108.93 L 300.00 105.03 L 300.00 101.25 L 300.00 97.59 L 300.00 94.05 L 300.00 90.63 L 300.00 87.34 L 300.00 84.18 L 300.00 81.15 L 300.00 78.25 L 300.00 75.48 L 300.00 72.85 L 300.00 70.36 L 300.00 68.00 L 300.00 65.79 L 300.00 63.71 L 300.00 61.78 L 300.00 59.99 L 300.00 58.34 L 300.00 56.85 L 300.00 55.49 L 300.00 54.29 L 300.00 53.23 " stroke='#fff' stroke-width='1' stroke-dasharray='6,6' opacity='0.18' fill='none'/><path d="M 300.00 546.77 L 296.93 547.55 L 293.87 548.17 L 290.80 548.65 L 287.75 548.98 L 284.70 549.16 L 281.66 549.19 L 278.63 549.07 " stroke='#fff' stroke-width='1' stroke-dasharray='6,6' opacity='0.08' fill='none'/><path d="M 275.61 548.80 L 272.61 548.37 L 269.63 547.80 L 266.66 547.08 L 263.71 546.21 L 260.79 545.20 L 257.89 544.03 L 255.01 542.72 L 252.16 541.26 L 249.34 539.66 L 246.56 537.91 L 243.80 536.02 L 241.08 533.98 L 238.39 531.81 L 235.74 529.50 L 233.13 527.04 L 230.55 524.45 L 228.02 521.73 L 225.54 518.87 L 223.10 515.88 L 220.70 512.76 L 218.35 509.52 L 216.06 506.14 L 213.81 502.64 L 211.61 499.02 L 209.47 495.28 L 207.38 491.42 L 205.35 487.45 L 203.37 483.37 L 201.46 479.17 L 199.60 474.86 L 197.80 470.45 L 196.07 465.94 L 194.39 461.33 L 192.78 456.62 L 191.24 451.82 L 189.76 446.92 L 188.35 441.94 L 187.00 436.87 L 185.72 431.72 L 184.52 426.48 L 183.38 421.18 L 182.31 415.80 L 181.31 410.35 L 180.38 404.83 L 179.53 399.25 L 178.75 393.61 L 178.04 387.91 L 177.40 382.17 L 176.84 376.37 L 176.35 370.52 L 175.94 364.64 L 175.60 358.71 L 175.34 352.75 L 175.15 346.76 L 175.04 340.74 L 175.00 334.69 L 175.04 328.62 L 175.15 322.54 L 175.34 316.44 L 175.60 310.34 L 175.94 304.22 L 176.35 298.11 L 176.84 291.99 L 177.40 285.88 L 178.04 279.78 L 178.75 273.69 L 179.53 267.62 L 180.38 261.56 L 181.31 255.53 L 182.31 249.53 L 183.38 243.55 L 184.52 237.61 L 185.72 231.71 L 187.00 225.85 L 188.35 220.04 L 189.76 214.27 L 191.24 208.55 L 192.78 202.89 L 194.39 197.29 L 196.07 191.75 L 197.80 186.27 L 199.60 180.86 L 201.46 175.53 L 203.37 170.27 L 205.35 165.08 L 207.38 159.98 L 209.47 154.97 L 211.61 150.04 L 213.81 145.20 L 216.06 140.45 L 218.35 135.80 L 220.70 131.25 L 223.10 126.80 L 225.54 122.46 L 228.02 118.22 L 230.55 114.09 L 233.13 110.07 L 235.74 106.17 L 238.39 102.39 L 241.08 98.72 L 243.80 95.18 L 246.56 91.75 L 249.34 88.46 L 252.16 85.29 L 255.01 82.25 L 257.89 79.34 L 260.79 76.57 L 263.71 73.93 L 266.66 71.42 L 269.63 69.05 L 272.61 66.83 L 275.61 64.74 L 278.63 62.79 L 281.66 60.99 L 284.70 59.33 L 287.75 57.82 L 290.80 56.45 L 293.87 55.23 L 296.93 54.16 L 300.00 53.23 " stroke='#fff' stroke-width='1' stroke-dasharray='6,6' opacity='0.18' fill='none'/><path d="M 300.00 546.77 L 294.69 547.19 L 289.38 547.46 L 284.07 547.57 L 278.78 547.54 L 273.50 547.37 L 268.23 547.04 L 262.99 546.56 L 257.76 545.94 L 252.56 545.16 L 247.39 544.24 L 242.25 543.17 L 237.15 541.96 " stroke='#fff' stroke-width='1' stroke-dasharray='6,6' opacity='0.08' fill='none'/><path d="M 232.09 540.60 L 227.06 539.09 L 222.08 537.44 L 217.15 535.65 L 212.26 533.72 L 207.43 531.64 L 202.66 529.43 L 197.94 527.07 L 193.28 524.58 L 188.69 521.96 L 184.17 519.20 L 179.72 516.31 L 175.33 513.29 L 171.03 510.14 L 166.80 506.86 L 162.65 503.46 L 158.58 499.94 L 154.60 496.29 L 150.71 492.53 L 146.91 488.65 L 143.20 484.66 L 139.58 480.56 L 136.06 476.35 L 132.64 472.03 L 129.32 467.61 L 126.10 463.09 L 122.99 458.47 L 119.98 453.75 L 117.08 448.94 L 114.30 444.04 L 111.62 439.06 L 109.06 433.99 L 106.61 428.84 L 104.28 423.61 L 102.07 418.31 L 99.97 412.94 L 98.00 407.50 L 96.15 401.99 L 94.42 396.42 L 92.82 390.80 L 91.34 385.12 L 89.98 379.39 L 88.75 373.61 L 87.65 367.79 L 86.68 361.92 L 85.84 356.02 L 85.12 350.08 L 84.54 344.12 L 84.08 338.13 L 83.75 332.11 L 83.56 326.08 L 83.49 320.03 L 83.56 313.97 L 83.75 307.90 L 84.08 301.82 L 84.54 295.74 L 85.12 289.67 L 85.84 283.60 L 86.68 277.55 L 87.65 271.50 L 88.75 265.47 L 89.98 259.47 L 91.34 253.49 L 92.82 247.53 L 94.42 241.61 L 96.15 235.72 L 98.00 229.87 L 99.97 224.07 L 102.07 218.31 L 104.28 212.60 L 106.61 206.94 L 109.06 201.34 L 111.62 195.79 L 114.30 190.31 L 117.08 184.90 L 119.98 179.55 L 122.99 174.28 L 126.10 169.09 L 129.32 163.97 L 132.64 158.93 L 136.06 153.98 L 139.58 149.12 L 143.20 144.35 L 146.91 139.67 L 150.71 135.09 L 154.60 130.61 L 158.58 126.23 L 162.65 121.95 L 166.80 117.78 L 171.03 113.72 L 175.33 109.78 L 179.72 105.95 L 184.17 102.23 L 188.69 98.63 L 193.28 95.16 L 197.94 91.81 L 202.66 88.58 L 207.43 85.49 L 212.26 82.52 L 217.15 79.68 L 222.08 76.97 L 227.06 74.40 L 232.09 71.97 L 237.15 69.67 L 242.25 67.51 L 247.39 65.49 L 252.56 63.61 L 257.76 61.88 L 262.99 60.29 L 268.23 58.84 L 273.50 57.54 L 278.78 56.38 L 284.07 55.37 L 289.38 54.51 L 294.69 53.80 L 300.00 53.23 " stroke='#fff' stroke-width='1' stroke-dasharray='6,6' opacity='0.18' fill='none'/><path d="M 300.00 546.77 L 293.86 546.70 L 287.73 546.47 L 281.61 546.10 L 275.50 545.58 L 269.40 544.91 L 263.32 544.10 L 257.26 543.14 L 251.23 542.03 L 245.22 540.77 L 239.25 539.37 L 233.32 537.83 L 227.43 536.14 L 221.58 534.32 L 215.78 532.34 L 210.03 530.23 L 204.33 527.99 L 198.69 525.60 L 193.11 523.08 L 187.60 520.42 L 182.15 517.63 L 176.78 514.71 L 171.47 511.66 L 166.25 508.48 L 161.11 505.18 L 156.05 501.76 L 151.08 498.21 L 146.19 494.54 L 141.40 490.76 L 136.71 486.86 L 132.11 482.84 L 127.61 478.72 L 123.22 474.49 L 118.94 470.16 L 114.76 465.72 L 110.70 461.18 L 106.75 456.55 L 102.91 451.82 L 99.20 447.00 L 95.60 442.09 L 92.13 437.10 L 88.79 432.02 L 85.57 426.87 L 82.48 421.63 L 79.52 416.33 L 76.69 410.95 L 74.00 405.51 L 71.45 400.00 L 69.03 394.43 L 66.75 388.81 L 64.61 383.13 L 62.62 377.41 L 60.76 371.63 L 59.06 365.82 L 57.49 359.96 L 56.07 354.07 L 54.80 348.14 L 53.68 342.19 L 52.71 336.21 L 51.88 330.21 L 51.20 324.19 L 50.68 318.15 L 50.30 312.11 L 50.08 306.06 " stroke='#fff' stroke-width='1' stroke-dasharray='6,6' opacity='0.08' fill='none'/><path d="M 50.00 300.00 L 50.08 293.94 L 50.30 287.89 L 50.68 281.85 L 51.20 275.81 L 51.88 269.79 L 52.71 263.79 L 53.68 257.81 L 54.80 251.86 L 56.07 245.93 L 57.49 240.04 L 59.06 234.18 L 60.76 228.37 L 62.62 222.59 L 64.61 216.87 L 66.75 211.19 L 69.03 205.57 L 71.45 200.00 L 74.00 194.49 L 76.69 189.05 L 79.52 183.67 L 82.48 178.37 L 85.57 173.13 L 88.79 167.98 L 92.13 162.90 L 95.60 157.91 L 99.20 153.00 L 102.91 148.18 L 106.75 143.45 L 110.70 138.82 L 114.76 134.28 L 118.94 129.84 L 123.22 125.51 L 127.61 121.28 L 132.11 117.16 L 136.71 113.14 L 141.40 109.24 L 146.19 105.46 L 151.08 101.79 L 156.05 98.24 L 161.11 94.82 L 166.25 91.52 L 171.47 88.34 L 176.78 85.29 L 182.15 82.37 L 187.60 79.58 L 193.11 76.92 L 198.69 74.40 L 204.33 72.01 L 210.03 69.77 L 215.78 67.66 L 221.58 65.68 L 227.43 63.86 L 233.32 62.17 L 239.25 60.63 L 245.22 59.23 L 251.23 57.97 L 257.26 56.86 L 263.32 55.90 L 269.40 55.09 L 275.50 54.42 L 281.61 53.90 L 287.73 53.53 L 293.86 53.30 L 300.00 53.23 " stroke='#fff' stroke-width='1' stroke-dasharray='6,6' opacity='0.18' fill='none'/><path d="M 300.00 546.77 L 294.69 546.20 L 289.38 545.49 L 284.07 544.63 L 278.78 543.62 L 273.50 542.46 L 268.23 541.16 L 262.99 539.71 L 257.76 538.12 L 252.56 536.39 L 247.39 534.51 L 242.25 532.49 L 237.15 530.33 L 232.09 528.03 L 227.06 525.60 L 222.08 523.03 L 217.15 520.32 L 212.26 517.48 L 207.43 514.51 L 202.66 511.42 L 197.94 508.19 L 193.28 504.84 L 188.69 501.37 L 184.17 497.77 L 179.72 494.05 L 175.33 490.22 L 171.03 486.28 L 166.80 482.22 L 162.65 478.05 L 158.58 473.77 L 154.60 469.39 L 150.71 464.91 L 146.91 460.33 L 143.20 455.65 L 139.58 450.88 L 136.06 446.02 L 132.64 441.07 L 129.32 436.03 L 126.10 430.91 L 122.99 425.72 L 119.98 420.45 L 117.08 415.10 L 114.30 409.69 L 111.62 404.21 L 109.06 398.66 L 106.61 393.06 L 104.28 387.40 L 102.07 381.69 L 99.97 375.93 L 98.00 370.13 L 96.15 364.28 L 94.42 358.39 L 92.82 352.47 L 91.34 346.51 L 89.98 340.53 L 88.75 334.53 L 87.65 328.50 L 86.68 322.45 L 85.84 316.40 L 85.12 310.33 L 84.54 304.26 L 84.08 298.18 L 83.75 292.10 L 83.56 286.03 L 83.49 279.97 L 83.56 273.92 L 83.75 267.89 L 84.08 261.87 L 84.54 255.88 L 85.12 249.92 L 85.84 243.98 L 86.68 238.08 L 87.65 232.21 L 88.75 226.39 L 89.98 220.61 L 91.34 214.88 L 92.82 209.20 L 94.42 203.58 L 96.15 198.01 L 98.00 192.50 L 99.97 187.06 L 102.07 181.69 L 104.28 176.39 L 106.61 171.16 L 109.06 166.01 L 111.62 160.94 L 114.30 155.96 L 117.08 151.06 L 119.98 146.25 L 122.99 141.53 L 126.10 136.91 L 129.32 132.39 L 132.64 127.97 L 136.06 123.65 L 139.58 119.44 L 143.20 115.34 L 146.91 111.35 L 150.71 107.47 L 154.60 103.71 L 158.58 100.06 L 162.65 96.54 L 166.80 93.14 L 171.03 89.86 L 175.33 86.71 L 179.72 83.69 L 184.17 80.80 L 188.69 78.04 L 193.28 75.42 L 197.94 72.93 L 202.66 70.57 L 207.43 68.36 L 212.26 66.28 L 217.15 64.35 L 222.08 62.56 L 227.06 60.91 L 232.09 59.40 " stroke='#fff' stroke-width='1' stroke-dasharray='6,6' opacity='0.08' fill='none'/><path d="M 237.15 58.04 L 242.25 56.83 L 247.39 55.76 L 252.56 54.84 L 257.76 54.06 L 262.99 53.44 L 268.23 52.96 L 273.50 52.63 L 278.78 52.46 L 284.07 52.43 L 289.38 52.54 L 294.69 52.81 L 300.00 53.23 " stroke='#fff' stroke-width='1' stroke-dasharray='6,6' opacity='0.18' fill='none'/><path d="M 300.00 546.77 L 296.93 545.84 L 293.87 544.77 L 290.80 543.55 L 287.75 542.18 L 284.70 540.67 L 281.66 539.01 L 278.63 537.21 L 275.61 535.26 L 272.61 533.17 L 269.63 530.95 L 266.66 528.58 L 263.71 526.07 L 260.79 523.43 L 257.89 520.66 L 255.01 517.75 L 252.16 514.71 L 249.34 511.54 L 246.56 508.25 L 243.80 504.82 L 241.08 501.28 L 238.39 497.61 L 235.74 493.83 L 233.13 489.93 L 230.55 485.91 L 228.02 481.78 L 225.54 477.54 L 223.10 473.20 L 220.70 468.75 L 218.35 464.20 L 216.06 459.55 L 213.81 454.80 L 211.61 449.96 L 209.47 445.03 L 207.38 440.02 L 205.35 434.92 L 203.37 429.73 L 201.46 424.47 L 199.60 419.14 L 197.80 413.73 L 196.07 408.25 L 194.39 402.71 L 192.78 397.11 L 191.24 391.45 L 189.76 385.73 L 188.35 379.96 L 187.00 374.15 L 185.72 368.29 L 184.52 362.39 L 183.38 356.45 L 182.31 350.47 L 181.31 344.47 L 180.38 338.44 L 179.53 332.38 L 178.75 326.31 L 178.04 320.22 L 177.40 314.12 L 176.84 308.01 L 176.35 301.89 L 175.94 295.78 L 175.60 289.66 L 175.34 283.56 L 175.15 277.46 L 175.04 271.38 L 175.00 265.31 L 175.04 259.26 L 175.15 253.24 L 175.34 247.25 L 175.60 241.29 L 175.94 235.36 L 176.35 229.48 L 176.84 223.63 L 177.40 217.83 L 178.04 212.09 L 178.75 206.39 L 179.53 200.75 L 180.38 195.17 L 181.31 189.65 L 182.31 184.20 L 183.38 178.82 L 184.52 173.52 L 185.72 168.28 L 187.00 163.13 L 188.35 158.06 L 189.76 153.08 L 191.24 148.18 L 192.78 143.38 L 194.39 138.67 L 196.07 134.06 L 197.80 129.55 L 199.60 125.14 L 201.46 120.83 L 203.37 116.63 L 205.35 112.55 L 207.38 108.58 L 209.47 104.72 L 211.61 100.98 L 213.81 97.36 L 216.06 93.86 L 218.35 90.48 L 220.70 87.24 L 223.10 84.12 L 225.54 81.13 L 228.02 78.27 L 230.55 75.55 L 233.13 72.96 L 235.74 70.50 L 238.39 68.19 L 241.08 66.02 L 243.80 63.98 L 246.56 62.09 L 249.34 60.34 L 252.16 58.74 L 255.01 57.28 L 257.89 55.97 L 260.79 54.80 L 263.71 53.79 L 266.66 52.92 L 269.63 52.20 L 272.61 51.63 L 275.61 51.20 " stroke='#fff' stroke-width='1' stroke-dasharray='6,6' opacity='0.08' fill='none'/><path d="M 278.63 50.93 L 281.66 50.81 L 284.70 50.84 L 287.75 51.02 L 290.80 51.35 L 293.87 51.83 L 296.93 52.45 L 300.00 53.23 " stroke='#fff' stroke-width='1' stroke-dasharray='6,6' opacity='0.18' fill='none'/><path d="M 300.00 546.77 L 300.00 545.71 L 300.00 544.51 L 300.00 543.15 L 300.00 541.66 L 300.00 540.01 L 300.00 538.22 L 300.00 536.29 L 300.00 534.21 L 300.00 532.00 L 300.00 529.64 L 300.00 527.15 L 300.00 524.52 L 300.00 521.75 L 300.00 518.85 L 300.00 515.82 L 300.00 512.66 L 300.00 509.37 L 300.00 505.95 L 300.00 502.41 L 300.00 498.75 L 300.00 494.97 L 300.00 491.07 L 300.00 487.05 L 300.00 482.93 L 300.00 478.69 L 300.00 474.35 L 300.00 469.90 L 300.00 465.34 L 300.00 460.69 L 300.00 455.94 L 300.00 451.10 L 300.00 446.17 L 300.00 441.15 L 300.00 436.04 L 300.00 430.85 L 300.00 425.59 L 300.00 420.24 L 300.00 414.83 L 300.00 409.34 L 300.00 403.79 L 300.00 398.18 L 300.00 392.51 L 300.00 386.78 L 300.00 381.00 L 300.00 375.17 L 300.00 369.30 L 300.00 363.38 L 300.00 357.43 L 300.00 351.44 L 300.00 345.42 L 300.00 339.37 L 300.00 333.30 L 300.00 327.21 L 300.00 321.10 L 300.00 314.98 L 300.00 308.86 L 300.00 302.72 L 300.00 296.59 L 300.00 290.45 L 300.00 284.32 L 300.00 278.21 L 300.00 272.10 L 300.00 266.01 L 300.00 259.94 L 300.00 253.90 L 300.00 247.88 L 300.00 241.90 L 300.00 235.95 L 300.00 230.04 L 300.00 224.17 L 300.00 218.34 L 300.00 212.57 L 300.00 206.85 L 300.00 201.18 L 300.00 195.58 L 300.00 190.03 L 300.00 184.56 L 300.00 179.15 L 300.00 173.82 L 300.00 168.56 L 300.00 163.38 L 300.00 158.28 L 300.00 153.27 L 300.00 148.35 L 300.00 143.51 L 300.00 138.78 L 300.00 134.14 L 300.00 129.60 L 300.00 125.16 L 300.00 120.83 L 300.00 116.60 L 300.00 112.49 L 300.00 108.49 L 300.00 104.60 L 300.00 100.83 L 300.00 97.18 L 300.00 93.66 L 300.00 90.26 L 300.00 86.98 L 300.00 83.83 L 300.00 80.82 L 300.00 77.93 L 300.00 75.18 L 300.00 72.56 L 300.00 70.09 L 300.00 67.75 L 300.00 65.54 L 300.00 63.49 L 300.00 61.57 L 300.00 59.80 L 300.00 58.17 L 300.00 56.69 L 300.00 55.35 L 300.00 54.16 L 300.00 53.12 L 300.00 52.23 L 300.00 51.49 L 300.00 50.89 L 300.00 50.45 L 300.00 50.16 L 300.00 50.01 " stroke='#fff' stroke-width='1' stroke-dasharray='6,6' opacity='0.08' fill='none'/><path d="M 300.00 50.02 L 300.00 50.18 L 300.00 50.49 L 300.00 50.95 L 300.00 51.56 L 300.00 52.32 L 300.00 53.23 " stroke='#fff' stroke-width='1' stroke-dasharray='6,6' opacity='0.18' fill='none'/><path d="M 300.00 546.77 L 303.07 545.84 L 306.13 544.77 L 309.20 543.55 L 312.25 542.18 L 315.30 540.67 L 318.34 539.01 L 321.37 537.21 L 324.39 535.26 L 327.39 533.17 L 330.37 530.95 L 333.34 528.58 L 336.29 526.07 L 339.21 523.43 L 342.11 520.66 L 344.99 517.75 L 347.84 514.71 L 350.66 511.54 L 353.44 508.25 L 356.20 504.82 L 358.92 501.28 L 361.61 497.61 L 364.26 493.83 L 366.87 489.93 L 369.45 485.91 L 371.98 481.78 L 374.46 477.54 L 376.90 473.20 L 379.30 468.75 L 381.65 464.20 L 383.94 459.55 L 386.19 454.80 L 388.39 449.96 L 390.53 445.03 L 392.62 440.02 L 394.65 434.92 L 396.63 429.73 L 398.54 424.47 L 400.40 419.14 L 402.20 413.73 L 403.93 408.25 L 405.61 402.71 L 407.22 397.11 L 408.76 391.45 L 410.24 385.73 L 411.65 379.96 L 413.00 374.15 L 414.28 368.29 L 415.48 362.39 L 416.62 356.45 L 417.69 350.47 L 418.69 344.47 L 419.62 338.44 L 420.47 332.38 L 421.25 326.31 L 421.96 320.22 L 422.60 314.12 L 423.16 308.01 L 423.65 301.89 L 424.06 295.78 L 424.40 289.66 L 424.66 283.56 L 424.85 277.46 L 424.96 271.38 L 425.00 265.31 L 424.96 259.26 L 424.85 253.24 L 424.66 247.25 L 424.40 241.29 L 424.06 235.36 L 423.65 229.48 L 423.16 223.63 L 422.60 217.83 L 421.96 212.09 L 421.25 206.39 L 420.47 200.75 L 419.62 195.17 L 418.69 189.65 L 417.69 184.20 L 416.62 178.82 L 415.48 173.52 L 414.28 168.28 L 413.00 163.13 L 411.65 158.06 L 410.24 153.08 L 408.76 148.18 L 407.22 143.38 L 405.61 138.67 L 403.93 134.06 L 402.20 129.55 L 400.40 125.14 L 398.54 120.83 L 396.63 116.63 L 394.65 112.55 L 392.62 108.58 L 390.53 104.72 L 388.39 100.98 L 386.19 97.36 L 383.94 93.86 L 381.65 90.48 L 379.30 87.24 L 376.90 84.12 L 374.46 81.13 L 371.98 78.27 L 369.45 75.55 L 366.87 72.96 L 364.26 70.50 L 361.61 68.19 L 358.92 66.02 L 356.20 63.98 L 353.44 62.09 L 350.66 60.34 L 347.84 58.74 L 344.99 57.28 L 342.11 55.97 L 339.21 54.80 L 336.29 53.79 L 333.34 52.92 L 330.37 52.20 L 327.39 51.63 L 324.39 51.20 " stroke='#fff' stroke-width='1' stroke-dasharray='6,6' opacity='0.08' fill='none'/><path d="M 321.37 50.93 L 318.34 50.81 L 315.30 50.84 L 312.25 51.02 L 309.20 51.35 L 306.13 51.83 L 303.07 52.45 L 300.00 53.23 " stroke='#fff' stroke-width='1' stroke-dasharray='6,6' opacity='0.18' fill='none'/><path d="M 300.00 546.77 L 305.31 546.20 L 310.62 545.49 L 315.93 544.63 L 321.22 543.62 L 326.50 542.46 L 331.77 541.16 L 337.01 539.71 L 342.24 538.12 L 347.44 536.39 L 352.61 534.51 L 357.75 532.49 L 362.85 530.33 L 367.91 528.03 L 372.94 525.60 L 377.92 523.03 L 382.85 520.32 L 387.74 517.48 L 392.57 514.51 L 397.34 511.42 L 402.06 508.19 L 406.72 504.84 L 411.31 501.37 L 415.83 497.77 L 420.28 494.05 L 424.67 490.22 L 428.97 486.28 L 433.20 482.22 L 437.35 478.05 L 441.42 473.77 L 445.40 469.39 L 449.29 464.91 L 453.09 460.33 L 456.80 455.65 L 460.42 450.88 L 463.94 446.02 L 467.36 441.07 L 470.68 436.03 L 473.90 430.91 L 477.01 425.72 L 480.02 420.45 L 482.92 415.10 L 485.70 409.69 L 488.38 404.21 L 490.94 398.66 L 493.39 393.06 L 495.72 387.40 L 497.93 381.69 L 500.03 375.93 L 502.00 370.13 L 503.85 364.28 L 505.58 358.39 L 507.18 352.47 L 508.66 346.51 L 510.02 340.53 L 511.25 334.53 L 512.35 328.50 L 513.32 322.45 L 514.16 316.40 L 514.88 310.33 L 515.46 304.26 L 515.92 298.18 L 516.25 292.10 L 516.44 286.03 L 516.51 279.97 L 516.44 273.92 L 516.25 267.89 L 515.92 261.87 L 515.46 255.88 L 514.88 249.92 L 514.16 243.98 L 513.32 238.08 L 512.35 232.21 L 511.25 226.39 L 510.02 220.61 L 508.66 214.88 L 507.18 209.20 L 505.58 203.58 L 503.85 198.01 L 502.00 192.50 L 500.03 187.06 L 497.93 181.69 L 495.72 176.39 L 493.39 171.16 L 490.94 166.01 L 488.38 160.94 L 485.70 155.96 L 482.92 151.06 L 480.02 146.25 L 477.01 141.53 L 473.90 136.91 L 470.68 132.39 L 467.36 127.97 L 463.94 123.65 L 460.42 119.44 L 456.80 115.34 L 453.09 111.35 L 449.29 107.47 L 445.40 103.71 L 441.42 100.06 L 437.35 96.54 L 433.20 93.14 L 428.97 89.86 L 424.67 86.71 L 420.28 83.69 L 415.83 80.80 L 411.31 78.04 L 406.72 75.42 L 402.06 72.93 L 397.34 70.57 L 392.57 68.36 L 387.74 66.28 L 382.85 64.35 L 377.92 62.56 L 372.94 60.91 L 367.91 59.40 " stroke='#fff' stroke-width='1' stroke-dasharray='6,6' opacity='0.08' fill='none'/><path d="M 362.85 58.04 L 357.75 56.83 L 352.61 55.76 L 347.44 54.84 L 342.24 54.06 L 337.01 53.44 L 331.77 52.96 L 326.50 52.63 L 321.22 52.46 L 315.93 52.43 L 310.62 52.54 L 305.31 52.81 L 300.00 53.23 " stroke='#fff' stroke-width='1' stroke-dasharray='6,6' opacity='0.18' fill='none'/><path class="great-circle-back" d="M 50.00 300.91 L 50.30 298.95 L 51.21 297.00 L 52.71 295.05 L 54.81 293.12 L 57.49 291.20 L 60.77 289.30 L 64.62 287.43 L 69.03 285.59 L 74.00 283.79 L 79.52 282.02 L 85.57 280.30 L 92.13 278.62 L 99.20 277.00 L 106.75 275.43 L 114.76 273.92 L 123.22 272.47 L 132.11 271.09 L 141.40 269.78 L 151.08 268.54 L 161.11 267.38 L 171.48 266.29 L 182.15 265.29 L 193.11 264.37 L 204.33 263.54 L 215.78 262.79 L 227.43 262.14 L 239.26 261.57 L 251.23 261.10 L 263.32 260.72 L 275.50 260.44 L 287.73 260.25 L 300.00 260.16 L 312.27 260.16 L 324.50 260.26 L 336.68 260.46 L 348.77 260.75 L 360.74 261.13 L 372.57 261.61 L 384.22 262.18 L 395.67 262.84 L 406.89 263.60 L 417.85 264.44 L 428.52 265.36 L 438.89 266.37 L 448.92 267.46 L 458.60 268.63 L 467.89 269.87 L 476.78 271.19 L 485.24 272.57 L 493.25 274.02 L 500.80 275.54 L 507.87 277.11 L 514.43 278.74 L 520.48 280.42 L 526.00 282.14 L 530.97 283.91 L 535.38 285.72 L 539.23 287.56 L 542.51 289.44 L 545.19 291.34 L 547.29 293.25 L 548.79 295.19 L 549.70 297.14 "/><path class="great-circle" d="M 300.00 339.84 L 287.73 339.84 L 275.50 339.74 L 263.32 339.54 L 251.23 339.25 L 239.26 338.87 L 227.43 338.39 L 215.78 337.82 L 204.33 337.16 L 193.11 336.40 L 182.15 335.56 L 171.48 334.64 L 161.11 333.63 L 151.08 332.54 L 141.40 331.37 L 132.11 330.13 L 123.22 328.81 L 114.76 327.43 L 106.75 325.98 L 99.20 324.46 L 92.13 322.89 L 85.57 321.26 L 79.52 319.58 L 74.00 317.86 L 69.03 316.09 L 64.62 314.28 L 60.77 312.44 L 57.49 310.56 L 54.81 308.66 L 52.71 306.75 L 51.21 304.81 L 50.30 302.86 M 550.00 299.09 L 549.70 301.05 L 548.79 303.00 L 547.29 304.95 L 545.19 306.88 L 542.51 308.80 L 539.23 310.70 L 535.38 312.57 L 530.97 314.41 L 526.00 316.21 L 520.48 317.98 L 514.43 319.70 L 507.87 321.38 L 500.80 323.00 L 493.25 324.57 L 485.24 326.08 L 476.78 327.53 L 467.89 328.91 L 458.60 330.22 L 448.92 331.46 L 438.89 332.62 L 428.52 333.71 L 417.85 334.71 L 406.89 335.63 L 395.67 336.46 L 384.22 337.21 L 372.57 337.86 L 360.74 338.43 L 348.77 338.90 L 336.68 339.28 L 324.50 339.56 L 312.27 339.75 L 300.00 339.84 "/><path class="arc" d="M 416.82 246.29 L 415.96 241.68 L 415.05 237.09 L 414.11 232.52 L 413.12 227.97 L 412.10 223.45 L 411.03 218.96 L 409.92 214.50 L 408.78 210.06 L 407.59 205.66 L 406.36 201.30 L 405.10 196.97 L 403.80 192.68 L 402.46 188.42 L 401.08 184.21 L 399.67 180.04 L 398.22 175.91 L 396.74 171.83 L 395.22 167.79 L 393.66 163.80 L 392.08 159.86 L 390.46 155.97 L 388.80 152.13 L 387.12 148.35 L 385.40 144.62 L 383.65 140.95 L 381.88 137.33 L 380.07 133.77 L 378.23 130.28 L 376.37 126.84 L 374.48 123.47 L 372.56 120.16 L 370.61 116.91 L 368.64 113.74 L 366.64 110.62 L 364.62 107.58 L 362.58 104.61 L 360.52 101.71 L 358.43 98.88 L 356.32 96.12 L 354.19 93.43 L 352.04 90.82 L 349.88 88.29 L 347.69 85.83 L 345.49 83.45 L 343.27 81.15 L 341.03 78.92 L 338.78 76.78 L 336.52 74.72 L 334.24 72.74 L 331.95 70.84 L 329.65 69.02 L 327.34 67.29 L 325.02 65.64 L 322.69 64.08 L 320.35 62.60 L 318.01 61.20 L 315.66 59.90 L 313.30 58.68 L 310.93 57.54 L 308.57 56.50 L 306.20 55.54 L 303.83 54.67 L 301.45 53.89 L 299.08 53.20 "/><path class="arc" d="M 202.06 173.01 L 203.16 170.02 L 204.27 167.06 L 205.39 164.12 L 206.54 161.21 L 207.71 158.33 L 208.89 155.47 L 210.09 152.65 L 211.31 149.85 L 212.54 147.08 L 213.80 144.34 L 215.07 141.63 L 216.35 138.95 L 217.66 136.31 L 218.98 133.69 L 220.31 131.11 L 221.66 128.56 L 223.03 126.05 L 224.41 123.57 L 225.80 121.12 L 227.21 118.71 L 228.64 116.33 L 230.08 113.99 L 231.53 111.69 L 232.99 109.42 L 234.47 107.19 L 235.97 105.00 L 237.47 102.85 L 238.99 100.73 L 240.51 98.66 L 242.05 96.62 L 243.60 94.62 L 245.17 92.67 L 246.74 90.75 L 248.32 88.88 L 249.92 87.04 L 251.52 85.25 L 253.13 83.50 L 254.76 81.79 L 256.39 80.13 L 258.03 78.51 L 259.67 76.93 L 261.33 75.40 L 262.99 73.90 L 264.66 72.46 L 266.34 71.06 L 268.02 69.70 L 269.71 68.39 L 271.41 67.12 L 273.11 65.90 L 274.82 64.72 L 276.53 63.60 L 278.25 62.51 L 279.97 61.48 L 281.69 60.49 L 283.42 59.54 L 285.15 58.65 L 286.89 57.80 L 288.62 57.00 L 290.36 56.25 L 292.10 55.54 L 293.85 54.88 L 295.59 54.27 L 297.33 53.71 L 299.08 53.20 "/><path class="arc" d="M 424.63 334.08 L 424.63 332.72 L 424.62 331.35 L 424.61 329.98 L 424.60 328.61 L 424.58 327.24 L 424.56 325.86 L 424.53 324.49 L 424.50 323.12 L 424.47 321.74 L 424.43 320.37 L 424.39 318.99 L 424.34 317.62 L 424.30 316.24 L 424.24 314.86 L 424.19 313.48 L 424.13 312.11 L 424.06 310.73 L 423.99 309.35 L 423.92 307.97 L 423.85 306.59 L 423.77 305.21 L 423.68 303.83 L 423.60 302.45 L 423.51 301.07 L 423.41 299.69 L 423.31 298.31 L 423.21 296.93 L 423.11 295.55 L 423.00 294.17 L 422.88 292.79 L 422.77 291.41 L 422.65 290.03 L 422.52 288.65 L 422.39 287.27 L 422.26 285.90 L 422.13 284.52 L 421.99 283.14 L 421.84 281.77 L 421.70 280.39 L 421.54 279.01 L 421.39 277.64 L 421.23 276.26 L 421.07 274.89 L 420.90 273.52 L 420.73 272.15 L 420.56 270.78 L 420.38 269.41 L 420.20 268.04 L 420.02 266.67 L 419.83 265.30 L 419.64 263.94 L 419.45 262.57 L 419.25 261.21 L 419.04 259.84 L 418.84 258.48 L 418.63 257.12 L 418.41 255.76 L 418.20 254.41 L 417.98 253.05 L 417.75 251.70 L 417.52 250.34 L 417.29 248.99 L 417.06 247.64 L 416.82 246.29 "/><path class="arc" d="M 174.34 334.90 L 174.35 332.29 L 174.38 329.69 L 174.41 327.07 L 174.47 324.46 L 174.53 321.84 L 174.61 319.22 L 174.70 316.60 L 174.81 313.97 L 174.93 311.35 L 175.07 308.72 L 175.22 306.09 L 175.38 303.46 L 175.56 300.84 L 175.75 298.21 L 175.95 295.58 L 176.17 292.95 L 176.40 290.32 L 176.65 287.70 L 176.91 285.07 L 177.18 282.45 L 177.47 279.83 L 177.77 277.21 L 178.08 274.59 L 178.41 271.98 L 178.75 269.36 L 179.10 266.76 L 179.47 264.15 L 179.85 261.55 L 180.25 258.96 L 180.66 256.37 L 181.08 253.78 L 181.51 251.20 L 181.96 248.62 L 182.42 246.06 L 182.90 243.49 L 183.38 240.93 L 183.88 238.38 L 184.40 235.84 L 184.92 233.30 L 185.46 230.77 L 186.01 228.25 L 186.58 225.74 L 187.16 223.23 L 187.75 220.74 L 188.35 218.25 L 188.96 215.77 L 189.59 213.30 L 190.23 210.84 L 190.88 208.39 L 191.54 205.95 L 192.22 203.52 L 192.91 201.10 L 193.61 198.69 L 194.32 196.30 L 195.04 193.91 L 195.78 191.54 L 196.52 189.18 L 197.28 186.83 L 198.05 184.49 L 198.83 182.17 L 199.62 179.86 L 200.43 177.56 L 201.24 175.28 L 202.06 173.01 "/><circle class="sphere" cx="300.00" cy="300.00" r="250.00"/><circle class="point-back" cx="300.92" cy="546.80" r="12.00"/><text class="label-back" x="316.92" y="534.80">Q</text><circle class="point" cx="299.08" cy="53.20" r="12.00"/><text class="label" x="315.08" y="41.20">P</text><circle class="point" cx="202.06" cy="173.01" r="12.00"/><text class="label" x="218.06" y="161.01">A</text><circle class="point" cx="416.82" cy="246.29" r="12.00"/><text class="label" x="432.82" y="234.29">B</text><circle class="point" cx="424.63" cy="334.08" r="12.00"/><text class="label" x="440.63" y="322.08">B'</text><circle class="point" cx="174.34" cy="334.90" r="12.00"/><text class="label" x="190.34" y="322.90">A'</text>
</svg>