<svg xmlns="http://www.w3.org/2000/svg" width="600" height="600" viewBox="0 0 600 600">
<style>
.sphere { fill: none; stroke: #bbb; stroke-width: 4; }
.arc { fill: none; stroke: #fbc02d; stroke-width: 4; }
.arc-back { fill: none; stroke: #fbc02d; stroke-width: 4; opacity: 0.4; }
.great-circle { fill: none; stroke: #00bcd4; stroke-width: 3; opacity: 0.9; }
.great-circle-back { fill: none; stroke: #00bcd4; stroke-width: 3; opacity: 0.4; }
.small-circle { fill: none; stroke: #e64a19; stroke-width: 3; opacity: 0.9; }
.small-circle-back { fill: none; stroke: #e64a19; stroke-width: 3; opacity: 0.4; }
.point { fill: #e53935; stroke: none; }
.point-back { fill: #e53935; stroke: none; opacity: 0.4; }
.label { fill: #fff; font-size: 28px; font-family: sans-serif; font-weight: bold; pointer-events: none; }
.label-back { fill: #fff; font-size: 28px; font-family: sans-serif; font-weight: bold; pointer-events: none; opacity: 0.4; }
.small-label { fill: #ffb74d; font-size: 18px; font-family: sans-serif; font-weight: 500; pointer-events: none; }
.small-label-back { fill: #ffb74d; font-size: 18px; font-family: sans-serif; font-weight: 500; pointer-events: none; opacity: 0.4; }
</style>
<path class="great-circle-back" d="M 445.17 499.77 L 450.92 497.27 L 456.31 494.30 L 461.32 490.85 M 134.06 113.05 L 129.83 117.41 L 126.02 122.20 L 122.62 127.42 L 119.65 133.06 L 117.12 139.10 L 115.03 145.53 L 113.38 152.33 L 112.18 159.49 L 111.44 166.98 L 111.15 174.80 L 111.31 182.91 L 111.93 191.31 L 113.00 199.97 L 114.53 208.87 L 116.49 217.99 L 118.91 227.31 L 121.75 236.81 L 125.03 246.45 L 128.73 256.23 L 132.84 266.11 L 137.35 276.07 L 142.26 286.09 L 147.54 296.14 L 153.20 306.21 L 159.20 316.25 L 165.55 326.26 L 172.22 336.21 L 179.20 346.06 L 186.47 355.81 L 194.01 365.42 L 201.80 374.88 L 209.84 384.15 L 218.09 393.22 L 226.54 402.07 L 235.16 410.67 L 243.95 419.01 L 252.86 427.06 L 261.89 434.80 L 271.01 442.21 L 280.21 449.29 L 289.45 456.00 L 298.71 462.34 L 307.98 468.29 L 317.23 473.83 L 326.43 478.96 L 335.58 483.65 L 344.64 487.90 L 353.59 491.70 L 362.41 495.03 L 371.08 497.90 L 379.58 500.29 L 387.89 502.20 L 395.98 503.61 L 403.85 504.54 L 411.46 504.98 L 418.81 504.92 L 425.87 504.37 L 432.63 503.33 L 439.06 501.79 L 445.17 499.77 "/><path class="great-circle" d="M 465.94 486.95 L 470.17 482.59 L 473.98 477.80 L 477.38 472.58 L 480.35 466.94 L 482.88 460.90 L 484.97 454.47 L 486.62 447.67 L 487.82 440.51 L 488.56 433.02 L 488.85 425.20 L 488.69 417.09 L 488.07 408.69 L 487.00 400.03 L 485.47 391.13 L 483.51 382.01 L 481.09 372.69 L 478.25 363.19 L 474.97 353.55 L 471.27 343.77 L 467.16 333.89 L 462.65 323.93 L 457.74 313.91 L 452.46 303.86 L 446.80 293.79 L 440.80 283.75 L 434.45 273.74 L 427.78 263.79 L 420.80 253.94 L 413.53 244.19 L 405.99 234.58 L 398.20 225.12 L 390.16 215.85 L 381.91 206.78 L 373.46 197.93 L 364.84 189.33 L 356.05 180.99 L 347.14 172.94 L 338.11 165.20 L 328.99 157.79 L 319.79 150.71 L 310.55 144.00 L 301.29 137.66 L 292.02 131.71 L 282.77 126.17 L 273.57 121.04 L 264.42 116.35 L 255.36 112.10 L 246.41 108.30 L 237.59 104.97 L 228.92 102.10 L 220.42 99.71 L 212.11 97.80 L 204.02 96.39 L 196.15 95.46 L 188.54 95.02 L 181.19 95.08 L 174.13 95.63 L 167.37 96.67 L 160.94 98.21 L 154.83 100.23 L 149.08 102.73 L 143.69 105.70 L 138.68 109.15 "/><path class="great-circle-back" d="M 231.09 482.18 L 222.35 485.35 L 213.80 488.08 L 205.46 490.35 L 197.35 492.17 L 189.48 493.52 L 181.88 494.41 L 174.57 494.83 L 167.55 494.77 L 160.86 494.25 L 154.50 493.27 L 148.49 491.81 L 142.85 489.90 L 137.58 487.52 L 132.71 484.70 L 128.24 481.43 M 475.82 122.28 L 479.45 126.42 L 482.65 130.97 L 485.41 135.93 L 487.73 141.29 L 489.59 147.02 L 491.00 153.13 L 491.94 159.59 L 492.42 166.39 L 492.44 173.51 L 492.00 180.94 L 491.09 188.65 L 489.72 196.63 L 487.90 204.86 L 485.62 213.32 L 482.90 221.99 L 479.73 230.84 L 476.14 239.87 L 472.11 249.03 L 467.68 258.32 L 462.84 267.71 L 457.60 277.18 L 451.99 286.70 L 446.01 296.26 L 439.68 305.82 L 433.01 315.37 L 426.03 324.89 L 418.74 334.34 L 411.16 343.71 L 403.31 352.98 L 395.22 362.11 L 386.90 371.10 L 378.36 379.92 L 369.64 388.54 L 360.75 396.95 L 351.72 405.13 L 342.56 413.05 L 333.30 420.71 L 323.95 428.07 L 314.55 435.12 L 305.12 441.84 L 295.67 448.23 L 286.23 454.26 L 276.83 459.91 L 267.48 465.19 L 258.21 470.06 L 249.04 474.52 L 239.99 478.56 L 231.09 482.18 "/><path class="great-circle" d="M 124.18 477.72 L 120.55 473.58 L 117.35 469.03 L 114.59 464.07 L 112.27 458.71 L 110.41 452.98 L 109.00 446.87 L 108.06 440.41 L 107.58 433.61 L 107.56 426.49 L 108.00 419.06 L 108.91 411.35 L 110.28 403.37 L 112.10 395.14 L 114.38 386.68 L 117.10 378.01 L 120.27 369.16 L 123.86 360.13 L 127.89 350.97 L 132.32 341.68 L 137.16 332.29 L 142.40 322.82 L 148.01 313.30 L 153.99 303.74 L 160.32 294.18 L 166.99 284.63 L 173.97 275.11 L 181.26 265.66 L 188.84 256.29 L 196.69 247.02 L 204.78 237.89 L 213.10 228.90 L 221.64 220.08 L 230.36 211.46 L 239.25 203.05 L 248.28 194.87 L 257.44 186.95 L 266.70 179.29 L 276.05 171.93 L 285.45 164.88 L 294.88 158.16 L 304.33 151.77 L 313.77 145.74 L 323.17 140.09 L 332.52 134.81 L 341.79 129.94 L 350.96 125.48 L 360.01 121.44 L 368.91 117.82 L 377.65 114.65 L 386.20 111.92 L 394.54 109.65 L 402.65 107.83 L 410.52 106.48 L 418.12 105.59 L 425.43 105.17 L 432.45 105.23 L 439.14 105.75 L 445.50 106.73 L 451.51 108.19 L 457.15 110.10 L 462.42 112.48 L 467.29 115.30 L 471.76 118.57 "/><path class="great-circle-back" d="M 50.31 294.46 L 51.18 292.72 L 52.66 291.00 L 54.73 289.30 L 57.39 287.63 L 60.64 285.98 L 64.46 284.37 L 68.85 282.80 L 73.80 281.27 L 79.29 279.79 L 85.32 278.35 L 91.86 276.97 L 98.90 275.64 L 106.43 274.37 L 114.42 273.16 L 122.86 272.02 L 131.73 270.94 L 141.00 269.93 L 150.66 269.00 L 160.68 268.14 L 171.03 267.36 L 181.69 266.65 L 192.64 266.03 L 203.84 265.49 L 215.28 265.03 L 226.92 264.66 L 238.74 264.37 L 250.70 264.17 L 262.79 264.05 L 274.96 264.02 L 287.19 264.07 L 299.46 264.22 L 311.73 264.45 L 323.96 264.76 L 336.14 265.16 L 348.24 265.64 L 360.21 266.21 L 372.04 266.86 L 383.70 267.59 L 395.16 268.39 L 406.39 269.27 L 417.36 270.23 L 428.05 271.26 L 438.43 272.35 L 448.47 273.52 L 458.16 274.75 L 467.47 276.03 L 476.37 277.38 L 484.85 278.78 L 492.89 280.23 L 500.45 281.73 L 507.54 283.27 L 514.13 284.86 L 520.20 286.48 L 525.74 288.13 L 530.73 289.81 L 535.17 291.52 L 539.05 293.24 L 542.35 294.98 L 545.06 296.74 L 547.18 298.50 L 548.71 300.27 L 549.64 302.03 L 549.97 303.79 "/><path class="great-circle" d="M 535.54 315.63 L 531.15 317.20 L 526.20 318.73 L 520.71 320.21 L 514.68 321.65 L 508.14 323.03 L 501.10 324.36 L 493.57 325.63 L 485.58 326.84 L 477.14 327.98 L 468.27 329.06 L 459.00 330.07 L 449.34 331.00 L 439.32 331.86 L 428.97 332.64 L 418.31 333.35 L 407.36 333.97 L 396.16 334.51 L 384.72 334.97 L 373.08 335.34 L 361.26 335.63 L 349.30 335.83 L 337.21 335.95 L 325.04 335.98 L 312.81 335.93 L 300.54 335.78 L 288.27 335.55 L 276.04 335.24 L 263.86 334.84 L 251.76 334.36 L 239.79 333.79 L 227.96 333.14 L 216.30 332.41 L 204.84 331.61 L 193.61 330.73 L 182.64 329.77 L 171.95 328.74 L 161.57 327.65 L 151.53 326.48 L 141.84 325.25 L 132.53 323.97 L 123.63 322.62 L 115.15 321.22 L 107.11 319.77 L 99.55 318.27 L 92.46 316.73 L 85.87 315.14 L 79.80 313.52 L 74.26 311.87 L 69.27 310.19 L 64.83 308.48 L 60.95 306.76 L 57.65 305.02 L 54.94 303.26 L 52.82 301.50 L 51.29 299.73 L 50.36 297.97 L 50.03 296.21 M 549.69 305.54 L 548.82 307.28 L 547.34 309.00 L 545.27 310.70 L 542.61 312.37 L 539.36 314.02 L 535.54 315.63 "/><path class="arc" d="M 465.17 329.41 L 461.00 329.86 L 456.74 330.29 L 452.41 330.71 L 448.01 331.12 L 443.53 331.51 L 438.99 331.89 L 434.37 332.25 L 429.69 332.59 L 424.95 332.92 L 420.15 333.23 L 415.29 333.53 L 410.37 333.81 L 405.40 334.07 L 400.38 334.32 L 395.31 334.55 L 390.19 334.76 L 385.03 334.96 L 379.83 335.14 L 374.59 335.30 L 369.31 335.44 L 364.00 335.57 L 358.66 335.68 L 353.29 335.78 L 347.89 335.85 L 342.47 335.91 L 337.03 335.95 L 331.57 335.98 L 326.10 335.98 L 320.61 335.97 L 315.12 335.94 L 309.61 335.90 L 304.10 335.83 L 298.59 335.75 L 293.08 335.65 L 287.58 335.54 L 282.08 335.40 L 276.59 335.25 L 271.10 335.09 L 265.64 334.90 L 260.19 334.70 L 254.76 334.48 L 249.35 334.25 L 243.97 334.00 L 238.61 333.73 L 233.28 333.44 L 227.99 333.14 L 222.73 332.83 L 217.51 332.49 L 212.33 332.14 L 207.19 331.78 L 202.10 331.40 L 197.05 331.01 L 192.05 330.60 L 187.11 330.17 L 182.22 329.73 L 177.39 329.28 L 172.62 328.81 L 167.91 328.33 L 163.26 327.83 L 158.68 327.32 L 154.17 326.80 L 149.73 326.26 L 145.37 325.71 L 141.07 325.15 "/><path class="arc" d="M 465.17 329.41 L 463.73 326.25 L 462.25 323.09 L 460.73 319.93 L 459.17 316.76 L 457.57 313.58 L 455.94 310.40 L 454.27 307.22 L 452.56 304.04 L 450.81 300.86 L 449.03 297.68 L 447.21 294.49 L 445.35 291.31 L 443.46 288.13 L 441.54 284.95 L 439.58 281.78 L 437.59 278.61 L 435.56 275.45 L 433.50 272.29 L 431.41 269.14 L 429.29 266.00 L 427.14 262.86 L 424.95 259.74 L 422.74 256.62 L 420.50 253.51 L 418.22 250.42 L 415.92 247.34 L 413.59 244.27 L 411.24 241.21 L 408.85 238.17 L 406.44 235.14 L 404.01 232.13 L 401.55 229.13 L 399.06 226.15 L 396.56 223.19 L 394.02 220.25 L 391.47 217.33 L 388.89 214.42 L 386.29 211.54 L 383.68 208.68 L 381.04 205.84 L 378.38 203.02 L 375.70 200.23 L 373.01 197.46 L 370.29 194.72 L 367.56 192.00 L 364.82 189.31 L 362.05 186.64 L 359.28 184.00 L 356.48 181.39 L 353.68 178.81 L 350.86 176.26 L 348.03 173.73 L 345.19 171.24 L 342.34 168.78 L 339.47 166.35 L 336.60 163.95 L 333.72 161.58 L 330.83 159.25 L 327.93 156.96 L 325.03 154.69 L 322.12 152.46 L 319.21 150.27 L 316.29 148.11 L 313.36 145.99 "/><path class="arc" d="M 313.36 145.99 L 310.24 147.96 L 307.11 149.96 L 303.98 152.00 L 300.85 154.08 L 297.72 156.20 L 294.59 158.36 L 291.46 160.55 L 288.34 162.78 L 285.21 165.05 L 282.10 167.36 L 278.98 169.70 L 275.87 172.07 L 272.77 174.48 L 269.68 176.92 L 266.59 179.39 L 263.51 181.89 L 260.44 184.43 L 257.38 187.00 L 254.34 189.59 L 251.30 192.22 L 248.28 194.87 L 245.27 197.55 L 242.28 200.26 L 239.30 203.00 L 236.34 205.76 L 233.39 208.55 L 230.46 211.36 L 227.55 214.19 L 224.66 217.05 L 221.79 219.92 L 218.94 222.82 L 216.11 225.74 L 213.31 228.68 L 210.52 231.64 L 207.76 234.62 L 205.03 237.61 L 202.32 240.62 L 199.63 243.65 L 196.98 246.69 L 194.35 249.74 L 191.74 252.81 L 189.17 255.89 L 186.63 258.99 L 184.11 262.09 L 181.63 265.20 L 179.17 268.32 L 176.75 271.45 L 174.36 274.59 L 172.01 277.74 L 169.69 280.89 L 167.40 284.05 L 165.15 287.21 L 162.93 290.37 L 160.75 293.54 L 158.61 296.70 L 156.51 299.87 L 154.44 303.04 L 152.41 306.21 L 150.42 309.37 L 148.47 312.54 L 146.56 315.70 L 144.69 318.86 L 142.86 322.01 L 141.07 325.15 "/><circle class="sphere" cx="300.00" cy="300.00" r="250.00"/><circle class="point-back" cx="463.81" cy="156.93" r="12.00"/><text class="label-back" x="479.81" y="144.93">Q</text><circle class="point" cx="313.36" cy="145.99" r="12.00"/><text class="label" x="329.36" y="133.99">A</text><circle class="point" cx="141.07" cy="325.15" r="12.00"/><text class="label" x="157.07" y="313.15">B</text><circle class="point" cx="465.17" cy="329.41" r="12.00"/><text class="label" x="481.17" y="317.41">C</text><circle class="point" cx="459.52" cy="456.62" r="12.00"/><text class="label" x="475.52" y="444.62">P</text><circle class="point" cx="303.91" cy="52.60" r="12.00"/><text class="label" x="319.91" y="40.60">R</text>
</svg>