<?xml version="1.0" encoding="UTF-8" standalone="no"?>
<svg width="600px" height="800px" version="1.1" xmlns="http://www.w3.org/2000/svg" xmlns:xlink="http://www.w3.org/1999/xlink" viewBox="0 0 480 600">
	<defs>
	</defs>
<g id="g-irudia" transform="matrix(2.0,0,0,2.0,240,250)" style="fill:none;stroke:#000000;stroke-width:0.5;stroke-linecap:butt; stroke-linejoin:miter; stroke-miterlimit:4;">
	<rect x="-119.75" y="-124.75" width="239.5" height="299.5" style="fill:#ffffff; stroke:#000000; stroke-width:0.5;" />
	<circle cx="0" cy="0" r="100" style="stroke-width:1;"/>
	<ellipse cx="0" cy="0" rx="100" ry="25" style="fill:#EEEEFF; stroke:none;" />
	<ellipse rx="100" ry="25" style="fill:#FFEEBB;  stroke:none; fill-opacity:0.5;" transform="rotate(-47)"/>
	<path id="a1arkua" style="stroke;#808080;" d="M -8,42.5 A 25,25 0,0,0 5.5,51"/>
	<path id="a2arkua" style="stroke;#000000;" d="M -10,-99.25 A 25,25 0,0,0 8.5,-97"/>
	<path id="a3arkua" style="stroke;#000000;" d="M -35.75,-86 A 25,25 0,0,0 -37,-93"/>

	<g id="tokiko_horizontea" style="stroke:#2222FF;">
		<path d="m -100,0 a 100,25 0,0,0  200,0" style="stroke-width:1;" />
		<path d="m  100,0 a 100,25 0,0,0 -200,0" style="stroke-width:2; stroke-dasharray:4 2" />
		<path d="m 0,-100 v 100 m 0,35 v 65" style="stroke-dasharray:15 2 2 2;" />
		<path d="m 0,0 v 35" style="stroke-dasharray:15 2 2 2; stroke:#999999;" />
		<path d="m -100,0 h 100 m 35,0 h 65"  style="stroke-dasharray: 2 2;" />
		<path d="m 0,0 h 35" style="stroke-dasharray:2 2; stroke:#999999;" />
		<path d="m 0,100 a 35,100 0,0,0 0,-200"/>
		<path d="m -10.8,-24.85 l 21.6,49.7" style="stroke-dasharray:2 2;" />
	</g>
	<path d="m 0,0 l 24.75,-70.8"/>
	<path d="m 0,0 l  21.79, 13.22" style="stroke-dasharray:2 2;" />
	<path d="m 0,0 l -21.79,-13.22" style="stroke-dasharray:2 2; stroke:#999999;" />
	<g id="zeru-ekuatorea" transform="rotate(-47)" style="stroke:#ff4444;">
		<path d="m -100,0 a 100,25 0,0,0  200,0" style="stroke-width:1;" />
		<path d="m  100,0 a 100,25 0,0,0 -200,0" style="stroke-dasharray:2 2;" />
		<path d="m 0,-100 v 100 m 0,35 v 65" style="stroke-dasharray:15 2 2 2; stroke-width:1;" />
		<path id="p-ordu-zirkulua" d="m 0,100 a 72,100 0,0,0 0.0,-200" />
	</g>
	<g id="ekliptika" transform="rotate(-70.433389)" style="stroke:#FFA500;">
		<path d="m -100,0 a 100,25 0,0,0  200,0" style="stroke-width:1;" />
		<path d="m  100,0 a 100,25 0,0,0 -200,0" style="stroke-dasharray:2 2;" />
	</g>
	<path style="stroke:#EE00EE; stroke-width:2.0; fill:#FFEEFF; fill-opacity:0.75;" d="m -73.1354,-68.1998    c 19.096,-20.4779 45.1354,-31.8002 73.1354,-31.8002   c 11.8  ,  0.0    19.85  , 16.0    24.75  , 29.2     c -5.0  , -4.1   -63.89  ,-33.85  -97.8854,  2.6002" />
	<g id="g-k-ekuatorialak" style="stroke:#FF0000; fill:#FF0000; stroke-width:2;">
		<path style="fill:none;" d="m 24.75,-70.8     c 18.4, 11.52  26.26, 19.215 36.50, 30.975    c  7.9,-14.7   12.45,-28.025  6.95,-33.325 M 21.8,13.2    c 18.5,-20.625 27.7 ,-32.9   39.45,-53.025" />
		<path d="m 0,0 l 7,-3 l 0,6 l -7,-3" transform="translate(24.75,-70.80)  rotate(32.0501)"  style="stroke-width:0.2;" />
		<path d="m 0,0 l 7,-3 l 0,6 l -7,-3" transform="translate(61.25,-39.285) rotate(-61.7457)" style="stroke-width:0.2;" />
		<path d="m 0,0 l 7,-3 l 0,6 l -7,-3" transform="translate(61.25,-39.285) rotate(120.2785)" style="stroke-width:0.2;" />	
	</g>
	<g id="g-k-horizontalak" style="stroke:#0000FF; stroke-width:2.0; fill:#0000FF;">
		<path d="m 24.75,-70.8 c    9.96,30.24 11.77 ,63.59 9.25,94.25    28.0,-2.8 66.0,-10.0 66.0,-23.45" style="fill:none;" />
		<path d="m 0,0 l 7,-3 l 0,6 l -7,-3" transform="translate(24.75,-70.80) rotate(71.7699)" style="stroke-width:0.2;" />
		<path d="m 0,0 l 7,-3 l 0,6 l -7,-3" transform="translate(34.00, 23.45) rotate(-5.7106)" style="stroke-width:0.2;" />
	</g>
	<g id="g-irudiko_hizkiak" style="font-size:100px; font-family:Arial, sans-serif; fill:#000000; stroke:none" transform="scale(0.1)">
		<text x="-100" y="600" transform="rotate(-50,-100,600)" style="text-anchor:middle; font-size:70px;">≃ 23°26'</text>

		<polygon id="izartxoa" fill="#FFFF00" stroke="#FFA500" stroke-width="10" transform="translate(247.5,-708) scale(0.3)" points="  0,-113  29,-27 119,-27  47,27       73, 113   0, 62 -73,113 -47,27       -119, -27 -29,-27"/>
		
		<g id="g-lurra" transform="rotate(-47)" style="stroke:#000000; stroke-width:2; fill:none; fill-opacity:0.5;">
			<circle cx="0" cy="0" r="100" style="stroke-width:5;" fill="#00FFFF" />
			<ellipse cx="0" cy="0" rx="96.5926" ry="100"/>
			<ellipse rx="86.6025" ry="100"/>
			<ellipse rx="70.7107" ry="100"/>
			<ellipse rx="50.0000" ry="100"/>
			<ellipse rx="25.8819" ry="100"/>
			<path d="m 0,-100 v 200"/>
			<path d="m -100.000  0.0    a 100.000,10.0000,0,0,0,200.0   ,0"/>
			<path d="m -96.5926 25.8819 a 96.5926,9.65926,0,0,0,193.1852,0"/>
			<path d="m -96.5926-25.8819 a 96.5926,9.65926,0,0,0,193.1852,0"/>
			<path d="m -86.6025 50.0000 a 86.6025,8.66025,0,0,0,173.2051,0"/>
			<path d="m -86.6025-50.0000 a 86.6025,8.66025,0,0,0,173.2051,0"/>
			<path d="m -70.7107 70.7107 a 70.7107,7.07107,0,0,0,141.4214,0"/>
			<path d="m -70.7107-70.7107 a 70.7107,7.07107,0,0,0,141.4214,0"/>
			<path d="m -50.0000 86.6025 a 50.0000,5.00000,0,0,0,100.0000,0"/>
			<path d="m -50.0000-86.6025 a 50.0000,5.00000,0,0,0,100.0000,0"/>
			<path d="m -25.8819 96.5926 a 25.8819,2.58819,0,0,0, 51.7638,0" stroke-width="1"/>
			<path d="m -25.8819-96.5926 a 25.8819,2.58819,0,0,0, 51.7638,0" stroke-width="1"/>
		</g>
		
		<path d="m 0,-100 v450" stroke-dasharray="100,20,20,20" stroke-width="5" stroke="#AAAAAA" transform="rotate(-47)" />
		<g style="fill:#FFFF00; stroke:#FF0000; stroke-width:5;">
		<circle transform="translate(  218, 132)" r="20" />
		<circle transform="translate( -218,-132)" r="12" />
		<circle stroke="#0000FF" transform="translate(-1000,   0)" r="20" />
		<circle stroke="#0000FF" transform="translate( -105,-250)" r="12" />
		<circle stroke="#0000FF" transform="translate( 1000,   0)" r="12" />
		<circle stroke="#0000FF" transform="translate(  105, 250)" r="12" />
		<circle fill="#FF9999" stroke="#FF0000" transform="translate(    0,   0)" r="20" />
		<circle fill="#9999FF" stroke="#0000FF" transform="translate(    0,-100)" r="20" />
		</g>
		<path d="m 0,0 l 70,-24 l 0,48 l -70,-24" transform="translate(-1000  ,0) rotate(-90)" style="fill:#000000; stroke-width:0.2;" />
		<path d="m 0,0 l 70,-24 l 0,48 l -70,-24" transform="translate(-731,-682) rotate(133)" style="fill:#000000; stroke-width:0.2;" />
		<text style="font-size:140px">
			<tspan x="-820" y="-710">P</tspan>
			<tspan x="770" y="770">P'</tspan>
			<tspan x="700" y="-750">Q</tspan>
			<tspan x="-830" y="830">Q'</tspan>
			<tspan x="-40" y="-1020">Z</tspan>
			<tspan x="-40" y="1120">Z'</tspan>
			<tspan x="70" y="-70">O</tspan>
			<tspan x="110" y="50">C</tspan>
		</text>
        <path id="taries" style="fill:#FF0000;" transform="translate(240,190) scale(0.5,0.5)" d="M 148.437,-139.062 C 155.729,-139.062 162.239,-136.458 167.969,-131.25 174.739,-125.521 178.125,-118.489 178.125,-110.156 178.125,-97.6562 170.052,-88.2812 153.906,-82.0313 152.864,-82.0312 151.823,-82.0312 150.781,-82.0313 149.219,-82.552 148.437,-83.5937 148.437,-85.1563 148.958,-86.7187 149.479,-87.7603 150,-88.2813 152.604,-89.3228 155.208,-91.4062 157.812,-94.5313 161.458,-98.6978 163.281,-102.344 163.281,-105.469 163.281,-109.114 161.979,-112.5 159.375,-115.625 156.771,-119.271 153.125,-121.094 148.437,-121.094 140.104,-121.094 133.333,-116.667 128.125,-107.813 124.479,-101.042 120.573,-88.0207 116.406,-68.75 112.76,-43.2291 108.854,-18.75 104.688,4.6875 L 96.875,4.6875 C 89.5832,-35.9375 85.1562,-60.1562 83.5938,-67.9688 79.427,-87.7603 74.9999,-101.562 70.3125,-109.375 65.6249,-116.667 59.1145,-120.312 50.7813,-120.313 46.6145,-119.792 43.2291,-118.489 40.625,-116.406 37.5,-113.281 35.9375,-109.896 35.9375,-106.25 35.9375,-97.9166 40.8854,-91.6666 50.7813,-87.5 52.3437,-86.9791 52.8645,-86.1978 52.3438,-85.1563 52.3437,-82.552 50.5208,-81.5103 46.875,-82.0313 41.1458,-82.552 35.677,-85.677 30.4688,-91.4063 25.2604,-96.6145 22.3958,-102.083 21.875,-107.813 20.8333,-116.146 23.1771,-123.437 28.9063,-129.687 35.1562,-136.458 43.4895,-139.323 53.9063,-138.281 67.4478,-136.719 77.6041,-127.344 84.375,-110.156 89.0624,-98.6978 94.2707,-71.8749 100,-29.6875 105.729,-70.8333 110.937,-97.6562 115.625,-110.156 122.396,-128.906 133.333,-138.542 148.437,-139.062 z" />
        <path id="tlibra" style="fill:#FF0000;" transform="translate(-330,-130) scale(0.5,0.5)" d="M 180.469,-62.5 180.469,-47.6563 117.969,-47.6563 117.969,-62.5 C 122.135,-68.7499 124.219,-75.5208 124.219,-82.8125 124.739,-91.6666 122.135,-98.9582 116.406,-104.688 112.239,-108.854 107.292,-110.937 101.563,-110.938 94.2707,-111.458 88.2812,-109.375 83.5938,-104.688 78.3853,-99.4791 75.7812,-92.9687 75.7813,-85.1563 76.302,-76.8228 78.6458,-69.2708 82.8125,-62.5 L 82.8125,-47.6563 20.3125,-47.6563 20.3125,-62.5 70.3125,-62.5 C 64.5833,-70.8333 61.4583,-79.427 60.9375,-88.2813 60.4166,-100.26 64.0624,-110.156 71.875,-117.969 78.6458,-124.219 86.9791,-127.864 96.875,-128.906 110.417,-129.427 121.094,-125.781 128.906,-117.969 135.677,-111.198 139.062,-102.864 139.062,-92.9688 139.583,-82.0312 136.458,-71.8749 129.687,-62.5 z M 20.3125,-26.5625 180.469,-26.5625 180.469,-11.7187 20.3125,-11.7187 z" />
		<text style="font-size:120px; fill:#FF0000;">
			<tspan x="500" y="-100">α</tspan>
			<tspan x="450" y="-580">δ</tspan>
			<tspan x="700" y="-450">τ</tspan>
			<tspan x="-900" y="-320" style="fill:#000000;">φ</tspan>
			<tspan x="650" y="150" fill="#0000FF">A</tspan>
			<tspan x="225" y="-400" fill="#0000FF">h</tspan>
		</text>
		<g style="font-style:normal;font-weight:normal;font-family:sans-serif;fill:#DD00DD;stroke:none;text-anchor:middle">
			<text style="font-size:90px" x="-280" y="-880">τ</text>
			<text style="font-size:90px" x="-10" y="-880" transform="rotate(16 -10 -880)">360°-a</text>
			<g style="text-align:start;writing-mode:lr-tb;text-anchor:start">
				<text style="font-size:70px;" x="-400" y="-950" transform="rotate(-20 -400 -950)">90°-φ</text>
				<text style="font-size:70px;" x="150"  y="-960" transform="rotate( 60  150 -960)">z=90°-h</text>
				<text style="font-size:70px;" x="-280" y="-780" transform="rotate (10 -280 -780)">p=90°-δ</text>
			</g>
		</g>


		<text id="t-pk-00" style="font-size:120px;">
			<tspan x="-1110" y="40">N</tspan>
			<tspan x="1020" y="40">S</tspan>
			<tspan x="90" y="360">W</tspan>
			<tspan x="-180" y="-280">E</tspan>
		</text>
<!--********** PLEASE keep less commonly used languages at the beginning of these lists
to ensure that people in small language communities receive the information in their own language, 
even if they have selected other international languages besides their own in their operating system preferences.
**************-->	
		<switch id="s-irudiko-testuak" style="font-size:70px;">
			<g id="g-sit-01" systemLanguage="eu">
				<text style="font-size:80px;">
					<tspan x="-1110" y="120">(I)</tspan>
					<tspan x="1020" y="120">(H)</tspan>
					<tspan x="200" y="360">(M)</tspan>
				</text> 
				<text x="-520" y="700" transform="rotate(-34  -520  700)">zeru-ekuatorea</text>
				<text x="-800" y="130" transform="rotate(  8  -800  130)">tokiko zeru-horizontea</text>
				<text x="-250" y="900" transform="rotate(-49  -250  900)">ekliptika</text>
				<text x="100" y="930" transform="rotate(-68   100  930)">azimut-zirkulua</text>
				<text x="770" y="600" transform="rotate(-78   770  600)">ordu-zirkulua</text>
				<text x="-1115" y="-50" transform="rotate(-67 -1115  -50)">tokiko zeru-meridianoa</text>
				<text x="-650" y="-650" transform="rotate( 43  -650 -650)">Lurraren ardatza</text>
				<text>
					<tspan x="-900" y="-970">Zeruko</tspan>
					<tspan x="-900" dy="60">Ipar</tspan>
					<tspan x="-900" dy="60">Poloa</tspan>
					<tspan x="850" y="800">Zeruko</tspan>
					<tspan x="850" dy="60">Hego</tspan>
					<tspan x="850" dy="60">Poloa</tspan>
					<tspan x="80" y="-1080">Zenita</tspan>
					<tspan x="80" y="1120">Nadirra</tspan>
				</text>
				<text>
					<tspan x="-1050" y="1120">♎ - Libra puntua</tspan>
					<tspan x="-1050" dy="90">♈ - Aries puntua</tspan>
					<tspan x="-350"  dy="0" font-style="italic" font-size="55px">Martxoko ekinozioan eguzkia bertan dagoela</tspan>
					<tspan x="-350"  dy="60" font-style="oblique" font-size="55">dirudien zeru-esferaren tokia.</tspan>
					<tspan x="-1050" dy="50">φ - tokiko latitudea</tspan>
					<tspan x="-1050" dy="110">δ - deklinazioa</tspan>
					<tspan x="50" dy="0">a - azimuta</tspan>
					<tspan x="-1050" dy="70">α - igoera zuzena</tspan>
					<tspan x="50" dy="0">h - altitude edo garaiera</tspan>
					<tspan x="-1050" dy="70">τ - ordu-angelua</tspan>
					<tspan x="50" dy="0">z - zenit-distantzia (angeluarra)</tspan>
					<tspan x="-1050" dy="70">p - distantzia polarra (angeluarra)</tspan>
				</text>
			</g>
			<g id="g-sit-02" systemLanguage="ca">
				<text style="font-size:80px;">
					<tspan x="200" y="360">(O)</tspan>
				</text>
				<text x="-520"  y="700"  transform="rotate(-34  -520  700)">equador celeste</text>
				<text x="-800"  y="130"  transform="rotate(  8  -800  130)">horitzó celeste local</text>
				<text x="-250"  y="900"  transform="rotate(-49  -250  900)">eclíptica</text>
				<text x="100"   y="930"  transform="rotate(-68   100  930)">cercle azimutal</text>
				<text x="770"   y="600"  transform="rotate(-78   770  600)">cercle horària</text>
				<text x="-1070" y="-104" transform="rotate(-67 -1070 -104)">meridià celeste local</text>
				<text x="-650"  y="-650" transform="rotate( 43  -650 -650)">eix de la Terra</text>
				<text>
					<tspan x="-800" y="-970">Pol</tspan>
					<tspan x="-800" dy="60">Nord</tspan>
					<tspan x="-800" dy="60">Celeste</tspan>
					<tspan x="850"   y="800">Pol</tspan>
					<tspan x="850"  dy="60">Sud</tspan>
					<tspan x="850"  dy="60">Celeste</tspan>
					<tspan x="80"    y="-1080">Zenit</tspan>
					<tspan x="80"    y="1120">Nadir</tspan>
				</text>
				<text>
					<tspan x="-1050" y="1120">♎ - Punt de Balança</tspan>
					<tspan x="-1050" dy="90">♈ - Punt d'Àries</tspan>
					<tspan x="-350" dy="0"  style="font-size:55px;font-style:italic;">Lloc de l'esfera celeste on sembla </tspan>
					<tspan x="-350" dy="60"  style="font-size:55px;font-style:oblique;">estar el sol a l'equinocci de març.</tspan>
					<tspan x="-1050" dy="50">φ - latitud local</tspan>
					<tspan x="-1050" dy="110">δ - declinació</tspan>
					<tspan x="50" dy="0">a - azimut</tspan>
					<tspan x="-1050" dy="70">α - ascensió recta</tspan>
					<tspan x="50" dy="0">h - altura</tspan>
					<tspan x="-1050" dy="70">τ - angle horari</tspan>
					<tspan x="50" dy="0">z - distància zenital (angular)</tspan>
					<tspan x="-1050" dy="70">p - distància polar (angular)</tspan>
				</text>
			</g>
			<g id="g-sit-51" systemLanguage="it">
				<text font-size="80">
					<tspan x="200" y="360">(O)</tspan>
				</text>
				<text x="-520" y="700" transform="rotate(-34  -520  700)">equatore celeste</text>
				<text x="-800" y="130" transform="rotate(  8  -800  130)">orizzonte celeste locale</text>
				<text x="-250" y="900" transform="rotate(-49  -250  900)">eclittica</text>
				<text x="100" y="930" transform="rotate(-68   100  930)">cerchio azimutale</text>
				<text x="770" y="600" transform="rotate(-78   770  600)">cerchio orario</text>
				<text x="-1110" y="-50" transform="rotate(-67 -1110  -50)">meridiano celeste locale</text>
				<text x="-650" y="-650" transform="rotate( 43  -650 -650)">asse terrestre</text>
				<text>
					<tspan x="-800" y="-970">Polo</tspan>
					<tspan x="-800" dy="60">Nord</tspan>
					<tspan x="-800" dy="60">Celeste</tspan>
					<tspan x="850" y="800">Polo</tspan>
					<tspan x="850" dy="60">Sud</tspan>
					<tspan x="850" dy="60">Celeste</tspan>
					<tspan x="80" y="-1080">Zenit</tspan>
					<tspan x="80" y="1120">Nadir</tspan>
				</text>
				<text>
					<tspan x="-1050" y="1120">♎ - Punto della Bilancia</tspan>
					<tspan x="-1050" dy="90">♈ - Punto vernale</tspan>
					<tspan x="-350" dy="0" font-style="italic" font-size="55px">Il luogo sulla sfera celeste in cui il sole </tspan>
					<tspan x="-350" dy="60" font-style="oblique" font-size="55">sembra essere all'equinozio di marzo.</tspan>
					<tspan x="-1050" dy="50">φ - latitudine locale</tspan>
					<tspan x="-1050" dy="110">δ - declinazione</tspan>
					<tspan x="50" dy="0">a - azimut</tspan>
					<tspan x="-1050" dy="70">α - ascensione retta</tspan>
					<tspan x="50" dy="0">h - altezza</tspan>
					<tspan x="-1050" dy="70">τ - angolo orario</tspan>
					<tspan x="50" dy="0">z - distanza zenitale (angolare)</tspan>
					<tspan x="-1050" dy="70">p - distanza polare (angolare)</tspan>
				</text>
			</g>
			<g id="g-sit-52" systemLanguage="de">
				<text style="font-size:80px;">
					<tspan x="-100" y="-280">(O)</tspan>
				</text>
				<text x="-520"  y="700" transform="rotate(-34  -520  700)">Himmelsäquator</text>
				<text x="-800"  y="130" transform="rotate(  8  -800  130)">Horizont</text>
				<text x="-250"  y="900" transform="rotate(-49  -250  900)">Ekliptik</text>
				<text x="100"   y="930" transform="rotate(-68   100  930)">Azimutkreis</text>
				<text x="770"   y="600" transform="rotate(-78   770  600)">Stundenkreis</text>
				<text x="-1050" y="-200" transform="rotate(-70 -1050  -200)">Meridian</text>
				<text x="-575" y="-575" transform="rotate( 43  -575 -575)">Erdachse</text>
				<text>
					<tspan x="-950" y="-900">Himmels-</tspan>
					<tspan x="-950" y="-830">nordpol</tspan>
					<tspan x="750"  y="870">Himmels-</tspan>
					<tspan x="750"  y="940">südpol</tspan>
					<tspan x="80" y="-1080">Zenit</tspan>
					<tspan x="80" y="1120">Nadir</tspan>
				</text>
				<text style="font-family:sans-serif;">
					<tspan x="-1050" y="1120">♎ - Herbstpunkt</tspan>
					<tspan x="-1050" dy="90">♈ - Frühlingspunkt</tspan>
					<tspan x="-300" dy="0" font-style="italic" font-size="55px">Die Stelle auf der Himmelskugel, an der sich die Sonne</tspan>
					<tspan x="-300" dy="60" font-style="oblique" font-size="55">zur Tagundnachtgleiche im März zu befinden scheint.</tspan>
					<tspan x="-1050" dy="50">φ - lokale Breite</tspan>
					<tspan x="-1050" dy="110">δ - Deklination</tspan>
					<tspan x="50" dy="0">a - Azimut</tspan>
					<tspan x="-1050" dy="70">α - Rektaszension</tspan>
					<tspan x="50" dy="0">h - Vertikalwinkel</tspan>
					<tspan x="-1050" dy="70">τ - Stundenwinkel</tspan>
					<tspan x="50" dy="0">z - Zenitwinkel</tspan>
					<tspan x="-1050" dy="70">p - </tspan>
				</text>
			</g>
			<g id="g-sit-00">
				<text x="-520" y="700" transform="rotate(-34  -520  700)">celestial equator</text>
				<text x="-800" y="130" transform="rotate(  8  -800  130)">local celestial horizon</text>
				<text x="-250" y="900" transform="rotate(-49  -250  900)">ecliptic</text>
				<text x="100" y="930" transform="rotate(-68   100  930)">azimuth circle</text>
				<text x="770" y="600" transform="rotate(-78   770  600)">hour circle</text>
				<text x="-1093" y="-49" transform="rotate(-67 -1093  -49)">local celestial meridian</text>
				<text x="-575" y="-575" transform="rotate( 43  -575 -575)">Earth axis</text>
				<text>
					<tspan x="-800" y="-970">North</tspan>
					<tspan x="-800" dy="60">Celestial</tspan>
					<tspan x="-800" dy="60">Pole</tspan>
					<tspan x="850" y="800">South</tspan>
					<tspan x="850" dy="60">Celestial</tspan>
					<tspan x="850" dy="60">Pole</tspan>
					<tspan x="80" y="-1080">Zenith</tspan>
					<tspan x="80" y="1120">Nadir</tspan>
				</text>
				<text>
					<tspan x="-1050" y="1120">♎ - First point of Libra</tspan>
					<tspan x="-1050" dy="90">♈ - First point of Aries</tspan>
					<tspan x="-250" dy="0" font-style="italic" font-size="55px">The place on the celestial sphere where</tspan>
					<tspan x="-250" dy="60" font-style="oblique" font-size="55">the Sun seems to be at the March equinox.</tspan>
					<tspan x="-1050" dy="50">φ - local latitude</tspan>
					<tspan x="-1050" dy="110">δ - declination</tspan>
					<tspan x="50" dy="0">A - azimuth</tspan>
					<tspan x="-1050" dy="70">α - right ascension</tspan>
					<tspan x="50" dy="0">h - altitude or elevation</tspan>
					<tspan x="-1050" dy="70">τ - hour angle</tspan>
					<tspan x="50" dy="0">z - zenith distance (angular)</tspan>
					<tspan x="-1050" dy="70">p - polar distance (angular)</tspan>
				</text>
			</g>
		</switch>
	</g>
	<!--If you are modifying this file just to translate it into another language
	or to slightly change it, please, keep the following mention. 
	This contribution to the community is on his behalf.
	Beste hizkuntza batera itzultzeko edo aldaketa txiki batzuk egiteko bakarrik
	ari bazara fitxategia aldatzen, manten ezazu hurrengo aipamena, mesedez.
	Komunitatearentzako ekarpen hau haren izenean egina dago.-->
	<text><tspan font-size="2px" stroke="#999999" stroke-width="0.1" fill="none" x="-70" y="174" xml:space="preserve">
	Felix Oleaga Larrazabal,     Busturia 1904-06-21, Algorta 1977-02-04,     Busturia.       
	Miren Olabarria Torrontegi   Algorta 1921-03-14,  Algorta 2011-05-06,     Busturia</tspan></text>	
</g>
</svg>
