<?xml version="1.0" encoding="UTF-8" standalone="no"?>
<!-- Created with Inkscape (http://www.inkscape.org/) -->

<svg
   width="150mm"
   height="150mm"
   viewBox="0 0 150 150"
   version="1.1"
   id="svg1"
   xml:space="preserve"
   sodipodi:docname="horizon.svg"
   inkscape:export-filename="horizon.svg"
   inkscape:export-xdpi="96"
   inkscape:export-ydpi="96"
   inkscape:version="1.4.2 (ebf0e940d0, 2025-05-08)"
   xmlns:inkscape="http://www.inkscape.org/namespaces/inkscape"
   xmlns:sodipodi="http://sodipodi.sourceforge.net/DTD/sodipodi-0.dtd"
   xmlns="http://www.w3.org/2000/svg"
   xmlns:svg="http://www.w3.org/2000/svg"><sodipodi:namedview
     id="namedview1"
     pagecolor="#ffffff"
     bordercolor="#EAEAEA"
     borderopacity="0.25"
     inkscape:showpageshadow="2"
     inkscape:pageopacity="0.0"
     inkscape:pagecheckerboard="0"
     inkscape:deskcolor="#d1d1d1"
     inkscape:document-units="mm"
     showgrid="false"
     inkscape:zoom="1.2899428"
     inkscape:cx="174.42634"
     inkscape:cy="304.66467"
     inkscape:window-width="1920"
     inkscape:window-height="1011"
     inkscape:window-x="0"
     inkscape:window-y="0"
     inkscape:window-maximized="1"
     inkscape:current-layer="g1" /><defs
     id="defs1"><marker
       style="fill:#fff;stroke:#fff;overflow:visible"
       id="marker17"
       refX="0"
       refY="0"
       orient="auto-start-reverse"
       markerWidth="1"
       markerHeight="1"
       viewBox="0 0 1 1"
       preserveAspectRatio="xMidYMid"><path
         transform="scale(0.5)"
         style="fill:#EAEAEA;fill-rule:evenodd;stroke:#EAEAEA;stroke-width:1pt"
         d="M 5.77,0 -2.88,5 V -5 Z"
         id="path17" /></marker><marker
       style="fill:#fff;stroke:#fff;overflow:visible"
       id="Triangle"
       refX="0"
       refY="0"
       orient="auto-start-reverse"
       markerWidth="1"
       markerHeight="1"
       viewBox="0 0 1 1"
       preserveAspectRatio="xMidYMid"><path
         transform="scale(0.5)"
         style="fill:#EAEAEA;fill-rule:evenodd;stroke:#EAEAEA;stroke-width:1pt"
         d="M 5.77,0 -2.88,5 V -5 Z"
         id="path135" /></marker></defs><g
     id="layer1"
     transform="translate(-37.160475,-48.086461)"><path
       style="fill:none;stroke:#EAEAEA;stroke-width:0.268704;stroke-opacity:1"
       id="path1"
       d="M 70.383147,192.41325 A 38.49173,38.797958 0 0 1 46.79804,149.06011 38.49173,38.797958 0 0 1 84.608728,117.56165 38.49173,38.797958 0 0 1 122.40911,149.07267 38.49173,38.797958 0 0 1 98.809822,192.41798" /><path
       style="fill:none;stroke:#EAEAEA;stroke-width:0.264583;stroke-opacity:1"
       d="m 84.83347,117.37323 89.00454,0.25001"
       id="path2" /><path
       style="fill:none;stroke:#EAEAEA;stroke-width:0.264;stroke-opacity:1"
       d="M 84.620095,102.35683 159.98813,175.7364"
       id="path4" /><path
       style="fill:none;stroke:#EAEAEA;stroke-width:0.266065;stroke-opacity:1"
       d="M 84.646303,117.40385 165.07879,73.319908"
       id="path5" /><path
       style="fill:none;stroke:#EAEAEA;stroke-width:0.267771;stroke-opacity:1"
       d="M 84.636095,102.32719 165.09485,73.294591"
       id="path6" /><path
       style="fill:none;stroke:#EAEAEA;stroke-width:0.147;stroke-dasharray:none;stroke-opacity:1;marker-end:url(#marker17)"
       d="m 70.201225,112.44557 30.439635,0.002"
       id="path7" /><path
       style="fill:none;stroke:#EAEAEA;stroke-width:0.1522;stroke-dasharray:none;stroke-opacity:1;marker-end:url(#Triangle)"
       d="m 79.009185,93.464439 10.541624,9.471571"
       id="path8" /><path
       style="fill:none;stroke:#EAEAEA;stroke-width:0.303423;stroke-dasharray:none;stroke-opacity:1"
       id="path10"
       d="m 84.535732,144.05812 a 17.451872,24.526943 0 0 1 8.665745,3.27369" /><path
       style="fill:none;stroke:#EAEAEA;stroke-width:0.356;stroke-dasharray:none;stroke-opacity:1"
       id="path11"
       d="M 94.875857,98.549166 A 17.742793,14.411511 1.5502851e-5 0 1 91.160261,108.80625" /><text
       xml:space="preserve"
       style="font-style:normal;font-variant:normal;font-weight:normal;font-stretch:normal;font-size:4.93889px;font-family:'Jost*';-inkscape-font-specification:'Jost*, Normal';font-variant-ligatures:normal;font-variant-caps:normal;font-variant-numeric:normal;font-variant-east-asian:normal;text-align:start;writing-mode:lr-tb;direction:ltr;text-anchor:start;fill:#EAEAEA;fill-opacity:1;stroke:none;stroke-width:0.264999;stroke-dasharray:none;stroke-opacity:1"
       x="131.65218"
       y="115.74001"
       id="text11"><tspan
         id="tspan11"
         style="font-style:normal;font-variant:normal;font-weight:normal;font-stretch:normal;font-size:4.93889px;font-family:'Jost*';-inkscape-font-specification:'Jost*, Normal';font-variant-ligatures:normal;font-variant-caps:normal;font-variant-numeric:normal;font-variant-east-asian:normal;fill:#EAEAEA;fill-opacity:1;stroke:none;stroke-width:0.265"
         x="131.65218"
         y="115.74001">True Horizon</tspan></text><text
       xml:space="preserve"
       style="font-style:normal;font-variant:normal;font-weight:normal;font-stretch:normal;font-size:4.9389px;font-family:'Jost*';-inkscape-font-specification:'Jost*, Normal';font-variant-ligatures:normal;font-variant-caps:normal;font-variant-numeric:normal;font-variant-east-asian:normal;text-align:start;writing-mode:lr-tb;direction:ltr;text-anchor:start;fill:#EAEAEA;fill-opacity:1;stroke:none;stroke-width:0.264999;stroke-dasharray:none;stroke-opacity:1"
       x="22.555115"
       y="116.01578"
       id="text12"
       transform="rotate(-23.190384)"><tspan
         id="tspan12"
         style="stroke-width:0.265"
         x="22.555115"
         y="116.01578">Observed Altitude</tspan></text><text
       xml:space="preserve"
       style="font-style:normal;font-variant:normal;font-weight:normal;font-stretch:normal;font-size:4.9389px;font-family:'Jost*';-inkscape-font-specification:'Jost*, Normal';font-variant-ligatures:normal;font-variant-caps:normal;font-variant-numeric:normal;font-variant-east-asian:normal;text-align:start;writing-mode:lr-tb;direction:ltr;text-anchor:start;fill:#EAEAEA;fill-opacity:1;stroke:none;stroke-width:0.264999;stroke-dasharray:none;stroke-opacity:1"
       x="42.912548"
       y="113.67879"
       id="text13"><tspan
         id="tspan13"
         style="stroke-width:0.265"
         x="42.912548"
         y="113.67879">True Altitude</tspan></text><text
       xml:space="preserve"
       style="font-style:normal;font-variant:normal;font-weight:normal;font-stretch:normal;font-size:4.9389px;font-family:'Jost*';-inkscape-font-specification:'Jost*, Normal';font-variant-ligatures:normal;font-variant-caps:normal;font-variant-numeric:normal;font-variant-east-asian:normal;text-align:start;writing-mode:lr-tb;direction:ltr;text-anchor:start;fill:#EAEAEA;fill-opacity:1;stroke:none;stroke-width:0.264999;stroke-dasharray:none;stroke-opacity:1"
       x="192.17918"
       y="11.78507"
       id="text14"
       transform="rotate(44.415689)"><tspan
         id="tspan14"
         style="stroke-width:0.265"
         x="192.17918"
         y="11.78507">Visible Horizon</tspan></text><text
       xml:space="preserve"
       style="font-style:normal;font-variant:normal;font-weight:normal;font-stretch:normal;font-size:4.9389px;font-family:'Jost*';-inkscape-font-specification:'Jost*, Normal';font-variant-ligatures:normal;font-variant-caps:normal;font-variant-numeric:normal;font-variant-east-asian:normal;text-align:start;writing-mode:lr-tb;direction:ltr;text-anchor:start;fill:#EAEAEA;fill-opacity:1;stroke:none;stroke-width:0.264999;stroke-dasharray:none;stroke-opacity:1"
       x="80.772148"
       y="104.16123"
       id="text15"><tspan
         id="tspan15"
         style="stroke-width:0.265"
         x="80.772148"
         y="104.16123">E</tspan></text><text
       xml:space="preserve"
       style="font-style:normal;font-variant:normal;font-weight:normal;font-stretch:normal;font-size:4.9389px;font-family:'Jost*';-inkscape-font-specification:'Jost*, Normal';font-variant-ligatures:normal;font-variant-caps:normal;font-variant-numeric:normal;font-variant-east-asian:normal;text-align:start;writing-mode:lr-tb;direction:ltr;text-anchor:start;fill:#EAEAEA;fill-opacity:1;stroke:none;stroke-width:0.264999;stroke-dasharray:none;stroke-opacity:1"
       x="82.80365"
       y="161.48875"
       id="text16"><tspan
         id="tspan16"
         style="stroke-width:0.265"
         x="82.80365"
         y="161.48875">O</tspan></text><circle
       style="fill:#EAEAEA;fill-opacity:1;stroke:none;stroke-width:0.0974148;stroke-dasharray:none;stroke-opacity:1"
       id="path16"
       cx="84.649178"
       cy="102.32921"
       r="0.44840661" /><circle
       style="fill:#EAEAEA;fill-opacity:1;stroke:none;stroke-width:0.0974148;stroke-dasharray:none;stroke-opacity:1"
       id="circle16"
       cx="84.582825"
       cy="117.41355"
       r="0.44840661" /><circle
       style="fill:#EAEAEA;fill-opacity:1;stroke:none;stroke-width:0.0974148;stroke-dasharray:none;stroke-opacity:1"
       id="circle17"
       cx="111.21236"
       cy="128.20052"
       r="0.44840661" /><circle
       style="fill:#EAEAEA;fill-opacity:1;stroke:none;stroke-width:0.0974148;stroke-dasharray:none;stroke-opacity:1"
       id="circle19"
       cx="84.627487"
       cy="156.30948"
       r="0.44840661" /><path
       style="fill:none;fill-opacity:1;stroke:#EAEAEA;stroke-width:0.267;stroke-dasharray:none;stroke-opacity:1"
       d="m 84.618404,156.28884 -0.0058,-38.69228"
       id="path19" /><path
       style="fill:none;fill-opacity:1;stroke:#EAEAEA;stroke-width:0.267;stroke-dasharray:none;stroke-opacity:1"
       d="m 84.577478,117.40947 0.03508,-12.74541 c 0.04677,-2.44969 0.04677,-2.44969 0.04677,-2.44969"
       id="path20" /><path
       style="fill:none;fill-opacity:1;stroke:#EAEAEA;stroke-width:0.267189;stroke-dasharray:none;stroke-opacity:1"
       d="M 84.538459,156.30634 111.15633,128.31911"
       id="path21" /><path
       style="fill:none;stroke:#EAEAEA;stroke-width:0.35583;stroke-dasharray:none;stroke-opacity:1"
       id="path22"
       d="m 113.82042,117.36367 a 24.262621,24.262621 0 0 1 -4.04619,9.42929" /><g
       transform="translate(89.277471,138.61247)"
       id="g25"><g
   fill="#EAEAEA"
   fill-opacity="1"
   id="g2"
   transform="matrix(0.352778,0,0,0.352778,-81.9773,-4.01673)">
    <g
   id="use1"
   transform="translate(231.689,23.511)">
      <path
   d="M 7.625,-8.65625 C 7.625,-10.421875 7.078125,-12.125 5.671875,-12.125 3.25,-12.125 0.6875,-7.078125 0.6875,-3.28125 0.6875,-2.5 0.859375,0.171875 2.671875,0.171875 5.015625,0.171875 7.625,-4.75 7.625,-8.65625 Z m -5.21875,2.421875 c 0.265625,-1.015625 0.625,-2.46875 1.3125,-3.6875 0.5625,-1.03125 1.171875,-1.859375 1.921875,-1.859375 0.578125,0 0.953125,0.484375 0.953125,2.140625 0,0.625 -0.046875,1.484375 -0.546875,3.40625 z M 5.921875,-5.71875 C 5.5,-4.03125 5.125,-2.9375 4.515625,-1.859375 c -0.5,0.875 -1.109375,1.6875 -1.828125,1.6875 -0.53125,0 -0.96875,-0.40625 -0.96875,-2.125 0,-1.109375 0.28125,-2.28125 0.546875,-3.421875 z m 0,0"
   id="path2-1" />
    </g>
  </g>
</g><g
       transform="translate(113.8395,121.89876)"
       id="g28"><g
   fill="#EAEAEA"
   fill-opacity="1"
   id="g27"
   transform="matrix(0.352778,0,0,0.352778,-81.9773,-4.01673)">
    <g
   id="g26"
   transform="translate(231.689,23.511)">
      <path
   d="M 7.625,-8.65625 C 7.625,-10.421875 7.078125,-12.125 5.671875,-12.125 3.25,-12.125 0.6875,-7.078125 0.6875,-3.28125 0.6875,-2.5 0.859375,0.171875 2.671875,0.171875 5.015625,0.171875 7.625,-4.75 7.625,-8.65625 Z m -5.21875,2.421875 c 0.265625,-1.015625 0.625,-2.46875 1.3125,-3.6875 0.5625,-1.03125 1.171875,-1.859375 1.921875,-1.859375 0.578125,0 0.953125,0.484375 0.953125,2.140625 0,0.625 -0.046875,1.484375 -0.546875,3.40625 z M 5.921875,-5.71875 C 5.5,-4.03125 5.125,-2.9375 4.515625,-1.859375 c -0.5,0.875 -1.109375,1.6875 -1.828125,1.6875 -0.53125,0 -0.96875,-0.40625 -0.96875,-2.125 0,-1.109375 0.28125,-2.28125 0.546875,-3.421875 z m 0,0"
   id="path25" />
    </g>
  </g>
</g><text
       xml:space="preserve"
       style="font-style:normal;font-variant:normal;font-weight:normal;font-stretch:normal;font-size:4.9389px;font-family:'Jost*';-inkscape-font-specification:'Jost*, Normal';font-variant-ligatures:normal;font-variant-caps:normal;font-variant-numeric:normal;font-variant-east-asian:normal;text-align:start;writing-mode:lr-tb;direction:ltr;text-anchor:start;fill:#EAEAEA;fill-opacity:1;stroke:none;stroke-width:0.264999;stroke-dasharray:none;stroke-opacity:1"
       x="109.86444"
       y="134.09543"
       id="text28"><tspan
         id="tspan28"
         style="stroke-width:0.265"
         x="109.86444"
         y="134.09543">B</tspan></text><path
       style="fill:none;stroke:#EAEAEA;stroke-width:0.356;stroke-dasharray:none;stroke-opacity:1"
       id="path28"
       d="m 102.12773,107.86178 a 17.742793,14.411511 1.5502851e-5 0 1 2.91663,9.47001" /><text
       xml:space="preserve"
       style="font-style:normal;font-variant:normal;font-weight:normal;font-stretch:normal;font-size:4.9389px;font-family:'Jost*';-inkscape-font-specification:'Jost*, Normal';font-variant-ligatures:normal;font-variant-caps:normal;font-variant-numeric:normal;font-variant-east-asian:normal;text-align:start;writing-mode:lr-tb;direction:ltr;text-anchor:start;fill:#EAEAEA;fill-opacity:1;stroke:none;stroke-width:0.264999;stroke-dasharray:none;stroke-opacity:1"
       x="79.797958"
       y="116.96475"
       id="text29"><tspan
         id="tspan29"
         style="stroke-width:0.265"
         x="79.797958"
         y="116.96475">A</tspan></text><g
       id="g1"
       transform="matrix(0.26458333,0,0,0.26458333,127.3742,47.876118)"><path
         d="m 137.62735,79.544236 -2.45117,13.943562 -6.83137,-5.460421 5.30123,7.237782 -14.58357,2.456847 14.58357,2.456844 -5.30123,7.23778 6.83137,-5.46042 2.45117,13.94356 2.45116,-13.94356 6.83137,5.46042 -5.30123,-7.23778 14.58358,-2.456844 -14.58358,-2.456847 5.30123,-7.237782 -6.83137,5.460421 z"
         id="path1-3"
         style="stroke-width:0.61228347;stroke-dasharray:none;fill:#eaeaea;fill-opacity:1" /></g></g></svg>
