<?xml version="1.0" encoding="UTF-8" standalone="no"?>
<!-- Created with Inkscape (http://www.inkscape.org/) -->

<svg
   width="130.87643mm"
   height="121.83058mm"
   viewBox="0 0 130.87643 121.83058"
   version="1.1"
   id="svg1"
   xml:space="preserve"
   xmlns="http://www.w3.org/2000/svg"
   xmlns:svg="http://www.w3.org/2000/svg"><defs
     id="defs1"><marker
       style="overflow:visible"
       id="marker17"
       refX="0"
       refY="0"
       orient="auto-start-reverse"
       markerWidth="1"
       markerHeight="1"
       viewBox="0 0 1 1"
       preserveAspectRatio="xMidYMid"><path
         transform="scale(0.5)"
         style="fill:context-stroke;fill-rule:evenodd;stroke:context-stroke;stroke-width:1pt"
         d="M 5.77,0 -2.88,5 V -5 Z"
         id="path17" /></marker><marker
       style="overflow:visible"
       id="Triangle"
       refX="0"
       refY="0"
       orient="auto-start-reverse"
       markerWidth="1"
       markerHeight="1"
       viewBox="0 0 1 1"
       preserveAspectRatio="xMidYMid"><path
         transform="scale(0.5)"
         style="fill:context-stroke;fill-rule:evenodd;stroke:context-stroke;stroke-width:1pt"
         d="M 5.77,0 -2.88,5 V -5 Z"
         id="path135" /></marker></defs><g
     id="layer1"
     transform="translate(-37.160475,-48.086461)"><path
       style="fill:none;stroke:#EAEAEA;stroke-width:0.268704;stroke-opacity:1"
       id="path1"
       d="M 64.581691,169.78757 A 38.49173,38.797958 0 0 1 40.996584,126.43443 38.49173,38.797958 0 0 1 78.807272,94.935975 38.49173,38.797958 0 0 1 116.60765,126.44699 38.49173,38.797958 0 0 1 93.008366,169.7923" /><path
       style="fill:none;stroke:#EAEAEA;stroke-width:0.264583;stroke-opacity:1"
       d="M 79.032014,94.747547 168.03655,94.99756"
       id="path2" /><path
       style="fill:none;stroke:#EAEAEA;stroke-width:0.264;stroke-opacity:1"
       d="M 78.818639,79.731148 154.18667,153.11072"
       id="path4" /><path
       style="fill:none;stroke:#EAEAEA;stroke-width:0.266065;stroke-opacity:1"
       d="M 78.844847,94.778168 159.27733,50.694229"
       id="path5" /><path
       style="fill:none;stroke:#EAEAEA;stroke-width:0.267771;stroke-opacity:1"
       d="M 78.834639,79.701507 159.29339,50.668912"
       id="path6" /><path
       style="fill:none;stroke:#EAEAEA;stroke-width:0.147;stroke-dasharray:none;stroke-opacity:1;marker-end:url(#marker17)"
       d="m 64.399769,89.819891 30.439639,0.0017"
       id="path7" /><path
       style="fill:none;stroke:#EAEAEA;stroke-width:0.1522;stroke-dasharray:none;stroke-opacity:1;marker-end:url(#Triangle)"
       d="m 73.207729,70.83876 10.541624,9.471575"
       id="path8" /><path
       style="fill:none;stroke:#EAEAEA;stroke-width:0.303423;stroke-dasharray:none;stroke-opacity:1"
       id="path10"
       d="m 78.734276,121.43244 a 17.451872,24.526943 0 0 1 8.665745,3.27369" /><path
       style="fill:none;stroke:#EAEAEA;stroke-width:0.359713;stroke-dasharray:none;stroke-opacity:1"
       id="path11"
       d="M 115.09942,-8.246613 A 15.85397,16.466633 0 0 1 121.6649,1.889594"
       transform="matrix(0.71447011,0.69966596,-0.82934721,0.55873358,0,0)" /><text
       xml:space="preserve"
       style="font-style:normal;font-variant:normal;font-weight:normal;font-stretch:normal;font-size:4.93889px;font-family:'Jost*';-inkscape-font-specification:'Jost*, Normal';font-variant-ligatures:normal;font-variant-caps:normal;font-variant-numeric:normal;font-variant-east-asian:normal;text-align:start;writing-mode:lr-tb;direction:ltr;text-anchor:start;fill:#EAEAEA;fill-opacity:1;stroke:none;stroke-width:0.264999;stroke-dasharray:none;stroke-opacity:1"
       x="125.85072"
       y="93.114334"
       id="text11"><tspan
         id="tspan11"
         style="font-style:normal;font-variant:normal;font-weight:normal;font-stretch:normal;font-size:4.93889px;font-family:'Jost*';-inkscape-font-specification:'Jost*, Normal';font-variant-ligatures:normal;font-variant-caps:normal;font-variant-numeric:normal;font-variant-east-asian:normal;fill:#EAEAEA;fill-opacity:1;stroke:none;stroke-width:0.265"
         x="125.85072"
         y="93.114334">True Horizon</tspan></text><text
       xml:space="preserve"
       style="font-style:normal;font-variant:normal;font-weight:normal;font-stretch:normal;font-size:4.9389px;font-family:'Jost*';-inkscape-font-specification:'Jost*, Normal';font-variant-ligatures:normal;font-variant-caps:normal;font-variant-numeric:normal;font-variant-east-asian:normal;text-align:start;writing-mode:lr-tb;direction:ltr;text-anchor:start;fill:#EAEAEA;fill-opacity:1;stroke:none;stroke-width:0.264999;stroke-dasharray:none;stroke-opacity:1"
       x="26.13212"
       y="92.933678"
       id="text12"
       transform="rotate(-23.190384)"><tspan
         id="tspan12"
         style="stroke-width:0.265"
         x="26.13212"
         y="92.933678">Observed Altitude</tspan></text><text
       xml:space="preserve"
       style="font-style:normal;font-variant:normal;font-weight:normal;font-stretch:normal;font-size:4.9389px;font-family:'Jost*';-inkscape-font-specification:'Jost*, Normal';font-variant-ligatures:normal;font-variant-caps:normal;font-variant-numeric:normal;font-variant-east-asian:normal;text-align:start;writing-mode:lr-tb;direction:ltr;text-anchor:start;fill:#EAEAEA;fill-opacity:1;stroke:none;stroke-width:0.264999;stroke-dasharray:none;stroke-opacity:1"
       x="37.111092"
       y="91.053116"
       id="text13"><tspan
         id="tspan13"
         style="stroke-width:0.265"
         x="37.111092"
         y="91.053116">True Altitude</tspan></text><text
       xml:space="preserve"
       style="font-style:normal;font-variant:normal;font-weight:normal;font-stretch:normal;font-size:4.9389px;font-family:'Jost*';-inkscape-font-specification:'Jost*, Normal';font-variant-ligatures:normal;font-variant-caps:normal;font-variant-numeric:normal;font-variant-east-asian:normal;text-align:start;writing-mode:lr-tb;direction:ltr;text-anchor:start;fill:#EAEAEA;fill-opacity:1;stroke:none;stroke-width:0.264999;stroke-dasharray:none;stroke-opacity:1"
       x="172.20053"
       y="-0.31582329"
       id="text14"
       transform="rotate(44.415689)"><tspan
         id="tspan14"
         style="stroke-width:0.265"
         x="172.20053"
         y="-0.31582329">Visible Horizon</tspan></text><text
       xml:space="preserve"
       style="font-style:normal;font-variant:normal;font-weight:normal;font-stretch:normal;font-size:4.9389px;font-family:'Jost*';-inkscape-font-specification:'Jost*, Normal';font-variant-ligatures:normal;font-variant-caps:normal;font-variant-numeric:normal;font-variant-east-asian:normal;text-align:start;writing-mode:lr-tb;direction:ltr;text-anchor:start;fill:#EAEAEA;fill-opacity:1;stroke:none;stroke-width:0.264999;stroke-dasharray:none;stroke-opacity:1"
       x="74.970695"
       y="81.535553"
       id="text15"><tspan
         id="tspan15"
         style="stroke-width:0.265"
         x="74.970695"
         y="81.535553">E</tspan></text><text
       xml:space="preserve"
       style="font-style:normal;font-variant:normal;font-weight:normal;font-stretch:normal;font-size:4.9389px;font-family:'Jost*';-inkscape-font-specification:'Jost*, Normal';font-variant-ligatures:normal;font-variant-caps:normal;font-variant-numeric:normal;font-variant-east-asian:normal;text-align:start;writing-mode:lr-tb;direction:ltr;text-anchor:start;fill:#EAEAEA;fill-opacity:1;stroke:none;stroke-width:0.264999;stroke-dasharray:none;stroke-opacity:1"
       x="77.002197"
       y="138.86307"
       id="text16"><tspan
         id="tspan16"
         style="stroke-width:0.265"
         x="77.002197"
         y="138.86307">O</tspan></text><circle
       style="fill:#EAEAEA;fill-opacity:1;stroke:none;stroke-width:0.0974148;stroke-dasharray:none;stroke-opacity:1"
       id="path16"
       cx="78.847725"
       cy="79.703529"
       r="0.44840661" /><circle
       style="fill:#EAEAEA;fill-opacity:1;stroke:none;stroke-width:0.0974148;stroke-dasharray:none;stroke-opacity:1"
       id="circle16"
       cx="78.781372"
       cy="94.787872"
       r="0.44840661" /><text
       xml:space="preserve"
       style="font-style:normal;font-variant:normal;font-weight:normal;font-stretch:normal;font-size:19.7556px;font-family:Forum;-inkscape-font-specification:'Forum, Normal';font-variant-ligatures:normal;font-variant-caps:normal;font-variant-numeric:normal;font-variant-east-asian:normal;text-align:start;writing-mode:lr-tb;direction:ltr;text-anchor:start;fill:#EAEAEA;fill-opacity:1;stroke:none;stroke-width:0.264999;stroke-dasharray:none;stroke-opacity:1"
       x="155.64114"
       y="61.204166"
       id="text17"><tspan
         id="tspan17"
         style="font-style:normal;font-variant:normal;font-weight:normal;font-stretch:normal;font-size:19.7556px;font-family:Forum;-inkscape-font-specification:'Forum, Normal';font-variant-ligatures:normal;font-variant-caps:normal;font-variant-numeric:normal;font-variant-east-asian:normal;stroke-width:0.265"
         x="155.64114"
         y="61.204166">*</tspan></text><circle
       style="fill:#EAEAEA;fill-opacity:1;stroke:none;stroke-width:0.0974148;stroke-dasharray:none;stroke-opacity:1"
       id="circle17"
       cx="105.41091"
       cy="105.57484"
       r="0.44840661" /><circle
       style="fill:#EAEAEA;fill-opacity:1;stroke:none;stroke-width:0.0974148;stroke-dasharray:none;stroke-opacity:1"
       id="circle19"
       cx="78.826035"
       cy="133.68379"
       r="0.44840661" /><path
       style="fill:none;fill-opacity:1;stroke:#EAEAEA;stroke-width:0.267;stroke-dasharray:none;stroke-opacity:1"
       d="M 78.816948,133.66316 78.8111,94.970885"
       id="path19" /><path
       style="fill:none;fill-opacity:1;stroke:#EAEAEA;stroke-width:0.267;stroke-dasharray:none;stroke-opacity:1"
       d="M 78.776022,94.783795 78.8111,82.038379 c 0.04677,-2.44969 0.04677,-2.44969 0.04677,-2.44969"
       id="path20" /><path
       style="fill:none;fill-opacity:1;stroke:#EAEAEA;stroke-width:0.267189;stroke-dasharray:none;stroke-opacity:1"
       d="M 78.737003,133.68066 105.35487,105.69343"
       id="path21" /><path
       style="fill:none;stroke:#EAEAEA;stroke-width:0.35583;stroke-dasharray:none;stroke-opacity:1"
       id="path22"
       d="m 33.847295,-139.63432 a 24.262621,24.262621 0 0 1 10.230493,-0.78758"
       transform="rotate(117.62671)" /><g
       transform="translate(83.476015,115.98679)"
       id="g25"><g
   fill="#EAEAEA"
   fill-opacity="1"
   id="g2"
   transform="matrix(0.352778,0,0,0.352778,-81.9773,-4.01673)">
    <g
   id="use1"
   transform="translate(231.689,23.511)">
      <path
   d="M 7.625,-8.65625 C 7.625,-10.421875 7.078125,-12.125 5.671875,-12.125 3.25,-12.125 0.6875,-7.078125 0.6875,-3.28125 0.6875,-2.5 0.859375,0.171875 2.671875,0.171875 5.015625,0.171875 7.625,-4.75 7.625,-8.65625 Z m -5.21875,2.421875 c 0.265625,-1.015625 0.625,-2.46875 1.3125,-3.6875 0.5625,-1.03125 1.171875,-1.859375 1.921875,-1.859375 0.578125,0 0.953125,0.484375 0.953125,2.140625 0,0.625 -0.046875,1.484375 -0.546875,3.40625 z M 5.921875,-5.71875 C 5.5,-4.03125 5.125,-2.9375 4.515625,-1.859375 c -0.5,0.875 -1.109375,1.6875 -1.828125,1.6875 -0.53125,0 -0.96875,-0.40625 -0.96875,-2.125 0,-1.109375 0.28125,-2.28125 0.546875,-3.421875 z m 0,0"
   id="path2-1" />
    </g>
  </g>
</g><g
       transform="translate(108.03804,99.273077)"
       id="g28"><g
   fill="#EAEAEA"
   fill-opacity="1"
   id="g27"
   transform="matrix(0.352778,0,0,0.352778,-81.9773,-4.01673)">
    <g
   id="g26"
   transform="translate(231.689,23.511)">
      <path
   d="M 7.625,-8.65625 C 7.625,-10.421875 7.078125,-12.125 5.671875,-12.125 3.25,-12.125 0.6875,-7.078125 0.6875,-3.28125 0.6875,-2.5 0.859375,0.171875 2.671875,0.171875 5.015625,0.171875 7.625,-4.75 7.625,-8.65625 Z m -5.21875,2.421875 c 0.265625,-1.015625 0.625,-2.46875 1.3125,-3.6875 0.5625,-1.03125 1.171875,-1.859375 1.921875,-1.859375 0.578125,0 0.953125,0.484375 0.953125,2.140625 0,0.625 -0.046875,1.484375 -0.546875,3.40625 z M 5.921875,-5.71875 C 5.5,-4.03125 5.125,-2.9375 4.515625,-1.859375 c -0.5,0.875 -1.109375,1.6875 -1.828125,1.6875 -0.53125,0 -0.96875,-0.40625 -0.96875,-2.125 0,-1.109375 0.28125,-2.28125 0.546875,-3.421875 z m 0,0"
   id="path25" />
    </g>
  </g>
</g><text
       xml:space="preserve"
       style="font-style:normal;font-variant:normal;font-weight:normal;font-stretch:normal;font-size:4.9389px;font-family:'Jost*';-inkscape-font-specification:'Jost*, Normal';font-variant-ligatures:normal;font-variant-caps:normal;font-variant-numeric:normal;font-variant-east-asian:normal;text-align:start;writing-mode:lr-tb;direction:ltr;text-anchor:start;fill:#EAEAEA;fill-opacity:1;stroke:none;stroke-width:0.264999;stroke-dasharray:none;stroke-opacity:1"
       x="104.06299"
       y="111.46974"
       id="text28"><tspan
         id="tspan28"
         style="stroke-width:0.265"
         x="104.06299"
         y="111.46974">B</tspan></text><path
       style="fill:none;stroke:#EAEAEA;stroke-width:0.359713;stroke-dasharray:none;stroke-opacity:1"
       id="path28"
       d="m 127.12156,-6.633796 a 15.85397,16.466633 0 0 1 9.68238,4.824443"
       transform="matrix(0.71447011,0.69966596,-0.82934721,0.55873358,0,0)" /><text
       xml:space="preserve"
       style="font-style:normal;font-variant:normal;font-weight:normal;font-stretch:normal;font-size:4.9389px;font-family:'Jost*';-inkscape-font-specification:'Jost*, Normal';font-variant-ligatures:normal;font-variant-caps:normal;font-variant-numeric:normal;font-variant-east-asian:normal;text-align:start;writing-mode:lr-tb;direction:ltr;text-anchor:start;fill:#EAEAEA;fill-opacity:1;stroke:none;stroke-width:0.264999;stroke-dasharray:none;stroke-opacity:1"
       x="73.996506"
       y="94.339073"
       id="text29"><tspan
         id="tspan29"
         style="stroke-width:0.265"
         x="73.996506"
         y="94.339073">A</tspan></text></g></svg>
