<svg xmlns="http://www.w3.org/2000/svg" width="600" height="600" viewBox="0 0 600 600">
<style>
.sphere { fill: none; stroke: #bbb; stroke-width: 4; }
.arc { fill: none; stroke: #fbc02d; stroke-width: 4; }
.arc-back { fill: none; stroke: #fbc02d; stroke-width: 4; opacity: 0.4; }
.great-circle { fill: none; stroke: #00bcd4; stroke-width: 3; opacity: 0.9; }
.great-circle-back { fill: none; stroke: #00bcd4; stroke-width: 3; opacity: 0.4; }
.small-circle { fill: none; stroke: #e64a19; stroke-width: 3; opacity: 0.9; }
.small-circle-back { fill: none; stroke: #e64a19; stroke-width: 3; opacity: 0.4; }
.point { fill: #e53935; stroke: none; }
.point-back { fill: #e53935; stroke: none; opacity: 0.4; }
.label { fill: #fff; font-size: 28px; font-family: sans-serif; font-weight: bold; pointer-events: none; }
.label-back { fill: #fff; font-size: 28px; font-family: sans-serif; font-weight: bold; pointer-events: none; opacity: 0.4; }
.small-label { fill: #ffb74d; font-size: 18px; font-family: sans-serif; font-weight: 500; pointer-events: none; }
.small-label-back { fill: #ffb74d; font-size: 18px; font-family: sans-serif; font-weight: 500; pointer-events: none; opacity: 0.4; }
</style>
<path class="great-circle-back" d="M 277.10 166.95 L 289.22 165.03 L 301.36 163.43 L 313.50 162.16 L 325.61 161.23 L 337.65 160.63 L 349.61 160.37 L 361.44 160.44 L 373.13 160.85 L 384.64 161.59 L 395.95 162.67 L 407.02 164.08 L 417.84 165.81 L 428.37 167.87 L 438.60 170.25 L 448.49 172.94 L 458.02 175.93 L 467.18 179.23 L 475.93 182.81 L 484.25 186.68 L 492.13 190.82 L 499.55 195.23 L 506.49 199.88 L 512.93 204.78 L 518.86 209.91 L 524.26 215.25 L 529.12 220.80 L 533.43 226.54 L 537.18 232.45 L 540.35 238.53 L 542.95 244.76 L 544.96 251.12 L 546.38 257.60 M 52.80 335.82 L 52.56 329.16 L 52.93 322.42 L 53.89 315.63 L 55.44 308.80 L 57.58 301.95 L 60.31 295.10 L 63.61 288.26 L 67.49 281.44 L 71.92 274.68 L 76.90 267.97 L 82.42 261.34 L 88.47 254.80 L 95.02 248.37 L 102.07 242.07 L 109.59 235.90 L 117.58 229.89 L 126.00 224.05 L 134.84 218.39 L 144.08 212.93 L 153.69 207.68 L 163.66 202.65 L 173.96 197.85 L 184.56 193.30 L 195.44 189.01 L 206.57 184.98 L 217.92 181.24 L 229.47 177.77 L 241.20 174.61 L 253.06 171.74 L 265.04 169.19 L 277.10 166.95 "/><path class="great-circle" d="M 547.20 264.18 L 547.44 270.84 L 547.07 277.58 L 546.11 284.37 L 544.56 291.20 L 542.42 298.05 L 539.69 304.90 L 536.39 311.74 L 532.51 318.56 L 528.08 325.32 L 523.10 332.03 L 517.58 338.66 L 511.53 345.20 L 504.98 351.63 L 497.93 357.93 L 490.41 364.10 L 482.42 370.11 L 474.00 375.95 L 465.16 381.61 L 455.92 387.07 L 446.31 392.32 L 436.34 397.35 L 426.04 402.15 L 415.44 406.70 L 404.56 410.99 L 393.43 415.02 L 382.08 418.76 L 370.53 422.23 L 358.80 425.39 L 346.94 428.26 L 334.96 430.81 L 322.90 433.05 L 310.78 434.97 L 298.64 436.57 L 286.50 437.84 L 274.39 438.77 L 262.35 439.37 L 250.39 439.63 L 238.56 439.56 L 226.87 439.15 L 215.36 438.41 L 204.05 437.33 L 192.98 435.92 L 182.16 434.19 L 171.63 432.13 L 161.40 429.75 L 151.51 427.06 L 141.98 424.07 L 132.82 420.77 L 124.07 417.19 L 115.75 413.32 L 107.87 409.18 L 100.45 404.77 L 93.51 400.12 L 87.07 395.22 L 81.14 390.09 L 75.74 384.75 L 70.88 379.20 L 66.57 373.46 L 62.82 367.55 L 59.65 361.47 L 57.05 355.24 L 55.04 348.88 L 53.62 342.40 "/><path class="great-circle-back" d="M 240.35 370.27 L 231.07 362.25 L 221.95 354.08 L 213.03 345.77 L 204.31 337.36 L 195.83 328.86 L 187.59 320.28 L 179.63 311.66 L 171.95 303.01 L 164.59 294.35 L 157.55 285.71 L 150.85 277.10 L 144.51 268.55 L 138.55 260.07 L 132.98 251.69 L 127.81 243.42 L 123.05 235.29 L 118.72 227.32 L 114.83 219.52 L 111.38 211.92 L 108.39 204.52 L 105.86 197.36 L 103.79 190.45 L 102.20 183.79 L 101.09 177.42 L 100.45 171.35 L 100.30 165.58 L 100.62 160.14 L 101.43 155.03 L 102.72 150.28 L 104.48 145.88 L 106.71 141.86 L 109.41 138.22 M 487.44 465.04 L 483.83 467.89 L 479.78 470.34 L 475.29 472.39 L 470.39 474.01 L 465.07 475.22 L 459.36 476.00 L 453.26 476.36 L 446.79 476.30 L 439.97 475.81 L 432.81 474.89 L 425.33 473.56 L 417.55 471.81 L 409.49 469.64 L 401.16 467.07 L 392.59 464.09 L 383.80 460.72 L 374.80 456.96 L 365.62 452.82 L 356.29 448.31 L 346.82 443.45 L 337.24 438.24 L 327.56 432.70 L 317.83 426.84 L 308.04 420.67 L 298.24 414.21 L 288.45 407.48 L 278.68 400.49 L 268.96 393.25 L 259.32 385.79 L 249.77 378.13 L 240.35 370.27 "/><path class="great-circle" d="M 112.56 134.96 L 116.17 132.11 L 120.22 129.66 L 124.71 127.61 L 129.61 125.99 L 134.93 124.78 L 140.64 124.00 L 146.74 123.64 L 153.21 123.70 L 160.03 124.19 L 167.19 125.11 L 174.67 126.44 L 182.45 128.19 L 190.51 130.36 L 198.84 132.93 L 207.41 135.91 L 216.20 139.28 L 225.20 143.04 L 234.38 147.18 L 243.71 151.69 L 253.18 156.55 L 262.76 161.76 L 272.44 167.30 L 282.17 173.16 L 291.96 179.33 L 301.76 185.79 L 311.55 192.52 L 321.32 199.51 L 331.04 206.75 L 340.68 214.21 L 350.23 221.87 L 359.65 229.73 L 368.93 237.75 L 378.05 245.92 L 386.97 254.23 L 395.69 262.64 L 404.17 271.14 L 412.41 279.72 L 420.37 288.34 L 428.05 296.99 L 435.41 305.65 L 442.45 314.29 L 449.15 322.90 L 455.49 331.45 L 461.45 339.93 L 467.02 348.31 L 472.19 356.58 L 476.95 364.71 L 481.28 372.68 L 485.17 380.48 L 488.62 388.08 L 491.61 395.48 L 494.14 402.64 L 496.21 409.55 L 497.80 416.21 L 498.91 422.58 L 499.55 428.65 L 499.70 434.42 L 499.38 439.86 L 498.57 444.97 L 497.28 449.72 L 495.52 454.12 L 493.29 458.14 L 490.59 461.78 "/><path class="great-circle-back" d="M 382.05 338.40 L 376.75 349.47 L 371.27 360.41 L 365.61 371.21 L 359.80 381.84 L 353.84 392.27 L 347.76 402.48 L 341.55 412.44 L 335.25 422.13 L 328.86 431.53 L 322.41 440.61 L 315.90 449.35 L 309.35 457.73 L 302.77 465.73 L 296.20 473.33 L 289.63 480.51 L 283.08 487.26 L 276.58 493.56 L 270.13 499.39 L 263.76 504.74 L 257.47 509.60 L 251.28 513.96 L 245.22 517.79 L 239.28 521.11 L 233.49 523.89 L 227.86 526.13 L 222.40 527.82 L 217.14 528.97 L 212.07 529.57 L 207.21 529.61 L 202.57 529.10 L 198.18 528.04 L 194.02 526.43 M 409.88 75.73 L 413.51 78.43 L 416.87 81.66 L 419.95 85.42 L 422.74 89.69 L 425.23 94.47 L 427.43 99.75 L 429.31 105.51 L 430.89 111.73 L 432.14 118.41 L 433.08 125.53 L 433.70 133.07 L 434.00 141.01 L 433.98 149.33 L 433.63 158.02 L 432.96 167.05 L 431.97 176.40 L 430.66 186.04 L 429.04 195.97 L 427.10 206.14 L 424.86 216.53 L 422.32 227.13 L 419.49 237.91 L 416.36 248.83 L 412.96 259.88 L 409.28 271.02 L 405.34 282.24 L 401.15 293.49 L 396.72 304.77 L 392.05 316.03 L 387.15 327.25 L 382.05 338.40 "/><path class="great-circle" d="M 190.12 524.27 L 186.49 521.57 L 183.13 518.34 L 180.05 514.58 L 177.26 510.31 L 174.77 505.53 L 172.57 500.25 L 170.69 494.49 L 169.11 488.27 L 167.86 481.59 L 166.92 474.47 L 166.30 466.93 L 166.00 458.99 L 166.02 450.67 L 166.37 441.98 L 167.04 432.95 L 168.03 423.60 L 169.34 413.96 L 170.96 404.03 L 172.90 393.86 L 175.14 383.47 L 177.68 372.87 L 180.51 362.09 L 183.64 351.17 L 187.04 340.12 L 190.72 328.98 L 194.66 317.76 L 198.85 306.51 L 203.28 295.23 L 207.95 283.97 L 212.85 272.75 L 217.95 261.60 L 223.25 250.53 L 228.73 239.59 L 234.39 228.79 L 240.20 218.16 L 246.16 207.73 L 252.24 197.52 L 258.45 187.56 L 264.75 177.87 L 271.14 168.47 L 277.59 159.39 L 284.10 150.65 L 290.65 142.27 L 297.23 134.27 L 303.80 126.67 L 310.37 119.49 L 316.92 112.74 L 323.42 106.44 L 329.87 100.61 L 336.24 95.26 L 342.53 90.40 L 348.72 86.04 L 354.78 82.21 L 360.72 78.89 L 366.51 76.11 L 372.14 73.87 L 377.60 72.18 L 382.86 71.03 L 387.93 70.43 L 392.79 70.39 L 397.43 70.90 L 401.82 71.96 L 405.98 73.57 "/><path class="arc" d="M 480.74 371.66 L 477.04 374.23 L 473.26 376.77 L 469.39 379.27 L 465.45 381.74 L 461.43 384.16 L 457.33 386.55 L 453.16 388.90 L 448.92 391.20 L 444.60 393.47 L 440.22 395.69 L 435.78 397.86 L 431.27 399.99 L 426.70 402.07 L 422.07 404.10 L 417.38 406.09 L 412.64 408.02 L 407.84 409.91 L 403.00 411.74 L 398.10 413.52 L 393.16 415.25 L 388.18 416.92 L 383.16 418.54 L 378.09 420.11 L 372.99 421.61 L 367.86 423.06 L 362.69 424.46 L 357.50 425.79 L 352.28 427.07 L 347.03 428.28 L 341.76 429.44 L 336.47 430.54 L 331.17 431.57 L 325.85 432.54 L 320.51 433.45 L 315.17 434.30 L 309.82 435.09 L 304.47 435.81 L 299.12 436.47 L 293.76 437.06 L 288.41 437.59 L 283.06 438.06 L 277.72 438.46 L 272.40 438.80 L 267.08 439.07 L 261.78 439.28 L 256.50 439.42 L 251.24 439.49 L 246.00 439.50 L 240.78 439.45 L 235.60 439.33 L 230.44 439.14 L 225.32 438.89 L 220.23 438.58 L 215.18 438.20 L 210.17 437.75 L 205.20 437.25 L 200.28 436.67 L 195.40 436.03 L 190.57 435.33 L 185.79 434.57 L 181.07 433.74 L 176.40 432.85 L 171.79 431.90 L 167.24 430.88 "/><path class="arc" d="M 480.74 371.66 L 479.02 368.44 L 477.23 365.20 L 475.36 361.93 L 473.43 358.63 L 471.43 355.32 L 469.36 351.98 L 467.22 348.62 L 465.02 345.24 L 462.75 341.84 L 460.42 338.43 L 458.02 335.00 L 455.56 331.56 L 453.04 328.10 L 450.46 324.64 L 447.82 321.16 L 445.13 317.68 L 442.37 314.19 L 439.56 310.69 L 436.69 307.19 L 433.77 303.68 L 430.80 300.18 L 427.77 296.67 L 424.70 293.17 L 421.57 289.67 L 418.40 286.17 L 415.18 282.68 L 411.92 279.20 L 408.61 275.72 L 405.26 272.25 L 401.86 268.80 L 398.43 265.35 L 394.96 261.92 L 391.45 258.51 L 387.90 255.11 L 384.32 251.73 L 380.71 248.37 L 377.06 245.02 L 373.38 241.70 L 369.68 238.41 L 365.95 235.14 L 362.19 231.89 L 358.40 228.67 L 354.60 225.48 L 350.77 222.32 L 346.92 219.18 L 343.05 216.08 L 339.17 213.02 L 335.27 209.99 L 331.36 206.99 L 327.43 204.03 L 323.49 201.11 L 319.55 198.22 L 315.59 195.38 L 311.64 192.58 L 307.67 189.82 L 303.70 187.11 L 299.74 184.43 L 295.77 181.81 L 291.80 179.23 L 287.84 176.70 L 283.88 174.22 L 279.92 171.79 L 275.98 169.40 L 272.05 167.07 "/><path class="arc" d="M 272.05 167.07 L 269.54 170.68 L 267.06 174.33 L 264.58 178.03 L 262.11 181.77 L 259.66 185.56 L 257.23 189.38 L 254.81 193.25 L 252.40 197.16 L 250.02 201.10 L 247.65 205.09 L 245.30 209.10 L 242.97 213.15 L 240.66 217.23 L 238.38 221.34 L 236.11 225.48 L 233.87 229.65 L 231.66 233.84 L 229.46 238.06 L 227.30 242.30 L 225.16 246.56 L 223.05 250.84 L 220.96 255.13 L 218.91 259.45 L 216.88 263.78 L 214.89 268.12 L 212.93 272.47 L 210.99 276.84 L 209.10 281.21 L 207.23 285.59 L 205.40 289.97 L 203.60 294.36 L 201.84 298.75 L 200.11 303.14 L 198.42 307.53 L 196.77 311.92 L 195.15 316.30 L 193.58 320.68 L 192.04 325.05 L 190.54 329.41 L 189.08 333.76 L 187.66 338.09 L 186.29 342.42 L 184.95 346.72 L 183.66 351.01 L 182.41 355.29 L 181.20 359.54 L 180.04 363.77 L 178.92 367.97 L 177.84 372.16 L 176.81 376.31 L 175.82 380.44 L 174.88 384.54 L 173.99 388.60 L 173.14 392.64 L 172.33 396.64 L 171.58 400.60 L 170.87 404.53 L 170.21 408.42 L 169.59 412.27 L 169.02 416.08 L 168.50 419.85 L 168.03 423.57 L 167.61 427.25 L 167.24 430.88 "/><path class="arc" d="M 149.61 477.17 L 147.18 472.36 L 144.87 467.40 L 142.70 462.30 L 140.67 457.05 L 138.77 451.68 L 137.01 446.17 L 135.39 440.53 L 133.91 434.78 L 132.58 428.91 L 131.39 422.93 L 130.34 416.84 L 129.45 410.65 L 128.69 404.37 L 128.09 397.99 L 127.63 391.54 L 127.33 385.00 L 127.17 378.39 L 127.16 371.71 L 127.30 364.97 L 127.58 358.18 L 128.02 351.33 L 128.60 344.44 L 129.34 337.51 L 130.22 330.55 L 131.24 323.57 L 132.41 316.56 L 133.73 309.54 L 135.18 302.51 L 136.78 295.48 L 138.53 288.45 L 140.41 281.43 L 142.42 274.43 L 144.58 267.45 L 146.86 260.50 L 149.28 253.58 L 151.83 246.70 L 154.51 239.87 L 157.31 233.09 L 160.23 226.37 L 163.28 219.71 L 166.44 213.12 L 169.72 206.60 L 173.11 200.17 L 176.61 193.82 L 180.21 187.56 L 183.92 181.40 L 187.73 175.35 L 191.64 169.40 L 195.64 163.56 L 199.72 157.84 L 203.90 152.24 L 208.16 146.77 L 212.49 141.43 L 216.91 136.23 L 221.39 131.17 L 225.94 126.25 L 230.56 121.48 L 235.23 116.87 L 239.96 112.42 L 244.75 108.12 L 249.58 104.00 L 254.45 100.04 L 259.36 96.25 L 264.31 92.64 "/><path class="arc" d="M 149.61 477.17 L 154.81 480.12 L 160.10 482.96 L 165.49 485.67 L 170.97 488.25 L 176.54 490.71 L 182.19 493.04 L 187.92 495.24 L 193.72 497.31 L 199.60 499.24 L 205.55 501.04 L 211.56 502.70 L 217.63 504.22 L 223.75 505.61 L 229.93 506.86 L 236.15 507.96 L 242.42 508.93 L 248.73 509.76 L 255.07 510.44 L 261.44 510.98 L 267.84 511.38 L 274.26 511.63 L 280.69 511.74 L 287.14 511.71 L 293.60 511.54 L 300.06 511.22 L 306.53 510.76 L 312.99 510.15 L 319.44 509.41 L 325.87 508.52 L 332.29 507.49 L 338.69 506.32 L 345.06 505.01 L 351.40 503.56 L 357.71 501.98 L 363.97 500.26 L 370.20 498.40 L 376.37 496.41 L 382.50 494.28 L 388.56 492.02 L 394.57 489.64 L 400.52 487.12 L 406.39 484.48 L 412.20 481.71 L 417.93 478.82 L 423.58 475.81 L 429.14 472.68 L 434.62 469.44 L 440.00 466.08 L 445.30 462.60 L 450.49 459.02 L 455.58 455.33 L 460.57 451.53 L 465.44 447.63 L 470.21 443.63 L 474.86 439.54 L 479.39 435.35 L 483.80 431.06 L 488.09 426.69 L 492.25 422.24 L 496.28 417.70 L 500.17 413.08 L 503.93 408.38 L 507.55 403.61 L 511.04 398.77 "/><path class="arc" d="M 511.04 398.77 L 511.47 393.36 L 511.73 387.86 L 511.82 382.30 L 511.73 376.66 L 511.48 370.97 L 511.05 365.21 L 510.45 359.41 L 509.68 353.55 L 508.74 347.65 L 507.62 341.72 L 506.34 335.75 L 504.89 329.75 L 503.28 323.72 L 501.50 317.68 L 499.55 311.62 L 497.44 305.55 L 495.17 299.48 L 492.75 293.41 L 490.16 287.34 L 487.42 281.29 L 484.53 275.24 L 481.49 269.22 L 478.30 263.23 L 474.96 257.26 L 471.49 251.33 L 467.87 245.44 L 464.12 239.59 L 460.23 233.80 L 456.21 228.05 L 452.07 222.37 L 447.80 216.75 L 443.41 211.19 L 438.91 205.71 L 434.29 200.30 L 429.56 194.98 L 424.73 189.74 L 419.79 184.59 L 414.76 179.54 L 409.63 174.58 L 404.42 169.73 L 399.12 164.98 L 393.74 160.34 L 388.28 155.81 L 382.75 151.41 L 377.15 147.12 L 371.49 142.96 L 365.78 138.92 L 360.01 135.02 L 354.19 131.25 L 348.32 127.62 L 342.42 124.13 L 336.48 120.78 L 330.51 117.58 L 324.52 114.52 L 318.51 111.62 L 312.48 108.87 L 306.45 106.28 L 300.40 103.84 L 294.36 101.57 L 288.32 99.45 L 282.29 97.50 L 276.28 95.71 L 270.28 94.09 L 264.31 92.64 "/><circle class="sphere" cx="300.00" cy="300.00" r="250.00"/><circle class="point" cx="264.31" cy="92.64" r="12.00"/><text class="label" x="280.31" y="80.64">A'</text><circle class="point" cx="149.61" cy="477.17" r="12.00"/><text class="label" x="165.61" y="465.17">B'</text><circle class="point" cx="511.04" cy="398.77" r="12.00"/><text class="label" x="527.04" y="386.77">C'</text><circle class="point" cx="167.24" cy="430.88" r="12.00"/><text class="label" x="183.24" y="418.88">B</text><circle class="point" cx="272.05" cy="167.07" r="12.00"/><text class="label" x="288.05" y="155.07">A</text><circle class="point" cx="480.74" cy="371.66" r="12.00"/><text class="label" x="496.74" y="359.66">C</text>
</svg>