<svg xmlns="http://www.w3.org/2000/svg" width="600" height="600" viewBox="0 0 600 600">
<style>
.sphere { fill: none; stroke: #bbb; stroke-width: 4; }
.arc { fill: none; stroke: #fbc02d; stroke-width: 4; }
.arc-back { fill: none; stroke: #fbc02d; stroke-width: 4; opacity: 0.4; }
.great-circle { fill: none; stroke: #00bcd4; stroke-width: 3; opacity: 0.9; }
.great-circle-back { fill: none; stroke: #00bcd4; stroke-width: 3; opacity: 0.4; }
.small-circle { fill: none; stroke: #e64a19; stroke-width: 3; opacity: 0.9; }
.small-circle-back { fill: none; stroke: #e64a19; stroke-width: 3; opacity: 0.4; }
.point { fill: #e53935; stroke: none; }
.point-back { fill: #e53935; stroke: none; opacity: 0.4; }
.label { fill: #fff; font-size: 28px; font-family: sans-serif; font-weight: bold; pointer-events: none; }
.label-back { fill: #fff; font-size: 28px; font-family: sans-serif; font-weight: bold; pointer-events: none; opacity: 0.4; }
.small-label { fill: #ffb74d; font-size: 18px; font-family: sans-serif; font-weight: 500; pointer-events: none; }
.small-label-back { fill: #ffb74d; font-size: 18px; font-family: sans-serif; font-weight: 500; pointer-events: none; opacity: 0.4; }
</style>
<path class="great-circle-back" d="M 253.91 359.60 L 262.54 368.28 L 271.26 376.80 L 280.05 385.13 L 288.89 393.26 L 297.76 401.16 L 306.63 408.82 L 315.48 416.22 L 324.30 423.34 L 333.06 430.16 L 341.74 436.67 L 350.32 442.84 L 358.78 448.68 L 367.09 454.15 L 375.25 459.26 L 383.22 463.98 L 391.00 468.30 L 398.55 472.22 L 405.87 475.73 L 412.93 478.81 L 419.72 481.46 L 426.22 483.68 L 432.41 485.45 L 438.29 486.77 L 443.84 487.65 L 449.04 488.07 L 453.87 488.04 L 458.34 487.56 L 462.43 486.62 L 466.13 485.24 L 469.42 483.41 L 472.31 481.13 M 125.22 121.58 L 123.17 124.72 L 121.54 128.28 L 120.35 132.25 L 119.59 136.63 L 119.26 141.40 L 119.36 146.56 L 119.91 152.08 L 120.88 157.96 L 122.29 164.19 L 124.13 170.74 L 126.39 177.60 L 129.07 184.76 L 132.16 192.19 L 135.65 199.88 L 139.54 207.82 L 143.82 215.98 L 148.47 224.34 L 153.49 232.88 L 158.86 241.58 L 164.57 250.42 L 170.61 259.39 L 176.96 268.45 L 183.60 277.59 L 190.53 286.78 L 197.72 296.00 L 205.16 305.24 L 212.82 314.46 L 220.69 323.64 L 228.76 332.77 L 237.00 341.82 L 245.39 350.77 L 253.91 359.60 "/><path class="great-circle" d="M 474.78 478.42 L 476.83 475.28 L 478.46 471.72 L 479.65 467.75 L 480.41 463.37 L 480.74 458.60 L 480.64 453.44 L 480.09 447.92 L 479.12 442.04 L 477.71 435.81 L 475.87 429.26 L 473.61 422.40 L 470.93 415.24 L 467.84 407.81 L 464.35 400.12 L 460.46 392.18 L 456.18 384.02 L 451.53 375.66 L 446.51 367.12 L 441.14 358.42 L 435.43 349.58 L 429.39 340.61 L 423.04 331.55 L 416.40 322.41 L 409.47 313.22 L 402.28 304.00 L 394.84 294.76 L 387.18 285.54 L 379.31 276.36 L 371.24 267.23 L 363.00 258.18 L 354.61 249.23 L 346.09 240.40 L 337.46 231.72 L 328.74 223.20 L 319.95 214.87 L 311.11 206.74 L 302.24 198.84 L 293.37 191.18 L 284.52 183.78 L 275.70 176.66 L 266.94 169.84 L 258.26 163.33 L 249.68 157.16 L 241.22 151.32 L 232.91 145.85 L 224.75 140.74 L 216.78 136.02 L 209.00 131.70 L 201.45 127.78 L 194.13 124.27 L 187.07 121.19 L 180.28 118.54 L 173.78 116.32 L 167.59 114.55 L 161.71 113.23 L 156.16 112.35 L 150.96 111.93 L 146.13 111.96 L 141.66 112.44 L 137.57 113.38 L 133.87 114.76 L 130.58 116.59 L 127.69 118.87 "/><path class="great-circle-back" d="M 285.12 244.15 L 297.34 245.07 L 309.57 246.12 L 321.77 247.31 L 333.92 248.62 L 345.99 250.05 L 357.94 251.60 L 369.76 253.27 L 381.41 255.06 L 392.86 256.95 L 404.09 258.94 L 415.07 261.04 L 425.78 263.23 L 436.17 265.50 L 446.24 267.86 L 455.96 270.30 L 465.31 272.81 L 474.25 275.38 L 482.77 278.02 L 490.86 280.70 L 498.48 283.43 L 505.63 286.21 L 512.28 289.01 L 518.42 291.85 L 524.03 294.70 L 529.11 297.56 L 533.63 300.43 L 537.59 303.30 L 540.97 306.16 L 543.78 309.01 L 546.00 311.84 L 547.62 314.63 L 548.65 317.40 L 549.08 320.11 M 51.09 277.21 L 51.85 274.60 L 53.22 272.04 L 55.18 269.56 L 57.73 267.14 L 60.87 264.81 L 64.58 262.56 L 68.86 260.40 L 73.69 258.33 L 79.07 256.37 L 84.99 254.51 L 91.42 252.76 L 98.35 251.12 L 105.77 249.60 L 113.66 248.21 L 121.99 246.94 L 130.76 245.79 L 139.93 244.78 L 149.49 243.90 L 159.41 243.15 L 169.67 242.54 L 180.24 242.07 L 191.10 241.74 L 202.22 241.55 L 213.58 241.50 L 225.15 241.60 L 236.90 241.83 L 248.80 242.20 L 260.82 242.71 L 272.94 243.36 L 285.12 244.15 "/><path class="great-circle" d="M 548.91 322.79 L 548.15 325.40 L 546.78 327.96 L 544.82 330.44 L 542.27 332.86 L 539.13 335.19 L 535.42 337.44 L 531.14 339.60 L 526.31 341.67 L 520.93 343.63 L 515.01 345.49 L 508.58 347.24 L 501.65 348.88 L 494.23 350.40 L 486.34 351.79 L 478.01 353.06 L 469.24 354.21 L 460.07 355.22 L 450.51 356.10 L 440.59 356.85 L 430.33 357.46 L 419.76 357.93 L 408.90 358.26 L 397.78 358.45 L 386.42 358.50 L 374.85 358.40 L 363.10 358.17 L 351.20 357.80 L 339.18 357.29 L 327.06 356.64 L 314.88 355.85 L 302.66 354.93 L 290.43 353.88 L 278.23 352.69 L 266.08 351.38 L 254.01 349.95 L 242.06 348.40 L 230.24 346.73 L 218.59 344.94 L 207.14 343.05 L 195.91 341.06 L 184.93 338.96 L 174.22 336.77 L 163.83 334.50 L 153.76 332.14 L 144.04 329.70 L 134.69 327.19 L 125.75 324.62 L 117.23 321.98 L 109.14 319.30 L 101.52 316.57 L 94.37 313.79 L 87.72 310.99 L 81.58 308.15 L 75.97 305.30 L 70.89 302.44 L 66.37 299.57 L 62.41 296.70 L 59.03 293.84 L 56.22 290.99 L 54.00 288.16 L 52.38 285.37 L 51.35 282.60 L 50.92 279.89 "/><path class="great-circle-back" d="M 371.08 364.57 L 367.12 375.96 L 363.00 387.16 L 358.73 398.16 L 354.32 408.91 L 349.78 419.41 L 345.12 429.62 L 340.35 439.51 L 335.48 449.07 L 330.53 458.27 L 325.50 467.09 L 320.41 475.50 L 315.27 483.50 L 310.10 491.05 L 304.90 498.14 L 299.69 504.75 L 294.48 510.87 L 289.28 516.48 L 284.11 521.58 L 278.98 526.13 L 273.90 530.14 L 268.88 533.60 L 263.94 536.50 L 259.08 538.82 L 254.32 540.57 L 249.67 541.74 L 245.15 542.33 L 240.75 542.33 L 236.50 541.75 M 367.60 59.41 L 371.54 61.15 L 375.30 63.47 L 378.88 66.35 L 382.28 69.80 L 385.47 73.81 L 388.46 78.36 L 391.23 83.44 L 393.79 89.05 L 396.12 95.16 L 398.22 101.77 L 400.08 108.85 L 401.70 116.40 L 403.08 124.38 L 404.20 132.79 L 405.08 141.61 L 405.70 150.80 L 406.07 160.35 L 406.18 170.24 L 406.04 180.45 L 405.64 190.94 L 404.99 201.69 L 404.08 212.68 L 402.92 223.88 L 401.52 235.27 L 399.87 246.81 L 397.98 258.48 L 395.86 270.25 L 393.50 282.09 L 390.92 293.97 L 388.12 305.87 L 385.10 317.75 L 381.88 329.59 L 378.47 341.36 L 374.86 353.03 L 371.08 364.57 "/><path class="great-circle" d="M 232.40 540.59 L 228.46 538.85 L 224.70 536.53 L 221.12 533.65 L 217.72 530.20 L 214.53 526.19 L 211.54 521.64 L 208.77 516.56 L 206.21 510.95 L 203.88 504.84 L 201.78 498.23 L 199.92 491.15 L 198.30 483.60 L 196.92 475.62 L 195.80 467.21 L 194.92 458.39 L 194.30 449.20 L 193.93 439.65 L 193.82 429.76 L 193.96 419.55 L 194.36 409.06 L 195.01 398.31 L 195.92 387.32 L 197.08 376.12 L 198.48 364.73 L 200.13 353.19 L 202.02 341.52 L 204.14 329.75 L 206.50 317.91 L 209.08 306.03 L 211.88 294.13 L 214.90 282.25 L 218.12 270.41 L 221.53 258.64 L 225.14 246.97 L 228.92 235.43 L 232.88 224.04 L 237.00 212.84 L 241.27 201.84 L 245.68 191.09 L 250.22 180.59 L 254.88 170.38 L 259.65 160.49 L 264.52 150.93 L 269.47 141.73 L 274.50 132.91 L 279.59 124.50 L 284.73 116.50 L 289.90 108.95 L 295.10 101.86 L 300.31 95.25 L 305.52 89.13 L 310.72 83.52 L 315.89 78.42 L 321.02 73.87 L 326.10 69.86 L 331.12 66.40 L 336.06 63.50 L 340.92 61.18 L 345.68 59.43 L 350.33 58.26 L 354.85 57.67 L 359.25 57.67 L 363.50 58.25 "/><path class="arc" d="M 440.16 356.88 L 438.14 353.73 L 436.08 350.56 L 433.98 347.39 L 431.83 344.19 L 429.65 340.98 L 427.42 337.76 L 425.16 334.53 L 422.86 331.29 L 420.52 328.04 L 418.14 324.78 L 415.73 321.51 L 413.28 318.23 L 410.79 314.95 L 408.28 311.67 L 405.73 308.38 L 403.14 305.09 L 400.53 301.80 L 397.88 298.50 L 395.21 295.21 L 392.50 291.92 L 389.77 288.63 L 387.01 285.34 L 384.23 282.06 L 381.41 278.79 L 378.57 275.52 L 375.71 272.26 L 372.83 269.01 L 369.92 265.76 L 366.99 262.53 L 364.04 259.31 L 361.07 256.10 L 358.09 252.90 L 355.08 249.72 L 352.06 246.56 L 349.02 243.41 L 345.97 240.28 L 342.90 237.16 L 339.82 234.07 L 336.73 231.00 L 333.62 227.94 L 330.51 224.91 L 327.39 221.90 L 324.25 218.92 L 321.11 215.96 L 317.97 213.03 L 314.82 210.12 L 311.66 207.24 L 308.50 204.39 L 305.34 201.57 L 302.18 198.78 L 299.01 196.02 L 295.85 193.29 L 292.69 190.59 L 289.52 187.93 L 286.37 185.30 L 283.21 182.71 L 280.07 180.16 L 276.92 177.64 L 273.79 175.15 L 270.66 172.71 L 267.54 170.30 L 264.44 167.94 L 261.34 165.61 L 258.25 163.33 "/><path class="arc" d="M 258.25 163.33 L 257.08 165.76 L 255.91 168.21 L 254.74 170.68 L 253.58 173.17 L 252.43 175.67 L 251.29 178.20 L 250.15 180.74 L 249.02 183.30 L 247.90 185.88 L 246.79 188.47 L 245.68 191.08 L 244.58 193.71 L 243.49 196.35 L 242.41 199.01 L 241.33 201.68 L 240.27 204.36 L 239.21 207.06 L 238.16 209.78 L 237.12 212.50 L 236.09 215.24 L 235.07 217.99 L 234.06 220.76 L 233.06 223.53 L 232.07 226.32 L 231.09 229.12 L 230.11 231.92 L 229.15 234.74 L 228.20 237.57 L 227.26 240.40 L 226.33 243.25 L 225.41 246.10 L 224.50 248.96 L 223.61 251.83 L 222.72 254.71 L 221.85 257.59 L 220.98 260.48 L 220.13 263.37 L 219.29 266.27 L 218.46 269.18 L 217.65 272.09 L 216.84 275.00 L 216.05 277.92 L 215.27 280.84 L 214.50 283.76 L 213.75 286.68 L 213.01 289.61 L 212.28 292.54 L 211.56 295.47 L 210.86 298.40 L 210.16 301.33 L 209.49 304.26 L 208.82 307.19 L 208.17 310.12 L 207.53 313.04 L 206.91 315.97 L 206.30 318.89 L 205.70 321.81 L 205.12 324.73 L 204.55 327.64 L 203.99 330.55 L 203.45 333.46 L 202.93 336.36 L 202.41 339.25 L 201.91 342.14 "/><path class="arc" d="M 201.91 342.14 L 205.51 342.77 L 209.13 343.39 L 212.78 344.00 L 216.44 344.60 L 220.13 345.19 L 223.83 345.76 L 227.55 346.33 L 231.30 346.88 L 235.05 347.42 L 238.83 347.95 L 242.62 348.47 L 246.42 348.98 L 250.24 349.47 L 254.07 349.96 L 257.91 350.43 L 261.76 350.89 L 265.62 351.33 L 269.48 351.76 L 273.36 352.18 L 277.24 352.59 L 281.13 352.99 L 285.02 353.37 L 288.92 353.74 L 292.82 354.09 L 296.72 354.43 L 300.62 354.76 L 304.52 355.08 L 308.42 355.38 L 312.32 355.67 L 316.21 355.94 L 320.10 356.20 L 323.99 356.45 L 327.87 356.68 L 331.74 356.90 L 335.61 357.11 L 339.46 357.30 L 343.31 357.48 L 347.15 357.64 L 350.97 357.79 L 354.78 357.92 L 358.58 358.05 L 362.37 358.15 L 366.14 358.24 L 369.89 358.32 L 373.62 358.39 L 377.34 358.43 L 381.04 358.47 L 384.72 358.49 L 388.38 358.50 L 392.01 358.49 L 395.63 358.47 L 399.22 358.43 L 402.79 358.38 L 406.33 358.31 L 409.84 358.23 L 413.33 358.14 L 416.79 358.03 L 420.22 357.91 L 423.62 357.77 L 426.99 357.62 L 430.33 357.46 L 433.64 357.28 L 436.92 357.08 L 440.16 356.88 "/><circle class="sphere" cx="300.00" cy="300.00" r="250.00"/><circle class="point" cx="258.25" cy="163.33" r="12.00"/><text class="label" x="274.25" y="151.33">A</text><circle class="point" cx="201.91" cy="342.14" r="12.00"/><text class="label" x="217.91" y="330.14">B</text><circle class="point" cx="440.16" cy="356.88" r="12.00"/><text class="label" x="456.16" y="344.88">C</text>
</svg>